<?xml version="1.0" encoding="UTF-8" standalone="no"?>
<!-- Created with Inkscape (http://www.inkscape.org/) -->

<svg
   width="7.9375mm"
   height="7.9375mm"
   viewBox="0 0 7.9375 7.9375"
   version="1.1"
   id="svg926"
   inkscape:version="1.1 (c4e8f9ed74, 2021-05-24)"
   sodipodi:docname="minimize-backdrop.svg"
   xmlns:inkscape="http://www.inkscape.org/namespaces/inkscape"
   xmlns:sodipodi="http://sodipodi.sourceforge.net/DTD/sodipodi-0.dtd"
   xmlns="http://www.w3.org/2000/svg"
   xmlns:svg="http://www.w3.org/2000/svg"
   xmlns:rdf="http://www.w3.org/1999/02/22-rdf-syntax-ns#"
   xmlns:cc="http://creativecommons.org/ns#"
   xmlns:dc="http://purl.org/dc/elements/1.1/">
  <defs
     id="defs920" />
  <sodipodi:namedview
     id="base"
     pagecolor="#ffffff"
     bordercolor="#666666"
     borderopacity="1.0"
     inkscape:pageopacity="0.0"
     inkscape:pageshadow="2"
     inkscape:zoom="5.6"
     inkscape:cx="67.5"
     inkscape:cy="5.7142857"
     inkscape:document-units="mm"
     inkscape:current-layer="inactive-center"
     showgrid="false"
     fit-margin-top="0"
     fit-margin-left="0"
     fit-margin-right="0"
     fit-margin-bottom="0"
     inkscape:window-width="2560"
     inkscape:window-height="1367"
     inkscape:window-x="0"
     inkscape:window-y="0"
     inkscape:window-maximized="1"
     inkscape:pagecheckerboard="0" />
  <metadata
     id="metadata923">
    <rdf:RDF>
      <cc:Work
         rdf:about="">
        <dc:format>image/svg+xml</dc:format>
        <dc:type
           rdf:resource="http://purl.org/dc/dcmitype/StillImage" />
        <dc:title />
      </cc:Work>
    </rdf:RDF>
  </metadata>
  <g
     inkscape:label="Layer 1"
     inkscape:groupmode="layer"
     id="layer1"
     transform="translate(-180.48363,-84.388393)">
    <g
       id="inactive-center"
       transform="matrix(0.26458333,0,0,0.26458333,180.48363,84.388393)">
      <rect
         style="opacity:0.7;fill:none;fill-opacity:1;stroke:none;stroke-width:0.6923;stroke-linecap:round;stroke-linejoin:round;stroke-miterlimit:4;stroke-dasharray:none;stroke-dashoffset:0;stroke-opacity:1"
         id="rect1092"
         width="20.769001"
         height="20.769001"
         x="4.6155"
         y="4.6155" />
      <g
         id="g820"
         transform="matrix(1.1538333,0,0,1.1538333,-2.3074998,-2.3074998)">
        <path
           id="path908"
           style="opacity:1;fill:#bdbdbd;fill-opacity:1;stroke:none;stroke-width:1.875;stroke-linecap:round;stroke-linejoin:round;stroke-miterlimit:4;stroke-dasharray:none;stroke-opacity:1;paint-order:stroke markers fill"
           d="M 15,0 C 6.6899999,0 0,6.6899999 0,15 0,23.31 6.6899999,30 15,30 23.31,30 30,23.31 30,15 30,6.6899999 23.31,0 15,0 Z m 0,1.6660156 c 0.230833,0 0.459617,0.0061 0.6875,0.017578 0.227883,0.011477 0.455029,0.028102 0.679688,0.050781 0.224658,0.022679 0.44681,0.052331 0.667968,0.085937 0.221158,0.033606 0.440821,0.07293 0.658203,0.1171875 0.217383,0.044258 0.433152,0.093803 0.646485,0.1484375 0.213332,0.054635 0.423805,0.112998 0.632812,0.1777344 0.209007,0.064736 0.416687,0.1344214 0.621094,0.2089843 0.204407,0.074563 0.405937,0.1541667 0.605469,0.2382813 0.199531,0.084115 0.397416,0.174187 0.591797,0.2675781 0.19438,0.093391 0.385263,0.1905762 0.574218,0.2929688 0.188955,0.1023926 0.37534,0.2091935 0.558594,0.3203125 0.183255,0.111119 0.363737,0.2261328 0.541016,0.3457031 0.177278,0.1195703 0.352409,0.2433472 0.523437,0.3710938 0.171028,0.1277465 0.337451,0.2588834 0.501953,0.3945312 0.164502,0.1356478 0.326674,0.2766479 0.484375,0.4199219 0.157701,0.1432739 0.312266,0.2888281 0.462891,0.4394531 0.150625,0.150625 0.296179,0.3051896 0.439453,0.4628906 0.143274,0.157701 0.284274,0.3198731 0.419922,0.484375 0.135648,0.164502 0.266785,0.3309253 0.394531,0.5019532 0.127747,0.1710278 0.251524,0.3461588 0.371094,0.5234374 0.11957,0.1772787 0.234584,0.3577613 0.345703,0.5410157 0.111119,0.1832544 0.21792,0.3696386 0.320313,0.5585937 0.102392,0.1889551 0.199577,0.3798381 0.292968,0.5742188 0.09339,0.1943807 0.183464,0.3922656 0.267578,0.5917968 0.08411,0.1995318 0.163719,0.4010618 0.238282,0.6054688 0.07456,0.204407 0.144248,0.412087 0.208984,0.621094 0.06474,0.209007 0.1231,0.41948 0.177734,0.632812 0.05463,0.213333 0.10418,0.429102 0.148438,0.646485 0.04426,0.217382 0.08358,0.437045 0.117188,0.658203 0.03361,0.221158 0.06326,0.44331 0.08594,0.667968 0.02268,0.224659 0.0393,0.451805 0.05078,0.679688 0.01148,0.227883 0.01758,0.456667 0.01758,0.6875 0,0.230833 -0.0061,0.459617 -0.01758,0.6875 -0.01148,0.227883 -0.0281,0.455029 -0.05078,0.679688 -0.02268,0.224658 -0.05233,0.44681 -0.08594,0.667968 -0.03361,0.221158 -0.07293,0.440821 -0.117188,0.658203 -0.04426,0.217383 -0.0938,0.433152 -0.148438,0.646485 -0.05463,0.213332 -0.112998,0.423805 -0.177734,0.632812 -0.06474,0.209007 -0.134421,0.416687 -0.208984,0.621094 -0.07456,0.204407 -0.154167,0.405937 -0.238282,0.605469 -0.08411,0.199531 -0.174187,0.397416 -0.267578,0.591797 -0.09339,0.19438 -0.190576,0.385263 -0.292968,0.574218 -0.102393,0.188955 -0.209194,0.37534 -0.320313,0.558594 -0.111119,0.183255 -0.226133,0.363737 -0.345703,0.541016 -0.11957,0.177278 -0.243347,0.352409 -0.371094,0.523437 -0.127746,0.171028 -0.258883,0.337451 -0.394531,0.501953 -0.135648,0.164502 -0.276648,0.326674 -0.419922,0.484375 -0.143274,0.157701 -0.288828,0.312266 -0.439453,0.462891 -0.150625,0.150625 -0.30519,0.296179 -0.462891,0.439453 -0.157701,0.143274 -0.319873,0.284274 -0.484375,0.419922 -0.164502,0.135648 -0.330925,0.266785 -0.501953,0.394531 -0.171028,0.127747 -0.346159,0.251524 -0.523437,0.371094 -0.177279,0.11957 -0.357761,0.234584 -0.541016,0.345703 -0.183254,0.111119 -0.369639,0.21792 -0.558594,0.320313 -0.188955,0.102392 -0.379838,0.199577 -0.574218,0.292968 -0.194381,0.09339 -0.392266,0.183464 -0.591797,0.267578 -0.199532,0.08411 -0.401062,0.163719 -0.605469,0.238282 -0.204407,0.07456 -0.412087,0.144248 -0.621094,0.208984 -0.209007,0.06474 -0.41948,0.1231 -0.632812,0.177734 -0.213333,0.05463 -0.429102,0.10418 -0.646485,0.148438 -0.217382,0.04426 -0.437045,0.08358 -0.658203,0.117188 -0.221158,0.03361 -0.44331,0.06326 -0.667968,0.08594 -0.224659,0.02268 -0.451805,0.0393 -0.679688,0.05078 -0.227883,0.01148 -0.456667,0.01758 -0.6875,0.01758 -0.230833,0 -0.459617,-0.0061 -0.6875,-0.01758 -0.227883,-0.01148 -0.455029,-0.0281 -0.679688,-0.05078 -0.224658,-0.02268 -0.44681,-0.05233 -0.667968,-0.08594 -0.221158,-0.03361 -0.440821,-0.07293 -0.658203,-0.117188 -0.217383,-0.04426 -0.433152,-0.0938 -0.646485,-0.148438 -0.213332,-0.05463 -0.423805,-0.112998 -0.632812,-0.177734 C 10.818337,27.671592 10.610657,27.601907 10.40625,27.527344 10.201843,27.452781 10.000313,27.373177 9.8007812,27.289062 9.60125,27.204948 9.4033651,27.114875 9.2089844,27.021484 9.0146037,26.928093 8.8237207,26.830908 8.6347656,26.728516 8.4458105,26.626123 8.2594263,26.519322 8.0761719,26.408203 7.8929175,26.297084 7.7124349,26.18207 7.5351562,26.0625 7.3578776,25.94293 7.1827466,25.819153 7.0117188,25.691406 6.8406909,25.56366 6.6742676,25.432523 6.5097656,25.296875 6.3452637,25.161227 6.1830916,25.020227 6.0253906,24.876953 5.8676896,24.733679 5.713125,24.588125 5.5625,24.4375 5.411875,24.286875 5.2663208,24.13231 5.1230469,23.974609 4.9797729,23.816908 4.8387728,23.654736 4.703125,23.490234 4.5674772,23.325732 4.4363403,23.159309 4.3085938,22.988281 4.1808472,22.817253 4.0570703,22.642122 3.9375,22.464844 3.8179297,22.287565 3.7029159,22.107083 3.5917969,21.923828 3.4806779,21.740574 3.373877,21.554189 3.2714844,21.365234 3.1690918,21.176279 3.0719067,20.985396 2.9785156,20.791016 2.8851245,20.596635 2.7950521,20.39875 2.7109375,20.199219 2.6268229,19.999687 2.5472192,19.798157 2.4726562,19.59375 2.3980933,19.389343 2.3284082,19.181663 2.2636719,18.972656 2.1989355,18.763649 2.1405721,18.553176 2.0859375,18.339844 2.0313029,18.126511 1.9817578,17.910742 1.9375,17.693359 1.8932422,17.475977 1.8539185,17.256314 1.8203125,17.035156 1.7867065,16.813998 1.757054,16.591846 1.734375,16.367188 1.711696,16.142529 1.6950708,15.915383 1.6835938,15.6875 1.6721167,15.459617 1.6660156,15.230833 1.6660156,15 c 0,-0.230833 0.0061,-0.459617 0.017578,-0.6875 0.011477,-0.227883 0.028102,-0.455029 0.050781,-0.679688 0.022679,-0.224658 0.052331,-0.44681 0.085937,-0.667968 0.033606,-0.221158 0.07293,-0.440821 0.1171875,-0.658203 0.044258,-0.217383 0.093803,-0.433152 0.1484375,-0.646485 0.054635,-0.213332 0.112998,-0.423805 0.1777344,-0.632812 C 2.3284082,10.818337 2.3980933,10.610657 2.4726562,10.40625 2.5472192,10.201843 2.6268229,10.000313 2.7109375,9.8007812 2.7950521,9.60125 2.8851245,9.4033651 2.9785156,9.2089844 3.0719067,9.0146037 3.1690918,8.8237207 3.2714844,8.6347656 3.373877,8.4458105 3.4806779,8.2594263 3.5917969,8.0761719 3.7029159,7.8929175 3.8179297,7.7124349 3.9375,7.5351562 4.0570703,7.3578776 4.1808472,7.1827466 4.3085938,7.0117188 4.4363403,6.8406909 4.5674772,6.6742676 4.703125,6.5097656 4.8387728,6.3452637 4.9797729,6.1830916 5.1230469,6.0253906 5.2663208,5.8676896 5.411875,5.713125 5.5625,5.5625 5.713125,5.411875 5.8676896,5.2663208 6.0253906,5.1230469 6.1830916,4.9797729 6.3452637,4.8387728 6.5097656,4.703125 6.6742676,4.5674772 6.8406909,4.4363403 7.0117188,4.3085938 7.1827466,4.1808472 7.3578776,4.0570703 7.5351562,3.9375 7.7124349,3.8179297 7.8929175,3.7029159 8.0761719,3.5917969 8.2594263,3.4806779 8.4458105,3.373877 8.6347656,3.2714844 8.8237207,3.1690918 9.0146037,3.0719067 9.2089844,2.9785156 9.4033651,2.8851245 9.60125,2.7950521 9.8007812,2.7109375 10.000313,2.6268229 10.201843,2.5472192 10.40625,2.4726562 c 0.204407,-0.074563 0.412087,-0.144248 0.621094,-0.2089843 0.209007,-0.064736 0.41948,-0.1230998 0.632812,-0.1777344 0.213333,-0.054635 0.429102,-0.1041797 0.646485,-0.1484375 0.217382,-0.044258 0.437045,-0.083581 0.658203,-0.1171875 0.221158,-0.033606 0.44331,-0.063259 0.667968,-0.085937 0.224659,-0.022679 0.451805,-0.039304 0.679688,-0.050781 0.227883,-0.011477 0.456667,-0.017578 0.6875,-0.017578 z"
           transform="matrix(0.6,0,0,0.6,5.9999999,5.9999999)" />
        <path
           style="fill:#bdbdbd;fill-opacity:1;fill-rule:evenodd;stroke:#bdbdbd;stroke-width:2;stroke-linecap:round;stroke-linejoin:round;stroke-miterlimit:4;stroke-dasharray:none;stroke-opacity:1"
           d="m 11.999879,14.000067 3,4 3,-4 z"
           id="path1096"
           inkscape:connector-curvature="0"
           sodipodi:nodetypes="cccc" />
      </g>
    </g>
  </g>
</svg>
