<?xml version="1.0" encoding="UTF-8" standalone="no"?>
<!-- Created with Inkscape (http://www.inkscape.org/) -->

<svg
   width="7.9375mm"
   height="7.9375mm"
   viewBox="0 0 7.9375 7.9375"
   version="1.1"
   id="svg926"
   inkscape:version="1.1 (c4e8f9ed74, 2021-05-24)"
   sodipodi:docname="close-hover.svg"
   xmlns:inkscape="http://www.inkscape.org/namespaces/inkscape"
   xmlns:sodipodi="http://sodipodi.sourceforge.net/DTD/sodipodi-0.dtd"
   xmlns="http://www.w3.org/2000/svg"
   xmlns:svg="http://www.w3.org/2000/svg"
   xmlns:rdf="http://www.w3.org/1999/02/22-rdf-syntax-ns#"
   xmlns:cc="http://creativecommons.org/ns#"
   xmlns:dc="http://purl.org/dc/elements/1.1/">
  <defs
     id="defs920" />
  <sodipodi:namedview
     id="base"
     pagecolor="#ffffff"
     bordercolor="#666666"
     borderopacity="1.0"
     inkscape:pageopacity="0.0"
     inkscape:pageshadow="2"
     inkscape:zoom="15.839192"
     inkscape:cx="1.9887378"
     inkscape:cy="8.270624"
     inkscape:document-units="mm"
     inkscape:current-layer="g832"
     showgrid="false"
     fit-margin-top="0"
     fit-margin-left="0"
     fit-margin-right="0"
     fit-margin-bottom="0"
     inkscape:window-width="2560"
     inkscape:window-height="1367"
     inkscape:window-x="0"
     inkscape:window-y="0"
     inkscape:window-maximized="1"
     inkscape:pagecheckerboard="0"
     units="px" />
  <metadata
     id="metadata923">
    <rdf:RDF>
      <cc:Work
         rdf:about="">
        <dc:format>image/svg+xml</dc:format>
        <dc:type
           rdf:resource="http://purl.org/dc/dcmitype/StillImage" />
      </cc:Work>
    </rdf:RDF>
  </metadata>
  <g
     inkscape:label="Layer 1"
     inkscape:groupmode="layer"
     id="layer1"
     transform="translate(-180.48363,-84.388393)">
    <g
       id="hover-center"
       transform="matrix(0.26458333,0,0,0.26458333,180.48363,84.388393)">
      <rect
         style="opacity:0.7;fill:none;fill-opacity:1;stroke:none;stroke-width:1;stroke-linecap:round;stroke-linejoin:round;stroke-miterlimit:4;stroke-dasharray:none;stroke-dashoffset:0;stroke-opacity:1"
         id="rect922"
         width="30"
         height="30"
         x="0"
         y="0" />
      <g
         id="g832"
         transform="matrix(1.25,0,0,1.25,-3.7500002,-3.7500002)">
        <rect
           style="opacity:0.02999998;fill:#d81b60;fill-opacity:1;stroke:none;stroke-width:1.5;stroke-linecap:round;stroke-linejoin:round;stroke-miterlimit:4;stroke-dasharray:none;stroke-opacity:1;paint-order:stroke markers fill"
           id="rect900"
           width="24"
           height="24"
           x="3"
           y="3"
           ry="12" />
        <path
           id="rect890"
           style="opacity:0.07;fill:#d81b60;fill-opacity:1;stroke:none;stroke-width:1.875;stroke-linecap:round;stroke-linejoin:round;stroke-miterlimit:4;stroke-dasharray:none;stroke-opacity:1;paint-order:stroke markers fill"
           d="M 15 5 C 14.826875 5 14.655287 5.0050641 14.484375 5.0136719 C 14.313463 5.0222797 14.143103 5.0337723 13.974609 5.0507812 C 13.806116 5.0677905 13.638525 5.0900299 13.472656 5.1152344 C 13.306788 5.1404388 13.143506 5.1699316 12.980469 5.203125 C 12.817432 5.2363184 12.656093 5.2734772 12.496094 5.3144531 C 12.336094 5.3554291 12.176287 5.3987134 12.019531 5.4472656 C 11.862776 5.4958179 11.70799 5.5495465 11.554688 5.6054688 C 11.401382 5.6613907 11.249258 5.7201172 11.099609 5.7832031 C 10.949961 5.8462891 10.802036 5.9123785 10.65625 5.9824219 C 10.510464 6.0524652 10.368279 6.1263306 10.226562 6.203125 C 10.084849 6.2799194 9.9440814 6.3600201 9.8066406 6.4433594 C 9.6691998 6.5266986 9.5333496 6.6134473 9.4003906 6.703125 C 9.2674316 6.7928027 9.1380365 6.8866119 9.0097656 6.9824219 C 8.8814948 7.0782318 8.756189 7.1756079 8.6328125 7.2773438 C 8.509436 7.3790793 8.387807 7.4843414 8.2695312 7.5917969 C 8.1512558 7.6992523 8.0348437 7.8089063 7.921875 7.921875 C 7.8089063 8.0348437 7.6992523 8.1512558 7.5917969 8.2695312 C 7.4843414 8.387807 7.3790793 8.509436 7.2773438 8.6328125 C 7.1756079 8.756189 7.0782318 8.8814948 6.9824219 9.0097656 C 6.8866119 9.1380365 6.7928027 9.2674316 6.703125 9.4003906 C 6.6134473 9.5333496 6.5266986 9.6691998 6.4433594 9.8066406 C 6.3600201 9.9440814 6.2799194 10.084849 6.203125 10.226562 C 6.1263306 10.368279 6.0524652 10.510464 5.9824219 10.65625 C 5.9123785 10.802036 5.8462891 10.949961 5.7832031 11.099609 C 5.7201172 11.249258 5.6613907 11.401382 5.6054688 11.554688 C 5.5495465 11.70799 5.4958179 11.862776 5.4472656 12.019531 C 5.3987134 12.176287 5.3554291 12.336094 5.3144531 12.496094 C 5.2734772 12.656093 5.2363184 12.817432 5.203125 12.980469 C 5.1699316 13.143506 5.1404388 13.306788 5.1152344 13.472656 C 5.0900299 13.638525 5.0677905 13.806116 5.0507812 13.974609 C 5.0337723 14.143103 5.0222797 14.313463 5.0136719 14.484375 C 5.0050641 14.655287 5 14.826875 5 15 C 5 15.173125 5.0050641 15.344713 5.0136719 15.515625 C 5.0222797 15.686537 5.0337723 15.856897 5.0507812 16.025391 C 5.0677905 16.193884 5.0900299 16.361475 5.1152344 16.527344 C 5.1404388 16.693212 5.1699316 16.856494 5.203125 17.019531 C 5.2363184 17.182568 5.2734772 17.343907 5.3144531 17.503906 C 5.3554291 17.663906 5.3987134 17.823713 5.4472656 17.980469 C 5.4958179 18.137224 5.5495465 18.29201 5.6054688 18.445312 C 5.6613907 18.598618 5.7201172 18.750742 5.7832031 18.900391 C 5.8462891 19.050039 5.9123785 19.197964 5.9824219 19.34375 C 6.0524652 19.489536 6.1263306 19.631721 6.203125 19.773438 C 6.2799194 19.915151 6.3600201 20.055919 6.4433594 20.193359 C 6.5266986 20.3308 6.6134473 20.464697 6.703125 20.597656 C 6.7928027 20.730615 6.8866119 20.861964 6.9824219 20.990234 C 7.0782318 21.118505 7.1756079 21.243811 7.2773438 21.367188 C 7.3790793 21.490561 7.4843414 21.612193 7.5917969 21.730469 C 7.6992523 21.848745 7.8089063 21.965156 7.921875 22.078125 C 8.0348437 22.191094 8.1512558 22.300748 8.2695312 22.408203 C 8.387807 22.515659 8.509436 22.62092 8.6328125 22.722656 C 8.756189 22.824392 8.8814948 22.921768 9.0097656 23.017578 C 9.1380365 23.113388 9.2674316 23.207197 9.4003906 23.296875 C 9.5333496 23.386553 9.6691998 23.473301 9.8066406 23.556641 C 9.9440814 23.63998 10.084849 23.720081 10.226562 23.796875 C 10.368279 23.873669 10.510464 23.947535 10.65625 24.017578 C 10.802036 24.087621 10.949961 24.153711 11.099609 24.216797 C 11.249258 24.279883 11.401382 24.338609 11.554688 24.394531 C 11.70799 24.450453 11.862776 24.504182 12.019531 24.552734 C 12.176287 24.601287 12.336094 24.644571 12.496094 24.685547 C 12.656093 24.726523 12.817432 24.763682 12.980469 24.796875 C 13.143506 24.830068 13.306788 24.859561 13.472656 24.884766 C 13.638525 24.90997 13.806116 24.932209 13.974609 24.949219 C 14.143103 24.966228 14.313463 24.97772 14.484375 24.986328 C 14.655287 24.994936 14.826875 25 15 25 C 15.173125 25 15.344713 24.994936 15.515625 24.986328 C 15.686537 24.97772 15.856897 24.966228 16.025391 24.949219 C 16.193884 24.932209 16.361475 24.90997 16.527344 24.884766 C 16.693212 24.859561 16.856494 24.830068 17.019531 24.796875 C 17.182568 24.763682 17.343907 24.726523 17.503906 24.685547 C 17.663906 24.644571 17.823713 24.601287 17.980469 24.552734 C 18.137224 24.504182 18.29201 24.450453 18.445312 24.394531 C 18.598618 24.338609 18.750742 24.279883 18.900391 24.216797 C 19.050039 24.153711 19.197964 24.087621 19.34375 24.017578 C 19.489536 23.947535 19.631721 23.873669 19.773438 23.796875 C 19.915151 23.720081 20.055919 23.63998 20.193359 23.556641 C 20.3308 23.473301 20.464697 23.386553 20.597656 23.296875 C 20.730615 23.207197 20.861964 23.113388 20.990234 23.017578 C 21.118505 22.921768 21.243811 22.824392 21.367188 22.722656 C 21.490561 22.62092 21.612193 22.515659 21.730469 22.408203 C 21.848745 22.300748 21.965156 22.191094 22.078125 22.078125 C 22.191094 21.965156 22.300748 21.848745 22.408203 21.730469 C 22.515659 21.612193 22.62092 21.490561 22.722656 21.367188 C 22.824392 21.243811 22.921768 21.118505 23.017578 20.990234 C 23.113388 20.861964 23.207197 20.730615 23.296875 20.597656 C 23.386553 20.464697 23.473301 20.3308 23.556641 20.193359 C 23.63998 20.055919 23.720081 19.915151 23.796875 19.773438 C 23.873669 19.631721 23.947535 19.489536 24.017578 19.34375 C 24.087621 19.197964 24.153711 19.050039 24.216797 18.900391 C 24.279883 18.750742 24.338609 18.598618 24.394531 18.445312 C 24.450453 18.29201 24.504182 18.137224 24.552734 17.980469 C 24.601287 17.823713 24.644571 17.663906 24.685547 17.503906 C 24.726523 17.343907 24.763682 17.182568 24.796875 17.019531 C 24.830068 16.856494 24.859561 16.693212 24.884766 16.527344 C 24.90997 16.361475 24.932209 16.193884 24.949219 16.025391 C 24.966228 15.856897 24.97772 15.686537 24.986328 15.515625 C 24.994936 15.344713 25 15.173125 25 15 C 25 14.826875 24.994936 14.655287 24.986328 14.484375 C 24.97772 14.313463 24.966228 14.143103 24.949219 13.974609 C 24.932209 13.806116 24.90997 13.638525 24.884766 13.472656 C 24.859561 13.306788 24.830068 13.143506 24.796875 12.980469 C 24.763682 12.817432 24.726523 12.656093 24.685547 12.496094 C 24.644571 12.336094 24.601287 12.176287 24.552734 12.019531 C 24.504182 11.862776 24.450453 11.70799 24.394531 11.554688 C 24.338609 11.401382 24.279883 11.249258 24.216797 11.099609 C 24.153711 10.949961 24.087621 10.802036 24.017578 10.65625 C 23.947535 10.510464 23.873669 10.368279 23.796875 10.226562 C 23.720081 10.084849 23.63998 9.9440814 23.556641 9.8066406 C 23.473301 9.6691998 23.386553 9.5333496 23.296875 9.4003906 C 23.207197 9.2674316 23.113388 9.1380365 23.017578 9.0097656 C 22.921768 8.8814948 22.824392 8.756189 22.722656 8.6328125 C 22.62092 8.509436 22.515659 8.387807 22.408203 8.2695312 C 22.300748 8.1512558 22.191094 8.0348437 22.078125 7.921875 C 21.965156 7.8089063 21.848745 7.6992523 21.730469 7.5917969 C 21.612193 7.4843414 21.490561 7.3790793 21.367188 7.2773438 C 21.243811 7.1756079 21.118505 7.0782318 20.990234 6.9824219 C 20.861964 6.8866119 20.730615 6.7928027 20.597656 6.703125 C 20.464697 6.6134473 20.3308 6.5266986 20.193359 6.4433594 C 20.055919 6.3600201 19.915151 6.2799194 19.773438 6.203125 C 19.631721 6.1263306 19.489536 6.0524652 19.34375 5.9824219 C 19.197964 5.9123785 19.050039 5.8462891 18.900391 5.7832031 C 18.750742 5.7201172 18.598618 5.6613907 18.445312 5.6054688 C 18.29201 5.5495465 18.137224 5.4958179 17.980469 5.4472656 C 17.823713 5.3987134 17.663906 5.3554291 17.503906 5.3144531 C 17.343907 5.2734772 17.182568 5.2363184 17.019531 5.203125 C 16.856494 5.1699316 16.693212 5.1404388 16.527344 5.1152344 C 16.361475 5.0900299 16.193884 5.0677905 16.025391 5.0507812 C 15.856897 5.0337723 15.686537 5.0222797 15.515625 5.0136719 C 15.344713 5.0050641 15.173125 5 15 5 z "
           transform="matrix(0.80000001,0,0,0.80000001,3.0000002,3.0000002)" />
        <path
           id="path1723"
           style="opacity:0.07;fill:#d81b60;fill-opacity:1;stroke:none;stroke-width:1.875;stroke-linecap:round;stroke-linejoin:round;stroke-miterlimit:4;stroke-dasharray:none;stroke-opacity:1;paint-order:stroke markers fill"
           d="M 15 0 C 6.6900001 0 0 6.6900001 0 15 C 0 23.31 6.6900001 30 15 30 C 23.31 30 30 23.31 30 15 C 30 6.6900001 23.31 0 15 0 z M 15 5 C 15.173125 5 15.344713 5.0050641 15.515625 5.0136719 C 15.686537 5.0222797 15.856897 5.0337723 16.025391 5.0507812 C 16.193884 5.0677905 16.361475 5.0900299 16.527344 5.1152344 C 16.693212 5.1404388 16.856494 5.1699316 17.019531 5.203125 C 17.182568 5.2363184 17.343907 5.2734772 17.503906 5.3144531 C 17.663906 5.3554291 17.823713 5.3987134 17.980469 5.4472656 C 18.137224 5.4958179 18.29201 5.5495465 18.445312 5.6054688 C 18.598618 5.6613907 18.750742 5.7201172 18.900391 5.7832031 C 19.050039 5.8462891 19.197964 5.9123785 19.34375 5.9824219 C 19.489536 6.0524652 19.631721 6.1263306 19.773438 6.203125 C 19.915151 6.2799194 20.055919 6.3600201 20.193359 6.4433594 C 20.3308 6.5266986 20.464697 6.6134473 20.597656 6.703125 C 20.730615 6.7928027 20.861964 6.8866119 20.990234 6.9824219 C 21.118505 7.0782318 21.243811 7.1756079 21.367188 7.2773438 C 21.490561 7.3790793 21.612193 7.4843414 21.730469 7.5917969 C 21.848745 7.6992523 21.965156 7.8089063 22.078125 7.921875 C 22.191094 8.0348437 22.300748 8.1512558 22.408203 8.2695312 C 22.515659 8.387807 22.62092 8.509436 22.722656 8.6328125 C 22.824392 8.756189 22.921768 8.8814948 23.017578 9.0097656 C 23.113388 9.1380365 23.207197 9.2674316 23.296875 9.4003906 C 23.386553 9.5333496 23.473301 9.6691998 23.556641 9.8066406 C 23.63998 9.9440814 23.720081 10.084849 23.796875 10.226562 C 23.873669 10.368279 23.947535 10.510464 24.017578 10.65625 C 24.087621 10.802036 24.153711 10.949961 24.216797 11.099609 C 24.279883 11.249258 24.338609 11.401382 24.394531 11.554688 C 24.450453 11.70799 24.504182 11.862776 24.552734 12.019531 C 24.601287 12.176287 24.644571 12.336094 24.685547 12.496094 C 24.726523 12.656093 24.763682 12.817432 24.796875 12.980469 C 24.830068 13.143506 24.859561 13.306788 24.884766 13.472656 C 24.90997 13.638525 24.932209 13.806116 24.949219 13.974609 C 24.966228 14.143103 24.97772 14.313463 24.986328 14.484375 C 24.994936 14.655287 25 14.826875 25 15 C 25 15.173125 24.994936 15.344713 24.986328 15.515625 C 24.97772 15.686537 24.966228 15.856897 24.949219 16.025391 C 24.932209 16.193884 24.90997 16.361475 24.884766 16.527344 C 24.859561 16.693212 24.830068 16.856494 24.796875 17.019531 C 24.763682 17.182568 24.726523 17.343907 24.685547 17.503906 C 24.644571 17.663906 24.601287 17.823713 24.552734 17.980469 C 24.504182 18.137224 24.450453 18.29201 24.394531 18.445312 C 24.338609 18.598618 24.279883 18.750742 24.216797 18.900391 C 24.153711 19.050039 24.087621 19.197964 24.017578 19.34375 C 23.947535 19.489536 23.873669 19.631721 23.796875 19.773438 C 23.720081 19.915151 23.63998 20.055919 23.556641 20.193359 C 23.473301 20.3308 23.386553 20.464697 23.296875 20.597656 C 23.207197 20.730615 23.113388 20.861964 23.017578 20.990234 C 22.921768 21.118505 22.824392 21.243811 22.722656 21.367188 C 22.62092 21.490561 22.515659 21.612193 22.408203 21.730469 C 22.300748 21.848745 22.191094 21.965156 22.078125 22.078125 C 21.965156 22.191094 21.848745 22.300748 21.730469 22.408203 C 21.612193 22.515659 21.490561 22.62092 21.367188 22.722656 C 21.243811 22.824392 21.118505 22.921768 20.990234 23.017578 C 20.861964 23.113388 20.730615 23.207197 20.597656 23.296875 C 20.464697 23.386553 20.3308 23.473301 20.193359 23.556641 C 20.055919 23.63998 19.915151 23.720081 19.773438 23.796875 C 19.631721 23.873669 19.489536 23.947535 19.34375 24.017578 C 19.197964 24.087621 19.050039 24.153711 18.900391 24.216797 C 18.750742 24.279883 18.598618 24.338609 18.445312 24.394531 C 18.29201 24.450453 18.137224 24.504182 17.980469 24.552734 C 17.823713 24.601287 17.663906 24.644571 17.503906 24.685547 C 17.343907 24.726523 17.182568 24.763682 17.019531 24.796875 C 16.856494 24.830068 16.693212 24.859561 16.527344 24.884766 C 16.361475 24.90997 16.193884 24.932209 16.025391 24.949219 C 15.856897 24.966228 15.686537 24.97772 15.515625 24.986328 C 15.344713 24.994936 15.173125 25 15 25 C 14.826875 25 14.655287 24.994936 14.484375 24.986328 C 14.313463 24.97772 14.143103 24.966228 13.974609 24.949219 C 13.806116 24.932209 13.638525 24.90997 13.472656 24.884766 C 13.306788 24.859561 13.143506 24.830068 12.980469 24.796875 C 12.817432 24.763682 12.656093 24.726523 12.496094 24.685547 C 12.336094 24.644571 12.176287 24.601287 12.019531 24.552734 C 11.862776 24.504182 11.70799 24.450453 11.554688 24.394531 C 11.401382 24.338609 11.249258 24.279883 11.099609 24.216797 C 10.949961 24.153711 10.802036 24.087621 10.65625 24.017578 C 10.510464 23.947535 10.368279 23.873669 10.226562 23.796875 C 10.084849 23.720081 9.9440814 23.63998 9.8066406 23.556641 C 9.6691998 23.473301 9.5333496 23.386553 9.4003906 23.296875 C 9.2674316 23.207197 9.1380365 23.113388 9.0097656 23.017578 C 8.8814948 22.921768 8.756189 22.824392 8.6328125 22.722656 C 8.509436 22.62092 8.387807 22.515659 8.2695312 22.408203 C 8.1512558 22.300748 8.0348437 22.191094 7.921875 22.078125 C 7.8089063 21.965156 7.6992523 21.848745 7.5917969 21.730469 C 7.4843414 21.612193 7.3790793 21.490561 7.2773438 21.367188 C 7.1756079 21.243811 7.0782318 21.118505 6.9824219 20.990234 C 6.8866119 20.861964 6.7928027 20.730615 6.703125 20.597656 C 6.6134473 20.464697 6.5266986 20.3308 6.4433594 20.193359 C 6.3600201 20.055919 6.2799194 19.915151 6.203125 19.773438 C 6.1263306 19.631721 6.0524652 19.489536 5.9824219 19.34375 C 5.9123785 19.197964 5.8462891 19.050039 5.7832031 18.900391 C 5.7201172 18.750742 5.6613907 18.598618 5.6054688 18.445312 C 5.5495465 18.29201 5.4958179 18.137224 5.4472656 17.980469 C 5.3987134 17.823713 5.3554291 17.663906 5.3144531 17.503906 C 5.2734772 17.343907 5.2363184 17.182568 5.203125 17.019531 C 5.1699316 16.856494 5.1404388 16.693212 5.1152344 16.527344 C 5.0900299 16.361475 5.0677905 16.193884 5.0507812 16.025391 C 5.0337723 15.856897 5.0222797 15.686537 5.0136719 15.515625 C 5.0050641 15.344713 5 15.173125 5 15 C 5 14.826875 5.0050641 14.655287 5.0136719 14.484375 C 5.0222797 14.313463 5.0337723 14.143103 5.0507812 13.974609 C 5.0677905 13.806116 5.0900299 13.638525 5.1152344 13.472656 C 5.1404388 13.306788 5.1699316 13.143506 5.203125 12.980469 C 5.2363184 12.817432 5.2734772 12.656093 5.3144531 12.496094 C 5.3554291 12.336094 5.3987134 12.176287 5.4472656 12.019531 C 5.4958179 11.862776 5.5495465 11.70799 5.6054688 11.554688 C 5.6613907 11.401382 5.7201172 11.249258 5.7832031 11.099609 C 5.8462891 10.949961 5.9123785 10.802036 5.9824219 10.65625 C 6.0524652 10.510464 6.1263306 10.368279 6.203125 10.226562 C 6.2799194 10.084849 6.3600201 9.9440814 6.4433594 9.8066406 C 6.5266986 9.6691998 6.6134473 9.5333496 6.703125 9.4003906 C 6.7928027 9.2674316 6.8866119 9.1380365 6.9824219 9.0097656 C 7.0782318 8.8814948 7.1756079 8.756189 7.2773438 8.6328125 C 7.3790793 8.509436 7.4843414 8.387807 7.5917969 8.2695312 C 7.6992523 8.1512558 7.8089063 8.0348437 7.921875 7.921875 C 8.0348437 7.8089063 8.1512558 7.6992523 8.2695312 7.5917969 C 8.387807 7.4843414 8.509436 7.3790793 8.6328125 7.2773438 C 8.756189 7.1756079 8.8814948 7.0782318 9.0097656 6.9824219 C 9.1380365 6.8866119 9.2674316 6.7928027 9.4003906 6.703125 C 9.5333496 6.6134473 9.6691998 6.5266986 9.8066406 6.4433594 C 9.9440814 6.3600201 10.084849 6.2799194 10.226562 6.203125 C 10.368279 6.1263306 10.510464 6.0524652 10.65625 5.9824219 C 10.802036 5.9123785 10.949961 5.8462891 11.099609 5.7832031 C 11.249258 5.7201172 11.401382 5.6613907 11.554688 5.6054688 C 11.70799 5.5495465 11.862776 5.4958179 12.019531 5.4472656 C 12.176287 5.3987134 12.336094 5.3554291 12.496094 5.3144531 C 12.656093 5.2734772 12.817432 5.2363184 12.980469 5.203125 C 13.143506 5.1699316 13.306788 5.1404388 13.472656 5.1152344 C 13.638525 5.0900299 13.806116 5.0677905 13.974609 5.0507812 C 14.143103 5.0337723 14.313463 5.0222797 14.484375 5.0136719 C 14.655287 5.0050641 14.826875 5 15 5 z "
           transform="matrix(0.80000001,0,0,0.80000001,3.0000002,3.0000002)" />
        <path
           id="path1720"
           style="opacity:0.15;fill:#d81b60;fill-opacity:1;stroke:none;stroke-width:1.71875;stroke-linecap:round;stroke-linejoin:round;stroke-miterlimit:4;stroke-dasharray:none;stroke-opacity:1;paint-order:stroke markers fill"
           d="M 15 1.25 C 7.3825001 1.25 1.25 7.3825001 1.25 15 C 1.25 22.6175 7.3825001 28.75 15 28.75 C 22.6175 28.75 28.75 22.6175 28.75 15 C 28.75 7.3825001 22.6175 1.25 15 1.25 z M 15 5 C 15.173125 5 15.344713 5.0050641 15.515625 5.0136719 C 15.686537 5.0222797 15.856897 5.0337722 16.025391 5.0507812 C 16.193884 5.0677905 16.361475 5.0900299 16.527344 5.1152344 C 16.693212 5.1404388 16.856494 5.1699316 17.019531 5.203125 C 17.182568 5.2363184 17.343907 5.2734772 17.503906 5.3144531 C 17.663906 5.3554291 17.823713 5.3987134 17.980469 5.4472656 C 18.137224 5.4958179 18.292009 5.5495465 18.445312 5.6054688 C 18.598618 5.6613908 18.750742 5.7201172 18.900391 5.7832031 C 19.050039 5.8462891 19.197964 5.9123785 19.34375 5.9824219 C 19.489536 6.0524652 19.631721 6.1263306 19.773438 6.203125 C 19.915152 6.2799194 20.055919 6.3600201 20.193359 6.4433594 C 20.3308 6.5266986 20.464697 6.6134473 20.597656 6.703125 C 20.730615 6.7928027 20.861964 6.8866119 20.990234 6.9824219 C 21.118505 7.0782318 21.243811 7.1756079 21.367188 7.2773438 C 21.490562 7.3790794 21.612193 7.4843414 21.730469 7.5917969 C 21.848745 7.6992523 21.965156 7.8089063 22.078125 7.921875 C 22.191094 8.0348437 22.300748 8.1512557 22.408203 8.2695312 C 22.515659 8.387807 22.62092 8.509436 22.722656 8.6328125 C 22.824392 8.756189 22.921768 8.8814948 23.017578 9.0097656 C 23.113388 9.1380365 23.207197 9.2674316 23.296875 9.4003906 C 23.386553 9.5333496 23.473301 9.6691998 23.556641 9.8066406 C 23.63998 9.9440814 23.720081 10.084848 23.796875 10.226562 C 23.873669 10.368279 23.947535 10.510464 24.017578 10.65625 C 24.087621 10.802036 24.153711 10.949961 24.216797 11.099609 C 24.279883 11.249258 24.338609 11.401382 24.394531 11.554688 C 24.450453 11.707991 24.504182 11.862776 24.552734 12.019531 C 24.601287 12.176287 24.644571 12.336094 24.685547 12.496094 C 24.726523 12.656093 24.763682 12.817432 24.796875 12.980469 C 24.830068 13.143506 24.859561 13.306788 24.884766 13.472656 C 24.90997 13.638525 24.932209 13.806116 24.949219 13.974609 C 24.966228 14.143103 24.97772 14.313463 24.986328 14.484375 C 24.994936 14.655287 25 14.826875 25 15 C 25 15.173125 24.994936 15.344713 24.986328 15.515625 C 24.97772 15.686537 24.966228 15.856897 24.949219 16.025391 C 24.932209 16.193884 24.90997 16.361475 24.884766 16.527344 C 24.859561 16.693212 24.830068 16.856494 24.796875 17.019531 C 24.763682 17.182568 24.726523 17.343907 24.685547 17.503906 C 24.644571 17.663906 24.601287 17.823713 24.552734 17.980469 C 24.504182 18.137224 24.450453 18.292009 24.394531 18.445312 C 24.338609 18.598618 24.279883 18.750742 24.216797 18.900391 C 24.153711 19.050039 24.087621 19.197964 24.017578 19.34375 C 23.947535 19.489536 23.873669 19.631721 23.796875 19.773438 C 23.720081 19.915152 23.63998 20.055919 23.556641 20.193359 C 23.473301 20.3308 23.386553 20.464697 23.296875 20.597656 C 23.207197 20.730615 23.113388 20.861964 23.017578 20.990234 C 22.921768 21.118505 22.824392 21.243811 22.722656 21.367188 C 22.62092 21.490562 22.515659 21.612193 22.408203 21.730469 C 22.300748 21.848745 22.191094 21.965156 22.078125 22.078125 C 21.965156 22.191094 21.848745 22.300748 21.730469 22.408203 C 21.612193 22.515659 21.490562 22.62092 21.367188 22.722656 C 21.243811 22.824392 21.118505 22.921768 20.990234 23.017578 C 20.861964 23.113388 20.730615 23.207197 20.597656 23.296875 C 20.464697 23.386553 20.3308 23.473301 20.193359 23.556641 C 20.055919 23.63998 19.915152 23.720081 19.773438 23.796875 C 19.631721 23.873669 19.489536 23.947535 19.34375 24.017578 C 19.197964 24.087621 19.050039 24.153711 18.900391 24.216797 C 18.750742 24.279883 18.598618 24.338609 18.445312 24.394531 C 18.292009 24.450453 18.137224 24.504182 17.980469 24.552734 C 17.823713 24.601287 17.663906 24.644571 17.503906 24.685547 C 17.343907 24.726523 17.182568 24.763682 17.019531 24.796875 C 16.856494 24.830068 16.693212 24.859561 16.527344 24.884766 C 16.361475 24.90997 16.193884 24.932209 16.025391 24.949219 C 15.856897 24.966228 15.686537 24.97772 15.515625 24.986328 C 15.344713 24.994936 15.173125 25 15 25 C 14.826875 25 14.655287 24.994936 14.484375 24.986328 C 14.313463 24.97772 14.143103 24.966228 13.974609 24.949219 C 13.806116 24.932209 13.638525 24.90997 13.472656 24.884766 C 13.306788 24.859561 13.143506 24.830068 12.980469 24.796875 C 12.817432 24.763682 12.656093 24.726523 12.496094 24.685547 C 12.336094 24.644571 12.176287 24.601287 12.019531 24.552734 C 11.862776 24.504182 11.707991 24.450453 11.554688 24.394531 C 11.401382 24.338609 11.249258 24.279883 11.099609 24.216797 C 10.949961 24.153711 10.802036 24.087621 10.65625 24.017578 C 10.510464 23.947535 10.368279 23.873669 10.226562 23.796875 C 10.084848 23.720081 9.9440814 23.63998 9.8066406 23.556641 C 9.6691998 23.473301 9.5333496 23.386553 9.4003906 23.296875 C 9.2674316 23.207197 9.1380365 23.113388 9.0097656 23.017578 C 8.8814948 22.921768 8.756189 22.824392 8.6328125 22.722656 C 8.509436 22.62092 8.387807 22.515659 8.2695312 22.408203 C 8.1512557 22.300748 8.0348437 22.191094 7.921875 22.078125 C 7.8089063 21.965156 7.6992523 21.848745 7.5917969 21.730469 C 7.4843414 21.612193 7.3790794 21.490562 7.2773438 21.367188 C 7.1756079 21.243811 7.0782318 21.118505 6.9824219 20.990234 C 6.8866119 20.861964 6.7928027 20.730615 6.703125 20.597656 C 6.6134473 20.464697 6.5266986 20.3308 6.4433594 20.193359 C 6.3600201 20.055919 6.2799194 19.915152 6.203125 19.773438 C 6.1263306 19.631721 6.0524652 19.489536 5.9824219 19.34375 C 5.9123785 19.197964 5.8462891 19.050039 5.7832031 18.900391 C 5.7201172 18.750742 5.6613908 18.598618 5.6054688 18.445312 C 5.5495465 18.292009 5.4958179 18.137224 5.4472656 17.980469 C 5.3987134 17.823713 5.3554291 17.663906 5.3144531 17.503906 C 5.2734772 17.343907 5.2363184 17.182568 5.203125 17.019531 C 5.1699316 16.856494 5.1404388 16.693212 5.1152344 16.527344 C 5.0900299 16.361475 5.0677905 16.193884 5.0507812 16.025391 C 5.0337722 15.856897 5.0222797 15.686537 5.0136719 15.515625 C 5.0050641 15.344713 5 15.173125 5 15 C 5 14.826875 5.0050641 14.655287 5.0136719 14.484375 C 5.0222797 14.313463 5.0337722 14.143103 5.0507812 13.974609 C 5.0677905 13.806116 5.0900299 13.638525 5.1152344 13.472656 C 5.1404388 13.306788 5.1699316 13.143506 5.203125 12.980469 C 5.2363184 12.817432 5.2734772 12.656093 5.3144531 12.496094 C 5.3554291 12.336094 5.3987134 12.176287 5.4472656 12.019531 C 5.4958179 11.862776 5.5495465 11.707991 5.6054688 11.554688 C 5.6613908 11.401382 5.7201172 11.249258 5.7832031 11.099609 C 5.8462891 10.949961 5.9123785 10.802036 5.9824219 10.65625 C 6.0524652 10.510464 6.1263306 10.368279 6.203125 10.226562 C 6.2799194 10.084848 6.3600201 9.9440814 6.4433594 9.8066406 C 6.5266986 9.6691998 6.6134473 9.5333496 6.703125 9.4003906 C 6.7928027 9.2674316 6.8866119 9.1380365 6.9824219 9.0097656 C 7.0782318 8.8814948 7.1756079 8.756189 7.2773438 8.6328125 C 7.3790794 8.509436 7.4843414 8.387807 7.5917969 8.2695312 C 7.6992523 8.1512557 7.8089063 8.0348437 7.921875 7.921875 C 8.0348437 7.8089063 8.1512557 7.6992523 8.2695312 7.5917969 C 8.387807 7.4843414 8.509436 7.3790794 8.6328125 7.2773438 C 8.756189 7.1756079 8.8814948 7.0782318 9.0097656 6.9824219 C 9.1380365 6.8866119 9.2674316 6.7928027 9.4003906 6.703125 C 9.5333496 6.6134473 9.6691998 6.5266986 9.8066406 6.4433594 C 9.9440814 6.3600201 10.084848 6.2799194 10.226562 6.203125 C 10.368279 6.1263306 10.510464 6.0524652 10.65625 5.9824219 C 10.802036 5.9123785 10.949961 5.8462891 11.099609 5.7832031 C 11.249258 5.7201172 11.401382 5.6613908 11.554688 5.6054688 C 11.707991 5.5495465 11.862776 5.4958179 12.019531 5.4472656 C 12.176287 5.3987134 12.336094 5.3554291 12.496094 5.3144531 C 12.656093 5.2734772 12.817432 5.2363184 12.980469 5.203125 C 13.143506 5.1699316 13.306788 5.1404388 13.472656 5.1152344 C 13.638525 5.0900299 13.806116 5.0677905 13.974609 5.0507812 C 14.143103 5.0337722 14.313463 5.0222797 14.484375 5.0136719 C 14.655287 5.0050641 14.826875 5 15 5 z "
           transform="matrix(0.80000001,0,0,0.80000001,3.0000002,3.0000002)" />
        <path
           id="path1717"
           style="opacity:0.3;fill:#d81b60;fill-opacity:1;stroke:none;stroke-width:1.5625;stroke-linecap:round;stroke-linejoin:round;stroke-miterlimit:4;stroke-dasharray:none;stroke-opacity:1;paint-order:stroke markers fill"
           d="M 15 2.5 C 8.0750001 2.5 2.5 8.0750001 2.5 15 C 2.5 21.925 8.0750001 27.5 15 27.5 C 21.925 27.5 27.5 21.925 27.5 15 C 27.5 8.0750001 21.925 2.5 15 2.5 z M 15 5 C 15.173125 5 15.344713 5.0050641 15.515625 5.0136719 C 15.686537 5.0222797 15.856897 5.0337721 16.025391 5.0507812 C 16.193884 5.0677905 16.361475 5.0900299 16.527344 5.1152344 C 16.693212 5.1404388 16.856494 5.1699316 17.019531 5.203125 C 17.182568 5.2363184 17.343907 5.2734772 17.503906 5.3144531 C 17.663906 5.3554291 17.823713 5.3987134 17.980469 5.4472656 C 18.137224 5.4958179 18.292008 5.5495465 18.445312 5.6054688 C 18.598618 5.6613909 18.750742 5.7201172 18.900391 5.7832031 C 19.050039 5.8462891 19.197964 5.9123785 19.34375 5.9824219 C 19.489536 6.0524652 19.631721 6.1263306 19.773438 6.203125 C 19.915153 6.2799194 20.055919 6.3600201 20.193359 6.4433594 C 20.3308 6.5266986 20.464697 6.6134473 20.597656 6.703125 C 20.730615 6.7928027 20.861964 6.8866119 20.990234 6.9824219 C 21.118505 7.0782318 21.243811 7.1756079 21.367188 7.2773438 C 21.490563 7.3790795 21.612193 7.4843414 21.730469 7.5917969 C 21.848745 7.6992523 21.965156 7.8089063 22.078125 7.921875 C 22.191094 8.0348437 22.300748 8.1512556 22.408203 8.2695312 C 22.515659 8.387807 22.62092 8.509436 22.722656 8.6328125 C 22.824392 8.756189 22.921768 8.8814948 23.017578 9.0097656 C 23.113388 9.1380365 23.207197 9.2674316 23.296875 9.4003906 C 23.386553 9.5333496 23.473301 9.6691998 23.556641 9.8066406 C 23.63998 9.9440814 23.720081 10.084847 23.796875 10.226562 C 23.873669 10.368279 23.947535 10.510464 24.017578 10.65625 C 24.087621 10.802036 24.153711 10.949961 24.216797 11.099609 C 24.279883 11.249258 24.338609 11.401382 24.394531 11.554688 C 24.450453 11.707992 24.504182 11.862776 24.552734 12.019531 C 24.601287 12.176287 24.644571 12.336094 24.685547 12.496094 C 24.726523 12.656093 24.763682 12.817432 24.796875 12.980469 C 24.830068 13.143506 24.859561 13.306788 24.884766 13.472656 C 24.90997 13.638525 24.932209 13.806116 24.949219 13.974609 C 24.966228 14.143103 24.97772 14.313463 24.986328 14.484375 C 24.994936 14.655287 25 14.826875 25 15 C 25 15.173125 24.994936 15.344713 24.986328 15.515625 C 24.97772 15.686537 24.966228 15.856897 24.949219 16.025391 C 24.932209 16.193884 24.90997 16.361475 24.884766 16.527344 C 24.859561 16.693212 24.830068 16.856494 24.796875 17.019531 C 24.763682 17.182568 24.726523 17.343907 24.685547 17.503906 C 24.644571 17.663906 24.601287 17.823713 24.552734 17.980469 C 24.504182 18.137224 24.450453 18.292008 24.394531 18.445312 C 24.338609 18.598618 24.279883 18.750742 24.216797 18.900391 C 24.153711 19.050039 24.087621 19.197964 24.017578 19.34375 C 23.947535 19.489536 23.873669 19.631721 23.796875 19.773438 C 23.720081 19.915153 23.63998 20.055919 23.556641 20.193359 C 23.473301 20.3308 23.386553 20.464697 23.296875 20.597656 C 23.207197 20.730615 23.113388 20.861964 23.017578 20.990234 C 22.921768 21.118505 22.824392 21.243811 22.722656 21.367188 C 22.62092 21.490563 22.515659 21.612193 22.408203 21.730469 C 22.300748 21.848745 22.191094 21.965156 22.078125 22.078125 C 21.965156 22.191094 21.848745 22.300748 21.730469 22.408203 C 21.612193 22.515659 21.490563 22.62092 21.367188 22.722656 C 21.243811 22.824392 21.118505 22.921768 20.990234 23.017578 C 20.861964 23.113388 20.730615 23.207197 20.597656 23.296875 C 20.464697 23.386553 20.3308 23.473301 20.193359 23.556641 C 20.055919 23.63998 19.915153 23.720081 19.773438 23.796875 C 19.631721 23.873669 19.489536 23.947535 19.34375 24.017578 C 19.197964 24.087621 19.050039 24.153711 18.900391 24.216797 C 18.750742 24.279883 18.598618 24.338609 18.445312 24.394531 C 18.292008 24.450453 18.137224 24.504182 17.980469 24.552734 C 17.823713 24.601287 17.663906 24.644571 17.503906 24.685547 C 17.343907 24.726523 17.182568 24.763682 17.019531 24.796875 C 16.856494 24.830068 16.693212 24.859561 16.527344 24.884766 C 16.361475 24.90997 16.193884 24.932209 16.025391 24.949219 C 15.856897 24.966228 15.686537 24.97772 15.515625 24.986328 C 15.344713 24.994936 15.173125 25 15 25 C 14.826875 25 14.655287 24.994936 14.484375 24.986328 C 14.313463 24.97772 14.143103 24.966228 13.974609 24.949219 C 13.806116 24.932209 13.638525 24.90997 13.472656 24.884766 C 13.306788 24.859561 13.143506 24.830068 12.980469 24.796875 C 12.817432 24.763682 12.656093 24.726523 12.496094 24.685547 C 12.336094 24.644571 12.176287 24.601287 12.019531 24.552734 C 11.862776 24.504182 11.707992 24.450453 11.554688 24.394531 C 11.401382 24.338609 11.249258 24.279883 11.099609 24.216797 C 10.949961 24.153711 10.802036 24.087621 10.65625 24.017578 C 10.510464 23.947535 10.368279 23.873669 10.226562 23.796875 C 10.084847 23.720081 9.9440814 23.63998 9.8066406 23.556641 C 9.6691998 23.473301 9.5333496 23.386553 9.4003906 23.296875 C 9.2674316 23.207197 9.1380365 23.113388 9.0097656 23.017578 C 8.8814948 22.921768 8.756189 22.824392 8.6328125 22.722656 C 8.509436 22.62092 8.387807 22.515659 8.2695312 22.408203 C 8.1512556 22.300748 8.0348437 22.191094 7.921875 22.078125 C 7.8089063 21.965156 7.6992523 21.848745 7.5917969 21.730469 C 7.4843414 21.612193 7.3790795 21.490563 7.2773438 21.367188 C 7.1756079 21.243811 7.0782318 21.118505 6.9824219 20.990234 C 6.8866119 20.861964 6.7928027 20.730615 6.703125 20.597656 C 6.6134473 20.464697 6.5266986 20.3308 6.4433594 20.193359 C 6.3600201 20.055919 6.2799194 19.915153 6.203125 19.773438 C 6.1263306 19.631721 6.0524652 19.489536 5.9824219 19.34375 C 5.9123785 19.197964 5.8462891 19.050039 5.7832031 18.900391 C 5.7201172 18.750742 5.6613909 18.598618 5.6054688 18.445312 C 5.5495465 18.292008 5.4958179 18.137224 5.4472656 17.980469 C 5.3987134 17.823713 5.3554291 17.663906 5.3144531 17.503906 C 5.2734772 17.343907 5.2363184 17.182568 5.203125 17.019531 C 5.1699316 16.856494 5.1404388 16.693212 5.1152344 16.527344 C 5.0900299 16.361475 5.0677905 16.193884 5.0507812 16.025391 C 5.0337721 15.856897 5.0222797 15.686537 5.0136719 15.515625 C 5.0050641 15.344713 5 15.173125 5 15 C 5 14.826875 5.0050641 14.655287 5.0136719 14.484375 C 5.0222797 14.313463 5.0337721 14.143103 5.0507812 13.974609 C 5.0677905 13.806116 5.0900299 13.638525 5.1152344 13.472656 C 5.1404388 13.306788 5.1699316 13.143506 5.203125 12.980469 C 5.2363184 12.817432 5.2734772 12.656093 5.3144531 12.496094 C 5.3554291 12.336094 5.3987134 12.176287 5.4472656 12.019531 C 5.4958179 11.862776 5.5495465 11.707992 5.6054688 11.554688 C 5.6613909 11.401382 5.7201172 11.249258 5.7832031 11.099609 C 5.8462891 10.949961 5.9123785 10.802036 5.9824219 10.65625 C 6.0524652 10.510464 6.1263306 10.368279 6.203125 10.226562 C 6.2799194 10.084847 6.3600201 9.9440814 6.4433594 9.8066406 C 6.5266986 9.6691998 6.6134473 9.5333496 6.703125 9.4003906 C 6.7928027 9.2674316 6.8866119 9.1380365 6.9824219 9.0097656 C 7.0782318 8.8814948 7.1756079 8.756189 7.2773438 8.6328125 C 7.3790795 8.509436 7.4843414 8.387807 7.5917969 8.2695312 C 7.6992523 8.1512556 7.8089063 8.0348437 7.921875 7.921875 C 8.0348437 7.8089063 8.1512556 7.6992523 8.2695312 7.5917969 C 8.387807 7.4843414 8.509436 7.3790795 8.6328125 7.2773438 C 8.756189 7.1756079 8.8814948 7.0782318 9.0097656 6.9824219 C 9.1380365 6.8866119 9.2674316 6.7928027 9.4003906 6.703125 C 9.5333496 6.6134473 9.6691998 6.5266986 9.8066406 6.4433594 C 9.9440814 6.3600201 10.084847 6.2799194 10.226562 6.203125 C 10.368279 6.1263306 10.510464 6.0524652 10.65625 5.9824219 C 10.802036 5.9123785 10.949961 5.8462891 11.099609 5.7832031 C 11.249258 5.7201172 11.401382 5.6613909 11.554688 5.6054688 C 11.707992 5.5495465 11.862776 5.4958179 12.019531 5.4472656 C 12.176287 5.3987134 12.336094 5.3554291 12.496094 5.3144531 C 12.656093 5.2734772 12.817432 5.2363184 12.980469 5.203125 C 13.143506 5.1699316 13.306788 5.1404388 13.472656 5.1152344 C 13.638525 5.0900299 13.806116 5.0677905 13.974609 5.0507812 C 14.143103 5.0337721 14.313463 5.0222797 14.484375 5.0136719 C 14.655287 5.0050641 14.826875 5 15 5 z "
           transform="matrix(0.80000001,0,0,0.80000001,3.0000002,3.0000002)" />
        <path
           id="path1714"
           style="opacity:1;fill:#d81b60;fill-opacity:1;stroke:none;stroke-width:1.40625;stroke-linecap:round;stroke-linejoin:round;stroke-miterlimit:4;stroke-dasharray:none;stroke-opacity:1;paint-order:stroke markers fill"
           d="M 15 3.75 C 8.7675001 3.75 3.75 8.7675001 3.75 15 C 3.75 21.2325 8.7675001 26.25 15 26.25 C 21.2325 26.25 26.25 21.2325 26.25 15 C 26.25 8.7675001 21.2325 3.75 15 3.75 z M 15 5 C 15.173125 5 15.344713 5.0050641 15.515625 5.0136719 C 15.686537 5.0222797 15.856897 5.033772 16.025391 5.0507812 C 16.193884 5.0677905 16.361475 5.0900299 16.527344 5.1152344 C 16.693212 5.1404388 16.856494 5.1699316 17.019531 5.203125 C 17.182568 5.2363184 17.343907 5.2734772 17.503906 5.3144531 C 17.663906 5.3554291 17.823713 5.3987134 17.980469 5.4472656 C 18.137224 5.4958179 18.292007 5.5495465 18.445312 5.6054688 C 18.598618 5.661391 18.750742 5.7201172 18.900391 5.7832031 C 19.050039 5.8462891 19.197964 5.9123785 19.34375 5.9824219 C 19.489536 6.0524652 19.631721 6.1263306 19.773438 6.203125 C 19.915154 6.2799194 20.055919 6.3600201 20.193359 6.4433594 C 20.3308 6.5266986 20.464697 6.6134473 20.597656 6.703125 C 20.730615 6.7928027 20.861964 6.8866119 20.990234 6.9824219 C 21.118505 7.0782318 21.243811 7.1756079 21.367188 7.2773438 C 21.490564 7.3790796 21.612193 7.4843414 21.730469 7.5917969 C 21.848745 7.6992523 21.965156 7.8089063 22.078125 7.921875 C 22.191094 8.0348437 22.300748 8.1512555 22.408203 8.2695312 C 22.515659 8.387807 22.62092 8.509436 22.722656 8.6328125 C 22.824392 8.756189 22.921768 8.8814948 23.017578 9.0097656 C 23.113388 9.1380365 23.207197 9.2674316 23.296875 9.4003906 C 23.386553 9.5333496 23.473301 9.6691998 23.556641 9.8066406 C 23.63998 9.9440814 23.720081 10.084846 23.796875 10.226562 C 23.873669 10.368279 23.947535 10.510464 24.017578 10.65625 C 24.087621 10.802036 24.153711 10.949961 24.216797 11.099609 C 24.279883 11.249258 24.338609 11.401382 24.394531 11.554688 C 24.450453 11.707993 24.504182 11.862776 24.552734 12.019531 C 24.601287 12.176287 24.644571 12.336094 24.685547 12.496094 C 24.726523 12.656093 24.763682 12.817432 24.796875 12.980469 C 24.830068 13.143506 24.859561 13.306788 24.884766 13.472656 C 24.90997 13.638525 24.932209 13.806116 24.949219 13.974609 C 24.966228 14.143103 24.97772 14.313463 24.986328 14.484375 C 24.994936 14.655287 25 14.826875 25 15 C 25 15.173125 24.994936 15.344713 24.986328 15.515625 C 24.97772 15.686537 24.966228 15.856897 24.949219 16.025391 C 24.932209 16.193884 24.90997 16.361475 24.884766 16.527344 C 24.859561 16.693212 24.830068 16.856494 24.796875 17.019531 C 24.763682 17.182568 24.726523 17.343907 24.685547 17.503906 C 24.644571 17.663906 24.601287 17.823713 24.552734 17.980469 C 24.504182 18.137224 24.450453 18.292007 24.394531 18.445312 C 24.338609 18.598618 24.279883 18.750742 24.216797 18.900391 C 24.153711 19.050039 24.087621 19.197964 24.017578 19.34375 C 23.947535 19.489536 23.873669 19.631721 23.796875 19.773438 C 23.720081 19.915154 23.63998 20.055919 23.556641 20.193359 C 23.473301 20.3308 23.386553 20.464697 23.296875 20.597656 C 23.207197 20.730615 23.113388 20.861964 23.017578 20.990234 C 22.921768 21.118505 22.824392 21.243811 22.722656 21.367188 C 22.62092 21.490564 22.515659 21.612193 22.408203 21.730469 C 22.300748 21.848745 22.191094 21.965156 22.078125 22.078125 C 21.965156 22.191094 21.848745 22.300748 21.730469 22.408203 C 21.612193 22.515659 21.490564 22.62092 21.367188 22.722656 C 21.243811 22.824392 21.118505 22.921768 20.990234 23.017578 C 20.861964 23.113388 20.730615 23.207197 20.597656 23.296875 C 20.464697 23.386553 20.3308 23.473301 20.193359 23.556641 C 20.055919 23.63998 19.915154 23.720081 19.773438 23.796875 C 19.631721 23.873669 19.489536 23.947535 19.34375 24.017578 C 19.197964 24.087621 19.050039 24.153711 18.900391 24.216797 C 18.750742 24.279883 18.598618 24.338609 18.445312 24.394531 C 18.292007 24.450453 18.137224 24.504182 17.980469 24.552734 C 17.823713 24.601287 17.663906 24.644571 17.503906 24.685547 C 17.343907 24.726523 17.182568 24.763682 17.019531 24.796875 C 16.856494 24.830068 16.693212 24.859561 16.527344 24.884766 C 16.361475 24.90997 16.193884 24.932209 16.025391 24.949219 C 15.856897 24.966228 15.686537 24.97772 15.515625 24.986328 C 15.344713 24.994936 15.173125 25 15 25 C 14.826875 25 14.655287 24.994936 14.484375 24.986328 C 14.313463 24.97772 14.143103 24.966228 13.974609 24.949219 C 13.806116 24.932209 13.638525 24.90997 13.472656 24.884766 C 13.306788 24.859561 13.143506 24.830068 12.980469 24.796875 C 12.817432 24.763682 12.656093 24.726523 12.496094 24.685547 C 12.336094 24.644571 12.176287 24.601287 12.019531 24.552734 C 11.862776 24.504182 11.707993 24.450453 11.554688 24.394531 C 11.401382 24.338609 11.249258 24.279883 11.099609 24.216797 C 10.949961 24.153711 10.802036 24.087621 10.65625 24.017578 C 10.510464 23.947535 10.368279 23.873669 10.226562 23.796875 C 10.084846 23.720081 9.9440814 23.63998 9.8066406 23.556641 C 9.6691998 23.473301 9.5333496 23.386553 9.4003906 23.296875 C 9.2674316 23.207197 9.1380365 23.113388 9.0097656 23.017578 C 8.8814948 22.921768 8.756189 22.824392 8.6328125 22.722656 C 8.509436 22.62092 8.387807 22.515659 8.2695312 22.408203 C 8.1512555 22.300748 8.0348437 22.191094 7.921875 22.078125 C 7.8089063 21.965156 7.6992523 21.848745 7.5917969 21.730469 C 7.4843414 21.612193 7.3790796 21.490564 7.2773438 21.367188 C 7.1756079 21.243811 7.0782318 21.118505 6.9824219 20.990234 C 6.8866119 20.861964 6.7928027 20.730615 6.703125 20.597656 C 6.6134473 20.464697 6.5266986 20.3308 6.4433594 20.193359 C 6.3600201 20.055919 6.2799194 19.915154 6.203125 19.773438 C 6.1263306 19.631721 6.0524652 19.489536 5.9824219 19.34375 C 5.9123785 19.197964 5.8462891 19.050039 5.7832031 18.900391 C 5.7201172 18.750742 5.661391 18.598618 5.6054688 18.445312 C 5.5495465 18.292007 5.4958179 18.137224 5.4472656 17.980469 C 5.3987134 17.823713 5.3554291 17.663906 5.3144531 17.503906 C 5.2734772 17.343907 5.2363184 17.182568 5.203125 17.019531 C 5.1699316 16.856494 5.1404388 16.693212 5.1152344 16.527344 C 5.0900299 16.361475 5.0677905 16.193884 5.0507812 16.025391 C 5.033772 15.856897 5.0222797 15.686537 5.0136719 15.515625 C 5.0050641 15.344713 5 15.173125 5 15 C 5 14.826875 5.0050641 14.655287 5.0136719 14.484375 C 5.0222797 14.313463 5.033772 14.143103 5.0507812 13.974609 C 5.0677905 13.806116 5.0900299 13.638525 5.1152344 13.472656 C 5.1404388 13.306788 5.1699316 13.143506 5.203125 12.980469 C 5.2363184 12.817432 5.2734772 12.656093 5.3144531 12.496094 C 5.3554291 12.336094 5.3987134 12.176287 5.4472656 12.019531 C 5.4958179 11.862776 5.5495465 11.707993 5.6054688 11.554688 C 5.661391 11.401382 5.7201172 11.249258 5.7832031 11.099609 C 5.8462891 10.949961 5.9123785 10.802036 5.9824219 10.65625 C 6.0524652 10.510464 6.1263306 10.368279 6.203125 10.226562 C 6.2799194 10.084846 6.3600201 9.9440814 6.4433594 9.8066406 C 6.5266986 9.6691998 6.6134473 9.5333496 6.703125 9.4003906 C 6.7928027 9.2674316 6.8866119 9.1380365 6.9824219 9.0097656 C 7.0782318 8.8814948 7.1756079 8.756189 7.2773438 8.6328125 C 7.3790796 8.509436 7.4843414 8.387807 7.5917969 8.2695312 C 7.6992523 8.1512555 7.8089063 8.0348437 7.921875 7.921875 C 8.0348437 7.8089063 8.1512555 7.6992523 8.2695312 7.5917969 C 8.387807 7.4843414 8.509436 7.3790796 8.6328125 7.2773438 C 8.756189 7.1756079 8.8814948 7.0782318 9.0097656 6.9824219 C 9.1380365 6.8866119 9.2674316 6.7928027 9.4003906 6.703125 C 9.5333496 6.6134473 9.6691998 6.5266986 9.8066406 6.4433594 C 9.9440814 6.3600201 10.084846 6.2799194 10.226562 6.203125 C 10.368279 6.1263306 10.510464 6.0524652 10.65625 5.9824219 C 10.802036 5.9123785 10.949961 5.8462891 11.099609 5.7832031 C 11.249258 5.7201172 11.401382 5.661391 11.554688 5.6054688 C 11.707993 5.5495465 11.862776 5.4958179 12.019531 5.4472656 C 12.176287 5.3987134 12.336094 5.3554291 12.496094 5.3144531 C 12.656093 5.2734772 12.817432 5.2363184 12.980469 5.203125 C 13.143506 5.1699316 13.306788 5.1404388 13.472656 5.1152344 C 13.638525 5.0900299 13.806116 5.0677905 13.974609 5.0507812 C 14.143103 5.033772 14.313463 5.0222797 14.484375 5.0136719 C 14.655287 5.0050641 14.826875 5 15 5 z "
           transform="matrix(0.80000001,0,0,0.80000001,3.0000002,3.0000002)" />
        <path
           inkscape:connector-curvature="0"
           id="path926"
           d="m 12,18 6,-6"
           style="fill:none;stroke:#e91e63;stroke-width:2;stroke-linecap:round;stroke-linejoin:miter;stroke-miterlimit:4;stroke-dasharray:none;stroke-opacity:1" />
        <path
           style="fill:none;stroke:#e91e63;stroke-width:2;stroke-linecap:round;stroke-linejoin:miter;stroke-miterlimit:4;stroke-dasharray:none;stroke-opacity:1"
           d="m 12,12 6,6"
           id="path928"
           inkscape:connector-curvature="0" />
      </g>
    </g>
  </g>
</svg>
