<?xml version="1.0" encoding="UTF-8" standalone="no"?>
<!-- Created with Inkscape (http://www.inkscape.org/) -->

<svg
   width="7.9375mm"
   height="7.9375mm"
   viewBox="0 0 7.9375 7.9375"
   version="1.1"
   id="svg926"
   inkscape:version="1.1 (c4e8f9ed74, 2021-05-24)"
   sodipodi:docname="close-backdrop.svg"
   xmlns:inkscape="http://www.inkscape.org/namespaces/inkscape"
   xmlns:sodipodi="http://sodipodi.sourceforge.net/DTD/sodipodi-0.dtd"
   xmlns="http://www.w3.org/2000/svg"
   xmlns:svg="http://www.w3.org/2000/svg"
   xmlns:rdf="http://www.w3.org/1999/02/22-rdf-syntax-ns#"
   xmlns:cc="http://creativecommons.org/ns#"
   xmlns:dc="http://purl.org/dc/elements/1.1/">
  <defs
     id="defs920" />
  <sodipodi:namedview
     id="base"
     pagecolor="#ffffff"
     bordercolor="#666666"
     borderopacity="1.0"
     inkscape:pageopacity="0.0"
     inkscape:pageshadow="2"
     inkscape:zoom="7.8666667"
     inkscape:cx="-17.033898"
     inkscape:cy="10.677966"
     inkscape:document-units="mm"
     inkscape:current-layer="g840"
     showgrid="false"
     fit-margin-top="0"
     fit-margin-left="0"
     fit-margin-right="0"
     fit-margin-bottom="0"
     inkscape:window-width="2560"
     inkscape:window-height="1367"
     inkscape:window-x="0"
     inkscape:window-y="0"
     inkscape:window-maximized="1"
     inkscape:pagecheckerboard="0" />
  <metadata
     id="metadata923">
    <rdf:RDF>
      <cc:Work
         rdf:about="">
        <dc:format>image/svg+xml</dc:format>
        <dc:type
           rdf:resource="http://purl.org/dc/dcmitype/StillImage" />
        <dc:title />
      </cc:Work>
    </rdf:RDF>
  </metadata>
  <g
     inkscape:label="Layer 1"
     inkscape:groupmode="layer"
     id="layer1"
     transform="translate(-180.48363,-84.388393)">
    <g
       id="inactive-center"
       transform="matrix(0.26458333,0,0,0.26458333,180.48363,84.388393)"
       inkscape:transform-center-x="-2.2442336"
       inkscape:transform-center-y="0.094494048">
      <g
         id="g832"
         transform="matrix(1.6628405,0,0,1.6628405,-9.9081727,-9.9770432)">
        <g
           id="g840">
          <g
             id="g1034"
             transform="matrix(0.65042071,0,0,0.65042071,5.2436358,5.2437433)">
            <rect
               style="opacity:0.7;fill:none;fill-opacity:1;stroke:none;stroke-width:1;stroke-linecap:round;stroke-linejoin:round;stroke-miterlimit:4;stroke-dasharray:none;stroke-dashoffset:0;stroke-opacity:1"
               id="rect4531"
               width="30"
               height="30"
               x="0"
               y="0"
               transform="matrix(0.6013806,0,0,0.6013806,5.9585827,6.0000001)" />
            <path
               id="path935"
               style="opacity:1;fill:#bdbdbd;fill-opacity:1;stroke:none;stroke-width:1.20017;stroke-linecap:round;stroke-linejoin:round;stroke-miterlimit:4;stroke-dasharray:none;stroke-opacity:1;paint-order:stroke markers fill"
               d="m 15.000473,5.3986195 c -5.319159,0 -9.6021609,4.2817489 -9.6021609,9.6009085 0,5.319158 4.2830019,9.602161 9.6021609,9.602161 5.319159,0 9.600908,-4.283003 9.600908,-9.602161 0,-5.3191596 -4.281749,-9.6009085 -9.600908,-9.6009085 z m 0,1.0663499 c 0.147755,0 0.293956,0.00393 0.439822,0.011277 0.145867,0.00735 0.291009,0.018063 0.434811,0.032579 0.143801,0.014517 0.286983,0.033624 0.428544,0.055134 0.141562,0.021511 0.281882,0.045601 0.421027,0.07393 0.139145,0.028329 0.276956,0.060261 0.413509,0.095232 0.136551,0.034971 0.270953,0.073844 0.404736,0.115281 0.133784,0.041437 0.266379,0.085097 0.397219,0.1328239 0.130838,0.047727 0.260728,0.099032 0.388446,0.1528727 0.127718,0.053841 0.254002,0.1106366 0.378423,0.1704155 0.124421,0.059779 0.246197,0.1224177 0.367146,0.1879583 0.120948,0.065541 0.241074,0.1343747 0.358373,0.205501 0.1173,0.071126 0.232369,0.1452548 0.345843,0.2217907 0.113475,0.076536 0.225093,0.155058 0.334566,0.2368274 0.109473,0.08177 0.216739,0.1662902 0.322035,0.2531172 0.105297,0.086827 0.208562,0.1764453 0.309505,0.2681537 0.100943,0.091708 0.199307,0.1855237 0.295721,0.2819374 0.09641,0.096414 0.190229,0.194778 0.281937,0.2957211 0.09171,0.100943 0.181327,0.2042083 0.268154,0.3095045 0.08683,0.1052963 0.171348,0.2125617 0.253117,0.3220352 0.08177,0.1094735 0.160292,0.221091 0.236827,0.334566 0.07654,0.113474 0.150665,0.228543 0.221791,0.345843 0.07113,0.117299 0.139961,0.237425 0.205501,0.358373 0.06554,0.120949 0.12818,0.242724 0.187959,0.367146 0.05978,0.124421 0.116574,0.250704 0.170415,0.378422 0.05384,0.127718 0.105145,0.257608 0.152873,0.388447 0.04773,0.130839 0.09139,0.263435 0.132823,0.397219 0.04144,0.133783 0.08031,0.268184 0.115282,0.404736 0.03497,0.136553 0.0669,0.274364 0.09523,0.413509 0.02833,0.139145 0.05242,0.279465 0.07393,0.421026 0.02151,0.141562 0.04062,0.284743 0.05513,0.428545 0.01452,0.143802 0.02523,0.288944 0.03258,0.43481 0.0073,0.145866 0.01128,0.292068 0.01128,0.439823 0,0.147754 -0.0039,0.295209 -0.01128,0.441075 -0.0073,0.145866 -0.01806,0.291009 -0.03258,0.43481 -0.01452,0.143802 -0.03362,0.28573 -0.05513,0.427292 -0.02151,0.141561 -0.0456,0.281882 -0.07393,0.421027 -0.02833,0.139145 -0.06026,0.276955 -0.09523,0.413508 -0.03497,0.136552 -0.07384,0.272206 -0.115282,0.40599 -0.04144,0.133783 -0.0851,0.266379 -0.132823,0.397218 -0.04773,0.130839 -0.09903,0.259476 -0.152873,0.387194 -0.05384,0.127718 -0.110636,0.254001 -0.170415,0.378423 -0.05978,0.124421 -0.122418,0.247449 -0.187959,0.368398 -0.06554,0.120949 -0.134374,0.239821 -0.205501,0.35712 -0.07113,0.1173 -0.145255,0.233622 -0.221791,0.347096 -0.07653,0.113475 -0.155058,0.225093 -0.236827,0.334566 -0.08177,0.109474 -0.16629,0.216739 -0.253117,0.322036 -0.08683,0.105296 -0.176445,0.208561 -0.268154,0.309504 -0.09171,0.100943 -0.185523,0.199307 -0.281937,0.295721 -0.09641,0.09641 -0.194778,0.190229 -0.295721,0.281937 -0.100943,0.09171 -0.204208,0.181327 -0.309505,0.268154 -0.105296,0.08683 -0.212562,0.171348 -0.322035,0.253117 -0.109473,0.08177 -0.221091,0.160292 -0.334566,0.236828 -0.113474,0.07654 -0.228543,0.150664 -0.345843,0.22179 -0.117299,0.07113 -0.237425,0.139961 -0.358373,0.205502 -0.120949,0.06554 -0.242725,0.128179 -0.367146,0.187958 -0.124421,0.05978 -0.250705,0.116574 -0.378423,0.170415 -0.127718,0.05384 -0.257608,0.103893 -0.388446,0.15162 -0.13084,0.04773 -0.263435,0.09264 -0.397219,0.134077 -0.133783,0.04144 -0.268185,0.08031 -0.404736,0.115281 -0.136553,0.03497 -0.274364,0.06565 -0.413509,0.09398 -0.139145,0.02833 -0.279465,0.05367 -0.421027,0.07518 -0.141561,0.02151 -0.284743,0.03937 -0.428544,0.05388 -0.143802,0.01452 -0.288944,0.02649 -0.434811,0.03383 -0.145866,0.0073 -0.292067,0.01002 -0.439822,0.01002 -0.147754,0 -0.295209,-0.0027 -0.441075,-0.01002 -0.145866,-0.0073 -0.291009,-0.01931 -0.43481,-0.03383 -0.143802,-0.01452 -0.28573,-0.03237 -0.427292,-0.05388 -0.141561,-0.02151 -0.281882,-0.04685 -0.421027,-0.07518 -0.139145,-0.02833 -0.276955,-0.05901 -0.413508,-0.09398 -0.136552,-0.03497 -0.272206,-0.07384 -0.40599,-0.115281 -0.133783,-0.04144 -0.266379,-0.08635 -0.397218,-0.134077 -0.130839,-0.04773 -0.259476,-0.09778 -0.387194,-0.15162 C 11.544641,22.812365 11.418358,22.755569 11.293936,22.69579 11.169515,22.63601 11.046487,22.573372 10.925538,22.507832 10.80459,22.442292 10.685717,22.373457 10.568417,22.30233 10.451118,22.2312 10.334796,22.157076 10.221321,22.08054 10.107847,22.004006 9.9962288,21.925484 9.8867554,21.843714 9.777282,21.761945 9.6700165,21.677425 9.5647203,21.590597 9.459424,21.50377 9.3561587,21.414152 9.2552156,21.322443 9.1542726,21.230735 9.0559084,21.13692 8.9594946,21.040506 8.8630809,20.944092 8.7692657,20.845728 8.6775573,20.744785 8.5858489,20.643842 8.4962304,20.540577 8.4094035,20.435281 8.3225765,20.329984 8.2380558,20.222719 8.1562864,20.113245 8.0745169,20.003772 7.9959949,19.892154 7.919459,19.778679 7.842923,19.665205 7.7687945,19.548883 7.6976682,19.431583 7.6265419,19.314284 7.5577078,19.195412 7.4921671,19.074463 7.4266265,18.953514 7.3639877,18.830486 7.3042089,18.706065 7.2444301,18.581643 7.1876344,18.45536 7.1337934,18.327642 7.0799524,18.199924 7.0299009,18.071287 6.9821738,17.940448 6.9344466,17.809609 6.889534,17.677013 6.8480968,17.54323 c -0.041437,-0.133784 -0.08031,-0.269438 -0.115281,-0.40599 -0.034971,-0.136553 -0.06565,-0.274363 -0.093979,-0.413508 -0.028329,-0.139145 -0.053672,-0.279466 -0.075183,-0.421027 -0.021511,-0.141562 -0.039365,-0.28349 -0.053881,-0.427292 -0.014517,-0.143801 -0.026486,-0.288944 -0.033832,-0.43481 -0.00735,-0.145866 -0.010024,-0.293321 -0.010024,-0.441075 0,-0.147755 0.00268,-0.293957 0.010024,-0.439823 0.00735,-0.145866 0.019316,-0.291008 0.033832,-0.43481 0.014517,-0.143802 0.032371,-0.286983 0.053881,-0.428545 0.021511,-0.141561 0.046854,-0.281881 0.075183,-0.421026 0.028329,-0.139145 0.059008,-0.276956 0.093979,-0.413509 0.034971,-0.136552 0.073844,-0.270953 0.115281,-0.404736 0.041437,-0.133784 0.08635,-0.26638 0.134077,-0.397219 0.047727,-0.130839 0.097779,-0.260729 0.1516196,-0.388447 0.053841,-0.127718 0.1106367,-0.254001 0.1704155,-0.378422 0.059779,-0.124422 0.1224176,-0.246197 0.1879582,-0.367146 0.065541,-0.120948 0.1343748,-0.241074 0.2055011,-0.358373 0.071126,-0.1173 0.1452548,-0.232369 0.2217908,-0.345843 C 7.9959949,10.108154 8.0745169,9.9965363 8.1562864,9.8870628 8.2380558,9.7775893 8.3225765,9.6703239 8.4094035,9.5650276 8.4962304,9.4597314 8.5858489,9.3564661 8.6775573,9.2555231 8.7692657,9.15458 8.8630809,9.0562158 8.9594946,8.959802 9.0559084,8.8633883 9.1542726,8.769573 9.2552156,8.6778646 9.3561587,8.5861562 9.459424,8.4965379 9.5647203,8.4097109 9.6700165,8.3228839 9.777282,8.2383632 9.8867554,8.1565937 9.9962288,8.0748243 10.107847,7.9963022 10.221321,7.9197663 c 0.113475,-0.076536 0.229797,-0.1506644 0.347096,-0.2217907 0.1173,-0.071126 0.236173,-0.1399604 0.357121,-0.205501 0.120949,-0.065541 0.243977,-0.1281795 0.368398,-0.1879583 0.124422,-0.059779 0.250705,-0.1165745 0.378423,-0.1704155 0.127718,-0.053841 0.256355,-0.1051456 0.387194,-0.1528727 0.130839,-0.047727 0.263435,-0.091387 0.397218,-0.1328239 0.133784,-0.041437 0.269438,-0.08031 0.40599,-0.115281 0.136553,-0.034971 0.274363,-0.066903 0.413508,-0.095232 0.139145,-0.028329 0.279466,-0.052419 0.421027,-0.07393 0.141562,-0.021511 0.28349,-0.040618 0.427292,-0.055134 0.143801,-0.014517 0.288944,-0.025233 0.43481,-0.032579 0.145866,-0.00735 0.293321,-0.011277 0.441075,-0.011277 z" />
            <path
               style="fill:none;stroke:#bdbdbd;stroke-width:2;stroke-linecap:round;stroke-linejoin:miter;stroke-miterlimit:4;stroke-dasharray:none;stroke-opacity:1"
               d="m 12,18 6,-6"
               id="path4535"
               inkscape:connector-curvature="0" />
            <path
               inkscape:connector-curvature="0"
               id="path4537"
               d="m 12,12 6,6"
               style="fill:none;stroke:#bdbdbd;stroke-width:2;stroke-linecap:round;stroke-linejoin:miter;stroke-miterlimit:4;stroke-dasharray:none;stroke-opacity:1" />
          </g>
        </g>
      </g>
    </g>
  </g>
</svg>
