<?xml version="1.0" encoding="UTF-8" standalone="no"?>
<!-- Created with Inkscape (http://www.inkscape.org/) -->

<svg
   width="7.9375mm"
   height="7.9375mm"
   viewBox="0 0 7.9375 7.9375"
   version="1.1"
   id="svg926"
   inkscape:version="1.1 (c4e8f9ed74, 2021-05-24)"
   sodipodi:docname="maximize-hover.svg"
   xmlns:inkscape="http://www.inkscape.org/namespaces/inkscape"
   xmlns:sodipodi="http://sodipodi.sourceforge.net/DTD/sodipodi-0.dtd"
   xmlns="http://www.w3.org/2000/svg"
   xmlns:svg="http://www.w3.org/2000/svg"
   xmlns:rdf="http://www.w3.org/1999/02/22-rdf-syntax-ns#"
   xmlns:cc="http://creativecommons.org/ns#"
   xmlns:dc="http://purl.org/dc/elements/1.1/">
  <defs
     id="defs920" />
  <sodipodi:namedview
     id="base"
     pagecolor="#ffffff"
     bordercolor="#666666"
     borderopacity="1.0"
     inkscape:pageopacity="0.0"
     inkscape:pageshadow="2"
     inkscape:zoom="2.8284271"
     inkscape:cx="-208.5965"
     inkscape:cy="-70.710678"
     inkscape:document-units="mm"
     inkscape:current-layer="hover-center"
     showgrid="false"
     fit-margin-top="0"
     fit-margin-left="0"
     fit-margin-right="0"
     fit-margin-bottom="0"
     inkscape:window-width="2560"
     inkscape:window-height="1367"
     inkscape:window-x="0"
     inkscape:window-y="0"
     inkscape:window-maximized="1"
     inkscape:pagecheckerboard="0" />
  <metadata
     id="metadata923">
    <rdf:RDF>
      <cc:Work
         rdf:about="">
        <dc:format>image/svg+xml</dc:format>
        <dc:type
           rdf:resource="http://purl.org/dc/dcmitype/StillImage" />
        <dc:title />
      </cc:Work>
    </rdf:RDF>
  </metadata>
  <g
     inkscape:label="Layer 1"
     inkscape:groupmode="layer"
     id="layer1"
     transform="translate(-180.48363,-84.388393)">
    <g
       id="hover-center"
       transform="matrix(0.26458333,0,0,0.26458333,180.48363,84.388393)">
      <g
         id="g6379"
         transform="matrix(1.2321772,0,0,1.2321772,-3.499815,-3.4826565)">
        <g
           id="g1668"
           transform="matrix(0.94030991,0,0,0.94030991,0.93653252,0.93653252)">
          <g
             id="g1777"
             transform="matrix(0.99505449,0,0,0.99505449,0.05291804,0.03111901)">
            <rect
               style="opacity:0.7;fill:none;fill-opacity:1;stroke:none;stroke-width:1;stroke-linecap:round;stroke-linejoin:round;stroke-miterlimit:4;stroke-dasharray:none;stroke-dashoffset:0;stroke-opacity:1"
               id="rect1008"
               width="30"
               height="30"
               x="0"
               y="0"
               transform="matrix(0.86407686,0,0,0.86407686,1.9950526,1.9950526)" />
            <path
               id="path1579"
               style="opacity:0.03;fill:#1976d2;fill-opacity:1;stroke:none;stroke-width:2;stroke-linecap:round;stroke-linejoin:round;stroke-miterlimit:4;stroke-dasharray:none;stroke-opacity:1;paint-order:stroke markers fill"
               d="M 15,-1 C 6.1360003,-1 -1,6.1360003 -1,15 -1,23.864 6.1360003,31 15,31 23.864,31 31,23.864 31,15 31,6.1360003 23.864,-1 15,-1 Z m 0,6.1542969 c 0.170462,0 0.339533,0.00324 0.507812,0.011719 0.168284,0.00848 0.336052,0.022315 0.501954,0.039063 0.165901,0.016748 0.330824,0.037683 0.49414,0.0625 0.163317,0.024817 0.323846,0.053255 0.484375,0.085937 0.160529,0.032683 0.320978,0.06903 0.478516,0.109375 0.157538,0.040346 0.312453,0.085007 0.466797,0.1328125 0.154343,0.047805 0.308038,0.099235 0.458984,0.1542969 0.150947,0.055062 0.29992,0.1136663 0.447266,0.1757812 0.147346,0.062115 0.292004,0.1263468 0.435547,0.1953126 0.143542,0.068965 0.286245,0.1411838 0.425781,0.2167968 0.139536,0.075613 0.276783,0.1562242 0.412109,0.2382813 0.135327,0.082057 0.267524,0.1656082 0.398438,0.2539062 0.130913,0.088298 0.260421,0.1810547 0.386719,0.2753907 0.126293,0.094336 0.249615,0.1908449 0.371093,0.2910156 0.121479,0.1001706 0.240966,0.2027914 0.357422,0.3085937 0.116456,0.1058023 0.230566,0.2149411 0.341797,0.3261719 0.111231,0.1112308 0.22037,0.2253407 0.326172,0.3417969 0.105802,0.1164561 0.208423,0.2359435 0.308594,0.3574219 0.10017,0.1214779 0.196679,0.2447962 0.291015,0.3710937 0.09434,0.1262975 0.187093,0.2558057 0.275391,0.3867187 0.0883,0.1309135 0.171849,0.2631112 0.253906,0.3984376 0.08206,0.1353259 0.162668,0.2725729 0.238281,0.4121089 0.07561,0.139536 0.147832,0.282239 0.216797,0.425781 0.06897,0.143543 0.133197,0.288201 0.195313,0.435547 0.06212,0.147346 0.120719,0.296319 0.175781,0.447266 0.05506,0.150946 0.106492,0.304641 0.154297,0.458984 0.04781,0.154344 0.09247,0.309259 0.132812,0.466797 0.04035,0.157538 0.07669,0.317987 0.109375,0.478516 0.03268,0.160529 0.06112,0.321058 0.08594,0.484375 0.02482,0.163316 0.04575,0.328239 0.0625,0.49414 0.01675,0.165902 0.03059,0.33367 0.03906,0.501954 0.0085,0.168279 0.01172,0.33735 0.01172,0.507812 0,0.170462 -0.0032,0.339533 -0.01172,0.507812 -0.0085,0.168284 -0.02232,0.336052 -0.03906,0.501954 -0.01675,0.165901 -0.03768,0.330824 -0.0625,0.49414 -0.02482,0.163317 -0.05326,0.323846 -0.08594,0.484375 -0.03268,0.160529 -0.06903,0.320978 -0.109375,0.478516 -0.04035,0.157538 -0.08501,0.312453 -0.132812,0.466797 -0.04781,0.154343 -0.09924,0.308038 -0.154297,0.458984 -0.05506,0.150947 -0.113666,0.29992 -0.175781,0.447266 -0.06212,0.147346 -0.126347,0.292004 -0.195313,0.435547 -0.06897,0.143542 -0.141184,0.286245 -0.216797,0.425781 -0.07561,0.139536 -0.156224,0.276783 -0.238281,0.412109 -0.08206,0.135327 -0.165608,0.267524 -0.253906,0.398438 -0.0883,0.130913 -0.181055,0.260421 -0.275391,0.386719 -0.09434,0.126293 -0.190845,0.249615 -0.291015,0.371093 -0.100171,0.121479 -0.202792,0.240966 -0.308594,0.357422 -0.105802,0.116456 -0.214941,0.230566 -0.326172,0.341797 -0.111231,0.111231 -0.225341,0.22037 -0.341797,0.326172 -0.116456,0.105802 -0.235943,0.208423 -0.357422,0.308594 -0.121478,0.10017 -0.2448,0.196679 -0.371093,0.291015 -0.126298,0.09434 -0.255806,0.187093 -0.386719,0.275391 -0.130914,0.0883 -0.263111,0.171849 -0.398438,0.253906 -0.135326,0.08206 -0.272573,0.162668 -0.412109,0.238281 -0.139536,0.07561 -0.282239,0.147832 -0.425781,0.216797 -0.143543,0.06897 -0.288201,0.133197 -0.435547,0.195313 -0.147346,0.06212 -0.296319,0.120719 -0.447266,0.175781 -0.150946,0.05506 -0.304641,0.106492 -0.458984,0.154297 -0.154344,0.04781 -0.309259,0.09247 -0.466797,0.132812 -0.157538,0.04035 -0.317987,0.07669 -0.478516,0.109375 -0.160529,0.03268 -0.321058,0.06112 -0.484375,0.08594 -0.163316,0.02482 -0.328239,0.04575 -0.49414,0.0625 -0.165902,0.01675 -0.33367,0.03059 -0.501954,0.03906 -0.168279,0.0085 -0.33735,0.01172 -0.507812,0.01172 -0.170462,0 -0.339533,-0.0032 -0.507812,-0.01172 -0.168284,-0.0085 -0.336052,-0.02232 -0.501954,-0.03906 -0.165901,-0.01675 -0.330824,-0.03768 -0.49414,-0.0625 -0.163317,-0.02482 -0.323846,-0.05326 -0.484375,-0.08594 -0.160529,-0.03268 -0.320978,-0.06903 -0.478516,-0.109375 -0.157538,-0.04035 -0.312453,-0.08501 -0.466797,-0.132812 C 11.912063,24.356487 11.758368,24.305057 11.607422,24.25 11.456475,24.19494 11.307502,24.136334 11.160156,24.074219 11.01281,24.012099 10.868152,23.947872 10.724609,23.878906 10.581067,23.809936 10.438364,23.737722 10.298828,23.662109 10.159292,23.586496 10.022045,23.505885 9.8867188,23.423828 9.7513924,23.341771 9.6191947,23.25822 9.4882812,23.169922 9.3573682,23.081624 9.22786,22.988867 9.1015625,22.894531 8.975265,22.800195 8.8519467,22.703686 8.7304688,22.603516 8.6089904,22.503345 8.489503,22.400724 8.3730469,22.294922 8.2565907,22.18912 8.1424808,22.079981 8.03125,21.96875 7.9200192,21.857519 7.8108804,21.743409 7.7050781,21.626953 7.5992758,21.510497 7.496655,21.39101 7.3964844,21.269531 7.2963137,21.148053 7.1998043,21.024731 7.1054688,20.898438 7.0111328,20.77214 6.9183762,20.642632 6.8300781,20.511719 6.7417801,20.380805 6.658229,20.248608 6.5761719,20.113281 6.4941148,19.977955 6.4135036,19.840708 6.3378906,19.701172 6.2622776,19.561636 6.1900591,19.418933 6.1210938,19.275391 6.052128,19.131848 5.9878966,18.98719 5.9257812,18.839844 5.8636663,18.692498 5.8050619,18.543525 5.75,18.392578 5.6949381,18.241632 5.6435084,18.087937 5.5957031,17.933594 5.5478978,17.77925 5.5032362,17.624335 5.4628906,17.466797 5.4225451,17.309259 5.3861983,17.14881 5.3535156,16.988281 5.3208329,16.827752 5.2923948,16.667223 5.2675781,16.503906 5.2427614,16.34059 5.2218257,16.175667 5.2050781,16.009766 5.1883305,15.843864 5.174491,15.676096 5.1660156,15.507812 5.1575403,15.339533 5.1542969,15.170462 5.1542969,15 c 0,-0.170462 0.00324,-0.339533 0.011719,-0.507812 0.00848,-0.168284 0.022315,-0.336052 0.039063,-0.501954 0.016748,-0.165901 0.037683,-0.330824 0.0625,-0.49414 0.024817,-0.163317 0.053255,-0.323846 0.085937,-0.484375 0.032683,-0.160529 0.06903,-0.320978 0.109375,-0.478516 0.040346,-0.157538 0.085007,-0.312453 0.1328125,-0.466797 C 5.6435084,11.912063 5.6949381,11.758368 5.75,11.607422 5.8050619,11.456475 5.8636663,11.307502 5.9257812,11.160156 5.9878966,11.01281 6.052128,10.868152 6.1210938,10.724609 6.1900591,10.581067 6.2622776,10.438364 6.3378906,10.298828 6.4135036,10.159292 6.4941148,10.022045 6.5761719,9.8867188 6.658229,9.7513924 6.7417801,9.6191947 6.8300781,9.4882812 6.9183762,9.3573682 7.0111328,9.22786 7.1054688,9.1015625 7.1998043,8.975265 7.2963137,8.8519467 7.3964844,8.7304688 7.496655,8.6089904 7.5992758,8.489503 7.7050781,8.3730469 7.8108804,8.2565907 7.9200192,8.1424808 8.03125,8.03125 8.1424808,7.9200192 8.2565907,7.8108804 8.3730469,7.7050781 8.489503,7.5992758 8.6089904,7.496655 8.7304688,7.3964844 8.8519467,7.2963137 8.975265,7.1998043 9.1015625,7.1054688 9.22786,7.0111328 9.3573682,6.9183762 9.4882812,6.8300781 9.6191947,6.7417801 9.7513924,6.658229 9.8867188,6.5761719 10.022045,6.4941148 10.159292,6.4135036 10.298828,6.3378906 10.438364,6.2622776 10.581067,6.1900591 10.724609,6.1210938 10.868152,6.052128 11.01281,5.9878966 11.160156,5.9257812 11.307502,5.8636663 11.456475,5.8050619 11.607422,5.75 c 0.150946,-0.055062 0.304641,-0.1064916 0.458984,-0.1542969 0.154344,-0.047805 0.309259,-0.092467 0.466797,-0.1328125 0.157538,-0.040345 0.317987,-0.076692 0.478516,-0.109375 0.160529,-0.032683 0.321058,-0.061121 0.484375,-0.085937 0.163316,-0.024817 0.328239,-0.045752 0.49414,-0.0625 0.165902,-0.016748 0.33367,-0.030587 0.501954,-0.039063 0.168279,-0.00848 0.33735,-0.011719 0.507812,-0.011719 z"
               transform="matrix(0.81250003,0,0,0.81250003,2.8125003,2.8125003)" />
            <path
               id="path1576"
               style="opacity:0.07;fill:#1976d2;fill-opacity:1;stroke:none;stroke-width:1.84615;stroke-linecap:round;stroke-linejoin:round;stroke-miterlimit:4;stroke-dasharray:none;stroke-opacity:1;paint-order:stroke markers fill"
               d="M 15,0.23046875 C 6.8178465,0.23046875 0.23046875,6.8178465 0.23046875,15 0.23046875,23.182154 6.8178465,29.769531 15,29.769531 23.182154,29.769531 29.769531,23.182154 29.769531,15 29.769531,6.8178465 23.182154,0.23046875 15,0.23046875 Z m 0,4.92382815 c 0.170462,0 0.339532,0.00324 0.507812,0.011719 0.168284,0.00848 0.336052,0.022315 0.501954,0.039063 0.165901,0.016748 0.330824,0.037683 0.49414,0.0625 0.163317,0.024817 0.323846,0.053255 0.484375,0.085937 0.160529,0.032683 0.320978,0.06903 0.478516,0.109375 0.157538,0.040346 0.312453,0.085007 0.466797,0.1328125 0.154343,0.047805 0.308038,0.099235 0.458984,0.1542969 0.150947,0.055062 0.29992,0.1136662 0.447266,0.1757812 0.147346,0.062115 0.292004,0.1263468 0.435547,0.1953126 0.143542,0.068965 0.286245,0.1411838 0.425781,0.2167968 0.139536,0.075613 0.276783,0.1562242 0.412109,0.2382813 0.135327,0.082057 0.267524,0.1656082 0.398438,0.2539062 0.130913,0.088298 0.260421,0.1810547 0.386719,0.2753907 0.126294,0.094336 0.249615,0.1908449 0.371093,0.2910156 0.121479,0.1001706 0.240966,0.2027914 0.357422,0.3085937 0.116456,0.1058023 0.230566,0.2149411 0.341797,0.3261719 0.111231,0.1112308 0.22037,0.2253407 0.326172,0.3417969 0.105802,0.1164561 0.208423,0.2359435 0.308594,0.3574219 0.10017,0.121478 0.196679,0.2447962 0.291015,0.3710937 0.09434,0.1262975 0.187093,0.2558056 0.275391,0.3867187 0.0883,0.1309135 0.171849,0.2631112 0.253906,0.3984376 0.08206,0.1353259 0.162668,0.2725729 0.238281,0.4121089 0.07561,0.139536 0.147832,0.282239 0.216797,0.425781 0.06897,0.143543 0.133197,0.288201 0.195313,0.435547 0.06212,0.147346 0.120719,0.296319 0.175781,0.447266 0.05506,0.150946 0.106492,0.304641 0.154297,0.458984 0.04781,0.154344 0.09247,0.309259 0.132812,0.466797 0.04035,0.157538 0.07669,0.317987 0.109375,0.478516 0.03268,0.160529 0.06112,0.321058 0.08594,0.484375 0.02482,0.163316 0.04575,0.328239 0.0625,0.49414 0.01675,0.165902 0.03059,0.33367 0.03906,0.501954 0.0085,0.16828 0.01172,0.33735 0.01172,0.507812 0,0.170462 -0.0032,0.339532 -0.01172,0.507812 -0.0085,0.168284 -0.02232,0.336052 -0.03906,0.501954 -0.01675,0.165901 -0.03768,0.330824 -0.0625,0.49414 -0.02482,0.163317 -0.05326,0.323846 -0.08594,0.484375 -0.03268,0.160529 -0.06903,0.320978 -0.109375,0.478516 -0.04035,0.157538 -0.08501,0.312453 -0.132812,0.466797 -0.04781,0.154343 -0.09924,0.308038 -0.154297,0.458984 -0.05506,0.150947 -0.113666,0.29992 -0.175781,0.447266 -0.06212,0.147346 -0.126347,0.292004 -0.195313,0.435547 -0.06897,0.143542 -0.141184,0.286245 -0.216797,0.425781 -0.07561,0.139536 -0.156224,0.276783 -0.238281,0.412109 -0.08206,0.135327 -0.165608,0.267524 -0.253906,0.398438 -0.0883,0.130913 -0.181055,0.260421 -0.275391,0.386719 -0.09434,0.126294 -0.190845,0.249615 -0.291015,0.371093 -0.100171,0.121479 -0.202792,0.240966 -0.308594,0.357422 -0.105802,0.116456 -0.214941,0.230566 -0.326172,0.341797 -0.111231,0.111231 -0.225341,0.22037 -0.341797,0.326172 -0.116456,0.105802 -0.235943,0.208423 -0.357422,0.308594 -0.121478,0.10017 -0.244799,0.196679 -0.371093,0.291015 -0.126298,0.09434 -0.255806,0.187093 -0.386719,0.275391 -0.130914,0.0883 -0.263111,0.171849 -0.398438,0.253906 -0.135326,0.08206 -0.272573,0.162668 -0.412109,0.238281 -0.139536,0.07561 -0.282239,0.147832 -0.425781,0.216797 -0.143543,0.06897 -0.288201,0.133197 -0.435547,0.195313 -0.147346,0.06212 -0.296319,0.120719 -0.447266,0.175781 -0.150946,0.05506 -0.304641,0.106492 -0.458984,0.154297 -0.154344,0.04781 -0.309259,0.09247 -0.466797,0.132812 -0.157538,0.04035 -0.317987,0.07669 -0.478516,0.109375 -0.160529,0.03268 -0.321058,0.06112 -0.484375,0.08594 -0.163316,0.02482 -0.328239,0.04575 -0.49414,0.0625 -0.165902,0.01675 -0.33367,0.03059 -0.501954,0.03906 -0.16828,0.0085 -0.33735,0.01172 -0.507812,0.01172 -0.170462,0 -0.339532,-0.0032 -0.507812,-0.01172 -0.168284,-0.0085 -0.336052,-0.02232 -0.501954,-0.03906 -0.165901,-0.01675 -0.330824,-0.03768 -0.49414,-0.0625 -0.163317,-0.02482 -0.323846,-0.05326 -0.484375,-0.08594 -0.160529,-0.03268 -0.320978,-0.06903 -0.478516,-0.109375 -0.157538,-0.04035 -0.312453,-0.08501 -0.466797,-0.132812 C 11.912063,24.356487 11.758368,24.305057 11.607422,24.25 11.456475,24.19494 11.307502,24.136334 11.160156,24.074219 11.01281,24.012099 10.868152,23.947872 10.724609,23.878906 10.581067,23.809936 10.438364,23.737722 10.298828,23.662109 10.159292,23.586496 10.022045,23.505885 9.8867188,23.423828 9.7513924,23.341771 9.6191947,23.25822 9.4882812,23.169922 9.3573681,23.081624 9.22786,22.988867 9.1015625,22.894531 8.975265,22.800195 8.8519468,22.703686 8.7304688,22.603516 8.6089904,22.503345 8.489503,22.400724 8.3730469,22.294922 8.2565907,22.18912 8.1424808,22.079981 8.03125,21.96875 7.9200192,21.857519 7.8108804,21.743409 7.7050781,21.626953 7.5992758,21.510497 7.496655,21.39101 7.3964844,21.269531 7.2963137,21.148053 7.1998044,21.024732 7.1054688,20.898438 7.0111328,20.77214 6.9183762,20.642632 6.8300781,20.511719 6.7417801,20.380805 6.658229,20.248608 6.5761719,20.113281 6.4941148,19.977955 6.4135036,19.840708 6.3378906,19.701172 6.2622776,19.561636 6.1900592,19.418933 6.1210938,19.275391 6.052128,19.131848 5.9878966,18.98719 5.9257812,18.839844 5.8636662,18.692498 5.8050619,18.543525 5.75,18.392578 5.6949381,18.241632 5.6435084,18.087937 5.5957031,17.933594 5.5478978,17.77925 5.5032362,17.624335 5.4628906,17.466797 5.4225451,17.309259 5.3861983,17.14881 5.3535156,16.988281 5.3208329,16.827752 5.2923948,16.667223 5.2675781,16.503906 5.2427614,16.34059 5.2218257,16.175667 5.2050781,16.009766 5.1883305,15.843864 5.174491,15.676096 5.1660156,15.507812 5.1575403,15.339532 5.1542969,15.170462 5.1542969,15 c 0,-0.170462 0.00324,-0.339532 0.011719,-0.507812 0.00848,-0.168284 0.022315,-0.336052 0.039063,-0.501954 0.016748,-0.165901 0.037683,-0.330824 0.0625,-0.49414 0.024817,-0.163317 0.053255,-0.323846 0.085937,-0.484375 0.032683,-0.160529 0.06903,-0.320978 0.109375,-0.478516 0.040346,-0.157538 0.085007,-0.312453 0.1328125,-0.466797 C 5.6435084,11.912063 5.6949381,11.758368 5.75,11.607422 5.8050619,11.456475 5.8636662,11.307502 5.9257812,11.160156 5.9878966,11.01281 6.052128,10.868152 6.1210938,10.724609 6.1900592,10.581067 6.2622776,10.438364 6.3378906,10.298828 6.4135036,10.159292 6.4941148,10.022045 6.5761719,9.8867188 6.658229,9.7513924 6.7417801,9.6191947 6.8300781,9.4882812 6.9183762,9.3573681 7.0111328,9.22786 7.1054688,9.1015625 7.1998044,8.975265 7.2963137,8.8519468 7.3964844,8.7304688 7.496655,8.6089904 7.5992758,8.489503 7.7050781,8.3730469 7.8108804,8.2565907 7.9200192,8.1424808 8.03125,8.03125 8.1424808,7.9200192 8.2565907,7.8108804 8.3730469,7.7050781 8.489503,7.5992758 8.6089904,7.496655 8.7304688,7.3964844 8.8519468,7.2963137 8.975265,7.1998044 9.1015625,7.1054688 9.22786,7.0111328 9.3573681,6.9183762 9.4882812,6.8300781 9.6191947,6.7417801 9.7513924,6.658229 9.8867188,6.5761719 10.022045,6.4941148 10.159292,6.4135036 10.298828,6.3378906 10.438364,6.2622776 10.581067,6.1900592 10.724609,6.1210938 10.868152,6.052128 11.01281,5.9878966 11.160156,5.9257812 11.307502,5.8636662 11.456475,5.8050619 11.607422,5.75 c 0.150946,-0.055062 0.304641,-0.1064916 0.458984,-0.1542969 0.154344,-0.047805 0.309259,-0.092467 0.466797,-0.1328125 0.157538,-0.040345 0.317987,-0.076692 0.478516,-0.109375 0.160529,-0.032683 0.321058,-0.061121 0.484375,-0.085937 0.163316,-0.024817 0.328239,-0.045752 0.49414,-0.0625 0.165902,-0.016748 0.33367,-0.030587 0.501954,-0.039063 0.16828,-0.00848 0.33735,-0.011719 0.507812,-0.011719 z"
               transform="matrix(0.81250003,0,0,0.81250003,2.8125003,2.8125003)" />
            <path
               id="path1573"
               style="opacity:0.15;fill:#1976d2;fill-opacity:1;stroke:none;stroke-width:1.69231;stroke-linecap:round;stroke-linejoin:round;stroke-miterlimit:4;stroke-dasharray:none;stroke-opacity:1;paint-order:stroke markers fill"
               d="M 15,1.4609375 C 7.4996926,1.4609375 1.4609375,7.4996926 1.4609375,15 1.4609375,22.500307 7.4996926,28.539062 15,28.539062 22.500307,28.539062 28.539062,22.500307 28.539062,15 28.539062,7.4996926 22.500307,1.4609375 15,1.4609375 Z m 0,3.6933594 c 0.170462,0 0.339531,0.00324 0.507812,0.011719 0.168284,0.00848 0.336052,0.022315 0.501954,0.039063 0.165901,0.016748 0.330824,0.037683 0.49414,0.0625 0.163317,0.024817 0.323846,0.053255 0.484375,0.085937 0.160529,0.032683 0.320978,0.06903 0.478516,0.109375 0.157538,0.040346 0.312453,0.085007 0.466797,0.1328125 0.154343,0.047805 0.308038,0.099235 0.458984,0.1542969 0.150947,0.055062 0.29992,0.1136661 0.447266,0.1757812 0.147346,0.062115 0.292004,0.1263468 0.435547,0.1953126 0.143542,0.068966 0.286245,0.1411838 0.425781,0.2167968 0.139536,0.075613 0.276783,0.1562242 0.412109,0.2382813 0.135327,0.082057 0.267524,0.1656082 0.398438,0.2539062 0.130913,0.088298 0.260421,0.1810547 0.386719,0.2753907 0.126295,0.094336 0.249615,0.1908449 0.371093,0.2910156 0.121479,0.1001706 0.240966,0.2027914 0.357422,0.3085937 0.116456,0.1058023 0.230566,0.2149411 0.341797,0.3261719 0.111231,0.1112308 0.22037,0.2253407 0.326172,0.3417969 0.105802,0.1164561 0.208423,0.2359435 0.308594,0.3574219 0.10017,0.1214781 0.196679,0.2447962 0.291015,0.3710937 0.09434,0.1262975 0.187093,0.2558055 0.275391,0.3867187 0.0883,0.1309135 0.171849,0.2631112 0.253906,0.3984376 0.08206,0.1353259 0.162668,0.2725729 0.238281,0.4121089 0.07561,0.139536 0.147832,0.282239 0.216797,0.425781 0.06897,0.143543 0.133197,0.288201 0.195313,0.435547 0.06212,0.147346 0.120719,0.296319 0.175781,0.447266 0.05506,0.150946 0.106492,0.304641 0.154297,0.458984 0.04781,0.154344 0.09247,0.309259 0.132812,0.466797 0.04035,0.157538 0.07669,0.317987 0.109375,0.478516 0.03268,0.160529 0.06112,0.321058 0.08594,0.484375 0.02482,0.163316 0.04575,0.328239 0.0625,0.49414 0.01675,0.165902 0.03059,0.33367 0.03906,0.501954 0.0085,0.168281 0.01172,0.33735 0.01172,0.507812 0,0.170462 -0.0032,0.339531 -0.01172,0.507812 -0.0085,0.168284 -0.02232,0.336052 -0.03906,0.501954 -0.01675,0.165901 -0.03768,0.330824 -0.0625,0.49414 -0.02482,0.163317 -0.05326,0.323846 -0.08594,0.484375 -0.03268,0.160529 -0.06903,0.320978 -0.109375,0.478516 -0.04035,0.157538 -0.08501,0.312453 -0.132812,0.466797 -0.04781,0.154343 -0.09924,0.308038 -0.154297,0.458984 -0.05506,0.150947 -0.113666,0.29992 -0.175781,0.447266 -0.06212,0.147346 -0.126347,0.292004 -0.195313,0.435547 -0.06897,0.143542 -0.141184,0.286245 -0.216797,0.425781 -0.07561,0.139536 -0.156224,0.276783 -0.238281,0.412109 -0.08206,0.135327 -0.165608,0.267524 -0.253906,0.398438 -0.0883,0.130913 -0.181055,0.260421 -0.275391,0.386719 -0.09434,0.126295 -0.190845,0.249615 -0.291015,0.371093 -0.100171,0.121479 -0.202792,0.240966 -0.308594,0.357422 -0.105802,0.116456 -0.214941,0.230566 -0.326172,0.341797 -0.111231,0.111231 -0.225341,0.22037 -0.341797,0.326172 -0.116456,0.105802 -0.235943,0.208423 -0.357422,0.308594 -0.121478,0.10017 -0.244798,0.196679 -0.371093,0.291015 -0.126298,0.09434 -0.255806,0.187093 -0.386719,0.275391 -0.130914,0.0883 -0.263111,0.171849 -0.398438,0.253906 -0.135326,0.08206 -0.272573,0.162668 -0.412109,0.238281 -0.139536,0.07561 -0.282239,0.147832 -0.425781,0.216797 -0.143543,0.06897 -0.288201,0.133197 -0.435547,0.195313 -0.147346,0.06212 -0.296319,0.120719 -0.447266,0.175781 -0.150946,0.05506 -0.304641,0.106492 -0.458984,0.154297 -0.154344,0.04781 -0.309259,0.09247 -0.466797,0.132812 -0.157538,0.04035 -0.317987,0.07669 -0.478516,0.109375 -0.160529,0.03268 -0.321058,0.06112 -0.484375,0.08594 -0.163316,0.02482 -0.328239,0.04575 -0.49414,0.0625 -0.165902,0.01675 -0.33367,0.03059 -0.501954,0.03906 -0.168281,0.0085 -0.33735,0.01172 -0.507812,0.01172 -0.170462,0 -0.339531,-0.0032 -0.507812,-0.01172 -0.168284,-0.0085 -0.336052,-0.02232 -0.501954,-0.03906 -0.165901,-0.01675 -0.330824,-0.03768 -0.49414,-0.0625 -0.163317,-0.02482 -0.323846,-0.05326 -0.484375,-0.08594 -0.160529,-0.03268 -0.320978,-0.06903 -0.478516,-0.109375 -0.157538,-0.04035 -0.312453,-0.08501 -0.466797,-0.132812 C 11.912063,24.356487 11.758368,24.305057 11.607422,24.25 11.456475,24.19494 11.307502,24.136334 11.160156,24.074219 11.01281,24.012099 10.868152,23.947872 10.724609,23.878906 10.581067,23.809936 10.438364,23.737722 10.298828,23.662109 10.159292,23.586496 10.022045,23.505885 9.8867188,23.423828 9.7513924,23.341771 9.6191947,23.25822 9.4882812,23.169922 9.357368,23.081624 9.22786,22.988867 9.1015625,22.894531 8.975265,22.800195 8.8519469,22.703686 8.7304688,22.603516 8.6089904,22.503345 8.489503,22.400724 8.3730469,22.294922 8.2565907,22.18912 8.1424808,22.079981 8.03125,21.96875 7.9200192,21.857519 7.8108804,21.743409 7.7050781,21.626953 7.5992758,21.510497 7.496655,21.39101 7.3964844,21.269531 7.2963137,21.148053 7.1998045,21.024733 7.1054688,20.898438 7.0111328,20.77214 6.9183762,20.642632 6.8300781,20.511719 6.7417801,20.380805 6.658229,20.248608 6.5761719,20.113281 6.4941148,19.977955 6.4135036,19.840708 6.3378906,19.701172 6.2622776,19.561636 6.1900593,19.418933 6.1210938,19.275391 6.052128,19.131848 5.9878966,18.98719 5.9257812,18.839844 5.8636661,18.692498 5.8050619,18.543525 5.75,18.392578 5.6949381,18.241632 5.6435084,18.087937 5.5957031,17.933594 5.5478978,17.77925 5.5032362,17.624335 5.4628906,17.466797 5.4225451,17.309259 5.3861983,17.14881 5.3535156,16.988281 5.3208329,16.827752 5.2923948,16.667223 5.2675781,16.503906 5.2427614,16.34059 5.2218257,16.175667 5.2050781,16.009766 5.1883305,15.843864 5.174491,15.676096 5.1660156,15.507812 5.1575403,15.339531 5.1542969,15.170462 5.1542969,15 c 0,-0.170462 0.00324,-0.339531 0.011719,-0.507812 0.00848,-0.168284 0.022315,-0.336052 0.039063,-0.501954 0.016748,-0.165901 0.037683,-0.330824 0.0625,-0.49414 0.024817,-0.163317 0.053255,-0.323846 0.085937,-0.484375 0.032683,-0.160529 0.06903,-0.320978 0.109375,-0.478516 0.040346,-0.157538 0.085007,-0.312453 0.1328125,-0.466797 C 5.6435084,11.912063 5.6949381,11.758368 5.75,11.607422 5.8050619,11.456475 5.8636661,11.307502 5.9257812,11.160156 5.9878966,11.01281 6.052128,10.868152 6.1210938,10.724609 6.1900593,10.581067 6.2622776,10.438364 6.3378906,10.298828 6.4135036,10.159292 6.4941148,10.022045 6.5761719,9.8867188 6.658229,9.7513924 6.7417801,9.6191947 6.8300781,9.4882812 6.9183762,9.357368 7.0111328,9.22786 7.1054688,9.1015625 7.1998045,8.975265 7.2963137,8.8519469 7.3964844,8.7304688 7.496655,8.6089904 7.5992758,8.489503 7.7050781,8.3730469 7.8108804,8.2565907 7.9200192,8.1424808 8.03125,8.03125 8.1424808,7.9200192 8.2565907,7.8108804 8.3730469,7.7050781 8.489503,7.5992758 8.6089904,7.496655 8.7304688,7.3964844 8.8519469,7.2963137 8.975265,7.1998045 9.1015625,7.1054688 9.22786,7.0111328 9.357368,6.9183762 9.4882812,6.8300781 9.6191947,6.7417801 9.7513924,6.658229 9.8867188,6.5761719 10.022045,6.4941148 10.159292,6.4135036 10.298828,6.3378906 10.438364,6.2622776 10.581067,6.1900593 10.724609,6.1210938 10.868152,6.052128 11.01281,5.9878966 11.160156,5.9257812 11.307502,5.8636661 11.456475,5.8050619 11.607422,5.75 c 0.150946,-0.055062 0.304641,-0.1064916 0.458984,-0.1542969 0.154344,-0.047805 0.309259,-0.092467 0.466797,-0.1328125 0.157538,-0.040345 0.317987,-0.076692 0.478516,-0.109375 0.160529,-0.032683 0.321058,-0.061121 0.484375,-0.085937 0.163316,-0.024817 0.328239,-0.045752 0.49414,-0.0625 0.165902,-0.016748 0.33367,-0.030587 0.501954,-0.039063 0.168281,-0.00848 0.33735,-0.011719 0.507812,-0.011719 z"
               transform="matrix(0.81250003,0,0,0.81250003,2.8125003,2.8125003)" />
            <path
               id="path1570"
               style="opacity:0.3;fill:#1976d2;fill-opacity:1;stroke:none;stroke-width:1.53846;stroke-linecap:round;stroke-linejoin:round;stroke-miterlimit:4;stroke-dasharray:none;stroke-opacity:1;paint-order:stroke markers fill"
               d="M 15,2.6914062 C 8.1815387,2.6914062 2.6914062,8.1815387 2.6914062,15 2.6914062,21.818461 8.1815387,27.308594 15,27.308594 21.818461,27.308594 27.308594,21.818461 27.308594,15 27.308594,8.1815387 21.818461,2.6914062 15,2.6914062 Z m 0,2.4628907 c 0.170462,0 0.33953,0.00324 0.507812,0.011719 0.168284,0.00848 0.336052,0.022315 0.501954,0.039063 0.165901,0.016748 0.330824,0.037683 0.49414,0.0625 0.163317,0.024817 0.323846,0.053255 0.484375,0.085937 0.160529,0.032683 0.320978,0.06903 0.478516,0.109375 0.157538,0.040346 0.312453,0.085007 0.466797,0.1328125 0.154343,0.047805 0.308038,0.099235 0.458984,0.1542969 0.150947,0.055062 0.29992,0.113666 0.447266,0.1757812 0.147346,0.062115 0.292004,0.1263468 0.435547,0.1953126 0.143542,0.068966 0.286245,0.1411838 0.425781,0.2167968 0.139536,0.075613 0.276783,0.1562242 0.412109,0.2382813 0.135327,0.082057 0.267524,0.1656082 0.398438,0.2539062 0.130913,0.088298 0.260421,0.1810547 0.386719,0.2753907 0.126296,0.094336 0.249615,0.1908449 0.371093,0.2910156 0.121479,0.1001706 0.240966,0.2027914 0.357422,0.3085937 0.116456,0.1058023 0.230566,0.2149411 0.341797,0.3261719 0.111231,0.1112308 0.22037,0.2253407 0.326172,0.3417969 0.105802,0.1164561 0.208423,0.2359435 0.308594,0.3574219 0.10017,0.1214782 0.196679,0.2447962 0.291015,0.3710937 0.09434,0.1262975 0.187093,0.2558054 0.275391,0.3867187 0.0883,0.1309135 0.171849,0.2631112 0.253906,0.3984376 0.08206,0.1353259 0.162668,0.2725729 0.238281,0.4121089 0.07561,0.139536 0.147832,0.282239 0.216797,0.425781 0.06897,0.143543 0.133197,0.288201 0.195313,0.435547 0.06212,0.147346 0.120719,0.296319 0.175781,0.447266 0.05506,0.150946 0.106492,0.304641 0.154297,0.458984 0.04781,0.154344 0.09247,0.309259 0.132812,0.466797 0.04035,0.157538 0.07669,0.317987 0.109375,0.478516 0.03268,0.160529 0.06112,0.321058 0.08594,0.484375 0.02482,0.163316 0.04575,0.328239 0.0625,0.49414 0.01675,0.165902 0.03059,0.33367 0.03906,0.501954 0.0085,0.168282 0.01172,0.33735 0.01172,0.507812 0,0.170462 -0.0032,0.33953 -0.01172,0.507812 -0.0085,0.168284 -0.02232,0.336052 -0.03906,0.501954 -0.01675,0.165901 -0.03768,0.330824 -0.0625,0.49414 -0.02482,0.163317 -0.05326,0.323846 -0.08594,0.484375 -0.03268,0.160529 -0.06903,0.320978 -0.109375,0.478516 -0.04035,0.157538 -0.08501,0.312453 -0.132812,0.466797 -0.04781,0.154343 -0.09924,0.308038 -0.154297,0.458984 -0.05506,0.150947 -0.113666,0.29992 -0.175781,0.447266 -0.06212,0.147346 -0.126347,0.292004 -0.195313,0.435547 -0.06897,0.143542 -0.141184,0.286245 -0.216797,0.425781 -0.07561,0.139536 -0.156224,0.276783 -0.238281,0.412109 -0.08206,0.135327 -0.165608,0.267524 -0.253906,0.398438 -0.0883,0.130913 -0.181055,0.260421 -0.275391,0.386719 -0.09434,0.126296 -0.190845,0.249615 -0.291015,0.371093 -0.100171,0.121479 -0.202792,0.240966 -0.308594,0.357422 -0.105802,0.116456 -0.214941,0.230566 -0.326172,0.341797 -0.111231,0.111231 -0.225341,0.22037 -0.341797,0.326172 -0.116456,0.105802 -0.235943,0.208423 -0.357422,0.308594 -0.121478,0.10017 -0.244797,0.196679 -0.371093,0.291015 -0.126298,0.09434 -0.255806,0.187093 -0.386719,0.275391 -0.130914,0.0883 -0.263111,0.171849 -0.398438,0.253906 -0.135326,0.08206 -0.272573,0.162668 -0.412109,0.238281 -0.139536,0.07561 -0.282239,0.147832 -0.425781,0.216797 -0.143543,0.06897 -0.288201,0.133197 -0.435547,0.195313 -0.147346,0.06212 -0.296319,0.120719 -0.447266,0.175781 -0.150946,0.05506 -0.304641,0.106492 -0.458984,0.154297 -0.154344,0.04781 -0.309259,0.09247 -0.466797,0.132812 -0.157538,0.04035 -0.317987,0.07669 -0.478516,0.109375 -0.160529,0.03268 -0.321058,0.06112 -0.484375,0.08594 -0.163316,0.02482 -0.328239,0.04575 -0.49414,0.0625 -0.165902,0.01675 -0.33367,0.03059 -0.501954,0.03906 -0.168282,0.0085 -0.33735,0.01172 -0.507812,0.01172 -0.170462,0 -0.33953,-0.0032 -0.507812,-0.01172 -0.168284,-0.0085 -0.336052,-0.02232 -0.501954,-0.03906 -0.165901,-0.01675 -0.330824,-0.03768 -0.49414,-0.0625 -0.163317,-0.02482 -0.323846,-0.05326 -0.484375,-0.08594 -0.160529,-0.03268 -0.320978,-0.06903 -0.478516,-0.109375 -0.157538,-0.04035 -0.312453,-0.08501 -0.466797,-0.132812 C 11.912063,24.356487 11.758368,24.305057 11.607422,24.25 11.456475,24.19494 11.307502,24.136334 11.160156,24.074219 11.01281,24.012099 10.868152,23.947872 10.724609,23.878906 10.581067,23.809936 10.438364,23.737722 10.298828,23.662109 10.159292,23.586496 10.022045,23.505885 9.8867188,23.423828 9.7513924,23.341771 9.6191947,23.25822 9.4882812,23.169922 9.3573679,23.081624 9.22786,22.988867 9.1015625,22.894531 8.975265,22.800195 8.851947,22.703686 8.7304688,22.603516 8.6089904,22.503345 8.489503,22.400724 8.3730469,22.294922 8.2565907,22.18912 8.1424808,22.079981 8.03125,21.96875 7.9200192,21.857519 7.8108804,21.743409 7.7050781,21.626953 7.5992758,21.510497 7.496655,21.39101 7.3964844,21.269531 7.2963137,21.148053 7.1998046,21.024734 7.1054688,20.898438 7.0111328,20.77214 6.9183762,20.642632 6.8300781,20.511719 6.7417801,20.380805 6.658229,20.248608 6.5761719,20.113281 6.4941148,19.977955 6.4135036,19.840708 6.3378906,19.701172 6.2622776,19.561636 6.1900594,19.418933 6.1210938,19.275391 6.052128,19.131848 5.9878966,18.98719 5.9257812,18.839844 5.863666,18.692498 5.8050619,18.543525 5.75,18.392578 5.6949381,18.241632 5.6435084,18.087937 5.5957031,17.933594 5.5478978,17.77925 5.5032362,17.624335 5.4628906,17.466797 5.4225451,17.309259 5.3861983,17.14881 5.3535156,16.988281 5.3208329,16.827752 5.2923948,16.667223 5.2675781,16.503906 5.2427614,16.34059 5.2218257,16.175667 5.2050781,16.009766 5.1883305,15.843864 5.174491,15.676096 5.1660156,15.507812 5.1575403,15.33953 5.1542969,15.170462 5.1542969,15 c 0,-0.170462 0.00324,-0.33953 0.011719,-0.507812 0.00848,-0.168284 0.022315,-0.336052 0.039063,-0.501954 0.016748,-0.165901 0.037683,-0.330824 0.0625,-0.49414 0.024817,-0.163317 0.053255,-0.323846 0.085937,-0.484375 0.032683,-0.160529 0.06903,-0.320978 0.109375,-0.478516 0.040346,-0.157538 0.085007,-0.312453 0.1328125,-0.466797 C 5.6435084,11.912063 5.6949381,11.758368 5.75,11.607422 5.8050619,11.456475 5.863666,11.307502 5.9257812,11.160156 5.9878966,11.01281 6.052128,10.868152 6.1210938,10.724609 6.1900594,10.581067 6.2622776,10.438364 6.3378906,10.298828 6.4135036,10.159292 6.4941148,10.022045 6.5761719,9.8867188 6.658229,9.7513924 6.7417801,9.6191947 6.8300781,9.4882812 6.9183762,9.3573679 7.0111328,9.22786 7.1054688,9.1015625 7.1998046,8.975265 7.2963137,8.851947 7.3964844,8.7304688 7.496655,8.6089904 7.5992758,8.489503 7.7050781,8.3730469 7.8108804,8.2565907 7.9200192,8.1424808 8.03125,8.03125 8.1424808,7.9200192 8.2565907,7.8108804 8.3730469,7.7050781 8.489503,7.5992758 8.6089904,7.496655 8.7304688,7.3964844 8.851947,7.2963137 8.975265,7.1998046 9.1015625,7.1054688 9.22786,7.0111328 9.3573679,6.9183762 9.4882812,6.8300781 9.6191947,6.7417801 9.7513924,6.658229 9.8867188,6.5761719 10.022045,6.4941148 10.159292,6.4135036 10.298828,6.3378906 10.438364,6.2622776 10.581067,6.1900594 10.724609,6.1210938 10.868152,6.052128 11.01281,5.9878966 11.160156,5.9257812 11.307502,5.863666 11.456475,5.8050619 11.607422,5.75 c 0.150946,-0.055062 0.304641,-0.1064916 0.458984,-0.1542969 0.154344,-0.047805 0.309259,-0.092467 0.466797,-0.1328125 0.157538,-0.040345 0.317987,-0.076692 0.478516,-0.109375 0.160529,-0.032683 0.321058,-0.061121 0.484375,-0.085937 0.163316,-0.024817 0.328239,-0.045752 0.49414,-0.0625 0.165902,-0.016748 0.33367,-0.030587 0.501954,-0.039063 C 14.66047,5.1575403 14.829538,5.1542969 15,5.1542969 Z"
               transform="matrix(0.81250003,0,0,0.81250003,2.8125003,2.8125003)" />
            <path
               id="path1567"
               style="opacity:1;fill:#1976d2;fill-opacity:1;stroke:none;stroke-width:1.38462;stroke-linecap:round;stroke-linejoin:round;stroke-miterlimit:4;stroke-dasharray:none;stroke-opacity:1;paint-order:stroke markers fill"
               d="M 15,3.9238281 C 8.8633848,3.9238281 3.9238281,8.8633848 3.9238281,15 3.9238281,21.136615 8.8633848,26.076172 15,26.076172 21.136615,26.076172 26.076172,21.136615 26.076172,15 26.076172,8.8633848 21.136615,3.9238281 15,3.9238281 Z m 0,1.2304688 c 0.170462,0 0.339529,0.00324 0.507812,0.011719 0.168284,0.00848 0.336052,0.022315 0.501954,0.039063 0.165901,0.016748 0.330824,0.037683 0.49414,0.0625 0.163317,0.024817 0.323846,0.053255 0.484375,0.085937 0.160529,0.032683 0.320978,0.06903 0.478516,0.109375 0.157538,0.040346 0.312453,0.085007 0.466797,0.1328125 0.154343,0.047805 0.308038,0.099235 0.458984,0.1542969 0.150947,0.055062 0.29992,0.1136659 0.447266,0.1757812 0.147346,0.062115 0.292004,0.1263468 0.435547,0.1953126 0.143542,0.068966 0.286245,0.1411838 0.425781,0.2167968 0.139536,0.075613 0.276783,0.1562242 0.412109,0.2382813 0.135327,0.082057 0.267524,0.1656082 0.398438,0.2539062 0.130913,0.088298 0.260421,0.1810547 0.386719,0.2753907 0.126297,0.094336 0.249615,0.1908449 0.371093,0.2910156 0.121479,0.1001706 0.240966,0.2027914 0.357422,0.3085937 0.116456,0.1058023 0.230566,0.2149411 0.341797,0.3261719 0.111231,0.1112308 0.22037,0.2253407 0.326172,0.3417969 0.105802,0.1164561 0.208423,0.2359435 0.308594,0.3574219 0.10017,0.1214783 0.196679,0.2447962 0.291015,0.3710937 0.09434,0.1262975 0.187093,0.2558053 0.275391,0.3867187 0.0883,0.1309135 0.171849,0.2631112 0.253906,0.3984376 0.08206,0.1353259 0.162668,0.2725729 0.238281,0.4121089 0.07561,0.139536 0.147832,0.282239 0.216797,0.425781 0.06897,0.143543 0.133197,0.288201 0.195313,0.435547 0.06212,0.147346 0.120719,0.296319 0.175781,0.447266 0.05506,0.150946 0.106492,0.304641 0.154297,0.458984 0.04781,0.154344 0.09247,0.309259 0.132812,0.466797 0.04035,0.157538 0.07669,0.317987 0.109375,0.478516 0.03268,0.160529 0.06112,0.321058 0.08594,0.484375 0.02482,0.163316 0.04575,0.328239 0.0625,0.49414 0.01675,0.165902 0.03059,0.33367 0.03906,0.501954 0.0085,0.168283 0.01172,0.33735 0.01172,0.507812 0,0.170462 -0.0032,0.339529 -0.01172,0.507812 -0.0085,0.168284 -0.02232,0.336052 -0.03906,0.501954 -0.01675,0.165901 -0.03768,0.330824 -0.0625,0.49414 -0.02482,0.163317 -0.05326,0.323846 -0.08594,0.484375 -0.03268,0.160529 -0.06903,0.320978 -0.109375,0.478516 -0.04035,0.157538 -0.08501,0.312453 -0.132812,0.466797 -0.04781,0.154343 -0.09924,0.308038 -0.154297,0.458984 -0.05506,0.150947 -0.113666,0.29992 -0.175781,0.447266 -0.06212,0.147346 -0.126347,0.292004 -0.195313,0.435547 -0.06897,0.143542 -0.141184,0.286245 -0.216797,0.425781 -0.07561,0.139536 -0.156224,0.276783 -0.238281,0.412109 -0.08206,0.135327 -0.165608,0.267524 -0.253906,0.398438 -0.0883,0.130913 -0.181055,0.260421 -0.275391,0.386719 -0.09434,0.126297 -0.190845,0.249615 -0.291015,0.371093 -0.100171,0.121479 -0.202792,0.240966 -0.308594,0.357422 -0.105802,0.116456 -0.214941,0.230566 -0.326172,0.341797 -0.111231,0.111231 -0.225341,0.22037 -0.341797,0.326172 -0.116456,0.105802 -0.235943,0.208423 -0.357422,0.308594 -0.121478,0.10017 -0.244796,0.196679 -0.371093,0.291015 -0.126298,0.09434 -0.255806,0.187093 -0.386719,0.275391 -0.130914,0.0883 -0.263111,0.171849 -0.398438,0.253906 -0.135326,0.08206 -0.272573,0.162668 -0.412109,0.238281 -0.139536,0.07561 -0.282239,0.147832 -0.425781,0.216797 -0.143543,0.06897 -0.288201,0.133197 -0.435547,0.195313 -0.147346,0.06212 -0.296319,0.120719 -0.447266,0.175781 -0.150946,0.05506 -0.304641,0.106492 -0.458984,0.154297 -0.154344,0.04781 -0.309259,0.09247 -0.466797,0.132812 -0.157538,0.04035 -0.317987,0.07669 -0.478516,0.109375 -0.160529,0.03268 -0.321058,0.06112 -0.484375,0.08594 -0.163316,0.02482 -0.328239,0.04575 -0.49414,0.0625 -0.165902,0.01675 -0.33367,0.03059 -0.501954,0.03906 -0.168283,0.0085 -0.33735,0.01172 -0.507812,0.01172 -0.170462,0 -0.339529,-0.0032 -0.507812,-0.01172 -0.168284,-0.0085 -0.336052,-0.02232 -0.501954,-0.03906 -0.165901,-0.01675 -0.330824,-0.03768 -0.49414,-0.0625 -0.163317,-0.02482 -0.323846,-0.05326 -0.484375,-0.08594 -0.160529,-0.03268 -0.320978,-0.06903 -0.478516,-0.109375 -0.157538,-0.04035 -0.312453,-0.08501 -0.466797,-0.132812 C 11.912063,24.356487 11.758368,24.305057 11.607422,24.25 11.456475,24.19494 11.307502,24.136334 11.160156,24.074219 11.01281,24.012099 10.868152,23.947872 10.724609,23.878906 10.581067,23.809936 10.438364,23.737722 10.298828,23.662109 10.159292,23.586496 10.022045,23.505885 9.8867188,23.423828 9.7513924,23.341771 9.6191947,23.25822 9.4882812,23.169922 9.3573678,23.081624 9.22786,22.988867 9.1015625,22.894531 8.975265,22.800195 8.8519471,22.703686 8.7304688,22.603516 8.6089904,22.503345 8.489503,22.400724 8.3730469,22.294922 8.2565907,22.18912 8.1424808,22.079981 8.03125,21.96875 7.9200192,21.857519 7.8108804,21.743409 7.7050781,21.626953 7.5992758,21.510497 7.496655,21.39101 7.3964844,21.269531 7.2963137,21.148053 7.1998047,21.024735 7.1054688,20.898438 7.0111328,20.77214 6.9183762,20.642632 6.8300781,20.511719 6.7417801,20.380805 6.658229,20.248608 6.5761719,20.113281 6.4941148,19.977955 6.4135036,19.840708 6.3378906,19.701172 6.2622776,19.561636 6.1900595,19.418933 6.1210938,19.275391 6.052128,19.131848 5.9878966,18.98719 5.9257812,18.839844 5.8636659,18.692498 5.8050619,18.543525 5.75,18.392578 5.6949381,18.241632 5.6435084,18.087937 5.5957031,17.933594 5.5478978,17.77925 5.5032362,17.624335 5.4628906,17.466797 5.4225451,17.309259 5.3861983,17.14881 5.3535156,16.988281 5.3208329,16.827752 5.2923948,16.667223 5.2675781,16.503906 5.2427614,16.34059 5.2218257,16.175667 5.2050781,16.009766 5.1883305,15.843864 5.174491,15.676096 5.1660156,15.507812 5.1575403,15.339529 5.1542969,15.170462 5.1542969,15 c 0,-0.170462 0.00324,-0.339529 0.011719,-0.507812 0.00848,-0.168284 0.022315,-0.336052 0.039063,-0.501954 0.016748,-0.165901 0.037683,-0.330824 0.0625,-0.49414 0.024817,-0.163317 0.053255,-0.323846 0.085937,-0.484375 0.032683,-0.160529 0.06903,-0.320978 0.109375,-0.478516 0.040346,-0.157538 0.085007,-0.312453 0.1328125,-0.466797 C 5.6435084,11.912063 5.6949381,11.758368 5.75,11.607422 5.8050619,11.456475 5.8636659,11.307502 5.9257812,11.160156 5.9878966,11.01281 6.052128,10.868152 6.1210938,10.724609 6.1900595,10.581067 6.2622776,10.438364 6.3378906,10.298828 6.4135036,10.159292 6.4941148,10.022045 6.5761719,9.8867188 6.658229,9.7513924 6.7417801,9.6191947 6.8300781,9.4882812 6.9183762,9.3573678 7.0111328,9.22786 7.1054688,9.1015625 7.1998047,8.975265 7.2963137,8.8519471 7.3964844,8.7304688 7.496655,8.6089904 7.5992758,8.489503 7.7050781,8.3730469 7.8108804,8.2565907 7.9200192,8.1424808 8.03125,8.03125 8.1424808,7.9200192 8.2565907,7.8108804 8.3730469,7.7050781 8.489503,7.5992758 8.6089904,7.496655 8.7304688,7.3964844 8.8519471,7.2963137 8.975265,7.1998047 9.1015625,7.1054688 9.22786,7.0111328 9.3573678,6.9183762 9.4882812,6.8300781 9.6191947,6.7417801 9.7513924,6.658229 9.8867188,6.5761719 10.022045,6.4941148 10.159292,6.4135036 10.298828,6.3378906 10.438364,6.2622776 10.581067,6.1900595 10.724609,6.1210938 10.868152,6.052128 11.01281,5.9878966 11.160156,5.9257812 11.307502,5.8636659 11.456475,5.8050619 11.607422,5.75 c 0.150946,-0.055062 0.304641,-0.1064916 0.458984,-0.1542969 0.154344,-0.047805 0.309259,-0.092467 0.466797,-0.1328125 0.157538,-0.040345 0.317987,-0.076692 0.478516,-0.109375 0.160529,-0.032683 0.321058,-0.061121 0.484375,-0.085937 0.163316,-0.024817 0.328239,-0.045752 0.49414,-0.0625 0.165902,-0.016748 0.33367,-0.030587 0.501954,-0.039063 0.168283,-0.00848 0.33735,-0.011719 0.507812,-0.011719 z"
               transform="matrix(0.81250003,0,0,0.81250003,2.8125003,2.8125003)" />
            <path
               style="fill:#1e88e5;fill-opacity:1;fill-rule:evenodd;stroke:#1e88e5;stroke-width:2;stroke-linecap:round;stroke-linejoin:round;stroke-miterlimit:4;stroke-dasharray:none;stroke-opacity:1"
               d="m 11.999879,16.999933 3,-4 3,4 z"
               id="path1012"
               inkscape:connector-curvature="0"
               sodipodi:nodetypes="cccc" />
          </g>
        </g>
      </g>
    </g>
  </g>
</svg>
