<svg width="720" height="82" viewBox="0 0 720 82" fill="none" xmlns="http://www.w3.org/2000/svg">
<rect width="360" height="41" fill="#EFF0F1"/>
<rect x="12" y="16" width="14" height="1" fill="#DA4453"/>
<rect x="14" y="28" width="10" height="1" fill="#DA4453"/>
<rect x="16" y="13" width="6" height="1" fill="#DA4453"/>
<rect x="14" y="18" width="1" height="10" fill="#DA4453"/>
<rect x="23" y="18" width="1" height="10" fill="#DA4453"/>
<rect x="21" y="14" width="1" height="1" fill="#DA4453"/>
<rect x="16" y="14" width="1" height="1" fill="#DA4453"/>
<path d="M40.164 25V16.432H41.244V24.04H44.988V25H40.164ZM48.749 18.46C49.533 18.46 50.113 18.632 50.489 18.976C50.865 19.32 51.053 19.868 51.053 20.62V25H50.285L50.081 24.088H50.033C49.849 24.32 49.657 24.516 49.457 24.676C49.265 24.828 49.041 24.94 48.785 25.012C48.537 25.084 48.233 25.12 47.873 25.12C47.489 25.12 47.141 25.052 46.829 24.916C46.525 24.78 46.285 24.572 46.109 24.292C45.933 24.004 45.845 23.644 45.845 23.212C45.845 22.572 46.097 22.08 46.601 21.736C47.105 21.384 47.881 21.192 48.929 21.16L50.021 21.124V20.74C50.021 20.204 49.905 19.832 49.673 19.624C49.441 19.416 49.113 19.312 48.689 19.312C48.353 19.312 48.033 19.364 47.729 19.468C47.425 19.564 47.141 19.676 46.877 19.804L46.553 19.012C46.833 18.86 47.165 18.732 47.549 18.628C47.933 18.516 48.333 18.46 48.749 18.46ZM50.009 21.856L49.061 21.892C48.261 21.924 47.705 22.052 47.393 22.276C47.089 22.5 46.937 22.816 46.937 23.224C46.937 23.584 47.045 23.848 47.261 24.016C47.485 24.184 47.769 24.268 48.113 24.268C48.657 24.268 49.109 24.12 49.469 23.824C49.829 23.52 50.009 23.056 50.009 22.432V21.856ZM54.0955 15.88V18.1C54.0955 18.372 54.0875 18.628 54.0715 18.868C54.0635 19.1 54.0515 19.284 54.0355 19.42H54.0955C54.2795 19.148 54.5315 18.92 54.8515 18.736C55.1715 18.552 55.5835 18.46 56.0875 18.46C56.8875 18.46 57.5275 18.74 58.0075 19.3C58.4955 19.852 58.7395 20.68 58.7395 21.784C58.7395 22.52 58.6275 23.136 58.4035 23.632C58.1875 24.128 57.8795 24.5 57.4795 24.748C57.0795 24.996 56.6155 25.12 56.0875 25.12C55.5835 25.12 55.1715 25.028 54.8515 24.844C54.5315 24.66 54.2795 24.44 54.0955 24.184H54.0115L53.7955 25H53.0395V15.88H54.0955ZM55.9075 19.336C55.4515 19.336 55.0915 19.424 54.8275 19.6C54.5635 19.768 54.3755 20.032 54.2635 20.392C54.1515 20.744 54.0955 21.196 54.0955 21.748V21.796C54.0955 22.588 54.2235 23.196 54.4795 23.62C54.7435 24.036 55.2275 24.244 55.9315 24.244C56.5075 24.244 56.9355 24.032 57.2155 23.608C57.5035 23.184 57.6475 22.572 57.6475 21.772C57.6475 20.964 57.5035 20.356 57.2155 19.948C56.9355 19.54 56.4995 19.336 55.9075 19.336ZM62.9063 18.448C63.4583 18.448 63.9303 18.568 64.3223 18.808C64.7223 19.048 65.0263 19.388 65.2343 19.828C65.4503 20.26 65.5583 20.768 65.5583 21.352V21.988H61.1543C61.1703 22.716 61.3543 23.272 61.7063 23.656C62.0663 24.032 62.5663 24.22 63.2063 24.22C63.6143 24.22 63.9743 24.184 64.2863 24.112C64.6063 24.032 64.9343 23.92 65.2703 23.776V24.7C64.9423 24.844 64.6183 24.948 64.2983 25.012C63.9783 25.084 63.5983 25.12 63.1583 25.12C62.5503 25.12 62.0103 24.996 61.5383 24.748C61.0743 24.5 60.7103 24.132 60.4463 23.644C60.1903 23.148 60.0623 22.544 60.0623 21.832C60.0623 21.128 60.1783 20.524 60.4103 20.02C60.6503 19.516 60.9823 19.128 61.4063 18.856C61.8383 18.584 62.3383 18.448 62.9063 18.448ZM62.8943 19.312C62.3903 19.312 61.9903 19.476 61.6943 19.804C61.4063 20.124 61.2343 20.572 61.1783 21.148H64.4543C64.4543 20.78 64.3983 20.46 64.2863 20.188C64.1743 19.916 64.0023 19.704 63.7703 19.552C63.5463 19.392 63.2543 19.312 62.8943 19.312ZM68.2518 25H67.1958V15.88H68.2518V25Z" fill="black"/>
<rect y="41" width="360" height="41" fill="#EFF0F1"/>
<path d="M10.164 66V57.432H11.244V65.04H14.988V66H10.164ZM18.749 59.46C19.533 59.46 20.113 59.632 20.489 59.976C20.865 60.32 21.053 60.868 21.053 61.62V66H20.285L20.081 65.088H20.033C19.849 65.32 19.657 65.516 19.457 65.676C19.265 65.828 19.041 65.94 18.785 66.012C18.537 66.084 18.233 66.12 17.873 66.12C17.489 66.12 17.141 66.052 16.829 65.916C16.525 65.78 16.285 65.572 16.109 65.292C15.933 65.004 15.845 64.644 15.845 64.212C15.845 63.572 16.097 63.08 16.601 62.736C17.105 62.384 17.881 62.192 18.929 62.16L20.021 62.124V61.74C20.021 61.204 19.905 60.832 19.673 60.624C19.441 60.416 19.113 60.312 18.689 60.312C18.353 60.312 18.033 60.364 17.729 60.468C17.425 60.564 17.141 60.676 16.877 60.804L16.553 60.012C16.833 59.86 17.165 59.732 17.549 59.628C17.933 59.516 18.333 59.46 18.749 59.46ZM20.009 62.856L19.061 62.892C18.261 62.924 17.705 63.052 17.393 63.276C17.089 63.5 16.937 63.816 16.937 64.224C16.937 64.584 17.045 64.848 17.261 65.016C17.485 65.184 17.769 65.268 18.113 65.268C18.657 65.268 19.109 65.12 19.469 64.824C19.829 64.52 20.009 64.056 20.009 63.432V62.856ZM24.0955 56.88V59.1C24.0955 59.372 24.0875 59.628 24.0715 59.868C24.0635 60.1 24.0515 60.284 24.0355 60.42H24.0955C24.2795 60.148 24.5315 59.92 24.8515 59.736C25.1715 59.552 25.5835 59.46 26.0875 59.46C26.8875 59.46 27.5275 59.74 28.0075 60.3C28.4955 60.852 28.7395 61.68 28.7395 62.784C28.7395 63.52 28.6275 64.136 28.4035 64.632C28.1875 65.128 27.8795 65.5 27.4795 65.748C27.0795 65.996 26.6155 66.12 26.0875 66.12C25.5835 66.12 25.1715 66.028 24.8515 65.844C24.5315 65.66 24.2795 65.44 24.0955 65.184H24.0115L23.7955 66H23.0395V56.88H24.0955ZM25.9075 60.336C25.4515 60.336 25.0915 60.424 24.8275 60.6C24.5635 60.768 24.3755 61.032 24.2635 61.392C24.1515 61.744 24.0955 62.196 24.0955 62.748V62.796C24.0955 63.588 24.2235 64.196 24.4795 64.62C24.7435 65.036 25.2275 65.244 25.9315 65.244C26.5075 65.244 26.9355 65.032 27.2155 64.608C27.5035 64.184 27.6475 63.572 27.6475 62.772C27.6475 61.964 27.5035 61.356 27.2155 60.948C26.9355 60.54 26.4995 60.336 25.9075 60.336ZM32.9063 59.448C33.4583 59.448 33.9303 59.568 34.3223 59.808C34.7223 60.048 35.0263 60.388 35.2343 60.828C35.4503 61.26 35.5583 61.768 35.5583 62.352V62.988H31.1543C31.1703 63.716 31.3543 64.272 31.7063 64.656C32.0663 65.032 32.5663 65.22 33.2063 65.22C33.6143 65.22 33.9743 65.184 34.2863 65.112C34.6063 65.032 34.9343 64.92 35.2703 64.776V65.7C34.9423 65.844 34.6183 65.948 34.2983 66.012C33.9783 66.084 33.5983 66.12 33.1583 66.12C32.5503 66.12 32.0103 65.996 31.5383 65.748C31.0743 65.5 30.7103 65.132 30.4463 64.644C30.1903 64.148 30.0623 63.544 30.0623 62.832C30.0623 62.128 30.1783 61.524 30.4103 61.02C30.6503 60.516 30.9823 60.128 31.4063 59.856C31.8383 59.584 32.3383 59.448 32.9063 59.448ZM32.8943 60.312C32.3903 60.312 31.9903 60.476 31.6943 60.804C31.4063 61.124 31.2343 61.572 31.1783 62.148H34.4543C34.4543 61.78 34.3983 61.46 34.2863 61.188C34.1743 60.916 34.0023 60.704 33.7703 60.552C33.5463 60.392 33.2543 60.312 32.8943 60.312ZM38.2518 66H37.1958V56.88H38.2518V66Z" fill="black"/>
<rect x="360" width="360" height="41" fill="#EFF0F1"/>
<rect x="372" y="16" width="14" height="1" fill="#DA4453"/>
<rect x="374" y="28" width="10" height="1" fill="#DA4453"/>
<rect x="376" y="13" width="6" height="1" fill="#DA4453"/>
<rect x="374" y="18" width="1" height="10" fill="#DA4453"/>
<rect x="383" y="18" width="1" height="10" fill="#DA4453"/>
<rect x="381" y="14" width="1" height="1" fill="#DA4453"/>
<rect x="376" y="14" width="1" height="1" fill="#DA4453"/>
<path d="M400.164 25V16.432H401.244V24.04H404.988V25H400.164ZM408.749 18.46C409.533 18.46 410.113 18.632 410.489 18.976C410.865 19.32 411.053 19.868 411.053 20.62V25H410.285L410.081 24.088H410.033C409.849 24.32 409.657 24.516 409.457 24.676C409.265 24.828 409.041 24.94 408.785 25.012C408.537 25.084 408.233 25.12 407.873 25.12C407.489 25.12 407.141 25.052 406.829 24.916C406.525 24.78 406.285 24.572 406.109 24.292C405.933 24.004 405.845 23.644 405.845 23.212C405.845 22.572 406.097 22.08 406.601 21.736C407.105 21.384 407.881 21.192 408.929 21.16L410.021 21.124V20.74C410.021 20.204 409.905 19.832 409.673 19.624C409.441 19.416 409.113 19.312 408.689 19.312C408.353 19.312 408.033 19.364 407.729 19.468C407.425 19.564 407.141 19.676 406.877 19.804L406.553 19.012C406.833 18.86 407.165 18.732 407.549 18.628C407.933 18.516 408.333 18.46 408.749 18.46ZM410.009 21.856L409.061 21.892C408.261 21.924 407.705 22.052 407.393 22.276C407.089 22.5 406.937 22.816 406.937 23.224C406.937 23.584 407.045 23.848 407.261 24.016C407.485 24.184 407.769 24.268 408.113 24.268C408.657 24.268 409.109 24.12 409.469 23.824C409.829 23.52 410.009 23.056 410.009 22.432V21.856ZM414.096 15.88V18.1C414.096 18.372 414.088 18.628 414.072 18.868C414.064 19.1 414.052 19.284 414.036 19.42H414.096C414.28 19.148 414.532 18.92 414.852 18.736C415.172 18.552 415.584 18.46 416.088 18.46C416.888 18.46 417.528 18.74 418.008 19.3C418.496 19.852 418.74 20.68 418.74 21.784C418.74 22.52 418.628 23.136 418.404 23.632C418.188 24.128 417.88 24.5 417.48 24.748C417.08 24.996 416.616 25.12 416.088 25.12C415.584 25.12 415.172 25.028 414.852 24.844C414.532 24.66 414.28 24.44 414.096 24.184H414.012L413.796 25H413.04V15.88H414.096ZM415.908 19.336C415.452 19.336 415.092 19.424 414.828 19.6C414.564 19.768 414.376 20.032 414.264 20.392C414.152 20.744 414.096 21.196 414.096 21.748V21.796C414.096 22.588 414.224 23.196 414.48 23.62C414.744 24.036 415.228 24.244 415.932 24.244C416.508 24.244 416.936 24.032 417.216 23.608C417.504 23.184 417.648 22.572 417.648 21.772C417.648 20.964 417.504 20.356 417.216 19.948C416.936 19.54 416.5 19.336 415.908 19.336ZM422.906 18.448C423.458 18.448 423.93 18.568 424.322 18.808C424.722 19.048 425.026 19.388 425.234 19.828C425.45 20.26 425.558 20.768 425.558 21.352V21.988H421.154C421.17 22.716 421.354 23.272 421.706 23.656C422.066 24.032 422.566 24.22 423.206 24.22C423.614 24.22 423.974 24.184 424.286 24.112C424.606 24.032 424.934 23.92 425.27 23.776V24.7C424.942 24.844 424.618 24.948 424.298 25.012C423.978 25.084 423.598 25.12 423.158 25.12C422.55 25.12 422.01 24.996 421.538 24.748C421.074 24.5 420.71 24.132 420.446 23.644C420.19 23.148 420.062 22.544 420.062 21.832C420.062 21.128 420.178 20.524 420.41 20.02C420.65 19.516 420.982 19.128 421.406 18.856C421.838 18.584 422.338 18.448 422.906 18.448ZM422.894 19.312C422.39 19.312 421.99 19.476 421.694 19.804C421.406 20.124 421.234 20.572 421.178 21.148H424.454C424.454 20.78 424.398 20.46 424.286 20.188C424.174 19.916 424.002 19.704 423.77 19.552C423.546 19.392 423.254 19.312 422.894 19.312ZM428.252 25H427.196V15.88H428.252V25Z" fill="black"/>
<rect x="360" y="41" width="360" height="41" fill="#EFF0F1"/>
<path d="M400.164 66V57.432H401.244V65.04H404.988V66H400.164ZM408.749 59.46C409.533 59.46 410.113 59.632 410.489 59.976C410.865 60.32 411.053 60.868 411.053 61.62V66H410.285L410.081 65.088H410.033C409.849 65.32 409.657 65.516 409.457 65.676C409.265 65.828 409.041 65.94 408.785 66.012C408.537 66.084 408.233 66.12 407.873 66.12C407.489 66.12 407.141 66.052 406.829 65.916C406.525 65.78 406.285 65.572 406.109 65.292C405.933 65.004 405.845 64.644 405.845 64.212C405.845 63.572 406.097 63.08 406.601 62.736C407.105 62.384 407.881 62.192 408.929 62.16L410.021 62.124V61.74C410.021 61.204 409.905 60.832 409.673 60.624C409.441 60.416 409.113 60.312 408.689 60.312C408.353 60.312 408.033 60.364 407.729 60.468C407.425 60.564 407.141 60.676 406.877 60.804L406.553 60.012C406.833 59.86 407.165 59.732 407.549 59.628C407.933 59.516 408.333 59.46 408.749 59.46ZM410.009 62.856L409.061 62.892C408.261 62.924 407.705 63.052 407.393 63.276C407.089 63.5 406.937 63.816 406.937 64.224C406.937 64.584 407.045 64.848 407.261 65.016C407.485 65.184 407.769 65.268 408.113 65.268C408.657 65.268 409.109 65.12 409.469 64.824C409.829 64.52 410.009 64.056 410.009 63.432V62.856ZM414.096 56.88V59.1C414.096 59.372 414.088 59.628 414.072 59.868C414.064 60.1 414.052 60.284 414.036 60.42H414.096C414.28 60.148 414.532 59.92 414.852 59.736C415.172 59.552 415.584 59.46 416.088 59.46C416.888 59.46 417.528 59.74 418.008 60.3C418.496 60.852 418.74 61.68 418.74 62.784C418.74 63.52 418.628 64.136 418.404 64.632C418.188 65.128 417.88 65.5 417.48 65.748C417.08 65.996 416.616 66.12 416.088 66.12C415.584 66.12 415.172 66.028 414.852 65.844C414.532 65.66 414.28 65.44 414.096 65.184H414.012L413.796 66H413.04V56.88H414.096ZM415.908 60.336C415.452 60.336 415.092 60.424 414.828 60.6C414.564 60.768 414.376 61.032 414.264 61.392C414.152 61.744 414.096 62.196 414.096 62.748V62.796C414.096 63.588 414.224 64.196 414.48 64.62C414.744 65.036 415.228 65.244 415.932 65.244C416.508 65.244 416.936 65.032 417.216 64.608C417.504 64.184 417.648 63.572 417.648 62.772C417.648 61.964 417.504 61.356 417.216 60.948C416.936 60.54 416.5 60.336 415.908 60.336ZM422.906 59.448C423.458 59.448 423.93 59.568 424.322 59.808C424.722 60.048 425.026 60.388 425.234 60.828C425.45 61.26 425.558 61.768 425.558 62.352V62.988H421.154C421.17 63.716 421.354 64.272 421.706 64.656C422.066 65.032 422.566 65.22 423.206 65.22C423.614 65.22 423.974 65.184 424.286 65.112C424.606 65.032 424.934 64.92 425.27 64.776V65.7C424.942 65.844 424.618 65.948 424.298 66.012C423.978 66.084 423.598 66.12 423.158 66.12C422.55 66.12 422.01 65.996 421.538 65.748C421.074 65.5 420.71 65.132 420.446 64.644C420.19 64.148 420.062 63.544 420.062 62.832C420.062 62.128 420.178 61.524 420.41 61.02C420.65 60.516 420.982 60.128 421.406 59.856C421.838 59.584 422.338 59.448 422.906 59.448ZM422.894 60.312C422.39 60.312 421.99 60.476 421.694 60.804C421.406 61.124 421.234 61.572 421.178 62.148H424.454C424.454 61.78 424.398 61.46 424.286 61.188C424.174 60.916 424.002 60.704 423.77 60.552C423.546 60.392 423.254 60.312 422.894 60.312ZM428.252 66H427.196V56.88H428.252V66Z" fill="black"/>
</svg>
