<svg width="360" height="123" viewBox="0 0 360 123" fill="none" xmlns="http://www.w3.org/2000/svg">
<rect width="360" height="41" fill="#EFF0F1"/>
<rect x="12" y="16" width="14" height="1" fill="#DA4453"/>
<rect x="14" y="28" width="10" height="1" fill="#DA4453"/>
<rect x="16" y="13" width="6" height="1" fill="#DA4453"/>
<rect x="14" y="18" width="1" height="10" fill="#DA4453"/>
<rect x="23" y="18" width="1" height="10" fill="#DA4453"/>
<rect x="21" y="14" width="1" height="1" fill="#DA4453"/>
<rect x="16" y="14" width="1" height="1" fill="#DA4453"/>
<path d="M43.188 18H41.652V10.728H39.192V9.432H45.648V10.728H43.188V18ZM47.5718 8.988C47.8038 8.988 47.9998 9.048 48.1598 9.168C48.3278 9.28 48.4118 9.484 48.4118 9.78C48.4118 10.076 48.3278 10.284 48.1598 10.404C47.9998 10.524 47.8038 10.584 47.5718 10.584C47.3398 10.584 47.1398 10.524 46.9718 10.404C46.8118 10.284 46.7318 10.076 46.7318 9.78C46.7318 9.484 46.8118 9.28 46.9718 9.168C47.1398 9.048 47.3398 8.988 47.5718 8.988ZM48.3278 11.496V18H46.8158V11.496H48.3278ZM52.7811 16.908C52.9651 16.908 53.1451 16.892 53.3211 16.86C53.5051 16.82 53.6731 16.776 53.8251 16.728V17.856C53.6651 17.928 53.4571 17.988 53.2011 18.036C52.9451 18.092 52.6771 18.12 52.3971 18.12C52.0291 18.12 51.6931 18.06 51.3891 17.94C51.0851 17.812 50.8451 17.596 50.6691 17.292C50.4931 16.988 50.4051 16.564 50.4051 16.02V12.636H49.5291V11.976L50.4891 11.448L50.9691 10.068H51.9171V11.496H53.7651V12.636H51.9171V16.008C51.9171 16.312 51.9971 16.54 52.1571 16.692C52.3171 16.836 52.5251 16.908 52.7811 16.908ZM56.6481 18H55.1361V8.88H56.6481V18ZM61.1974 11.376C62.0694 11.376 62.7574 11.636 63.2614 12.156C63.7734 12.676 64.0294 13.4 64.0294 14.328V15.096H59.7334C59.7494 15.688 59.9134 16.148 60.2254 16.476C60.5374 16.796 60.9694 16.956 61.5214 16.956C61.9374 16.956 62.3134 16.916 62.6494 16.836C62.9854 16.748 63.3294 16.624 63.6814 16.464V17.676C63.3614 17.828 63.0294 17.94 62.6854 18.012C62.3414 18.084 61.9294 18.12 61.4494 18.12C60.8174 18.12 60.2534 18 59.7574 17.76C59.2694 17.512 58.8854 17.14 58.6054 16.644C58.3334 16.148 58.1974 15.532 58.1974 14.796C58.1974 13.684 58.4734 12.836 59.0254 12.252C59.5774 11.668 60.3014 11.376 61.1974 11.376ZM61.1974 12.492C60.7894 12.492 60.4574 12.624 60.2014 12.888C59.9534 13.144 59.8094 13.528 59.7694 14.04H62.5654C62.5574 13.592 62.4414 13.224 62.2174 12.936C62.0014 12.64 61.6614 12.492 61.1974 12.492ZM68.1792 14.712C68.1792 13.736 68.3192 12.796 68.5992 11.892C68.8872 10.98 69.3352 10.16 69.9432 9.432H71.2272C70.6752 10.184 70.2592 11.012 69.9792 11.916C69.6992 12.82 69.5592 13.748 69.5592 14.7C69.5592 15.628 69.6992 16.54 69.9792 17.436C70.2592 18.332 70.6712 19.152 71.2152 19.896H69.9432C69.3352 19.192 68.8872 18.396 68.5992 17.508C68.3192 16.612 68.1792 15.68 68.1792 14.712ZM72.7058 18V9.432H74.2418V16.704H77.8178V18H72.7058ZM81.7515 11.376C82.5915 11.376 83.2275 11.56 83.6595 11.928C84.0995 12.296 84.3195 12.864 84.3195 13.632V18H83.2515L82.9515 17.1H82.9035C82.6235 17.452 82.3275 17.712 82.0155 17.88C81.7035 18.04 81.2795 18.12 80.7435 18.12C80.1595 18.12 79.6755 17.956 79.2915 17.628C78.9075 17.3 78.7155 16.792 78.7155 16.104C78.7155 15.432 78.9595 14.928 79.4475 14.592C79.9435 14.256 80.6915 14.068 81.6915 14.028L82.8195 13.992V13.668C82.8195 13.26 82.7195 12.968 82.5195 12.792C82.3195 12.608 82.0395 12.516 81.6795 12.516C81.3515 12.516 81.0355 12.564 80.7315 12.66C80.4355 12.756 80.1395 12.868 79.8435 12.996L79.3635 11.94C79.6835 11.772 80.0475 11.636 80.4555 11.532C80.8715 11.428 81.3035 11.376 81.7515 11.376ZM82.8195 14.928L82.0275 14.952C81.3635 14.976 80.9035 15.092 80.6475 15.3C80.3915 15.5 80.2635 15.772 80.2635 16.116C80.2635 16.428 80.3515 16.652 80.5275 16.788C80.7115 16.916 80.9515 16.98 81.2475 16.98C81.6875 16.98 82.0595 16.856 82.3635 16.608C82.6675 16.352 82.8195 15.976 82.8195 15.48V14.928ZM87.7262 8.88V11.04C87.7262 11.296 87.7182 11.544 87.7022 11.784C87.6862 12.024 87.6702 12.212 87.6542 12.348H87.7262C87.9022 12.076 88.1422 11.848 88.4462 11.664C88.7502 11.472 89.1462 11.376 89.6342 11.376C90.3862 11.376 90.9942 11.66 91.4582 12.228C91.9302 12.796 92.1662 13.632 92.1662 14.736C92.1662 15.856 91.9302 16.7 91.4582 17.268C90.9862 17.836 90.3662 18.12 89.5982 18.12C89.1102 18.12 88.7182 18.032 88.4222 17.856C88.1342 17.68 87.9022 17.476 87.7262 17.244H87.6182L87.3422 18H86.2142V8.88H87.7262ZM89.2022 12.6C88.6582 12.6 88.2782 12.764 88.0622 13.092C87.8462 13.42 87.7342 13.924 87.7262 14.604V14.736C87.7262 15.432 87.8302 15.964 88.0382 16.332C88.2542 16.7 88.6502 16.884 89.2262 16.884C89.6742 16.884 90.0182 16.7 90.2582 16.332C90.4982 15.956 90.6182 15.42 90.6182 14.724C90.6182 14.012 90.4942 13.48 90.2462 13.128C90.0062 12.776 89.6582 12.6 89.2022 12.6ZM96.3419 11.376C97.2139 11.376 97.9019 11.636 98.4059 12.156C98.9179 12.676 99.1739 13.4 99.1739 14.328V15.096H94.8779C94.8939 15.688 95.0579 16.148 95.3699 16.476C95.6819 16.796 96.1139 16.956 96.6659 16.956C97.0819 16.956 97.4579 16.916 97.7939 16.836C98.1299 16.748 98.4739 16.624 98.8259 16.464V17.676C98.5059 17.828 98.1739 17.94 97.8299 18.012C97.4859 18.084 97.0739 18.12 96.5939 18.12C95.9619 18.12 95.3979 18 94.9019 17.76C94.4139 17.512 94.0299 17.14 93.7499 16.644C93.4779 16.148 93.3419 15.532 93.3419 14.796C93.3419 13.684 93.6179 12.836 94.1699 12.252C94.7219 11.668 95.4459 11.376 96.3419 11.376ZM96.3419 12.492C95.9339 12.492 95.6019 12.624 95.3459 12.888C95.0979 13.144 94.9539 13.528 94.9139 14.04H97.7099C97.7019 13.592 97.5859 13.224 97.3619 12.936C97.1459 12.64 96.8059 12.492 96.3419 12.492ZM102.211 18H100.699V8.88H102.211V18ZM106.58 14.712C106.58 15.68 106.436 16.612 106.148 17.508C105.868 18.396 105.424 19.192 104.816 19.896H103.544C104.088 19.152 104.5 18.332 104.78 17.436C105.068 16.54 105.212 15.628 105.212 14.7C105.212 13.748 105.068 12.82 104.78 11.916C104.5 11.012 104.084 10.184 103.532 9.432H104.816C105.424 10.16 105.868 10.98 106.148 11.892C106.436 12.796 106.58 13.736 106.58 14.712Z" fill="black"/>
<path d="M45.024 31.708C45.024 32.22 44.9 32.656 44.652 33.016C44.404 33.368 44.048 33.64 43.584 33.832C43.128 34.024 42.588 34.12 41.964 34.12C41.644 34.12 41.336 34.104 41.04 34.072C40.752 34.04 40.488 33.996 40.248 33.94C40.008 33.876 39.796 33.8 39.612 33.712V32.68C39.9 32.808 40.256 32.924 40.68 33.028C41.112 33.132 41.556 33.184 42.012 33.184C42.436 33.184 42.792 33.128 43.08 33.016C43.368 32.904 43.584 32.744 43.728 32.536C43.872 32.328 43.944 32.084 43.944 31.804C43.944 31.524 43.884 31.288 43.764 31.096C43.644 30.904 43.436 30.728 43.14 30.568C42.852 30.4 42.448 30.224 41.928 30.04C41.56 29.904 41.236 29.76 40.956 29.608C40.684 29.448 40.456 29.268 40.272 29.068C40.088 28.868 39.948 28.64 39.852 28.384C39.764 28.128 39.72 27.832 39.72 27.496C39.72 27.04 39.836 26.652 40.068 26.332C40.3 26.004 40.62 25.752 41.028 25.576C41.444 25.4 41.92 25.312 42.456 25.312C42.928 25.312 43.36 25.356 43.752 25.444C44.144 25.532 44.5 25.648 44.82 25.792L44.484 26.716C44.188 26.588 43.864 26.48 43.512 26.392C43.168 26.304 42.808 26.26 42.432 26.26C42.072 26.26 41.772 26.312 41.532 26.416C41.292 26.52 41.112 26.668 40.992 26.86C40.872 27.044 40.812 27.26 40.812 27.508C40.812 27.796 40.872 28.036 40.992 28.228C41.112 28.42 41.308 28.592 41.58 28.744C41.852 28.896 42.22 29.06 42.684 29.236C43.188 29.42 43.612 29.62 43.956 29.836C44.308 30.044 44.572 30.296 44.748 30.592C44.932 30.888 45.024 31.26 45.024 31.708ZM51.9819 27.568V34H51.1179L50.9619 33.148H50.9139C50.7779 33.372 50.6019 33.556 50.3859 33.7C50.1699 33.844 49.9339 33.948 49.6779 34.012C49.4219 34.084 49.1539 34.12 48.8739 34.12C48.3619 34.12 47.9299 34.04 47.5779 33.88C47.2339 33.712 46.9739 33.456 46.7979 33.112C46.6219 32.768 46.5339 32.324 46.5339 31.78V27.568H47.6019V31.708C47.6019 32.22 47.7179 32.604 47.9499 32.86C48.1819 33.116 48.5419 33.244 49.0299 33.244C49.5099 33.244 49.8859 33.156 50.1579 32.98C50.4379 32.796 50.6339 32.532 50.7459 32.188C50.8659 31.836 50.9259 31.412 50.9259 30.916V27.568H51.9819ZM55.0799 24.88V27.1C55.0799 27.372 55.0719 27.628 55.0559 27.868C55.0479 28.1 55.0359 28.284 55.0199 28.42H55.0799C55.2639 28.148 55.5159 27.92 55.8359 27.736C56.1559 27.552 56.5679 27.46 57.0719 27.46C57.8719 27.46 58.5119 27.74 58.9919 28.3C59.4799 28.852 59.7239 29.68 59.7239 30.784C59.7239 31.52 59.6119 32.136 59.3879 32.632C59.1719 33.128 58.8639 33.5 58.4639 33.748C58.0639 33.996 57.5999 34.12 57.0719 34.12C56.5679 34.12 56.1559 34.028 55.8359 33.844C55.5159 33.66 55.2639 33.44 55.0799 33.184H54.9959L54.7799 34H54.0239V24.88H55.0799ZM56.8919 28.336C56.4359 28.336 56.0759 28.424 55.8119 28.6C55.5479 28.768 55.3599 29.032 55.2479 29.392C55.1359 29.744 55.0799 30.196 55.0799 30.748V30.796C55.0799 31.588 55.2079 32.196 55.4639 32.62C55.7279 33.036 56.2119 33.244 56.9159 33.244C57.4919 33.244 57.9199 33.032 58.1999 32.608C58.4879 32.184 58.6319 31.572 58.6319 30.772C58.6319 29.964 58.4879 29.356 58.1999 28.948C57.9199 28.54 57.4839 28.336 56.8919 28.336ZM63.5547 33.256C63.7147 33.256 63.8787 33.244 64.0467 33.22C64.2147 33.188 64.3507 33.156 64.4547 33.124V33.928C64.3427 33.984 64.1827 34.028 63.9747 34.06C63.7667 34.1 63.5667 34.12 63.3747 34.12C63.0387 34.12 62.7267 34.064 62.4387 33.952C62.1587 33.832 61.9307 33.628 61.7547 33.34C61.5787 33.052 61.4907 32.648 61.4907 32.128V28.384H60.5787V27.88L61.5027 27.46L61.9227 26.092H62.5467V27.568H64.4067V28.384H62.5467V32.104C62.5467 32.496 62.6387 32.788 62.8227 32.98C63.0147 33.164 63.2587 33.256 63.5547 33.256ZM66.7987 27.568V34H65.7427V27.568H66.7987ZM66.2827 25.156C66.4427 25.156 66.5827 25.212 66.7027 25.324C66.8307 25.428 66.8947 25.596 66.8947 25.828C66.8947 26.052 66.8307 26.22 66.7027 26.332C66.5827 26.444 66.4427 26.5 66.2827 26.5C66.1067 26.5 65.9587 26.444 65.8387 26.332C65.7187 26.22 65.6587 26.052 65.6587 25.828C65.6587 25.596 65.7187 25.428 65.8387 25.324C65.9587 25.212 66.1067 25.156 66.2827 25.156ZM70.9844 33.256C71.1444 33.256 71.3084 33.244 71.4764 33.22C71.6444 33.188 71.7804 33.156 71.8844 33.124V33.928C71.7724 33.984 71.6124 34.028 71.4044 34.06C71.1964 34.1 70.9964 34.12 70.8044 34.12C70.4684 34.12 70.1564 34.064 69.8684 33.952C69.5884 33.832 69.3604 33.628 69.1844 33.34C69.0084 33.052 68.9204 32.648 68.9204 32.128V28.384H68.0084V27.88L68.9324 27.46L69.3524 26.092H69.9764V27.568H71.8364V28.384H69.9764V32.104C69.9764 32.496 70.0684 32.788 70.2524 32.98C70.4444 33.164 70.6884 33.256 70.9844 33.256ZM74.2283 34H73.1723V24.88H74.2283V34ZM78.7501 27.448C79.3021 27.448 79.7741 27.568 80.1661 27.808C80.5661 28.048 80.8701 28.388 81.0781 28.828C81.2941 29.26 81.4021 29.768 81.4021 30.352V30.988H76.9981C77.0141 31.716 77.1981 32.272 77.5501 32.656C77.9101 33.032 78.4101 33.22 79.0501 33.22C79.4581 33.22 79.8181 33.184 80.1301 33.112C80.4501 33.032 80.7781 32.92 81.1141 32.776V33.7C80.7861 33.844 80.4621 33.948 80.1421 34.012C79.8221 34.084 79.4421 34.12 79.0021 34.12C78.3941 34.12 77.8541 33.996 77.3821 33.748C76.9181 33.5 76.5541 33.132 76.2901 32.644C76.0341 32.148 75.9061 31.544 75.9061 30.832C75.9061 30.128 76.0221 29.524 76.2541 29.02C76.4941 28.516 76.8261 28.128 77.2501 27.856C77.6821 27.584 78.1821 27.448 78.7501 27.448ZM78.7381 28.312C78.2341 28.312 77.8341 28.476 77.5381 28.804C77.2501 29.124 77.0781 29.572 77.0221 30.148H80.2981C80.2981 29.78 80.2421 29.46 80.1301 29.188C80.0181 28.916 79.8461 28.704 79.6141 28.552C79.3901 28.392 79.0981 28.312 78.7381 28.312Z" fill="black"/>
<rect y="41" width="360" height="41" fill="#EFF0F1"/>
<rect x="12" y="57" width="14" height="1" fill="#DA4453"/>
<rect x="14" y="69" width="10" height="1" fill="#DA4453"/>
<rect x="16" y="54" width="6" height="1" fill="#DA4453"/>
<rect x="14" y="59" width="1" height="10" fill="#DA4453"/>
<rect x="23" y="59" width="1" height="10" fill="#DA4453"/>
<rect x="21" y="55" width="1" height="1" fill="#DA4453"/>
<rect x="16" y="55" width="1" height="1" fill="#DA4453"/>
<path d="M40.164 66V57.432H41.244V65.04H44.988V66H40.164ZM48.749 59.46C49.533 59.46 50.113 59.632 50.489 59.976C50.865 60.32 51.053 60.868 51.053 61.62V66H50.285L50.081 65.088H50.033C49.849 65.32 49.657 65.516 49.457 65.676C49.265 65.828 49.041 65.94 48.785 66.012C48.537 66.084 48.233 66.12 47.873 66.12C47.489 66.12 47.141 66.052 46.829 65.916C46.525 65.78 46.285 65.572 46.109 65.292C45.933 65.004 45.845 64.644 45.845 64.212C45.845 63.572 46.097 63.08 46.601 62.736C47.105 62.384 47.881 62.192 48.929 62.16L50.021 62.124V61.74C50.021 61.204 49.905 60.832 49.673 60.624C49.441 60.416 49.113 60.312 48.689 60.312C48.353 60.312 48.033 60.364 47.729 60.468C47.425 60.564 47.141 60.676 46.877 60.804L46.553 60.012C46.833 59.86 47.165 59.732 47.549 59.628C47.933 59.516 48.333 59.46 48.749 59.46ZM50.009 62.856L49.061 62.892C48.261 62.924 47.705 63.052 47.393 63.276C47.089 63.5 46.937 63.816 46.937 64.224C46.937 64.584 47.045 64.848 47.261 65.016C47.485 65.184 47.769 65.268 48.113 65.268C48.657 65.268 49.109 65.12 49.469 64.824C49.829 64.52 50.009 64.056 50.009 63.432V62.856ZM54.0955 56.88V59.1C54.0955 59.372 54.0875 59.628 54.0715 59.868C54.0635 60.1 54.0515 60.284 54.0355 60.42H54.0955C54.2795 60.148 54.5315 59.92 54.8515 59.736C55.1715 59.552 55.5835 59.46 56.0875 59.46C56.8875 59.46 57.5275 59.74 58.0075 60.3C58.4955 60.852 58.7395 61.68 58.7395 62.784C58.7395 63.52 58.6275 64.136 58.4035 64.632C58.1875 65.128 57.8795 65.5 57.4795 65.748C57.0795 65.996 56.6155 66.12 56.0875 66.12C55.5835 66.12 55.1715 66.028 54.8515 65.844C54.5315 65.66 54.2795 65.44 54.0955 65.184H54.0115L53.7955 66H53.0395V56.88H54.0955ZM55.9075 60.336C55.4515 60.336 55.0915 60.424 54.8275 60.6C54.5635 60.768 54.3755 61.032 54.2635 61.392C54.1515 61.744 54.0955 62.196 54.0955 62.748V62.796C54.0955 63.588 54.2235 64.196 54.4795 64.62C54.7435 65.036 55.2275 65.244 55.9315 65.244C56.5075 65.244 56.9355 65.032 57.2155 64.608C57.5035 64.184 57.6475 63.572 57.6475 62.772C57.6475 61.964 57.5035 61.356 57.2155 60.948C56.9355 60.54 56.4995 60.336 55.9075 60.336ZM62.9063 59.448C63.4583 59.448 63.9303 59.568 64.3223 59.808C64.7223 60.048 65.0263 60.388 65.2343 60.828C65.4503 61.26 65.5583 61.768 65.5583 62.352V62.988H61.1543C61.1703 63.716 61.3543 64.272 61.7063 64.656C62.0663 65.032 62.5663 65.22 63.2063 65.22C63.6143 65.22 63.9743 65.184 64.2863 65.112C64.6063 65.032 64.9343 64.92 65.2703 64.776V65.7C64.9423 65.844 64.6183 65.948 64.2983 66.012C63.9783 66.084 63.5983 66.12 63.1583 66.12C62.5503 66.12 62.0103 65.996 61.5383 65.748C61.0743 65.5 60.7103 65.132 60.4463 64.644C60.1903 64.148 60.0623 63.544 60.0623 62.832C60.0623 62.128 60.1783 61.524 60.4103 61.02C60.6503 60.516 60.9823 60.128 61.4063 59.856C61.8383 59.584 62.3383 59.448 62.9063 59.448ZM62.8943 60.312C62.3903 60.312 61.9903 60.476 61.6943 60.804C61.4063 61.124 61.2343 61.572 61.1783 62.148H64.4543C64.4543 61.78 64.3983 61.46 64.2863 61.188C64.1743 60.916 64.0023 60.704 63.7703 60.552C63.5463 60.392 63.2543 60.312 62.8943 60.312ZM68.2518 66H67.1958V56.88H68.2518V66Z" fill="black"/>
<rect y="82" width="360" height="41" fill="#EFF0F1"/>
<path d="M10.164 107V98.432H11.244V106.04H14.988V107H10.164ZM18.749 100.46C19.533 100.46 20.113 100.632 20.489 100.976C20.865 101.32 21.053 101.868 21.053 102.62V107H20.285L20.081 106.088H20.033C19.849 106.32 19.657 106.516 19.457 106.676C19.265 106.828 19.041 106.94 18.785 107.012C18.537 107.084 18.233 107.12 17.873 107.12C17.489 107.12 17.141 107.052 16.829 106.916C16.525 106.78 16.285 106.572 16.109 106.292C15.933 106.004 15.845 105.644 15.845 105.212C15.845 104.572 16.097 104.08 16.601 103.736C17.105 103.384 17.881 103.192 18.929 103.16L20.021 103.124V102.74C20.021 102.204 19.905 101.832 19.673 101.624C19.441 101.416 19.113 101.312 18.689 101.312C18.353 101.312 18.033 101.364 17.729 101.468C17.425 101.564 17.141 101.676 16.877 101.804L16.553 101.012C16.833 100.86 17.165 100.732 17.549 100.628C17.933 100.516 18.333 100.46 18.749 100.46ZM20.009 103.856L19.061 103.892C18.261 103.924 17.705 104.052 17.393 104.276C17.089 104.5 16.937 104.816 16.937 105.224C16.937 105.584 17.045 105.848 17.261 106.016C17.485 106.184 17.769 106.268 18.113 106.268C18.657 106.268 19.109 106.12 19.469 105.824C19.829 105.52 20.009 105.056 20.009 104.432V103.856ZM24.0955 97.88V100.1C24.0955 100.372 24.0875 100.628 24.0715 100.868C24.0635 101.1 24.0515 101.284 24.0355 101.42H24.0955C24.2795 101.148 24.5315 100.92 24.8515 100.736C25.1715 100.552 25.5835 100.46 26.0875 100.46C26.8875 100.46 27.5275 100.74 28.0075 101.3C28.4955 101.852 28.7395 102.68 28.7395 103.784C28.7395 104.52 28.6275 105.136 28.4035 105.632C28.1875 106.128 27.8795 106.5 27.4795 106.748C27.0795 106.996 26.6155 107.12 26.0875 107.12C25.5835 107.12 25.1715 107.028 24.8515 106.844C24.5315 106.66 24.2795 106.44 24.0955 106.184H24.0115L23.7955 107H23.0395V97.88H24.0955ZM25.9075 101.336C25.4515 101.336 25.0915 101.424 24.8275 101.6C24.5635 101.768 24.3755 102.032 24.2635 102.392C24.1515 102.744 24.0955 103.196 24.0955 103.748V103.796C24.0955 104.588 24.2235 105.196 24.4795 105.62C24.7435 106.036 25.2275 106.244 25.9315 106.244C26.5075 106.244 26.9355 106.032 27.2155 105.608C27.5035 105.184 27.6475 104.572 27.6475 103.772C27.6475 102.964 27.5035 102.356 27.2155 101.948C26.9355 101.54 26.4995 101.336 25.9075 101.336ZM32.9063 100.448C33.4583 100.448 33.9303 100.568 34.3223 100.808C34.7223 101.048 35.0263 101.388 35.2343 101.828C35.4503 102.26 35.5583 102.768 35.5583 103.352V103.988H31.1543C31.1703 104.716 31.3543 105.272 31.7063 105.656C32.0663 106.032 32.5663 106.22 33.2063 106.22C33.6143 106.22 33.9743 106.184 34.2863 106.112C34.6063 106.032 34.9343 105.92 35.2703 105.776V106.7C34.9423 106.844 34.6183 106.948 34.2983 107.012C33.9783 107.084 33.5983 107.12 33.1583 107.12C32.5503 107.12 32.0103 106.996 31.5383 106.748C31.0743 106.5 30.7103 106.132 30.4463 105.644C30.1903 105.148 30.0623 104.544 30.0623 103.832C30.0623 103.128 30.1783 102.524 30.4103 102.02C30.6503 101.516 30.9823 101.128 31.4063 100.856C31.8383 100.584 32.3383 100.448 32.9063 100.448ZM32.8943 101.312C32.3903 101.312 31.9903 101.476 31.6943 101.804C31.4063 102.124 31.2343 102.572 31.1783 103.148H34.4543C34.4543 102.78 34.3983 102.46 34.2863 102.188C34.1743 101.916 34.0023 101.704 33.7703 101.552C33.5463 101.392 33.2543 101.312 32.8943 101.312ZM38.2518 107H37.1958V97.88H38.2518V107Z" fill="black"/>
</svg>
