<svg width="1224" height="726" viewBox="0 0 1224 726" fill="none" xmlns="http://www.w3.org/2000/svg">
<rect x="2" y="2" width="728" height="341" rx="8" fill="#D1D5D9" stroke="#393C3F" stroke-width="4"/>
<path d="M159 116H329.023C331.968 116 334.674 117.618 336.069 120.212L380.693 203.212C381.964 205.577 381.964 208.423 380.693 210.788L336.069 293.788C334.674 296.382 331.968 298 329.023 298H159C154.582 298 151 294.418 151 290V124C151 119.582 154.582 116 159 116Z" fill="#9B9EA2" stroke="#393C3F" stroke-width="4"/>
<path d="M220.716 181.864C222.956 181.864 224.588 182.304 225.612 183.184C226.636 184.064 227.148 185.304 227.148 186.904C227.148 187.848 226.932 188.736 226.5 189.568C226.084 190.384 225.372 191.048 224.364 191.56C223.372 192.072 222.02 192.328 220.308 192.328H218.34V199H216.18V181.864H220.716ZM220.524 183.712H218.34V190.48H220.068C221.7 190.48 222.916 190.216 223.716 189.688C224.516 189.16 224.916 188.264 224.916 187C224.916 185.896 224.556 185.072 223.836 184.528C223.132 183.984 222.028 183.712 220.524 183.712ZM235.295 185.92C236.863 185.92 238.023 186.264 238.775 186.952C239.527 187.64 239.903 188.736 239.903 190.24V199H238.367L237.959 197.176H237.863C237.303 197.88 236.711 198.4 236.087 198.736C235.463 199.072 234.615 199.24 233.543 199.24C232.375 199.24 231.407 198.936 230.639 198.328C229.871 197.704 229.487 196.736 229.487 195.424C229.487 194.144 229.991 193.16 230.999 192.472C232.007 191.768 233.559 191.384 235.655 191.32L237.839 191.248V190.48C237.839 189.408 237.607 188.664 237.143 188.248C236.679 187.832 236.023 187.624 235.175 187.624C234.503 187.624 233.863 187.728 233.255 187.936C232.647 188.128 232.079 188.352 231.551 188.608L230.903 187.024C231.463 186.72 232.127 186.464 232.895 186.256C233.663 186.032 234.463 185.92 235.295 185.92ZM237.815 192.712L235.919 192.784C234.319 192.848 233.207 193.104 232.583 193.552C231.975 194 231.671 194.632 231.671 195.448C231.671 196.168 231.887 196.696 232.319 197.032C232.767 197.368 233.335 197.536 234.023 197.536C235.095 197.536 235.991 197.24 236.711 196.648C237.447 196.04 237.815 195.112 237.815 193.864V192.712ZM248.436 185.896C249.284 185.896 250.044 186.056 250.716 186.376C251.404 186.696 251.988 187.184 252.468 187.84H252.588L252.876 186.136H254.556V199.216C254.556 201.056 254.084 202.44 253.14 203.368C252.212 204.296 250.764 204.76 248.796 204.76C246.908 204.76 245.364 204.488 244.164 203.944V202C245.428 202.672 247.012 203.008 248.916 203.008C250.02 203.008 250.884 202.68 251.508 202.024C252.148 201.384 252.468 200.504 252.468 199.384V198.88C252.468 198.688 252.476 198.416 252.492 198.064C252.508 197.696 252.524 197.44 252.54 197.296H252.444C251.58 198.592 250.252 199.24 248.46 199.24C246.796 199.24 245.492 198.656 244.548 197.488C243.62 196.32 243.156 194.688 243.156 192.592C243.156 190.544 243.62 188.92 244.548 187.72C245.492 186.504 246.788 185.896 248.436 185.896ZM248.724 187.672C247.652 187.672 246.82 188.104 246.228 188.968C245.636 189.816 245.34 191.032 245.34 192.616C245.34 194.2 245.628 195.416 246.204 196.264C246.78 197.096 247.636 197.512 248.772 197.512C250.068 197.512 251.012 197.168 251.604 196.48C252.196 195.776 252.492 194.648 252.492 193.096V192.592C252.492 190.848 252.188 189.592 251.58 188.824C250.972 188.056 250.02 187.672 248.724 187.672ZM263.61 185.896C264.698 185.896 265.642 186.136 266.442 186.616C267.242 187.096 267.85 187.776 268.266 188.656C268.698 189.52 268.914 190.536 268.914 191.704V192.976H260.106C260.138 194.432 260.506 195.544 261.21 196.312C261.93 197.064 262.93 197.44 264.21 197.44C265.026 197.44 265.746 197.368 266.37 197.224C267.01 197.064 267.666 196.84 268.338 196.552V198.4C267.682 198.688 267.034 198.896 266.394 199.024C265.754 199.168 264.994 199.24 264.114 199.24C262.882 199.24 261.802 198.992 260.874 198.496C259.946 198 259.218 197.264 258.69 196.288C258.178 195.312 257.922 194.104 257.922 192.664C257.922 191.256 258.154 190.048 258.618 189.04C259.098 188.032 259.762 187.256 260.61 186.712C261.474 186.168 262.474 185.896 263.61 185.896ZM263.586 187.624C262.578 187.624 261.778 187.952 261.186 188.608C260.61 189.248 260.266 190.144 260.154 191.296H266.706C266.69 190.208 266.434 189.328 265.938 188.656C265.442 187.968 264.658 187.624 263.586 187.624ZM204.683 214.864C204.459 215.792 204.227 216.8 203.987 217.888C203.763 218.96 203.595 219.912 203.483 220.744H201.203L201.035 220.48C201.243 219.648 201.539 218.72 201.923 217.696C202.323 216.672 202.723 215.728 203.123 214.864H204.683ZM200.243 214.864C200.019 215.792 199.795 216.8 199.571 217.888C199.347 218.96 199.171 219.912 199.043 220.744H196.787L196.643 220.48C196.867 219.648 197.163 218.72 197.531 217.696C197.915 216.672 198.307 215.728 198.707 214.864H200.243ZM213.668 214.864L207.284 232H205.22L211.604 214.864H213.668ZM218.062 213.76V219.112C218.062 219.752 218.022 220.352 217.942 220.912H218.086C218.502 220.256 219.062 219.76 219.766 219.424C220.486 219.088 221.262 218.92 222.094 218.92C223.646 218.92 224.814 219.296 225.598 220.048C226.398 220.784 226.798 221.976 226.798 223.624V232H224.71V223.768C224.71 221.704 223.75 220.672 221.83 220.672C220.39 220.672 219.398 221.08 218.854 221.896C218.326 222.696 218.062 223.848 218.062 225.352V232H215.95V213.76H218.062ZM241.97 225.544C241.97 227.672 241.426 229.32 240.338 230.488C239.266 231.656 237.81 232.24 235.97 232.24C234.834 232.24 233.818 231.984 232.922 231.472C232.042 230.944 231.346 230.184 230.834 229.192C230.322 228.184 230.066 226.968 230.066 225.544C230.066 223.416 230.594 221.776 231.65 220.624C232.722 219.472 234.186 218.896 236.042 218.896C237.194 218.896 238.218 219.16 239.114 219.688C240.01 220.2 240.706 220.952 241.202 221.944C241.714 222.92 241.97 224.12 241.97 225.544ZM232.25 225.544C232.25 227.064 232.546 228.272 233.138 229.168C233.746 230.048 234.706 230.488 236.018 230.488C237.314 230.488 238.266 230.048 238.874 229.168C239.482 228.272 239.786 227.064 239.786 225.544C239.786 224.024 239.482 222.832 238.874 221.968C238.266 221.104 237.306 220.672 235.994 220.672C234.682 220.672 233.73 221.104 233.138 221.968C232.546 222.832 232.25 224.024 232.25 225.544ZM259.429 218.896C260.885 218.896 261.973 219.272 262.693 220.024C263.413 220.776 263.773 221.976 263.773 223.624V232H261.685V223.72C261.685 221.688 260.813 220.672 259.069 220.672C257.821 220.672 256.925 221.032 256.381 221.752C255.853 222.472 255.589 223.52 255.589 224.896V232H253.501V223.72C253.501 221.688 252.621 220.672 250.861 220.672C249.565 220.672 248.669 221.072 248.173 221.872C247.677 222.672 247.429 223.824 247.429 225.328V232H245.317V219.136H247.021L247.333 220.888H247.453C247.853 220.216 248.389 219.72 249.061 219.4C249.749 219.064 250.477 218.896 251.245 218.896C253.261 218.896 254.573 219.616 255.181 221.056H255.301C255.733 220.32 256.317 219.776 257.053 219.424C257.789 219.072 258.581 218.896 259.429 218.896ZM272.715 218.896C273.803 218.896 274.747 219.136 275.547 219.616C276.347 220.096 276.955 220.776 277.371 221.656C277.803 222.52 278.019 223.536 278.019 224.704V225.976H269.211C269.243 227.432 269.611 228.544 270.315 229.312C271.035 230.064 272.035 230.44 273.315 230.44C274.131 230.44 274.851 230.368 275.475 230.224C276.115 230.064 276.771 229.84 277.443 229.552V231.4C276.787 231.688 276.139 231.896 275.499 232.024C274.859 232.168 274.099 232.24 273.219 232.24C271.987 232.24 270.907 231.992 269.979 231.496C269.051 231 268.323 230.264 267.795 229.288C267.283 228.312 267.027 227.104 267.027 225.664C267.027 224.256 267.259 223.048 267.723 222.04C268.203 221.032 268.867 220.256 269.715 219.712C270.579 219.168 271.579 218.896 272.715 218.896ZM272.691 220.624C271.683 220.624 270.883 220.952 270.291 221.608C269.715 222.248 269.371 223.144 269.259 224.296H275.811C275.795 223.208 275.539 222.328 275.043 221.656C274.547 220.968 273.763 220.624 272.691 220.624ZM287.18 214.864L287.348 215.128C287.14 215.976 286.836 216.912 286.436 217.936C286.052 218.96 285.668 219.896 285.284 220.744H283.7C283.844 220.152 283.996 219.504 284.156 218.8C284.316 218.096 284.46 217.408 284.588 216.736C284.732 216.048 284.844 215.424 284.924 214.864H287.18ZM282.74 214.864L282.908 215.128C282.684 215.976 282.38 216.912 281.996 217.936C281.612 218.96 281.228 219.896 280.844 220.744H279.308C279.468 220.152 279.62 219.504 279.764 218.8C279.908 218.096 280.044 217.408 280.172 216.736C280.3 216.048 280.404 215.424 280.484 214.864H282.74Z" fill="black"/>
<path d="M306.501 37.864C308.741 37.864 310.373 38.304 311.397 39.184C312.421 40.064 312.933 41.304 312.933 42.904C312.933 43.848 312.717 44.736 312.285 45.568C311.869 46.384 311.157 47.048 310.149 47.56C309.157 48.072 307.805 48.328 306.093 48.328H304.125V55H301.965V37.864H306.501ZM306.309 39.712H304.125V46.48H305.853C307.485 46.48 308.701 46.216 309.501 45.688C310.301 45.16 310.701 44.264 310.701 43C310.701 41.896 310.341 41.072 309.621 40.528C308.917 39.984 307.813 39.712 306.309 39.712ZM321.08 41.92C322.648 41.92 323.808 42.264 324.56 42.952C325.312 43.64 325.688 44.736 325.688 46.24V55H324.152L323.744 53.176H323.648C323.088 53.88 322.496 54.4 321.872 54.736C321.248 55.072 320.4 55.24 319.328 55.24C318.16 55.24 317.192 54.936 316.424 54.328C315.656 53.704 315.272 52.736 315.272 51.424C315.272 50.144 315.776 49.16 316.784 48.472C317.792 47.768 319.344 47.384 321.44 47.32L323.624 47.248V46.48C323.624 45.408 323.392 44.664 322.928 44.248C322.464 43.832 321.808 43.624 320.96 43.624C320.288 43.624 319.648 43.728 319.04 43.936C318.432 44.128 317.864 44.352 317.336 44.608L316.688 43.024C317.248 42.72 317.912 42.464 318.68 42.256C319.448 42.032 320.248 41.92 321.08 41.92ZM323.6 48.712L321.704 48.784C320.104 48.848 318.992 49.104 318.368 49.552C317.76 50 317.456 50.632 317.456 51.448C317.456 52.168 317.672 52.696 318.104 53.032C318.552 53.368 319.12 53.536 319.808 53.536C320.88 53.536 321.776 53.24 322.496 52.648C323.232 52.04 323.6 51.112 323.6 49.864V48.712ZM334.221 41.896C335.069 41.896 335.829 42.056 336.501 42.376C337.189 42.696 337.773 43.184 338.253 43.84H338.373L338.661 42.136H340.341V55.216C340.341 57.056 339.869 58.44 338.925 59.368C337.997 60.296 336.549 60.76 334.581 60.76C332.693 60.76 331.149 60.488 329.949 59.944V58C331.213 58.672 332.797 59.008 334.701 59.008C335.805 59.008 336.669 58.68 337.293 58.024C337.933 57.384 338.253 56.504 338.253 55.384V54.88C338.253 54.688 338.261 54.416 338.277 54.064C338.293 53.696 338.309 53.44 338.325 53.296H338.229C337.365 54.592 336.037 55.24 334.245 55.24C332.581 55.24 331.277 54.656 330.333 53.488C329.405 52.32 328.941 50.688 328.941 48.592C328.941 46.544 329.405 44.92 330.333 43.72C331.277 42.504 332.573 41.896 334.221 41.896ZM334.509 43.672C333.437 43.672 332.605 44.104 332.013 44.968C331.421 45.816 331.125 47.032 331.125 48.616C331.125 50.2 331.413 51.416 331.989 52.264C332.565 53.096 333.421 53.512 334.557 53.512C335.853 53.512 336.797 53.168 337.389 52.48C337.981 51.776 338.277 50.648 338.277 49.096V48.592C338.277 46.848 337.973 45.592 337.365 44.824C336.757 44.056 335.805 43.672 334.509 43.672ZM349.395 41.896C350.483 41.896 351.427 42.136 352.227 42.616C353.027 43.096 353.635 43.776 354.051 44.656C354.483 45.52 354.699 46.536 354.699 47.704V48.976H345.891C345.923 50.432 346.291 51.544 346.995 52.312C347.715 53.064 348.715 53.44 349.995 53.44C350.811 53.44 351.531 53.368 352.155 53.224C352.795 53.064 353.451 52.84 354.123 52.552V54.4C353.467 54.688 352.819 54.896 352.179 55.024C351.539 55.168 350.779 55.24 349.899 55.24C348.667 55.24 347.587 54.992 346.659 54.496C345.731 54 345.003 53.264 344.475 52.288C343.963 51.312 343.707 50.104 343.707 48.664C343.707 47.256 343.939 46.048 344.403 45.04C344.883 44.032 345.547 43.256 346.395 42.712C347.259 42.168 348.259 41.896 349.395 41.896ZM349.371 43.624C348.363 43.624 347.563 43.952 346.971 44.608C346.395 45.248 346.051 46.144 345.939 47.296H352.491C352.475 46.208 352.219 45.328 351.723 44.656C351.227 43.968 350.443 43.624 349.371 43.624ZM362.99 37.864C365.118 37.864 366.686 38.272 367.694 39.088C368.718 39.888 369.23 41.104 369.23 42.736C369.23 43.648 369.062 44.408 368.726 45.016C368.39 45.624 367.958 46.112 367.43 46.48C366.918 46.848 366.374 47.128 365.798 47.32L370.502 55H367.982L363.83 47.92H360.422V55H358.262V37.864H362.99ZM362.87 39.736H360.422V46.096H362.99C364.382 46.096 365.398 45.824 366.038 45.28C366.678 44.72 366.998 43.904 366.998 42.832C366.998 41.712 366.662 40.92 365.99 40.456C365.318 39.976 364.278 39.736 362.87 39.736ZM384.087 48.544C384.087 50.672 383.543 52.32 382.455 53.488C381.383 54.656 379.927 55.24 378.087 55.24C376.951 55.24 375.935 54.984 375.039 54.472C374.159 53.944 373.463 53.184 372.951 52.192C372.439 51.184 372.183 49.968 372.183 48.544C372.183 46.416 372.711 44.776 373.767 43.624C374.839 42.472 376.303 41.896 378.159 41.896C379.311 41.896 380.335 42.16 381.231 42.688C382.127 43.2 382.823 43.952 383.319 44.944C383.831 45.92 384.087 47.12 384.087 48.544ZM374.367 48.544C374.367 50.064 374.663 51.272 375.255 52.168C375.863 53.048 376.823 53.488 378.135 53.488C379.431 53.488 380.383 53.048 380.991 52.168C381.599 51.272 381.903 50.064 381.903 48.544C381.903 47.024 381.599 45.832 380.991 44.968C380.383 44.104 379.423 43.672 378.111 43.672C376.799 43.672 375.847 44.104 375.255 44.968C374.663 45.832 374.367 47.024 374.367 48.544ZM398.187 42.136V55H396.459L396.147 53.296H396.051C395.635 53.968 395.059 54.464 394.323 54.784C393.587 55.088 392.803 55.24 391.971 55.24C390.419 55.24 389.251 54.872 388.467 54.136C387.683 53.384 387.291 52.192 387.291 50.56V42.136H389.427V50.416C389.427 52.464 390.379 53.488 392.283 53.488C393.707 53.488 394.691 53.088 395.235 52.288C395.795 51.488 396.075 50.336 396.075 48.832V42.136H398.187ZM406.566 53.512C406.886 53.512 407.214 53.488 407.55 53.44C407.886 53.392 408.158 53.328 408.366 53.248V54.856C408.142 54.968 407.822 55.056 407.406 55.12C406.99 55.2 406.59 55.24 406.206 55.24C405.534 55.24 404.91 55.128 404.334 54.904C403.774 54.664 403.318 54.256 402.966 53.68C402.614 53.104 402.438 52.296 402.438 51.256V43.768H400.614V42.76L402.462 41.92L403.302 39.184H404.55V42.136H408.27V43.768H404.55V51.208C404.55 51.992 404.734 52.576 405.102 52.96C405.486 53.328 405.974 53.512 406.566 53.512ZM415.91 41.896C416.998 41.896 417.942 42.136 418.742 42.616C419.542 43.096 420.15 43.776 420.566 44.656C420.998 45.52 421.214 46.536 421.214 47.704V48.976H412.406C412.438 50.432 412.806 51.544 413.51 52.312C414.23 53.064 415.23 53.44 416.51 53.44C417.326 53.44 418.046 53.368 418.67 53.224C419.31 53.064 419.966 52.84 420.638 52.552V54.4C419.982 54.688 419.334 54.896 418.694 55.024C418.054 55.168 417.294 55.24 416.414 55.24C415.182 55.24 414.102 54.992 413.174 54.496C412.246 54 411.518 53.264 410.99 52.288C410.478 51.312 410.222 50.104 410.222 48.664C410.222 47.256 410.454 46.048 410.918 45.04C411.398 44.032 412.062 43.256 412.91 42.712C413.774 42.168 414.774 41.896 415.91 41.896ZM415.886 43.624C414.878 43.624 414.078 43.952 413.486 44.608C412.91 45.248 412.566 46.144 412.454 47.296H419.006C418.99 46.208 418.734 45.328 418.238 44.656C417.742 43.968 416.958 43.624 415.886 43.624ZM430.489 41.896C430.729 41.896 430.985 41.912 431.257 41.944C431.529 41.96 431.777 41.992 432.001 42.04L431.737 43.984C431.529 43.936 431.297 43.896 431.041 43.864C430.785 43.832 430.553 43.816 430.345 43.816C429.689 43.816 429.073 44 428.497 44.368C427.921 44.72 427.457 45.224 427.105 45.88C426.769 46.52 426.601 47.272 426.601 48.136V55H424.489V42.136H426.217L426.457 44.488H426.553C426.953 43.784 427.481 43.176 428.137 42.664C428.809 42.152 429.593 41.896 430.489 41.896ZM328.683 70.864C328.459 71.792 328.227 72.8 327.987 73.888C327.763 74.96 327.595 75.912 327.483 76.744H325.203L325.035 76.48C325.243 75.648 325.539 74.72 325.923 73.696C326.323 72.672 326.723 71.728 327.123 70.864H328.683ZM324.243 70.864C324.019 71.792 323.795 72.8 323.571 73.888C323.347 74.96 323.171 75.912 323.043 76.744H320.787L320.643 76.48C320.867 75.648 321.163 74.72 321.531 73.696C321.915 72.672 322.307 71.728 322.707 70.864H324.243ZM337.668 70.864L331.284 88H329.22L335.604 70.864H337.668ZM342.062 69.76V75.112C342.062 75.752 342.022 76.352 341.942 76.912H342.086C342.502 76.256 343.062 75.76 343.766 75.424C344.486 75.088 345.262 74.92 346.094 74.92C347.646 74.92 348.814 75.296 349.598 76.048C350.398 76.784 350.798 77.976 350.798 79.624V88H348.71V79.768C348.71 77.704 347.75 76.672 345.83 76.672C344.39 76.672 343.398 77.08 342.854 77.896C342.326 78.696 342.062 79.848 342.062 81.352V88H339.95V69.76H342.062ZM365.97 81.544C365.97 83.672 365.426 85.32 364.338 86.488C363.266 87.656 361.81 88.24 359.97 88.24C358.834 88.24 357.818 87.984 356.922 87.472C356.042 86.944 355.346 86.184 354.834 85.192C354.322 84.184 354.066 82.968 354.066 81.544C354.066 79.416 354.594 77.776 355.65 76.624C356.722 75.472 358.186 74.896 360.042 74.896C361.194 74.896 362.218 75.16 363.114 75.688C364.01 76.2 364.706 76.952 365.202 77.944C365.714 78.92 365.97 80.12 365.97 81.544ZM356.25 81.544C356.25 83.064 356.546 84.272 357.138 85.168C357.746 86.048 358.706 86.488 360.018 86.488C361.314 86.488 362.266 86.048 362.874 85.168C363.482 84.272 363.786 83.064 363.786 81.544C363.786 80.024 363.482 78.832 362.874 77.968C362.266 77.104 361.306 76.672 359.994 76.672C358.682 76.672 357.73 77.104 357.138 77.968C356.546 78.832 356.25 80.024 356.25 81.544ZM383.429 74.896C384.885 74.896 385.973 75.272 386.693 76.024C387.413 76.776 387.773 77.976 387.773 79.624V88H385.685V79.72C385.685 77.688 384.813 76.672 383.069 76.672C381.821 76.672 380.925 77.032 380.381 77.752C379.853 78.472 379.589 79.52 379.589 80.896V88H377.501V79.72C377.501 77.688 376.621 76.672 374.861 76.672C373.565 76.672 372.669 77.072 372.173 77.872C371.677 78.672 371.429 79.824 371.429 81.328V88H369.317V75.136H371.021L371.333 76.888H371.453C371.853 76.216 372.389 75.72 373.061 75.4C373.749 75.064 374.477 74.896 375.245 74.896C377.261 74.896 378.573 75.616 379.181 77.056H379.301C379.733 76.32 380.317 75.776 381.053 75.424C381.789 75.072 382.581 74.896 383.429 74.896ZM396.715 74.896C397.803 74.896 398.747 75.136 399.547 75.616C400.347 76.096 400.955 76.776 401.371 77.656C401.803 78.52 402.019 79.536 402.019 80.704V81.976H393.211C393.243 83.432 393.611 84.544 394.315 85.312C395.035 86.064 396.035 86.44 397.315 86.44C398.131 86.44 398.851 86.368 399.475 86.224C400.115 86.064 400.771 85.84 401.443 85.552V87.4C400.787 87.688 400.139 87.896 399.499 88.024C398.859 88.168 398.099 88.24 397.219 88.24C395.987 88.24 394.907 87.992 393.979 87.496C393.051 87 392.323 86.264 391.795 85.288C391.283 84.312 391.027 83.104 391.027 81.664C391.027 80.256 391.259 79.048 391.723 78.04C392.203 77.032 392.867 76.256 393.715 75.712C394.579 75.168 395.579 74.896 396.715 74.896ZM396.691 76.624C395.683 76.624 394.883 76.952 394.291 77.608C393.715 78.248 393.371 79.144 393.259 80.296H399.811C399.795 79.208 399.539 78.328 399.043 77.656C398.547 76.968 397.763 76.624 396.691 76.624ZM411.18 70.864L411.348 71.128C411.14 71.976 410.836 72.912 410.436 73.936C410.052 74.96 409.668 75.896 409.284 76.744H407.7C407.844 76.152 407.996 75.504 408.156 74.8C408.316 74.096 408.46 73.408 408.588 72.736C408.732 72.048 408.844 71.424 408.924 70.864H411.18ZM406.74 70.864L406.908 71.128C406.684 71.976 406.38 72.912 405.996 73.936C405.612 74.96 405.228 75.896 404.844 76.744H403.308C403.468 76.152 403.62 75.504 403.764 74.8C403.908 74.096 404.044 73.408 404.172 72.736C404.3 72.048 404.404 71.424 404.484 70.864H406.74Z" fill="black"/>
<rect x="2" y="383" width="728" height="341" rx="8" fill="#D1D5D9" stroke="#393C3F" stroke-width="4"/>
<path d="M297 497H527.023C529.968 497 532.674 498.618 534.069 501.212L578.693 584.212C579.964 586.577 579.964 589.423 578.693 591.788L534.069 674.788C532.674 677.382 529.968 679 527.023 679H297C292.582 679 289 675.418 289 671V505C289 500.582 292.582 497 297 497Z" fill="#9B9EA2" stroke="#393C3F" stroke-width="4"/>
<path d="M435.716 562.864C437.956 562.864 439.588 563.304 440.612 564.184C441.636 565.064 442.148 566.304 442.148 567.904C442.148 568.848 441.932 569.736 441.5 570.568C441.084 571.384 440.372 572.048 439.364 572.56C438.372 573.072 437.02 573.328 435.308 573.328H433.34V580H431.18V562.864H435.716ZM435.524 564.712H433.34V571.48H435.068C436.7 571.48 437.916 571.216 438.716 570.688C439.516 570.16 439.916 569.264 439.916 568C439.916 566.896 439.556 566.072 438.836 565.528C438.132 564.984 437.028 564.712 435.524 564.712ZM450.295 566.92C451.863 566.92 453.023 567.264 453.775 567.952C454.527 568.64 454.903 569.736 454.903 571.24V580H453.367L452.959 578.176H452.863C452.303 578.88 451.711 579.4 451.087 579.736C450.463 580.072 449.615 580.24 448.543 580.24C447.375 580.24 446.407 579.936 445.639 579.328C444.871 578.704 444.487 577.736 444.487 576.424C444.487 575.144 444.991 574.16 445.999 573.472C447.007 572.768 448.559 572.384 450.655 572.32L452.839 572.248V571.48C452.839 570.408 452.607 569.664 452.143 569.248C451.679 568.832 451.023 568.624 450.175 568.624C449.503 568.624 448.863 568.728 448.255 568.936C447.647 569.128 447.079 569.352 446.551 569.608L445.903 568.024C446.463 567.72 447.127 567.464 447.895 567.256C448.663 567.032 449.463 566.92 450.295 566.92ZM452.815 573.712L450.919 573.784C449.319 573.848 448.207 574.104 447.583 574.552C446.975 575 446.671 575.632 446.671 576.448C446.671 577.168 446.887 577.696 447.319 578.032C447.767 578.368 448.335 578.536 449.023 578.536C450.095 578.536 450.991 578.24 451.711 577.648C452.447 577.04 452.815 576.112 452.815 574.864V573.712ZM463.436 566.896C464.284 566.896 465.044 567.056 465.716 567.376C466.404 567.696 466.988 568.184 467.468 568.84H467.588L467.876 567.136H469.556V580.216C469.556 582.056 469.084 583.44 468.14 584.368C467.212 585.296 465.764 585.76 463.796 585.76C461.908 585.76 460.364 585.488 459.164 584.944V583C460.428 583.672 462.012 584.008 463.916 584.008C465.02 584.008 465.884 583.68 466.508 583.024C467.148 582.384 467.468 581.504 467.468 580.384V579.88C467.468 579.688 467.476 579.416 467.492 579.064C467.508 578.696 467.524 578.44 467.54 578.296H467.444C466.58 579.592 465.252 580.24 463.46 580.24C461.796 580.24 460.492 579.656 459.548 578.488C458.62 577.32 458.156 575.688 458.156 573.592C458.156 571.544 458.62 569.92 459.548 568.72C460.492 567.504 461.788 566.896 463.436 566.896ZM463.724 568.672C462.652 568.672 461.82 569.104 461.228 569.968C460.636 570.816 460.34 572.032 460.34 573.616C460.34 575.2 460.628 576.416 461.204 577.264C461.78 578.096 462.636 578.512 463.772 578.512C465.068 578.512 466.012 578.168 466.604 577.48C467.196 576.776 467.492 575.648 467.492 574.096V573.592C467.492 571.848 467.188 570.592 466.58 569.824C465.972 569.056 465.02 568.672 463.724 568.672ZM478.61 566.896C479.698 566.896 480.642 567.136 481.442 567.616C482.242 568.096 482.85 568.776 483.266 569.656C483.698 570.52 483.914 571.536 483.914 572.704V573.976H475.106C475.138 575.432 475.506 576.544 476.21 577.312C476.93 578.064 477.93 578.44 479.21 578.44C480.026 578.44 480.746 578.368 481.37 578.224C482.01 578.064 482.666 577.84 483.338 577.552V579.4C482.682 579.688 482.034 579.896 481.394 580.024C480.754 580.168 479.994 580.24 479.114 580.24C477.882 580.24 476.802 579.992 475.874 579.496C474.946 579 474.218 578.264 473.69 577.288C473.178 576.312 472.922 575.104 472.922 573.664C472.922 572.256 473.154 571.048 473.618 570.04C474.098 569.032 474.762 568.256 475.61 567.712C476.474 567.168 477.474 566.896 478.61 566.896ZM478.586 568.624C477.578 568.624 476.778 568.952 476.186 569.608C475.61 570.248 475.266 571.144 475.154 572.296H481.706C481.69 571.208 481.434 570.328 480.938 569.656C480.442 568.968 479.658 568.624 478.586 568.624ZM430.863 595.864C430.639 596.792 430.407 597.8 430.167 598.888C429.943 599.96 429.775 600.912 429.663 601.744H427.383L427.215 601.48C427.423 600.648 427.719 599.72 428.103 598.696C428.503 597.672 428.903 596.728 429.303 595.864H430.863ZM426.423 595.864C426.199 596.792 425.975 597.8 425.751 598.888C425.527 599.96 425.351 600.912 425.223 601.744H422.967L422.823 601.48C423.047 600.648 423.343 599.72 423.711 598.696C424.095 597.672 424.487 596.728 424.887 595.864H426.423ZM439.848 595.864L433.464 613H431.4L437.784 595.864H439.848ZM447.002 599.92C448.57 599.92 449.73 600.264 450.482 600.952C451.234 601.64 451.61 602.736 451.61 604.24V613H450.074L449.666 611.176H449.57C449.01 611.88 448.418 612.4 447.794 612.736C447.17 613.072 446.322 613.24 445.25 613.24C444.082 613.24 443.114 612.936 442.346 612.328C441.578 611.704 441.194 610.736 441.194 609.424C441.194 608.144 441.698 607.16 442.706 606.472C443.714 605.768 445.266 605.384 447.362 605.32L449.546 605.248V604.48C449.546 603.408 449.314 602.664 448.85 602.248C448.386 601.832 447.73 601.624 446.882 601.624C446.21 601.624 445.57 601.728 444.962 601.936C444.354 602.128 443.786 602.352 443.258 602.608L442.61 601.024C443.17 600.72 443.834 600.464 444.602 600.256C445.37 600.032 446.17 599.92 447.002 599.92ZM449.522 606.712L447.626 606.784C446.026 606.848 444.914 607.104 444.29 607.552C443.682 608 443.378 608.632 443.378 609.448C443.378 610.168 443.594 610.696 444.026 611.032C444.474 611.368 445.042 611.536 445.73 611.536C446.802 611.536 447.698 611.24 448.418 610.648C449.154 610.04 449.522 609.112 449.522 607.864V606.712ZM461.703 599.896C463.287 599.896 464.559 600.448 465.519 601.552C466.495 602.656 466.983 604.32 466.983 606.544C466.983 608.736 466.495 610.4 465.519 611.536C464.559 612.672 463.279 613.24 461.679 613.24C460.687 613.24 459.863 613.056 459.207 612.688C458.567 612.32 458.063 611.88 457.695 611.368H457.551C457.567 611.64 457.591 611.984 457.623 612.4C457.671 612.816 457.695 613.176 457.695 613.48V618.76H455.583V600.136H457.311L457.599 601.888H457.695C458.079 601.328 458.583 600.856 459.207 600.472C459.831 600.088 460.663 599.896 461.703 599.896ZM461.319 601.672C460.007 601.672 459.079 602.04 458.535 602.776C457.991 603.512 457.711 604.632 457.695 606.136V606.544C457.695 608.128 457.951 609.352 458.463 610.216C458.991 611.064 459.959 611.488 461.367 611.488C462.135 611.488 462.775 611.28 463.287 610.864C463.799 610.432 464.175 609.84 464.415 609.088C464.671 608.336 464.799 607.48 464.799 606.52C464.799 605.048 464.511 603.872 463.935 602.992C463.375 602.112 462.503 601.672 461.319 601.672ZM476.469 599.896C478.053 599.896 479.325 600.448 480.285 601.552C481.261 602.656 481.749 604.32 481.749 606.544C481.749 608.736 481.261 610.4 480.285 611.536C479.325 612.672 478.045 613.24 476.445 613.24C475.453 613.24 474.629 613.056 473.973 612.688C473.333 612.32 472.829 611.88 472.461 611.368H472.317C472.333 611.64 472.357 611.984 472.389 612.4C472.437 612.816 472.461 613.176 472.461 613.48V618.76H470.349V600.136H472.077L472.365 601.888H472.461C472.845 601.328 473.349 600.856 473.973 600.472C474.597 600.088 475.429 599.896 476.469 599.896ZM476.085 601.672C474.773 601.672 473.845 602.04 473.301 602.776C472.757 603.512 472.477 604.632 472.461 606.136V606.544C472.461 608.128 472.717 609.352 473.229 610.216C473.757 611.064 474.725 611.488 476.133 611.488C476.901 611.488 477.541 611.28 478.053 610.864C478.565 610.432 478.941 609.84 479.181 609.088C479.437 608.336 479.565 607.48 479.565 606.52C479.565 605.048 479.277 603.872 478.701 602.992C478.141 602.112 477.269 601.672 476.085 601.672ZM491 595.864L491.168 596.128C490.96 596.976 490.656 597.912 490.256 598.936C489.872 599.96 489.488 600.896 489.104 601.744H487.52C487.664 601.152 487.816 600.504 487.976 599.8C488.136 599.096 488.28 598.408 488.408 597.736C488.552 597.048 488.664 596.424 488.744 595.864H491ZM486.56 595.864L486.728 596.128C486.504 596.976 486.2 597.912 485.816 598.936C485.432 599.96 485.048 600.896 484.664 601.744H483.128C483.288 601.152 483.44 600.504 483.584 599.8C483.728 599.096 483.864 598.408 483.992 597.736C484.12 597.048 484.224 596.424 484.304 595.864H486.56Z" fill="black"/>
<path d="M159 497H329.023C331.968 497 334.674 498.618 336.069 501.212L380.693 584.212C381.964 586.577 381.964 589.423 380.693 591.788L336.069 674.788C334.674 677.382 331.968 679 329.023 679H159C154.582 679 151 675.418 151 671V505C151 500.582 154.582 497 159 497Z" fill="#9B9EA2" stroke="#393C3F" stroke-width="4"/>
<path d="M220.716 562.864C222.956 562.864 224.588 563.304 225.612 564.184C226.636 565.064 227.148 566.304 227.148 567.904C227.148 568.848 226.932 569.736 226.5 570.568C226.084 571.384 225.372 572.048 224.364 572.56C223.372 573.072 222.02 573.328 220.308 573.328H218.34V580H216.18V562.864H220.716ZM220.524 564.712H218.34V571.48H220.068C221.7 571.48 222.916 571.216 223.716 570.688C224.516 570.16 224.916 569.264 224.916 568C224.916 566.896 224.556 566.072 223.836 565.528C223.132 564.984 222.028 564.712 220.524 564.712ZM235.295 566.92C236.863 566.92 238.023 567.264 238.775 567.952C239.527 568.64 239.903 569.736 239.903 571.24V580H238.367L237.959 578.176H237.863C237.303 578.88 236.711 579.4 236.087 579.736C235.463 580.072 234.615 580.24 233.543 580.24C232.375 580.24 231.407 579.936 230.639 579.328C229.871 578.704 229.487 577.736 229.487 576.424C229.487 575.144 229.991 574.16 230.999 573.472C232.007 572.768 233.559 572.384 235.655 572.32L237.839 572.248V571.48C237.839 570.408 237.607 569.664 237.143 569.248C236.679 568.832 236.023 568.624 235.175 568.624C234.503 568.624 233.863 568.728 233.255 568.936C232.647 569.128 232.079 569.352 231.551 569.608L230.903 568.024C231.463 567.72 232.127 567.464 232.895 567.256C233.663 567.032 234.463 566.92 235.295 566.92ZM237.815 573.712L235.919 573.784C234.319 573.848 233.207 574.104 232.583 574.552C231.975 575 231.671 575.632 231.671 576.448C231.671 577.168 231.887 577.696 232.319 578.032C232.767 578.368 233.335 578.536 234.023 578.536C235.095 578.536 235.991 578.24 236.711 577.648C237.447 577.04 237.815 576.112 237.815 574.864V573.712ZM248.436 566.896C249.284 566.896 250.044 567.056 250.716 567.376C251.404 567.696 251.988 568.184 252.468 568.84H252.588L252.876 567.136H254.556V580.216C254.556 582.056 254.084 583.44 253.14 584.368C252.212 585.296 250.764 585.76 248.796 585.76C246.908 585.76 245.364 585.488 244.164 584.944V583C245.428 583.672 247.012 584.008 248.916 584.008C250.02 584.008 250.884 583.68 251.508 583.024C252.148 582.384 252.468 581.504 252.468 580.384V579.88C252.468 579.688 252.476 579.416 252.492 579.064C252.508 578.696 252.524 578.44 252.54 578.296H252.444C251.58 579.592 250.252 580.24 248.46 580.24C246.796 580.24 245.492 579.656 244.548 578.488C243.62 577.32 243.156 575.688 243.156 573.592C243.156 571.544 243.62 569.92 244.548 568.72C245.492 567.504 246.788 566.896 248.436 566.896ZM248.724 568.672C247.652 568.672 246.82 569.104 246.228 569.968C245.636 570.816 245.34 572.032 245.34 573.616C245.34 575.2 245.628 576.416 246.204 577.264C246.78 578.096 247.636 578.512 248.772 578.512C250.068 578.512 251.012 578.168 251.604 577.48C252.196 576.776 252.492 575.648 252.492 574.096V573.592C252.492 571.848 252.188 570.592 251.58 569.824C250.972 569.056 250.02 568.672 248.724 568.672ZM263.61 566.896C264.698 566.896 265.642 567.136 266.442 567.616C267.242 568.096 267.85 568.776 268.266 569.656C268.698 570.52 268.914 571.536 268.914 572.704V573.976H260.106C260.138 575.432 260.506 576.544 261.21 577.312C261.93 578.064 262.93 578.44 264.21 578.44C265.026 578.44 265.746 578.368 266.37 578.224C267.01 578.064 267.666 577.84 268.338 577.552V579.4C267.682 579.688 267.034 579.896 266.394 580.024C265.754 580.168 264.994 580.24 264.114 580.24C262.882 580.24 261.802 579.992 260.874 579.496C259.946 579 259.218 578.264 258.69 577.288C258.178 576.312 257.922 575.104 257.922 573.664C257.922 572.256 258.154 571.048 258.618 570.04C259.098 569.032 259.762 568.256 260.61 567.712C261.474 567.168 262.474 566.896 263.61 566.896ZM263.586 568.624C262.578 568.624 261.778 568.952 261.186 569.608C260.61 570.248 260.266 571.144 260.154 572.296H266.706C266.69 571.208 266.434 570.328 265.938 569.656C265.442 568.968 264.658 568.624 263.586 568.624ZM204.683 595.864C204.459 596.792 204.227 597.8 203.987 598.888C203.763 599.96 203.595 600.912 203.483 601.744H201.203L201.035 601.48C201.243 600.648 201.539 599.72 201.923 598.696C202.323 597.672 202.723 596.728 203.123 595.864H204.683ZM200.243 595.864C200.019 596.792 199.795 597.8 199.571 598.888C199.347 599.96 199.171 600.912 199.043 601.744H196.787L196.643 601.48C196.867 600.648 197.163 599.72 197.531 598.696C197.915 597.672 198.307 596.728 198.707 595.864H200.243ZM213.668 595.864L207.284 613H205.22L211.604 595.864H213.668ZM218.062 594.76V600.112C218.062 600.752 218.022 601.352 217.942 601.912H218.086C218.502 601.256 219.062 600.76 219.766 600.424C220.486 600.088 221.262 599.92 222.094 599.92C223.646 599.92 224.814 600.296 225.598 601.048C226.398 601.784 226.798 602.976 226.798 604.624V613H224.71V604.768C224.71 602.704 223.75 601.672 221.83 601.672C220.39 601.672 219.398 602.08 218.854 602.896C218.326 603.696 218.062 604.848 218.062 606.352V613H215.95V594.76H218.062ZM241.97 606.544C241.97 608.672 241.426 610.32 240.338 611.488C239.266 612.656 237.81 613.24 235.97 613.24C234.834 613.24 233.818 612.984 232.922 612.472C232.042 611.944 231.346 611.184 230.834 610.192C230.322 609.184 230.066 607.968 230.066 606.544C230.066 604.416 230.594 602.776 231.65 601.624C232.722 600.472 234.186 599.896 236.042 599.896C237.194 599.896 238.218 600.16 239.114 600.688C240.01 601.2 240.706 601.952 241.202 602.944C241.714 603.92 241.97 605.12 241.97 606.544ZM232.25 606.544C232.25 608.064 232.546 609.272 233.138 610.168C233.746 611.048 234.706 611.488 236.018 611.488C237.314 611.488 238.266 611.048 238.874 610.168C239.482 609.272 239.786 608.064 239.786 606.544C239.786 605.024 239.482 603.832 238.874 602.968C238.266 602.104 237.306 601.672 235.994 601.672C234.682 601.672 233.73 602.104 233.138 602.968C232.546 603.832 232.25 605.024 232.25 606.544ZM259.429 599.896C260.885 599.896 261.973 600.272 262.693 601.024C263.413 601.776 263.773 602.976 263.773 604.624V613H261.685V604.72C261.685 602.688 260.813 601.672 259.069 601.672C257.821 601.672 256.925 602.032 256.381 602.752C255.853 603.472 255.589 604.52 255.589 605.896V613H253.501V604.72C253.501 602.688 252.621 601.672 250.861 601.672C249.565 601.672 248.669 602.072 248.173 602.872C247.677 603.672 247.429 604.824 247.429 606.328V613H245.317V600.136H247.021L247.333 601.888H247.453C247.853 601.216 248.389 600.72 249.061 600.4C249.749 600.064 250.477 599.896 251.245 599.896C253.261 599.896 254.573 600.616 255.181 602.056H255.301C255.733 601.32 256.317 600.776 257.053 600.424C257.789 600.072 258.581 599.896 259.429 599.896ZM272.715 599.896C273.803 599.896 274.747 600.136 275.547 600.616C276.347 601.096 276.955 601.776 277.371 602.656C277.803 603.52 278.019 604.536 278.019 605.704V606.976H269.211C269.243 608.432 269.611 609.544 270.315 610.312C271.035 611.064 272.035 611.44 273.315 611.44C274.131 611.44 274.851 611.368 275.475 611.224C276.115 611.064 276.771 610.84 277.443 610.552V612.4C276.787 612.688 276.139 612.896 275.499 613.024C274.859 613.168 274.099 613.24 273.219 613.24C271.987 613.24 270.907 612.992 269.979 612.496C269.051 612 268.323 611.264 267.795 610.288C267.283 609.312 267.027 608.104 267.027 606.664C267.027 605.256 267.259 604.048 267.723 603.04C268.203 602.032 268.867 601.256 269.715 600.712C270.579 600.168 271.579 599.896 272.715 599.896ZM272.691 601.624C271.683 601.624 270.883 601.952 270.291 602.608C269.715 603.248 269.371 604.144 269.259 605.296H275.811C275.795 604.208 275.539 603.328 275.043 602.656C274.547 601.968 273.763 601.624 272.691 601.624ZM287.18 595.864L287.348 596.128C287.14 596.976 286.836 597.912 286.436 598.936C286.052 599.96 285.668 600.896 285.284 601.744H283.7C283.844 601.152 283.996 600.504 284.156 599.8C284.316 599.096 284.46 598.408 284.588 597.736C284.732 597.048 284.844 596.424 284.924 595.864H287.18ZM282.74 595.864L282.908 596.128C282.684 596.976 282.38 597.912 281.996 598.936C281.612 599.96 281.228 600.896 280.844 601.744H279.308C279.468 601.152 279.62 600.504 279.764 599.8C279.908 599.096 280.044 598.408 280.172 597.736C280.3 597.048 280.404 596.424 280.484 595.864H282.74Z" fill="black"/>
<path d="M306.501 418.864C308.741 418.864 310.373 419.304 311.397 420.184C312.421 421.064 312.933 422.304 312.933 423.904C312.933 424.848 312.717 425.736 312.285 426.568C311.869 427.384 311.157 428.048 310.149 428.56C309.157 429.072 307.805 429.328 306.093 429.328H304.125V436H301.965V418.864H306.501ZM306.309 420.712H304.125V427.48H305.853C307.485 427.48 308.701 427.216 309.501 426.688C310.301 426.16 310.701 425.264 310.701 424C310.701 422.896 310.341 422.072 309.621 421.528C308.917 420.984 307.813 420.712 306.309 420.712ZM321.08 422.92C322.648 422.92 323.808 423.264 324.56 423.952C325.312 424.64 325.688 425.736 325.688 427.24V436H324.152L323.744 434.176H323.648C323.088 434.88 322.496 435.4 321.872 435.736C321.248 436.072 320.4 436.24 319.328 436.24C318.16 436.24 317.192 435.936 316.424 435.328C315.656 434.704 315.272 433.736 315.272 432.424C315.272 431.144 315.776 430.16 316.784 429.472C317.792 428.768 319.344 428.384 321.44 428.32L323.624 428.248V427.48C323.624 426.408 323.392 425.664 322.928 425.248C322.464 424.832 321.808 424.624 320.96 424.624C320.288 424.624 319.648 424.728 319.04 424.936C318.432 425.128 317.864 425.352 317.336 425.608L316.688 424.024C317.248 423.72 317.912 423.464 318.68 423.256C319.448 423.032 320.248 422.92 321.08 422.92ZM323.6 429.712L321.704 429.784C320.104 429.848 318.992 430.104 318.368 430.552C317.76 431 317.456 431.632 317.456 432.448C317.456 433.168 317.672 433.696 318.104 434.032C318.552 434.368 319.12 434.536 319.808 434.536C320.88 434.536 321.776 434.24 322.496 433.648C323.232 433.04 323.6 432.112 323.6 430.864V429.712ZM334.221 422.896C335.069 422.896 335.829 423.056 336.501 423.376C337.189 423.696 337.773 424.184 338.253 424.84H338.373L338.661 423.136H340.341V436.216C340.341 438.056 339.869 439.44 338.925 440.368C337.997 441.296 336.549 441.76 334.581 441.76C332.693 441.76 331.149 441.488 329.949 440.944V439C331.213 439.672 332.797 440.008 334.701 440.008C335.805 440.008 336.669 439.68 337.293 439.024C337.933 438.384 338.253 437.504 338.253 436.384V435.88C338.253 435.688 338.261 435.416 338.277 435.064C338.293 434.696 338.309 434.44 338.325 434.296H338.229C337.365 435.592 336.037 436.24 334.245 436.24C332.581 436.24 331.277 435.656 330.333 434.488C329.405 433.32 328.941 431.688 328.941 429.592C328.941 427.544 329.405 425.92 330.333 424.72C331.277 423.504 332.573 422.896 334.221 422.896ZM334.509 424.672C333.437 424.672 332.605 425.104 332.013 425.968C331.421 426.816 331.125 428.032 331.125 429.616C331.125 431.2 331.413 432.416 331.989 433.264C332.565 434.096 333.421 434.512 334.557 434.512C335.853 434.512 336.797 434.168 337.389 433.48C337.981 432.776 338.277 431.648 338.277 430.096V429.592C338.277 427.848 337.973 426.592 337.365 425.824C336.757 425.056 335.805 424.672 334.509 424.672ZM349.395 422.896C350.483 422.896 351.427 423.136 352.227 423.616C353.027 424.096 353.635 424.776 354.051 425.656C354.483 426.52 354.699 427.536 354.699 428.704V429.976H345.891C345.923 431.432 346.291 432.544 346.995 433.312C347.715 434.064 348.715 434.44 349.995 434.44C350.811 434.44 351.531 434.368 352.155 434.224C352.795 434.064 353.451 433.84 354.123 433.552V435.4C353.467 435.688 352.819 435.896 352.179 436.024C351.539 436.168 350.779 436.24 349.899 436.24C348.667 436.24 347.587 435.992 346.659 435.496C345.731 435 345.003 434.264 344.475 433.288C343.963 432.312 343.707 431.104 343.707 429.664C343.707 428.256 343.939 427.048 344.403 426.04C344.883 425.032 345.547 424.256 346.395 423.712C347.259 423.168 348.259 422.896 349.395 422.896ZM349.371 424.624C348.363 424.624 347.563 424.952 346.971 425.608C346.395 426.248 346.051 427.144 345.939 428.296H352.491C352.475 427.208 352.219 426.328 351.723 425.656C351.227 424.968 350.443 424.624 349.371 424.624ZM362.99 418.864C365.118 418.864 366.686 419.272 367.694 420.088C368.718 420.888 369.23 422.104 369.23 423.736C369.23 424.648 369.062 425.408 368.726 426.016C368.39 426.624 367.958 427.112 367.43 427.48C366.918 427.848 366.374 428.128 365.798 428.32L370.502 436H367.982L363.83 428.92H360.422V436H358.262V418.864H362.99ZM362.87 420.736H360.422V427.096H362.99C364.382 427.096 365.398 426.824 366.038 426.28C366.678 425.72 366.998 424.904 366.998 423.832C366.998 422.712 366.662 421.92 365.99 421.456C365.318 420.976 364.278 420.736 362.87 420.736ZM384.087 429.544C384.087 431.672 383.543 433.32 382.455 434.488C381.383 435.656 379.927 436.24 378.087 436.24C376.951 436.24 375.935 435.984 375.039 435.472C374.159 434.944 373.463 434.184 372.951 433.192C372.439 432.184 372.183 430.968 372.183 429.544C372.183 427.416 372.711 425.776 373.767 424.624C374.839 423.472 376.303 422.896 378.159 422.896C379.311 422.896 380.335 423.16 381.231 423.688C382.127 424.2 382.823 424.952 383.319 425.944C383.831 426.92 384.087 428.12 384.087 429.544ZM374.367 429.544C374.367 431.064 374.663 432.272 375.255 433.168C375.863 434.048 376.823 434.488 378.135 434.488C379.431 434.488 380.383 434.048 380.991 433.168C381.599 432.272 381.903 431.064 381.903 429.544C381.903 428.024 381.599 426.832 380.991 425.968C380.383 425.104 379.423 424.672 378.111 424.672C376.799 424.672 375.847 425.104 375.255 425.968C374.663 426.832 374.367 428.024 374.367 429.544ZM398.187 423.136V436H396.459L396.147 434.296H396.051C395.635 434.968 395.059 435.464 394.323 435.784C393.587 436.088 392.803 436.24 391.971 436.24C390.419 436.24 389.251 435.872 388.467 435.136C387.683 434.384 387.291 433.192 387.291 431.56V423.136H389.427V431.416C389.427 433.464 390.379 434.488 392.283 434.488C393.707 434.488 394.691 434.088 395.235 433.288C395.795 432.488 396.075 431.336 396.075 429.832V423.136H398.187ZM406.566 434.512C406.886 434.512 407.214 434.488 407.55 434.44C407.886 434.392 408.158 434.328 408.366 434.248V435.856C408.142 435.968 407.822 436.056 407.406 436.12C406.99 436.2 406.59 436.24 406.206 436.24C405.534 436.24 404.91 436.128 404.334 435.904C403.774 435.664 403.318 435.256 402.966 434.68C402.614 434.104 402.438 433.296 402.438 432.256V424.768H400.614V423.76L402.462 422.92L403.302 420.184H404.55V423.136H408.27V424.768H404.55V432.208C404.55 432.992 404.734 433.576 405.102 433.96C405.486 434.328 405.974 434.512 406.566 434.512ZM415.91 422.896C416.998 422.896 417.942 423.136 418.742 423.616C419.542 424.096 420.15 424.776 420.566 425.656C420.998 426.52 421.214 427.536 421.214 428.704V429.976H412.406C412.438 431.432 412.806 432.544 413.51 433.312C414.23 434.064 415.23 434.44 416.51 434.44C417.326 434.44 418.046 434.368 418.67 434.224C419.31 434.064 419.966 433.84 420.638 433.552V435.4C419.982 435.688 419.334 435.896 418.694 436.024C418.054 436.168 417.294 436.24 416.414 436.24C415.182 436.24 414.102 435.992 413.174 435.496C412.246 435 411.518 434.264 410.99 433.288C410.478 432.312 410.222 431.104 410.222 429.664C410.222 428.256 410.454 427.048 410.918 426.04C411.398 425.032 412.062 424.256 412.91 423.712C413.774 423.168 414.774 422.896 415.91 422.896ZM415.886 424.624C414.878 424.624 414.078 424.952 413.486 425.608C412.91 426.248 412.566 427.144 412.454 428.296H419.006C418.99 427.208 418.734 426.328 418.238 425.656C417.742 424.968 416.958 424.624 415.886 424.624ZM430.489 422.896C430.729 422.896 430.985 422.912 431.257 422.944C431.529 422.96 431.777 422.992 432.001 423.04L431.737 424.984C431.529 424.936 431.297 424.896 431.041 424.864C430.785 424.832 430.553 424.816 430.345 424.816C429.689 424.816 429.073 425 428.497 425.368C427.921 425.72 427.457 426.224 427.105 426.88C426.769 427.52 426.601 428.272 426.601 429.136V436H424.489V423.136H426.217L426.457 425.488H426.553C426.953 424.784 427.481 424.176 428.137 423.664C428.809 423.152 429.593 422.896 430.489 422.896ZM281.117 451.864C280.893 452.792 280.661 453.8 280.421 454.888C280.197 455.96 280.029 456.912 279.917 457.744H277.637L277.469 457.48C277.677 456.648 277.973 455.72 278.357 454.696C278.757 453.672 279.157 452.728 279.557 451.864H281.117ZM276.677 451.864C276.453 452.792 276.229 453.8 276.005 454.888C275.781 455.96 275.605 456.912 275.477 457.744H273.221L273.077 457.48C273.301 456.648 273.597 455.72 273.965 454.696C274.349 453.672 274.741 452.728 275.141 451.864H276.677ZM290.102 451.864L283.718 469H281.654L288.038 451.864H290.102ZM294.496 450.76V456.112C294.496 456.752 294.456 457.352 294.376 457.912H294.52C294.936 457.256 295.496 456.76 296.2 456.424C296.92 456.088 297.696 455.92 298.528 455.92C300.08 455.92 301.248 456.296 302.032 457.048C302.832 457.784 303.232 458.976 303.232 460.624V469H301.144V460.768C301.144 458.704 300.184 457.672 298.264 457.672C296.824 457.672 295.832 458.08 295.288 458.896C294.76 459.696 294.496 460.848 294.496 462.352V469H292.384V450.76H294.496ZM318.404 462.544C318.404 464.672 317.86 466.32 316.772 467.488C315.7 468.656 314.244 469.24 312.404 469.24C311.268 469.24 310.252 468.984 309.356 468.472C308.476 467.944 307.78 467.184 307.268 466.192C306.756 465.184 306.5 463.968 306.5 462.544C306.5 460.416 307.028 458.776 308.084 457.624C309.156 456.472 310.62 455.896 312.476 455.896C313.628 455.896 314.652 456.16 315.548 456.688C316.444 457.2 317.14 457.952 317.636 458.944C318.148 459.92 318.404 461.12 318.404 462.544ZM308.684 462.544C308.684 464.064 308.98 465.272 309.572 466.168C310.18 467.048 311.14 467.488 312.452 467.488C313.748 467.488 314.7 467.048 315.308 466.168C315.916 465.272 316.22 464.064 316.22 462.544C316.22 461.024 315.916 459.832 315.308 458.968C314.7 458.104 313.74 457.672 312.428 457.672C311.116 457.672 310.164 458.104 309.572 458.968C308.98 459.832 308.684 461.024 308.684 462.544ZM335.863 455.896C337.319 455.896 338.407 456.272 339.127 457.024C339.847 457.776 340.207 458.976 340.207 460.624V469H338.119V460.72C338.119 458.688 337.247 457.672 335.503 457.672C334.255 457.672 333.359 458.032 332.815 458.752C332.287 459.472 332.023 460.52 332.023 461.896V469H329.935V460.72C329.935 458.688 329.055 457.672 327.295 457.672C325.999 457.672 325.103 458.072 324.607 458.872C324.111 459.672 323.863 460.824 323.863 462.328V469H321.751V456.136H323.455L323.767 457.888H323.887C324.287 457.216 324.823 456.72 325.495 456.4C326.183 456.064 326.911 455.896 327.679 455.896C329.695 455.896 331.007 456.616 331.615 458.056H331.735C332.167 457.32 332.751 456.776 333.487 456.424C334.223 456.072 335.015 455.896 335.863 455.896ZM349.149 455.896C350.237 455.896 351.181 456.136 351.981 456.616C352.781 457.096 353.389 457.776 353.805 458.656C354.237 459.52 354.453 460.536 354.453 461.704V462.976H345.645C345.677 464.432 346.045 465.544 346.749 466.312C347.469 467.064 348.469 467.44 349.749 467.44C350.565 467.44 351.285 467.368 351.909 467.224C352.549 467.064 353.205 466.84 353.877 466.552V468.4C353.221 468.688 352.573 468.896 351.933 469.024C351.293 469.168 350.533 469.24 349.653 469.24C348.421 469.24 347.341 468.992 346.413 468.496C345.485 468 344.757 467.264 344.229 466.288C343.717 465.312 343.461 464.104 343.461 462.664C343.461 461.256 343.693 460.048 344.157 459.04C344.637 458.032 345.301 457.256 346.149 456.712C347.013 456.168 348.013 455.896 349.149 455.896ZM349.125 457.624C348.117 457.624 347.317 457.952 346.725 458.608C346.149 459.248 345.805 460.144 345.693 461.296H352.245C352.229 460.208 351.973 459.328 351.477 458.656C350.981 457.968 350.197 457.624 349.125 457.624ZM363.613 451.864L363.781 452.128C363.573 452.976 363.269 453.912 362.869 454.936C362.485 455.96 362.101 456.896 361.717 457.744H360.133C360.277 457.152 360.429 456.504 360.589 455.8C360.749 455.096 360.893 454.408 361.021 453.736C361.165 453.048 361.277 452.424 361.357 451.864H363.613ZM359.173 451.864L359.341 452.128C359.117 452.976 358.813 453.912 358.429 454.936C358.045 455.96 357.661 456.896 357.277 457.744H355.741C355.901 457.152 356.053 456.504 356.197 455.8C356.341 455.096 356.477 454.408 356.605 453.736C356.733 453.048 356.837 452.424 356.917 451.864H359.173ZM371.513 464.344L380.561 460.576L371.513 456.28V454.408L382.817 460.048V461.248L371.513 466.216V464.344ZM398.609 451.864C398.385 452.792 398.153 453.8 397.913 454.888C397.689 455.96 397.521 456.912 397.409 457.744H395.129L394.961 457.48C395.169 456.648 395.465 455.72 395.849 454.696C396.249 453.672 396.649 452.728 397.049 451.864H398.609ZM394.169 451.864C393.945 452.792 393.721 453.8 393.497 454.888C393.273 455.96 393.097 456.912 392.969 457.744H390.713L390.569 457.48C390.793 456.648 391.089 455.72 391.457 454.696C391.841 453.672 392.233 452.728 392.633 451.864H394.169ZM407.594 451.864L401.21 469H399.146L405.53 451.864H407.594ZM414.748 455.92C416.316 455.92 417.476 456.264 418.228 456.952C418.98 457.64 419.356 458.736 419.356 460.24V469H417.82L417.412 467.176H417.316C416.756 467.88 416.164 468.4 415.54 468.736C414.916 469.072 414.068 469.24 412.996 469.24C411.828 469.24 410.86 468.936 410.092 468.328C409.324 467.704 408.94 466.736 408.94 465.424C408.94 464.144 409.444 463.16 410.452 462.472C411.46 461.768 413.012 461.384 415.108 461.32L417.292 461.248V460.48C417.292 459.408 417.06 458.664 416.596 458.248C416.132 457.832 415.476 457.624 414.628 457.624C413.956 457.624 413.316 457.728 412.708 457.936C412.1 458.128 411.532 458.352 411.004 458.608L410.356 457.024C410.916 456.72 411.58 456.464 412.348 456.256C413.116 456.032 413.916 455.92 414.748 455.92ZM417.268 462.712L415.372 462.784C413.772 462.848 412.66 463.104 412.036 463.552C411.428 464 411.124 464.632 411.124 465.448C411.124 466.168 411.34 466.696 411.772 467.032C412.22 467.368 412.788 467.536 413.476 467.536C414.548 467.536 415.444 467.24 416.164 466.648C416.9 466.04 417.268 465.112 417.268 463.864V462.712ZM429.449 455.896C431.033 455.896 432.305 456.448 433.265 457.552C434.241 458.656 434.729 460.32 434.729 462.544C434.729 464.736 434.241 466.4 433.265 467.536C432.305 468.672 431.025 469.24 429.425 469.24C428.433 469.24 427.609 469.056 426.953 468.688C426.313 468.32 425.809 467.88 425.441 467.368H425.297C425.313 467.64 425.337 467.984 425.369 468.4C425.417 468.816 425.441 469.176 425.441 469.48V474.76H423.329V456.136H425.057L425.345 457.888H425.441C425.825 457.328 426.329 456.856 426.953 456.472C427.577 456.088 428.409 455.896 429.449 455.896ZM429.065 457.672C427.753 457.672 426.825 458.04 426.281 458.776C425.737 459.512 425.457 460.632 425.441 462.136V462.544C425.441 464.128 425.697 465.352 426.209 466.216C426.737 467.064 427.705 467.488 429.113 467.488C429.881 467.488 430.521 467.28 431.033 466.864C431.545 466.432 431.921 465.84 432.161 465.088C432.417 464.336 432.545 463.48 432.545 462.52C432.545 461.048 432.257 459.872 431.681 458.992C431.121 458.112 430.249 457.672 429.065 457.672ZM444.215 455.896C445.799 455.896 447.071 456.448 448.031 457.552C449.007 458.656 449.495 460.32 449.495 462.544C449.495 464.736 449.007 466.4 448.031 467.536C447.071 468.672 445.791 469.24 444.191 469.24C443.199 469.24 442.375 469.056 441.719 468.688C441.079 468.32 440.575 467.88 440.207 467.368H440.063C440.079 467.64 440.103 467.984 440.135 468.4C440.183 468.816 440.207 469.176 440.207 469.48V474.76H438.095V456.136H439.823L440.111 457.888H440.207C440.591 457.328 441.095 456.856 441.719 456.472C442.343 456.088 443.175 455.896 444.215 455.896ZM443.831 457.672C442.519 457.672 441.591 458.04 441.047 458.776C440.503 459.512 440.223 460.632 440.207 462.136V462.544C440.207 464.128 440.463 465.352 440.975 466.216C441.503 467.064 442.471 467.488 443.879 467.488C444.647 467.488 445.287 467.28 445.799 466.864C446.311 466.432 446.687 465.84 446.927 465.088C447.183 464.336 447.311 463.48 447.311 462.52C447.311 461.048 447.023 459.872 446.447 458.992C445.887 458.112 445.015 457.672 443.831 457.672ZM458.746 451.864L458.914 452.128C458.706 452.976 458.402 453.912 458.002 454.936C457.618 455.96 457.234 456.896 456.85 457.744H455.266C455.41 457.152 455.562 456.504 455.722 455.8C455.882 455.096 456.026 454.408 456.154 453.736C456.298 453.048 456.41 452.424 456.49 451.864H458.746ZM454.306 451.864L454.474 452.128C454.25 452.976 453.946 453.912 453.562 454.936C453.178 455.96 452.794 456.896 452.41 457.744H450.874C451.034 457.152 451.186 456.504 451.33 455.8C451.474 455.096 451.61 454.408 451.738 453.736C451.866 453.048 451.97 452.424 452.05 451.864H454.306Z" fill="black"/>
<path d="M356 205C354.895 205 354 205.895 354 207C354 208.105 354.895 209 356 209V205ZM759.5 207H761.5V205H759.5V207ZM759.5 588V590H761.5V588H759.5ZM645.586 586.586C644.805 587.367 644.805 588.633 645.586 589.414L658.314 602.142C659.095 602.923 660.361 602.923 661.142 602.142C661.923 601.361 661.923 600.095 661.142 599.314L649.828 588L661.142 576.686C661.923 575.905 661.923 574.639 661.142 573.858C660.361 573.077 659.095 573.077 658.314 573.858L645.586 586.586ZM356 209H759.5V205H356V209ZM757.5 207V588H761.5V207H757.5ZM759.5 586H647V590H759.5V586Z" fill="#232629"/>
<path d="M784.915 413H782.371L776.299 404.816L774.547 406.352V413H772.387V395.864H774.547V404.312C775.027 403.768 775.515 403.224 776.011 402.68C776.507 402.136 777.003 401.592 777.499 401.048L782.131 395.864H784.651L777.859 403.328L784.915 413ZM788.038 395.312C788.358 395.312 788.638 395.424 788.878 395.648C789.134 395.856 789.262 396.192 789.262 396.656C789.262 397.12 789.134 397.464 788.878 397.688C788.638 397.896 788.358 398 788.038 398C787.686 398 787.39 397.896 787.15 397.688C786.91 397.464 786.79 397.12 786.79 396.656C786.79 396.192 786.91 395.856 787.15 395.648C787.39 395.424 787.686 395.312 788.038 395.312ZM789.07 400.136V413H786.958V400.136H789.07ZM799.145 399.896C799.385 399.896 799.641 399.912 799.913 399.944C800.185 399.96 800.433 399.992 800.657 400.04L800.393 401.984C800.185 401.936 799.953 401.896 799.697 401.864C799.441 401.832 799.209 401.816 799.001 401.816C798.345 401.816 797.729 402 797.153 402.368C796.577 402.72 796.113 403.224 795.761 403.88C795.425 404.52 795.257 405.272 795.257 406.136V413H793.145V400.136H794.873L795.113 402.488H795.209C795.609 401.784 796.137 401.176 796.793 400.664C797.465 400.152 798.249 399.896 799.145 399.896ZM804.14 395.312C804.46 395.312 804.74 395.424 804.98 395.648C805.236 395.856 805.364 396.192 805.364 396.656C805.364 397.12 805.236 397.464 804.98 397.688C804.74 397.896 804.46 398 804.14 398C803.788 398 803.492 397.896 803.252 397.688C803.012 397.464 802.892 397.12 802.892 396.656C802.892 396.192 803.012 395.856 803.252 395.648C803.492 395.424 803.788 395.312 804.14 395.312ZM805.172 400.136V413H803.06V400.136H805.172ZM813.807 399.896C814.655 399.896 815.415 400.056 816.087 400.376C816.775 400.696 817.359 401.184 817.839 401.84H817.959L818.247 400.136H819.927V413.216C819.927 415.056 819.455 416.44 818.511 417.368C817.583 418.296 816.135 418.76 814.167 418.76C812.279 418.76 810.735 418.488 809.535 417.944V416C810.799 416.672 812.383 417.008 814.287 417.008C815.391 417.008 816.255 416.68 816.879 416.024C817.519 415.384 817.839 414.504 817.839 413.384V412.88C817.839 412.688 817.847 412.416 817.863 412.064C817.879 411.696 817.895 411.44 817.911 411.296H817.815C816.951 412.592 815.623 413.24 813.831 413.24C812.167 413.24 810.863 412.656 809.919 411.488C808.991 410.32 808.527 408.688 808.527 406.592C808.527 404.544 808.991 402.92 809.919 401.72C810.863 400.504 812.159 399.896 813.807 399.896ZM814.095 401.672C813.023 401.672 812.191 402.104 811.599 402.968C811.007 403.816 810.711 405.032 810.711 406.616C810.711 408.2 810.999 409.416 811.575 410.264C812.151 411.096 813.007 411.512 814.143 411.512C815.439 411.512 816.383 411.168 816.975 410.48C817.567 409.776 817.863 408.648 817.863 407.096V406.592C817.863 404.848 817.559 403.592 816.951 402.824C816.343 402.056 815.391 401.672 814.095 401.672ZM828.885 399.92C830.453 399.92 831.613 400.264 832.365 400.952C833.117 401.64 833.493 402.736 833.493 404.24V413H831.957L831.549 411.176H831.453C830.893 411.88 830.301 412.4 829.677 412.736C829.053 413.072 828.205 413.24 827.133 413.24C825.965 413.24 824.997 412.936 824.229 412.328C823.461 411.704 823.077 410.736 823.077 409.424C823.077 408.144 823.581 407.16 824.589 406.472C825.597 405.768 827.149 405.384 829.245 405.32L831.429 405.248V404.48C831.429 403.408 831.197 402.664 830.733 402.248C830.269 401.832 829.613 401.624 828.765 401.624C828.093 401.624 827.453 401.728 826.845 401.936C826.237 402.128 825.669 402.352 825.141 402.608L824.493 401.024C825.053 400.72 825.717 400.464 826.485 400.256C827.253 400.032 828.053 399.92 828.885 399.92ZM831.405 406.712L829.509 406.784C827.909 406.848 826.797 407.104 826.173 407.552C825.565 408 825.261 408.632 825.261 409.448C825.261 410.168 825.477 410.696 825.909 411.032C826.357 411.368 826.925 411.536 827.613 411.536C828.685 411.536 829.581 411.24 830.301 410.648C831.037 410.04 831.405 409.112 831.405 407.864V406.712ZM851.578 399.896C853.034 399.896 854.122 400.272 854.842 401.024C855.562 401.776 855.922 402.976 855.922 404.624V413H853.834V404.72C853.834 402.688 852.962 401.672 851.218 401.672C849.97 401.672 849.074 402.032 848.53 402.752C848.002 403.472 847.738 404.52 847.738 405.896V413H845.65V404.72C845.65 402.688 844.77 401.672 843.01 401.672C841.714 401.672 840.818 402.072 840.322 402.872C839.826 403.672 839.578 404.824 839.578 406.328V413H837.466V400.136H839.17L839.482 401.888H839.602C840.002 401.216 840.538 400.72 841.21 400.4C841.898 400.064 842.626 399.896 843.394 399.896C845.41 399.896 846.722 400.616 847.33 402.056H847.45C847.882 401.32 848.466 400.776 849.202 400.424C849.938 400.072 850.73 399.896 851.578 399.896ZM860.975 395.312C861.295 395.312 861.575 395.424 861.815 395.648C862.071 395.856 862.199 396.192 862.199 396.656C862.199 397.12 862.071 397.464 861.815 397.688C861.575 397.896 861.295 398 860.975 398C860.623 398 860.327 397.896 860.087 397.688C859.847 397.464 859.727 397.12 859.727 396.656C859.727 396.192 859.847 395.856 860.087 395.648C860.327 395.424 860.623 395.312 860.975 395.312ZM862.007 400.136V413H859.895V400.136H862.007ZM865.771 411.704C865.771 411.112 865.915 410.696 866.203 410.456C866.491 410.216 866.835 410.096 867.235 410.096C867.635 410.096 867.987 410.216 868.291 410.456C868.595 410.696 868.747 411.112 868.747 411.704C868.747 412.28 868.595 412.696 868.291 412.952C867.987 413.208 867.635 413.336 867.235 413.336C866.835 413.336 866.491 413.208 866.203 412.952C865.915 412.696 865.771 412.28 865.771 411.704ZM877.329 395.864C879.569 395.864 881.201 396.304 882.225 397.184C883.249 398.064 883.761 399.304 883.761 400.904C883.761 401.848 883.545 402.736 883.113 403.568C882.697 404.384 881.985 405.048 880.977 405.56C879.985 406.072 878.633 406.328 876.921 406.328H874.953V413H872.793V395.864H877.329ZM877.137 397.712H874.953V404.48H876.681C878.313 404.48 879.529 404.216 880.329 403.688C881.129 403.16 881.529 402.264 881.529 401C881.529 399.896 881.169 399.072 880.449 398.528C879.745 397.984 878.641 397.712 877.137 397.712ZM891.908 399.92C893.476 399.92 894.636 400.264 895.388 400.952C896.14 401.64 896.516 402.736 896.516 404.24V413H894.98L894.572 411.176H894.476C893.916 411.88 893.324 412.4 892.7 412.736C892.076 413.072 891.228 413.24 890.156 413.24C888.988 413.24 888.02 412.936 887.252 412.328C886.484 411.704 886.1 410.736 886.1 409.424C886.1 408.144 886.604 407.16 887.612 406.472C888.62 405.768 890.172 405.384 892.268 405.32L894.452 405.248V404.48C894.452 403.408 894.22 402.664 893.756 402.248C893.292 401.832 892.636 401.624 891.788 401.624C891.116 401.624 890.476 401.728 889.868 401.936C889.26 402.128 888.692 402.352 888.164 402.608L887.516 401.024C888.076 400.72 888.74 400.464 889.508 400.256C890.276 400.032 891.076 399.92 891.908 399.92ZM894.428 406.712L892.532 406.784C890.932 406.848 889.82 407.104 889.196 407.552C888.588 408 888.284 408.632 888.284 409.448C888.284 410.168 888.5 410.696 888.932 411.032C889.38 411.368 889.948 411.536 890.636 411.536C891.708 411.536 892.604 411.24 893.324 410.648C894.06 410.04 894.428 409.112 894.428 407.864V406.712ZM905.049 399.896C905.897 399.896 906.657 400.056 907.329 400.376C908.017 400.696 908.601 401.184 909.081 401.84H909.201L909.489 400.136H911.169V413.216C911.169 415.056 910.697 416.44 909.753 417.368C908.825 418.296 907.377 418.76 905.409 418.76C903.521 418.76 901.977 418.488 900.777 417.944V416C902.041 416.672 903.625 417.008 905.529 417.008C906.633 417.008 907.497 416.68 908.121 416.024C908.761 415.384 909.081 414.504 909.081 413.384V412.88C909.081 412.688 909.089 412.416 909.105 412.064C909.121 411.696 909.137 411.44 909.153 411.296H909.057C908.193 412.592 906.865 413.24 905.073 413.24C903.409 413.24 902.105 412.656 901.161 411.488C900.233 410.32 899.769 408.688 899.769 406.592C899.769 404.544 900.233 402.92 901.161 401.72C902.105 400.504 903.401 399.896 905.049 399.896ZM905.337 401.672C904.265 401.672 903.433 402.104 902.841 402.968C902.249 403.816 901.953 405.032 901.953 406.616C901.953 408.2 902.241 409.416 902.817 410.264C903.393 411.096 904.249 411.512 905.385 411.512C906.681 411.512 907.625 411.168 908.217 410.48C908.809 409.776 909.105 408.648 909.105 407.096V406.592C909.105 404.848 908.801 403.592 908.193 402.824C907.585 402.056 906.633 401.672 905.337 401.672ZM920.223 399.896C921.311 399.896 922.255 400.136 923.055 400.616C923.855 401.096 924.463 401.776 924.879 402.656C925.311 403.52 925.527 404.536 925.527 405.704V406.976H916.719C916.751 408.432 917.119 409.544 917.823 410.312C918.543 411.064 919.543 411.44 920.823 411.44C921.639 411.44 922.359 411.368 922.983 411.224C923.623 411.064 924.279 410.84 924.951 410.552V412.4C924.295 412.688 923.647 412.896 923.007 413.024C922.367 413.168 921.607 413.24 920.727 413.24C919.495 413.24 918.415 412.992 917.487 412.496C916.559 412 915.831 411.264 915.303 410.288C914.791 409.312 914.535 408.104 914.535 406.664C914.535 405.256 914.767 404.048 915.231 403.04C915.711 402.032 916.375 401.256 917.223 400.712C918.087 400.168 919.087 399.896 920.223 399.896ZM920.199 401.624C919.191 401.624 918.391 401.952 917.799 402.608C917.223 403.248 916.879 404.144 916.767 405.296H923.319C923.303 404.208 923.047 403.328 922.551 402.656C922.055 401.968 921.271 401.624 920.199 401.624ZM933.818 395.864C935.946 395.864 937.514 396.272 938.522 397.088C939.546 397.888 940.058 399.104 940.058 400.736C940.058 401.648 939.89 402.408 939.554 403.016C939.218 403.624 938.786 404.112 938.258 404.48C937.746 404.848 937.202 405.128 936.626 405.32L941.33 413H938.81L934.658 405.92H931.25V413H929.09V395.864H933.818ZM933.698 397.736H931.25V404.096H933.818C935.21 404.096 936.226 403.824 936.866 403.28C937.506 402.72 937.826 401.904 937.826 400.832C937.826 399.712 937.49 398.92 936.818 398.456C936.146 397.976 935.106 397.736 933.698 397.736ZM954.915 406.544C954.915 408.672 954.371 410.32 953.283 411.488C952.211 412.656 950.755 413.24 948.915 413.24C947.779 413.24 946.763 412.984 945.867 412.472C944.987 411.944 944.291 411.184 943.779 410.192C943.267 409.184 943.011 407.968 943.011 406.544C943.011 404.416 943.539 402.776 944.595 401.624C945.667 400.472 947.131 399.896 948.987 399.896C950.139 399.896 951.163 400.16 952.059 400.688C952.955 401.2 953.651 401.952 954.147 402.944C954.659 403.92 954.915 405.12 954.915 406.544ZM945.195 406.544C945.195 408.064 945.491 409.272 946.083 410.168C946.691 411.048 947.651 411.488 948.963 411.488C950.259 411.488 951.211 411.048 951.819 410.168C952.427 409.272 952.731 408.064 952.731 406.544C952.731 405.024 952.427 403.832 951.819 402.968C951.211 402.104 950.251 401.672 948.939 401.672C947.627 401.672 946.675 402.104 946.083 402.968C945.491 403.832 945.195 405.024 945.195 406.544ZM969.015 400.136V413H967.287L966.975 411.296H966.879C966.463 411.968 965.887 412.464 965.151 412.784C964.415 413.088 963.631 413.24 962.799 413.24C961.247 413.24 960.079 412.872 959.295 412.136C958.511 411.384 958.119 410.192 958.119 408.56V400.136H960.255V408.416C960.255 410.464 961.207 411.488 963.111 411.488C964.535 411.488 965.519 411.088 966.063 410.288C966.623 409.488 966.903 408.336 966.903 406.832V400.136H969.015ZM977.395 411.512C977.715 411.512 978.043 411.488 978.379 411.44C978.715 411.392 978.987 411.328 979.195 411.248V412.856C978.971 412.968 978.651 413.056 978.235 413.12C977.819 413.2 977.419 413.24 977.035 413.24C976.363 413.24 975.739 413.128 975.163 412.904C974.603 412.664 974.147 412.256 973.795 411.68C973.443 411.104 973.267 410.296 973.267 409.256V401.768H971.443V400.76L973.291 399.92L974.131 397.184H975.379V400.136H979.099V401.768H975.379V409.208C975.379 409.992 975.563 410.576 975.931 410.96C976.315 411.328 976.803 411.512 977.395 411.512ZM986.738 399.896C987.826 399.896 988.77 400.136 989.57 400.616C990.37 401.096 990.978 401.776 991.394 402.656C991.826 403.52 992.042 404.536 992.042 405.704V406.976H983.234C983.266 408.432 983.634 409.544 984.338 410.312C985.058 411.064 986.058 411.44 987.338 411.44C988.154 411.44 988.874 411.368 989.498 411.224C990.138 411.064 990.794 410.84 991.466 410.552V412.4C990.81 412.688 990.162 412.896 989.522 413.024C988.882 413.168 988.122 413.24 987.242 413.24C986.01 413.24 984.93 412.992 984.002 412.496C983.074 412 982.346 411.264 981.818 410.288C981.306 409.312 981.05 408.104 981.05 406.664C981.05 405.256 981.282 404.048 981.746 403.04C982.226 402.032 982.89 401.256 983.738 400.712C984.602 400.168 985.602 399.896 986.738 399.896ZM986.714 401.624C985.706 401.624 984.906 401.952 984.314 402.608C983.738 403.248 983.394 404.144 983.282 405.296H989.834C989.818 404.208 989.562 403.328 989.066 402.656C988.57 401.968 987.786 401.624 986.714 401.624ZM1001.32 399.896C1001.56 399.896 1001.81 399.912 1002.09 399.944C1002.36 399.96 1002.61 399.992 1002.83 400.04L1002.57 401.984C1002.36 401.936 1002.13 401.896 1001.87 401.864C1001.61 401.832 1001.38 401.816 1001.17 401.816C1000.52 401.816 999.901 402 999.325 402.368C998.749 402.72 998.285 403.224 997.933 403.88C997.597 404.52 997.429 405.272 997.429 406.136V413H995.317V400.136H997.045L997.285 402.488H997.381C997.781 401.784 998.309 401.176 998.965 400.664C999.637 400.152 1000.42 399.896 1001.32 399.896ZM1003.49 411.704C1003.49 411.112 1003.63 410.696 1003.92 410.456C1004.21 410.216 1004.55 410.096 1004.95 410.096C1005.35 410.096 1005.71 410.216 1006.01 410.456C1006.31 410.696 1006.47 411.112 1006.47 411.704C1006.47 412.28 1006.31 412.696 1006.01 412.952C1005.71 413.208 1005.35 413.336 1004.95 413.336C1004.55 413.336 1004.21 413.208 1003.92 412.952C1003.63 412.696 1003.49 412.28 1003.49 411.704ZM1016.34 399.896C1017.93 399.896 1019.2 400.448 1020.16 401.552C1021.14 402.656 1021.62 404.32 1021.62 406.544C1021.62 408.736 1021.14 410.4 1020.16 411.536C1019.2 412.672 1017.92 413.24 1016.32 413.24C1015.33 413.24 1014.5 413.056 1013.85 412.688C1013.21 412.32 1012.7 411.88 1012.34 411.368H1012.19C1012.21 411.64 1012.23 411.984 1012.26 412.4C1012.31 412.816 1012.34 413.176 1012.34 413.48V418.76H1010.22V400.136H1011.95L1012.24 401.888H1012.34C1012.72 401.328 1013.22 400.856 1013.85 400.472C1014.47 400.088 1015.3 399.896 1016.34 399.896ZM1015.96 401.672C1014.65 401.672 1013.72 402.04 1013.18 402.776C1012.63 403.512 1012.35 404.632 1012.34 406.136V406.544C1012.34 408.128 1012.59 409.352 1013.1 410.216C1013.63 411.064 1014.6 411.488 1016.01 411.488C1016.78 411.488 1017.42 411.28 1017.93 410.864C1018.44 410.432 1018.82 409.84 1019.06 409.088C1019.31 408.336 1019.44 407.48 1019.44 406.52C1019.44 405.048 1019.15 403.872 1018.58 402.992C1018.02 402.112 1017.14 401.672 1015.96 401.672ZM1035.74 400.136V413H1034.01L1033.7 411.296H1033.61C1033.19 411.968 1032.61 412.464 1031.88 412.784C1031.14 413.088 1030.36 413.24 1029.53 413.24C1027.97 413.24 1026.81 412.872 1026.02 412.136C1025.24 411.384 1024.85 410.192 1024.85 408.56V400.136H1026.98V408.416C1026.98 410.464 1027.93 411.488 1029.84 411.488C1031.26 411.488 1032.25 411.088 1032.79 410.288C1033.35 409.488 1033.63 408.336 1033.63 406.832V400.136H1035.74ZM1048.2 409.448C1048.2 410.696 1047.74 411.64 1046.81 412.28C1045.88 412.92 1044.63 413.24 1043.07 413.24C1042.17 413.24 1041.39 413.168 1040.74 413.024C1040.1 412.88 1039.53 412.68 1039.03 412.424V410.504C1039.55 410.76 1040.16 411 1040.88 411.224C1041.62 411.432 1042.36 411.536 1043.11 411.536C1044.19 411.536 1044.96 411.368 1045.44 411.032C1045.92 410.68 1046.16 410.216 1046.16 409.64C1046.16 409.32 1046.07 409.032 1045.9 408.776C1045.72 408.52 1045.4 408.264 1044.94 408.008C1044.49 407.752 1043.84 407.464 1042.99 407.144C1042.16 406.824 1041.45 406.504 1040.86 406.184C1040.27 405.864 1039.81 405.48 1039.49 405.032C1039.17 404.584 1039.01 404.008 1039.01 403.304C1039.01 402.216 1039.45 401.376 1040.33 400.784C1041.23 400.192 1042.39 399.896 1043.83 399.896C1044.62 399.896 1045.35 399.976 1046.02 400.136C1046.71 400.296 1047.35 400.504 1047.94 400.76L1047.22 402.44C1046.67 402.216 1046.11 402.024 1045.51 401.864C1044.92 401.704 1044.31 401.624 1043.69 401.624C1042.83 401.624 1042.16 401.768 1041.7 402.056C1041.25 402.328 1041.03 402.704 1041.03 403.184C1041.03 403.552 1041.13 403.856 1041.34 404.096C1041.55 404.336 1041.89 404.576 1042.37 404.816C1042.87 405.056 1043.52 405.328 1044.34 405.632C1045.15 405.936 1045.85 406.248 1046.43 406.568C1047 406.888 1047.44 407.28 1047.75 407.744C1048.05 408.192 1048.2 408.76 1048.2 409.448ZM1053.42 394.76V400.112C1053.42 400.752 1053.38 401.352 1053.3 401.912H1053.45C1053.86 401.256 1054.42 400.76 1055.13 400.424C1055.85 400.088 1056.62 399.92 1057.45 399.92C1059.01 399.92 1060.17 400.296 1060.96 401.048C1061.76 401.784 1062.16 402.976 1062.16 404.624V413H1060.07V404.768C1060.07 402.704 1059.11 401.672 1057.19 401.672C1055.75 401.672 1054.76 402.08 1054.21 402.896C1053.69 403.696 1053.42 404.848 1053.42 406.352V413H1051.31V394.76H1053.42ZM1071.16 395.864C1073.29 395.864 1074.86 396.272 1075.87 397.088C1076.89 397.888 1077.4 399.104 1077.4 400.736C1077.4 401.648 1077.23 402.408 1076.9 403.016C1076.56 403.624 1076.13 404.112 1075.6 404.48C1075.09 404.848 1074.55 405.128 1073.97 405.32L1078.67 413H1076.15L1072 405.92H1068.59V413H1066.43V395.864H1071.16ZM1071.04 397.736H1068.59V404.096H1071.16C1072.55 404.096 1073.57 403.824 1074.21 403.28C1074.85 402.72 1075.17 401.904 1075.17 400.832C1075.17 399.712 1074.83 398.92 1074.16 398.456C1073.49 397.976 1072.45 397.736 1071.04 397.736ZM1092.26 406.544C1092.26 408.672 1091.72 410.32 1090.63 411.488C1089.56 412.656 1088.1 413.24 1086.26 413.24C1085.12 413.24 1084.11 412.984 1083.21 412.472C1082.33 411.944 1081.64 411.184 1081.12 410.192C1080.61 409.184 1080.36 407.968 1080.36 406.544C1080.36 404.416 1080.88 402.776 1081.94 401.624C1083.01 400.472 1084.48 399.896 1086.33 399.896C1087.48 399.896 1088.51 400.16 1089.4 400.688C1090.3 401.2 1091 401.952 1091.49 402.944C1092 403.92 1092.26 405.12 1092.26 406.544ZM1082.54 406.544C1082.54 408.064 1082.84 409.272 1083.43 410.168C1084.04 411.048 1085 411.488 1086.31 411.488C1087.6 411.488 1088.56 411.048 1089.16 410.168C1089.77 409.272 1090.08 408.064 1090.08 406.544C1090.08 405.024 1089.77 403.832 1089.16 402.968C1088.56 402.104 1087.6 401.672 1086.28 401.672C1084.97 401.672 1084.02 402.104 1083.43 402.968C1082.84 403.832 1082.54 405.024 1082.54 406.544ZM1106.36 400.136V413H1104.63L1104.32 411.296H1104.22C1103.81 411.968 1103.23 412.464 1102.49 412.784C1101.76 413.088 1100.97 413.24 1100.14 413.24C1098.59 413.24 1097.42 412.872 1096.64 412.136C1095.85 411.384 1095.46 410.192 1095.46 408.56V400.136H1097.6V408.416C1097.6 410.464 1098.55 411.488 1100.45 411.488C1101.88 411.488 1102.86 411.088 1103.41 410.288C1103.97 409.488 1104.25 408.336 1104.25 406.832V400.136H1106.36ZM1114.74 411.512C1115.06 411.512 1115.39 411.488 1115.72 411.44C1116.06 411.392 1116.33 411.328 1116.54 411.248V412.856C1116.31 412.968 1115.99 413.056 1115.58 413.12C1115.16 413.2 1114.76 413.24 1114.38 413.24C1113.71 413.24 1113.08 413.128 1112.51 412.904C1111.95 412.664 1111.49 412.256 1111.14 411.68C1110.79 411.104 1110.61 410.296 1110.61 409.256V401.768H1108.79V400.76L1110.63 399.92L1111.47 397.184H1112.72V400.136H1116.44V401.768H1112.72V409.208C1112.72 409.992 1112.91 410.576 1113.27 410.96C1113.66 411.328 1114.15 411.512 1114.74 411.512ZM1124.08 399.896C1125.17 399.896 1126.11 400.136 1126.91 400.616C1127.71 401.096 1128.32 401.776 1128.74 402.656C1129.17 403.52 1129.39 404.536 1129.39 405.704V406.976H1120.58C1120.61 408.432 1120.98 409.544 1121.68 410.312C1122.4 411.064 1123.4 411.44 1124.68 411.44C1125.5 411.44 1126.22 411.368 1126.84 411.224C1127.48 411.064 1128.14 410.84 1128.81 410.552V412.4C1128.15 412.688 1127.51 412.896 1126.87 413.024C1126.23 413.168 1125.47 413.24 1124.59 413.24C1123.35 413.24 1122.27 412.992 1121.35 412.496C1120.42 412 1119.69 411.264 1119.16 410.288C1118.65 409.312 1118.39 408.104 1118.39 406.664C1118.39 405.256 1118.63 404.048 1119.09 403.04C1119.57 402.032 1120.23 401.256 1121.08 400.712C1121.95 400.168 1122.95 399.896 1124.08 399.896ZM1124.06 401.624C1123.05 401.624 1122.25 401.952 1121.66 402.608C1121.08 403.248 1120.74 404.144 1120.63 405.296H1127.18C1127.16 404.208 1126.91 403.328 1126.41 402.656C1125.91 401.968 1125.13 401.624 1124.06 401.624ZM1131.58 406.424C1131.58 404.472 1131.86 402.592 1132.42 400.784C1133 398.96 1133.89 397.32 1135.11 395.864H1137.1C1135.98 397.368 1135.13 399.024 1134.56 400.832C1134 402.64 1133.72 404.496 1133.72 406.4C1133.72 408.256 1134 410.08 1134.56 411.872C1135.13 413.648 1135.97 415.288 1137.08 416.792H1135.11C1133.89 415.384 1133 413.792 1132.42 412.016C1131.86 410.224 1131.58 408.36 1131.58 406.424ZM1146.14 395.864C1145.92 396.792 1145.69 397.8 1145.45 398.888C1145.22 399.96 1145.06 400.912 1144.94 401.744H1142.66L1142.5 401.48C1142.7 400.648 1143 399.72 1143.38 398.696C1143.78 397.672 1144.18 396.728 1144.58 395.864H1146.14ZM1141.7 395.864C1141.48 396.792 1141.26 397.8 1141.03 398.888C1140.81 399.96 1140.63 400.912 1140.5 401.744H1138.25L1138.1 401.48C1138.33 400.648 1138.62 399.72 1138.99 398.696C1139.38 397.672 1139.77 396.728 1140.17 395.864H1141.7ZM1155.13 395.864L1148.75 413H1146.68L1153.07 395.864H1155.13ZM1162.28 399.92C1163.85 399.92 1165.01 400.264 1165.76 400.952C1166.52 401.64 1166.89 402.736 1166.89 404.24V413H1165.36L1164.95 411.176H1164.85C1164.29 411.88 1163.7 412.4 1163.08 412.736C1162.45 413.072 1161.6 413.24 1160.53 413.24C1159.36 413.24 1158.4 412.936 1157.63 412.328C1156.86 411.704 1156.48 410.736 1156.48 409.424C1156.48 408.144 1156.98 407.16 1157.99 406.472C1159 405.768 1160.55 405.384 1162.64 405.32L1164.83 405.248V404.48C1164.83 403.408 1164.6 402.664 1164.13 402.248C1163.67 401.832 1163.01 401.624 1162.16 401.624C1161.49 401.624 1160.85 401.728 1160.24 401.936C1159.64 402.128 1159.07 402.352 1158.54 402.608L1157.89 401.024C1158.45 400.72 1159.12 400.464 1159.88 400.256C1160.65 400.032 1161.45 399.92 1162.28 399.92ZM1164.8 406.712L1162.91 406.784C1161.31 406.848 1160.2 407.104 1159.57 407.552C1158.96 408 1158.66 408.632 1158.66 409.448C1158.66 410.168 1158.88 410.696 1159.31 411.032C1159.76 411.368 1160.32 411.536 1161.01 411.536C1162.08 411.536 1162.98 411.24 1163.7 410.648C1164.44 410.04 1164.8 409.112 1164.8 407.864V406.712ZM1176.98 399.896C1178.57 399.896 1179.84 400.448 1180.8 401.552C1181.78 402.656 1182.26 404.32 1182.26 406.544C1182.26 408.736 1181.78 410.4 1180.8 411.536C1179.84 412.672 1178.56 413.24 1176.96 413.24C1175.97 413.24 1175.14 413.056 1174.49 412.688C1173.85 412.32 1173.34 411.88 1172.98 411.368H1172.83C1172.85 411.64 1172.87 411.984 1172.9 412.4C1172.95 412.816 1172.98 413.176 1172.98 413.48V418.76H1170.86V400.136H1172.59L1172.88 401.888H1172.98C1173.36 401.328 1173.86 400.856 1174.49 400.472C1175.11 400.088 1175.94 399.896 1176.98 399.896ZM1176.6 401.672C1175.29 401.672 1174.36 402.04 1173.82 402.776C1173.27 403.512 1172.99 404.632 1172.98 406.136V406.544C1172.98 408.128 1173.23 409.352 1173.74 410.216C1174.27 411.064 1175.24 411.488 1176.65 411.488C1177.42 411.488 1178.06 411.28 1178.57 410.864C1179.08 410.432 1179.46 409.84 1179.7 409.088C1179.95 408.336 1180.08 407.48 1180.08 406.52C1180.08 405.048 1179.79 403.872 1179.22 402.992C1178.66 402.112 1177.78 401.672 1176.6 401.672ZM1191.75 399.896C1193.33 399.896 1194.61 400.448 1195.57 401.552C1196.54 402.656 1197.03 404.32 1197.03 406.544C1197.03 408.736 1196.54 410.4 1195.57 411.536C1194.61 412.672 1193.33 413.24 1191.73 413.24C1190.73 413.24 1189.91 413.056 1189.25 412.688C1188.61 412.32 1188.11 411.88 1187.74 411.368H1187.6C1187.61 411.64 1187.64 411.984 1187.67 412.4C1187.72 412.816 1187.74 413.176 1187.74 413.48V418.76H1185.63V400.136H1187.36L1187.65 401.888H1187.74C1188.13 401.328 1188.63 400.856 1189.25 400.472C1189.88 400.088 1190.71 399.896 1191.75 399.896ZM1191.37 401.672C1190.05 401.672 1189.13 402.04 1188.58 402.776C1188.04 403.512 1187.76 404.632 1187.74 406.136V406.544C1187.74 408.128 1188 409.352 1188.51 410.216C1189.04 411.064 1190.01 411.488 1191.41 411.488C1192.18 411.488 1192.82 411.28 1193.33 410.864C1193.85 410.432 1194.22 409.84 1194.46 409.088C1194.72 408.336 1194.85 407.48 1194.85 406.52C1194.85 405.048 1194.56 403.872 1193.98 402.992C1193.42 402.112 1192.55 401.672 1191.37 401.672ZM1206.28 395.864L1206.45 396.128C1206.24 396.976 1205.94 397.912 1205.54 398.936C1205.15 399.96 1204.77 400.896 1204.39 401.744H1202.8C1202.95 401.152 1203.1 400.504 1203.26 399.8C1203.42 399.096 1203.56 398.408 1203.69 397.736C1203.83 397.048 1203.95 396.424 1204.03 395.864H1206.28ZM1201.84 395.864L1202.01 396.128C1201.79 396.976 1201.48 397.912 1201.1 398.936C1200.71 399.96 1200.33 400.896 1199.95 401.744H1198.41C1198.57 401.152 1198.72 400.504 1198.87 399.8C1199.01 399.096 1199.15 398.408 1199.27 397.736C1199.4 397.048 1199.51 396.424 1199.59 395.864H1201.84ZM1212.99 406.424C1212.99 408.36 1212.7 410.224 1212.12 412.016C1211.56 413.792 1210.67 415.384 1209.46 416.792H1207.49C1208.59 415.288 1209.43 413.648 1209.99 411.872C1210.56 410.08 1210.85 408.256 1210.85 406.4C1210.85 404.496 1210.56 402.64 1209.99 400.832C1209.43 399.024 1208.59 397.368 1207.47 395.864H1209.46C1210.67 397.32 1211.56 398.96 1212.12 400.784C1212.7 402.592 1212.99 404.472 1212.99 406.424Z" fill="black"/>
</svg>
