<svg width="1224" height="726" viewBox="0 0 1224 726" fill="none" xmlns="http://www.w3.org/2000/svg">
<rect x="2" y="383" width="728" height="341" rx="8" fill="#D1D5D9" stroke="#393C3F" stroke-width="4"/>
<path d="M159 497H329.023C331.968 497 334.674 498.618 336.069 501.212L380.693 584.212C381.964 586.577 381.964 589.423 380.693 591.788L336.069 674.788C334.674 677.382 331.968 679 329.023 679H159C154.582 679 151 675.418 151 671V505C151 500.582 154.582 497 159 497Z" fill="#9B9EA2" stroke="#393C3F" stroke-width="4"/>
<path d="M220.716 562.864C222.956 562.864 224.588 563.304 225.612 564.184C226.636 565.064 227.148 566.304 227.148 567.904C227.148 568.848 226.932 569.736 226.5 570.568C226.084 571.384 225.372 572.048 224.364 572.56C223.372 573.072 222.02 573.328 220.308 573.328H218.34V580H216.18V562.864H220.716ZM220.524 564.712H218.34V571.48H220.068C221.7 571.48 222.916 571.216 223.716 570.688C224.516 570.16 224.916 569.264 224.916 568C224.916 566.896 224.556 566.072 223.836 565.528C223.132 564.984 222.028 564.712 220.524 564.712ZM235.295 566.92C236.863 566.92 238.023 567.264 238.775 567.952C239.527 568.64 239.903 569.736 239.903 571.24V580H238.367L237.959 578.176H237.863C237.303 578.88 236.711 579.4 236.087 579.736C235.463 580.072 234.615 580.24 233.543 580.24C232.375 580.24 231.407 579.936 230.639 579.328C229.871 578.704 229.487 577.736 229.487 576.424C229.487 575.144 229.991 574.16 230.999 573.472C232.007 572.768 233.559 572.384 235.655 572.32L237.839 572.248V571.48C237.839 570.408 237.607 569.664 237.143 569.248C236.679 568.832 236.023 568.624 235.175 568.624C234.503 568.624 233.863 568.728 233.255 568.936C232.647 569.128 232.079 569.352 231.551 569.608L230.903 568.024C231.463 567.72 232.127 567.464 232.895 567.256C233.663 567.032 234.463 566.92 235.295 566.92ZM237.815 573.712L235.919 573.784C234.319 573.848 233.207 574.104 232.583 574.552C231.975 575 231.671 575.632 231.671 576.448C231.671 577.168 231.887 577.696 232.319 578.032C232.767 578.368 233.335 578.536 234.023 578.536C235.095 578.536 235.991 578.24 236.711 577.648C237.447 577.04 237.815 576.112 237.815 574.864V573.712ZM248.436 566.896C249.284 566.896 250.044 567.056 250.716 567.376C251.404 567.696 251.988 568.184 252.468 568.84H252.588L252.876 567.136H254.556V580.216C254.556 582.056 254.084 583.44 253.14 584.368C252.212 585.296 250.764 585.76 248.796 585.76C246.908 585.76 245.364 585.488 244.164 584.944V583C245.428 583.672 247.012 584.008 248.916 584.008C250.02 584.008 250.884 583.68 251.508 583.024C252.148 582.384 252.468 581.504 252.468 580.384V579.88C252.468 579.688 252.476 579.416 252.492 579.064C252.508 578.696 252.524 578.44 252.54 578.296H252.444C251.58 579.592 250.252 580.24 248.46 580.24C246.796 580.24 245.492 579.656 244.548 578.488C243.62 577.32 243.156 575.688 243.156 573.592C243.156 571.544 243.62 569.92 244.548 568.72C245.492 567.504 246.788 566.896 248.436 566.896ZM248.724 568.672C247.652 568.672 246.82 569.104 246.228 569.968C245.636 570.816 245.34 572.032 245.34 573.616C245.34 575.2 245.628 576.416 246.204 577.264C246.78 578.096 247.636 578.512 248.772 578.512C250.068 578.512 251.012 578.168 251.604 577.48C252.196 576.776 252.492 575.648 252.492 574.096V573.592C252.492 571.848 252.188 570.592 251.58 569.824C250.972 569.056 250.02 568.672 248.724 568.672ZM263.61 566.896C264.698 566.896 265.642 567.136 266.442 567.616C267.242 568.096 267.85 568.776 268.266 569.656C268.698 570.52 268.914 571.536 268.914 572.704V573.976H260.106C260.138 575.432 260.506 576.544 261.21 577.312C261.93 578.064 262.93 578.44 264.21 578.44C265.026 578.44 265.746 578.368 266.37 578.224C267.01 578.064 267.666 577.84 268.338 577.552V579.4C267.682 579.688 267.034 579.896 266.394 580.024C265.754 580.168 264.994 580.24 264.114 580.24C262.882 580.24 261.802 579.992 260.874 579.496C259.946 579 259.218 578.264 258.69 577.288C258.178 576.312 257.922 575.104 257.922 573.664C257.922 572.256 258.154 571.048 258.618 570.04C259.098 569.032 259.762 568.256 260.61 567.712C261.474 567.168 262.474 566.896 263.61 566.896ZM263.586 568.624C262.578 568.624 261.778 568.952 261.186 569.608C260.61 570.248 260.266 571.144 260.154 572.296H266.706C266.69 571.208 266.434 570.328 265.938 569.656C265.442 568.968 264.658 568.624 263.586 568.624ZM204.683 595.864C204.459 596.792 204.227 597.8 203.987 598.888C203.763 599.96 203.595 600.912 203.483 601.744H201.203L201.035 601.48C201.243 600.648 201.539 599.72 201.923 598.696C202.323 597.672 202.723 596.728 203.123 595.864H204.683ZM200.243 595.864C200.019 596.792 199.795 597.8 199.571 598.888C199.347 599.96 199.171 600.912 199.043 601.744H196.787L196.643 601.48C196.867 600.648 197.163 599.72 197.531 598.696C197.915 597.672 198.307 596.728 198.707 595.864H200.243ZM213.668 595.864L207.284 613H205.22L211.604 595.864H213.668ZM218.062 594.76V600.112C218.062 600.752 218.022 601.352 217.942 601.912H218.086C218.502 601.256 219.062 600.76 219.766 600.424C220.486 600.088 221.262 599.92 222.094 599.92C223.646 599.92 224.814 600.296 225.598 601.048C226.398 601.784 226.798 602.976 226.798 604.624V613H224.71V604.768C224.71 602.704 223.75 601.672 221.83 601.672C220.39 601.672 219.398 602.08 218.854 602.896C218.326 603.696 218.062 604.848 218.062 606.352V613H215.95V594.76H218.062ZM241.97 606.544C241.97 608.672 241.426 610.32 240.338 611.488C239.266 612.656 237.81 613.24 235.97 613.24C234.834 613.24 233.818 612.984 232.922 612.472C232.042 611.944 231.346 611.184 230.834 610.192C230.322 609.184 230.066 607.968 230.066 606.544C230.066 604.416 230.594 602.776 231.65 601.624C232.722 600.472 234.186 599.896 236.042 599.896C237.194 599.896 238.218 600.16 239.114 600.688C240.01 601.2 240.706 601.952 241.202 602.944C241.714 603.92 241.97 605.12 241.97 606.544ZM232.25 606.544C232.25 608.064 232.546 609.272 233.138 610.168C233.746 611.048 234.706 611.488 236.018 611.488C237.314 611.488 238.266 611.048 238.874 610.168C239.482 609.272 239.786 608.064 239.786 606.544C239.786 605.024 239.482 603.832 238.874 602.968C238.266 602.104 237.306 601.672 235.994 601.672C234.682 601.672 233.73 602.104 233.138 602.968C232.546 603.832 232.25 605.024 232.25 606.544ZM259.429 599.896C260.885 599.896 261.973 600.272 262.693 601.024C263.413 601.776 263.773 602.976 263.773 604.624V613H261.685V604.72C261.685 602.688 260.813 601.672 259.069 601.672C257.821 601.672 256.925 602.032 256.381 602.752C255.853 603.472 255.589 604.52 255.589 605.896V613H253.501V604.72C253.501 602.688 252.621 601.672 250.861 601.672C249.565 601.672 248.669 602.072 248.173 602.872C247.677 603.672 247.429 604.824 247.429 606.328V613H245.317V600.136H247.021L247.333 601.888H247.453C247.853 601.216 248.389 600.72 249.061 600.4C249.749 600.064 250.477 599.896 251.245 599.896C253.261 599.896 254.573 600.616 255.181 602.056H255.301C255.733 601.32 256.317 600.776 257.053 600.424C257.789 600.072 258.581 599.896 259.429 599.896ZM272.715 599.896C273.803 599.896 274.747 600.136 275.547 600.616C276.347 601.096 276.955 601.776 277.371 602.656C277.803 603.52 278.019 604.536 278.019 605.704V606.976H269.211C269.243 608.432 269.611 609.544 270.315 610.312C271.035 611.064 272.035 611.44 273.315 611.44C274.131 611.44 274.851 611.368 275.475 611.224C276.115 611.064 276.771 610.84 277.443 610.552V612.4C276.787 612.688 276.139 612.896 275.499 613.024C274.859 613.168 274.099 613.24 273.219 613.24C271.987 613.24 270.907 612.992 269.979 612.496C269.051 612 268.323 611.264 267.795 610.288C267.283 609.312 267.027 608.104 267.027 606.664C267.027 605.256 267.259 604.048 267.723 603.04C268.203 602.032 268.867 601.256 269.715 600.712C270.579 600.168 271.579 599.896 272.715 599.896ZM272.691 601.624C271.683 601.624 270.883 601.952 270.291 602.608C269.715 603.248 269.371 604.144 269.259 605.296H275.811C275.795 604.208 275.539 603.328 275.043 602.656C274.547 601.968 273.763 601.624 272.691 601.624ZM287.18 595.864L287.348 596.128C287.14 596.976 286.836 597.912 286.436 598.936C286.052 599.96 285.668 600.896 285.284 601.744H283.7C283.844 601.152 283.996 600.504 284.156 599.8C284.316 599.096 284.46 598.408 284.588 597.736C284.732 597.048 284.844 596.424 284.924 595.864H287.18ZM282.74 595.864L282.908 596.128C282.684 596.976 282.38 597.912 281.996 598.936C281.612 599.96 281.228 600.896 280.844 601.744H279.308C279.468 601.152 279.62 600.504 279.764 599.8C279.908 599.096 280.044 598.408 280.172 597.736C280.3 597.048 280.404 596.424 280.484 595.864H282.74Z" fill="black"/>
<path d="M306.501 418.864C308.741 418.864 310.373 419.304 311.397 420.184C312.421 421.064 312.933 422.304 312.933 423.904C312.933 424.848 312.717 425.736 312.285 426.568C311.869 427.384 311.157 428.048 310.149 428.56C309.157 429.072 307.805 429.328 306.093 429.328H304.125V436H301.965V418.864H306.501ZM306.309 420.712H304.125V427.48H305.853C307.485 427.48 308.701 427.216 309.501 426.688C310.301 426.16 310.701 425.264 310.701 424C310.701 422.896 310.341 422.072 309.621 421.528C308.917 420.984 307.813 420.712 306.309 420.712ZM321.08 422.92C322.648 422.92 323.808 423.264 324.56 423.952C325.312 424.64 325.688 425.736 325.688 427.24V436H324.152L323.744 434.176H323.648C323.088 434.88 322.496 435.4 321.872 435.736C321.248 436.072 320.4 436.24 319.328 436.24C318.16 436.24 317.192 435.936 316.424 435.328C315.656 434.704 315.272 433.736 315.272 432.424C315.272 431.144 315.776 430.16 316.784 429.472C317.792 428.768 319.344 428.384 321.44 428.32L323.624 428.248V427.48C323.624 426.408 323.392 425.664 322.928 425.248C322.464 424.832 321.808 424.624 320.96 424.624C320.288 424.624 319.648 424.728 319.04 424.936C318.432 425.128 317.864 425.352 317.336 425.608L316.688 424.024C317.248 423.72 317.912 423.464 318.68 423.256C319.448 423.032 320.248 422.92 321.08 422.92ZM323.6 429.712L321.704 429.784C320.104 429.848 318.992 430.104 318.368 430.552C317.76 431 317.456 431.632 317.456 432.448C317.456 433.168 317.672 433.696 318.104 434.032C318.552 434.368 319.12 434.536 319.808 434.536C320.88 434.536 321.776 434.24 322.496 433.648C323.232 433.04 323.6 432.112 323.6 430.864V429.712ZM334.221 422.896C335.069 422.896 335.829 423.056 336.501 423.376C337.189 423.696 337.773 424.184 338.253 424.84H338.373L338.661 423.136H340.341V436.216C340.341 438.056 339.869 439.44 338.925 440.368C337.997 441.296 336.549 441.76 334.581 441.76C332.693 441.76 331.149 441.488 329.949 440.944V439C331.213 439.672 332.797 440.008 334.701 440.008C335.805 440.008 336.669 439.68 337.293 439.024C337.933 438.384 338.253 437.504 338.253 436.384V435.88C338.253 435.688 338.261 435.416 338.277 435.064C338.293 434.696 338.309 434.44 338.325 434.296H338.229C337.365 435.592 336.037 436.24 334.245 436.24C332.581 436.24 331.277 435.656 330.333 434.488C329.405 433.32 328.941 431.688 328.941 429.592C328.941 427.544 329.405 425.92 330.333 424.72C331.277 423.504 332.573 422.896 334.221 422.896ZM334.509 424.672C333.437 424.672 332.605 425.104 332.013 425.968C331.421 426.816 331.125 428.032 331.125 429.616C331.125 431.2 331.413 432.416 331.989 433.264C332.565 434.096 333.421 434.512 334.557 434.512C335.853 434.512 336.797 434.168 337.389 433.48C337.981 432.776 338.277 431.648 338.277 430.096V429.592C338.277 427.848 337.973 426.592 337.365 425.824C336.757 425.056 335.805 424.672 334.509 424.672ZM349.395 422.896C350.483 422.896 351.427 423.136 352.227 423.616C353.027 424.096 353.635 424.776 354.051 425.656C354.483 426.52 354.699 427.536 354.699 428.704V429.976H345.891C345.923 431.432 346.291 432.544 346.995 433.312C347.715 434.064 348.715 434.44 349.995 434.44C350.811 434.44 351.531 434.368 352.155 434.224C352.795 434.064 353.451 433.84 354.123 433.552V435.4C353.467 435.688 352.819 435.896 352.179 436.024C351.539 436.168 350.779 436.24 349.899 436.24C348.667 436.24 347.587 435.992 346.659 435.496C345.731 435 345.003 434.264 344.475 433.288C343.963 432.312 343.707 431.104 343.707 429.664C343.707 428.256 343.939 427.048 344.403 426.04C344.883 425.032 345.547 424.256 346.395 423.712C347.259 423.168 348.259 422.896 349.395 422.896ZM349.371 424.624C348.363 424.624 347.563 424.952 346.971 425.608C346.395 426.248 346.051 427.144 345.939 428.296H352.491C352.475 427.208 352.219 426.328 351.723 425.656C351.227 424.968 350.443 424.624 349.371 424.624ZM362.99 418.864C365.118 418.864 366.686 419.272 367.694 420.088C368.718 420.888 369.23 422.104 369.23 423.736C369.23 424.648 369.062 425.408 368.726 426.016C368.39 426.624 367.958 427.112 367.43 427.48C366.918 427.848 366.374 428.128 365.798 428.32L370.502 436H367.982L363.83 428.92H360.422V436H358.262V418.864H362.99ZM362.87 420.736H360.422V427.096H362.99C364.382 427.096 365.398 426.824 366.038 426.28C366.678 425.72 366.998 424.904 366.998 423.832C366.998 422.712 366.662 421.92 365.99 421.456C365.318 420.976 364.278 420.736 362.87 420.736ZM384.087 429.544C384.087 431.672 383.543 433.32 382.455 434.488C381.383 435.656 379.927 436.24 378.087 436.24C376.951 436.24 375.935 435.984 375.039 435.472C374.159 434.944 373.463 434.184 372.951 433.192C372.439 432.184 372.183 430.968 372.183 429.544C372.183 427.416 372.711 425.776 373.767 424.624C374.839 423.472 376.303 422.896 378.159 422.896C379.311 422.896 380.335 423.16 381.231 423.688C382.127 424.2 382.823 424.952 383.319 425.944C383.831 426.92 384.087 428.12 384.087 429.544ZM374.367 429.544C374.367 431.064 374.663 432.272 375.255 433.168C375.863 434.048 376.823 434.488 378.135 434.488C379.431 434.488 380.383 434.048 380.991 433.168C381.599 432.272 381.903 431.064 381.903 429.544C381.903 428.024 381.599 426.832 380.991 425.968C380.383 425.104 379.423 424.672 378.111 424.672C376.799 424.672 375.847 425.104 375.255 425.968C374.663 426.832 374.367 428.024 374.367 429.544ZM398.187 423.136V436H396.459L396.147 434.296H396.051C395.635 434.968 395.059 435.464 394.323 435.784C393.587 436.088 392.803 436.24 391.971 436.24C390.419 436.24 389.251 435.872 388.467 435.136C387.683 434.384 387.291 433.192 387.291 431.56V423.136H389.427V431.416C389.427 433.464 390.379 434.488 392.283 434.488C393.707 434.488 394.691 434.088 395.235 433.288C395.795 432.488 396.075 431.336 396.075 429.832V423.136H398.187ZM406.566 434.512C406.886 434.512 407.214 434.488 407.55 434.44C407.886 434.392 408.158 434.328 408.366 434.248V435.856C408.142 435.968 407.822 436.056 407.406 436.12C406.99 436.2 406.59 436.24 406.206 436.24C405.534 436.24 404.91 436.128 404.334 435.904C403.774 435.664 403.318 435.256 402.966 434.68C402.614 434.104 402.438 433.296 402.438 432.256V424.768H400.614V423.76L402.462 422.92L403.302 420.184H404.55V423.136H408.27V424.768H404.55V432.208C404.55 432.992 404.734 433.576 405.102 433.96C405.486 434.328 405.974 434.512 406.566 434.512ZM415.91 422.896C416.998 422.896 417.942 423.136 418.742 423.616C419.542 424.096 420.15 424.776 420.566 425.656C420.998 426.52 421.214 427.536 421.214 428.704V429.976H412.406C412.438 431.432 412.806 432.544 413.51 433.312C414.23 434.064 415.23 434.44 416.51 434.44C417.326 434.44 418.046 434.368 418.67 434.224C419.31 434.064 419.966 433.84 420.638 433.552V435.4C419.982 435.688 419.334 435.896 418.694 436.024C418.054 436.168 417.294 436.24 416.414 436.24C415.182 436.24 414.102 435.992 413.174 435.496C412.246 435 411.518 434.264 410.99 433.288C410.478 432.312 410.222 431.104 410.222 429.664C410.222 428.256 410.454 427.048 410.918 426.04C411.398 425.032 412.062 424.256 412.91 423.712C413.774 423.168 414.774 422.896 415.91 422.896ZM415.886 424.624C414.878 424.624 414.078 424.952 413.486 425.608C412.91 426.248 412.566 427.144 412.454 428.296H419.006C418.99 427.208 418.734 426.328 418.238 425.656C417.742 424.968 416.958 424.624 415.886 424.624ZM430.489 422.896C430.729 422.896 430.985 422.912 431.257 422.944C431.529 422.96 431.777 422.992 432.001 423.04L431.737 424.984C431.529 424.936 431.297 424.896 431.041 424.864C430.785 424.832 430.553 424.816 430.345 424.816C429.689 424.816 429.073 425 428.497 425.368C427.921 425.72 427.457 426.224 427.105 426.88C426.769 427.52 426.601 428.272 426.601 429.136V436H424.489V423.136H426.217L426.457 425.488H426.553C426.953 424.784 427.481 424.176 428.137 423.664C428.809 423.152 429.593 422.896 430.489 422.896ZM328.683 451.864C328.459 452.792 328.227 453.8 327.987 454.888C327.763 455.96 327.595 456.912 327.483 457.744H325.203L325.035 457.48C325.243 456.648 325.539 455.72 325.923 454.696C326.323 453.672 326.723 452.728 327.123 451.864H328.683ZM324.243 451.864C324.019 452.792 323.795 453.8 323.571 454.888C323.347 455.96 323.171 456.912 323.043 457.744H320.787L320.643 457.48C320.867 456.648 321.163 455.72 321.531 454.696C321.915 453.672 322.307 452.728 322.707 451.864H324.243ZM337.668 451.864L331.284 469H329.22L335.604 451.864H337.668ZM342.062 450.76V456.112C342.062 456.752 342.022 457.352 341.942 457.912H342.086C342.502 457.256 343.062 456.76 343.766 456.424C344.486 456.088 345.262 455.92 346.094 455.92C347.646 455.92 348.814 456.296 349.598 457.048C350.398 457.784 350.798 458.976 350.798 460.624V469H348.71V460.768C348.71 458.704 347.75 457.672 345.83 457.672C344.39 457.672 343.398 458.08 342.854 458.896C342.326 459.696 342.062 460.848 342.062 462.352V469H339.95V450.76H342.062ZM365.97 462.544C365.97 464.672 365.426 466.32 364.338 467.488C363.266 468.656 361.81 469.24 359.97 469.24C358.834 469.24 357.818 468.984 356.922 468.472C356.042 467.944 355.346 467.184 354.834 466.192C354.322 465.184 354.066 463.968 354.066 462.544C354.066 460.416 354.594 458.776 355.65 457.624C356.722 456.472 358.186 455.896 360.042 455.896C361.194 455.896 362.218 456.16 363.114 456.688C364.01 457.2 364.706 457.952 365.202 458.944C365.714 459.92 365.97 461.12 365.97 462.544ZM356.25 462.544C356.25 464.064 356.546 465.272 357.138 466.168C357.746 467.048 358.706 467.488 360.018 467.488C361.314 467.488 362.266 467.048 362.874 466.168C363.482 465.272 363.786 464.064 363.786 462.544C363.786 461.024 363.482 459.832 362.874 458.968C362.266 458.104 361.306 457.672 359.994 457.672C358.682 457.672 357.73 458.104 357.138 458.968C356.546 459.832 356.25 461.024 356.25 462.544ZM383.429 455.896C384.885 455.896 385.973 456.272 386.693 457.024C387.413 457.776 387.773 458.976 387.773 460.624V469H385.685V460.72C385.685 458.688 384.813 457.672 383.069 457.672C381.821 457.672 380.925 458.032 380.381 458.752C379.853 459.472 379.589 460.52 379.589 461.896V469H377.501V460.72C377.501 458.688 376.621 457.672 374.861 457.672C373.565 457.672 372.669 458.072 372.173 458.872C371.677 459.672 371.429 460.824 371.429 462.328V469H369.317V456.136H371.021L371.333 457.888H371.453C371.853 457.216 372.389 456.72 373.061 456.4C373.749 456.064 374.477 455.896 375.245 455.896C377.261 455.896 378.573 456.616 379.181 458.056H379.301C379.733 457.32 380.317 456.776 381.053 456.424C381.789 456.072 382.581 455.896 383.429 455.896ZM396.715 455.896C397.803 455.896 398.747 456.136 399.547 456.616C400.347 457.096 400.955 457.776 401.371 458.656C401.803 459.52 402.019 460.536 402.019 461.704V462.976H393.211C393.243 464.432 393.611 465.544 394.315 466.312C395.035 467.064 396.035 467.44 397.315 467.44C398.131 467.44 398.851 467.368 399.475 467.224C400.115 467.064 400.771 466.84 401.443 466.552V468.4C400.787 468.688 400.139 468.896 399.499 469.024C398.859 469.168 398.099 469.24 397.219 469.24C395.987 469.24 394.907 468.992 393.979 468.496C393.051 468 392.323 467.264 391.795 466.288C391.283 465.312 391.027 464.104 391.027 462.664C391.027 461.256 391.259 460.048 391.723 459.04C392.203 458.032 392.867 457.256 393.715 456.712C394.579 456.168 395.579 455.896 396.715 455.896ZM396.691 457.624C395.683 457.624 394.883 457.952 394.291 458.608C393.715 459.248 393.371 460.144 393.259 461.296H399.811C399.795 460.208 399.539 459.328 399.043 458.656C398.547 457.968 397.763 457.624 396.691 457.624ZM411.18 451.864L411.348 452.128C411.14 452.976 410.836 453.912 410.436 454.936C410.052 455.96 409.668 456.896 409.284 457.744H407.7C407.844 457.152 407.996 456.504 408.156 455.8C408.316 455.096 408.46 454.408 408.588 453.736C408.732 453.048 408.844 452.424 408.924 451.864H411.18ZM406.74 451.864L406.908 452.128C406.684 452.976 406.38 453.912 405.996 454.936C405.612 455.96 405.228 456.896 404.844 457.744H403.308C403.468 457.152 403.62 456.504 403.764 455.8C403.908 455.096 404.044 454.408 404.172 453.736C404.3 453.048 404.404 452.424 404.484 451.864H406.74Z" fill="black"/>
<rect x="2" y="2" width="728" height="341" rx="8" fill="#D1D5D9" stroke="#393C3F" stroke-width="4"/>
<path d="M297 116H527.023C529.968 116 532.674 117.618 534.069 120.212L578.693 203.212C579.964 205.577 579.964 208.423 578.693 210.788L534.069 293.788C532.674 296.382 529.968 298 527.023 298H297C292.582 298 289 294.418 289 290V124C289 119.582 292.582 116 297 116Z" fill="#9B9EA2" stroke="#393C3F" stroke-width="4"/>
<path d="M435.716 181.864C437.956 181.864 439.588 182.304 440.612 183.184C441.636 184.064 442.148 185.304 442.148 186.904C442.148 187.848 441.932 188.736 441.5 189.568C441.084 190.384 440.372 191.048 439.364 191.56C438.372 192.072 437.02 192.328 435.308 192.328H433.34V199H431.18V181.864H435.716ZM435.524 183.712H433.34V190.48H435.068C436.7 190.48 437.916 190.216 438.716 189.688C439.516 189.16 439.916 188.264 439.916 187C439.916 185.896 439.556 185.072 438.836 184.528C438.132 183.984 437.028 183.712 435.524 183.712ZM450.295 185.92C451.863 185.92 453.023 186.264 453.775 186.952C454.527 187.64 454.903 188.736 454.903 190.24V199H453.367L452.959 197.176H452.863C452.303 197.88 451.711 198.4 451.087 198.736C450.463 199.072 449.615 199.24 448.543 199.24C447.375 199.24 446.407 198.936 445.639 198.328C444.871 197.704 444.487 196.736 444.487 195.424C444.487 194.144 444.991 193.16 445.999 192.472C447.007 191.768 448.559 191.384 450.655 191.32L452.839 191.248V190.48C452.839 189.408 452.607 188.664 452.143 188.248C451.679 187.832 451.023 187.624 450.175 187.624C449.503 187.624 448.863 187.728 448.255 187.936C447.647 188.128 447.079 188.352 446.551 188.608L445.903 187.024C446.463 186.72 447.127 186.464 447.895 186.256C448.663 186.032 449.463 185.92 450.295 185.92ZM452.815 192.712L450.919 192.784C449.319 192.848 448.207 193.104 447.583 193.552C446.975 194 446.671 194.632 446.671 195.448C446.671 196.168 446.887 196.696 447.319 197.032C447.767 197.368 448.335 197.536 449.023 197.536C450.095 197.536 450.991 197.24 451.711 196.648C452.447 196.04 452.815 195.112 452.815 193.864V192.712ZM463.436 185.896C464.284 185.896 465.044 186.056 465.716 186.376C466.404 186.696 466.988 187.184 467.468 187.84H467.588L467.876 186.136H469.556V199.216C469.556 201.056 469.084 202.44 468.14 203.368C467.212 204.296 465.764 204.76 463.796 204.76C461.908 204.76 460.364 204.488 459.164 203.944V202C460.428 202.672 462.012 203.008 463.916 203.008C465.02 203.008 465.884 202.68 466.508 202.024C467.148 201.384 467.468 200.504 467.468 199.384V198.88C467.468 198.688 467.476 198.416 467.492 198.064C467.508 197.696 467.524 197.44 467.54 197.296H467.444C466.58 198.592 465.252 199.24 463.46 199.24C461.796 199.24 460.492 198.656 459.548 197.488C458.62 196.32 458.156 194.688 458.156 192.592C458.156 190.544 458.62 188.92 459.548 187.72C460.492 186.504 461.788 185.896 463.436 185.896ZM463.724 187.672C462.652 187.672 461.82 188.104 461.228 188.968C460.636 189.816 460.34 191.032 460.34 192.616C460.34 194.2 460.628 195.416 461.204 196.264C461.78 197.096 462.636 197.512 463.772 197.512C465.068 197.512 466.012 197.168 466.604 196.48C467.196 195.776 467.492 194.648 467.492 193.096V192.592C467.492 190.848 467.188 189.592 466.58 188.824C465.972 188.056 465.02 187.672 463.724 187.672ZM478.61 185.896C479.698 185.896 480.642 186.136 481.442 186.616C482.242 187.096 482.85 187.776 483.266 188.656C483.698 189.52 483.914 190.536 483.914 191.704V192.976H475.106C475.138 194.432 475.506 195.544 476.21 196.312C476.93 197.064 477.93 197.44 479.21 197.44C480.026 197.44 480.746 197.368 481.37 197.224C482.01 197.064 482.666 196.84 483.338 196.552V198.4C482.682 198.688 482.034 198.896 481.394 199.024C480.754 199.168 479.994 199.24 479.114 199.24C477.882 199.24 476.802 198.992 475.874 198.496C474.946 198 474.218 197.264 473.69 196.288C473.178 195.312 472.922 194.104 472.922 192.664C472.922 191.256 473.154 190.048 473.618 189.04C474.098 188.032 474.762 187.256 475.61 186.712C476.474 186.168 477.474 185.896 478.61 185.896ZM478.586 187.624C477.578 187.624 476.778 187.952 476.186 188.608C475.61 189.248 475.266 190.144 475.154 191.296H481.706C481.69 190.208 481.434 189.328 480.938 188.656C480.442 187.968 479.658 187.624 478.586 187.624ZM430.863 214.864C430.639 215.792 430.407 216.8 430.167 217.888C429.943 218.96 429.775 219.912 429.663 220.744H427.383L427.215 220.48C427.423 219.648 427.719 218.72 428.103 217.696C428.503 216.672 428.903 215.728 429.303 214.864H430.863ZM426.423 214.864C426.199 215.792 425.975 216.8 425.751 217.888C425.527 218.96 425.351 219.912 425.223 220.744H422.967L422.823 220.48C423.047 219.648 423.343 218.72 423.711 217.696C424.095 216.672 424.487 215.728 424.887 214.864H426.423ZM439.848 214.864L433.464 232H431.4L437.784 214.864H439.848ZM447.002 218.92C448.57 218.92 449.73 219.264 450.482 219.952C451.234 220.64 451.61 221.736 451.61 223.24V232H450.074L449.666 230.176H449.57C449.01 230.88 448.418 231.4 447.794 231.736C447.17 232.072 446.322 232.24 445.25 232.24C444.082 232.24 443.114 231.936 442.346 231.328C441.578 230.704 441.194 229.736 441.194 228.424C441.194 227.144 441.698 226.16 442.706 225.472C443.714 224.768 445.266 224.384 447.362 224.32L449.546 224.248V223.48C449.546 222.408 449.314 221.664 448.85 221.248C448.386 220.832 447.73 220.624 446.882 220.624C446.21 220.624 445.57 220.728 444.962 220.936C444.354 221.128 443.786 221.352 443.258 221.608L442.61 220.024C443.17 219.72 443.834 219.464 444.602 219.256C445.37 219.032 446.17 218.92 447.002 218.92ZM449.522 225.712L447.626 225.784C446.026 225.848 444.914 226.104 444.29 226.552C443.682 227 443.378 227.632 443.378 228.448C443.378 229.168 443.594 229.696 444.026 230.032C444.474 230.368 445.042 230.536 445.73 230.536C446.802 230.536 447.698 230.24 448.418 229.648C449.154 229.04 449.522 228.112 449.522 226.864V225.712ZM461.703 218.896C463.287 218.896 464.559 219.448 465.519 220.552C466.495 221.656 466.983 223.32 466.983 225.544C466.983 227.736 466.495 229.4 465.519 230.536C464.559 231.672 463.279 232.24 461.679 232.24C460.687 232.24 459.863 232.056 459.207 231.688C458.567 231.32 458.063 230.88 457.695 230.368H457.551C457.567 230.64 457.591 230.984 457.623 231.4C457.671 231.816 457.695 232.176 457.695 232.48V237.76H455.583V219.136H457.311L457.599 220.888H457.695C458.079 220.328 458.583 219.856 459.207 219.472C459.831 219.088 460.663 218.896 461.703 218.896ZM461.319 220.672C460.007 220.672 459.079 221.04 458.535 221.776C457.991 222.512 457.711 223.632 457.695 225.136V225.544C457.695 227.128 457.951 228.352 458.463 229.216C458.991 230.064 459.959 230.488 461.367 230.488C462.135 230.488 462.775 230.28 463.287 229.864C463.799 229.432 464.175 228.84 464.415 228.088C464.671 227.336 464.799 226.48 464.799 225.52C464.799 224.048 464.511 222.872 463.935 221.992C463.375 221.112 462.503 220.672 461.319 220.672ZM476.469 218.896C478.053 218.896 479.325 219.448 480.285 220.552C481.261 221.656 481.749 223.32 481.749 225.544C481.749 227.736 481.261 229.4 480.285 230.536C479.325 231.672 478.045 232.24 476.445 232.24C475.453 232.24 474.629 232.056 473.973 231.688C473.333 231.32 472.829 230.88 472.461 230.368H472.317C472.333 230.64 472.357 230.984 472.389 231.4C472.437 231.816 472.461 232.176 472.461 232.48V237.76H470.349V219.136H472.077L472.365 220.888H472.461C472.845 220.328 473.349 219.856 473.973 219.472C474.597 219.088 475.429 218.896 476.469 218.896ZM476.085 220.672C474.773 220.672 473.845 221.04 473.301 221.776C472.757 222.512 472.477 223.632 472.461 225.136V225.544C472.461 227.128 472.717 228.352 473.229 229.216C473.757 230.064 474.725 230.488 476.133 230.488C476.901 230.488 477.541 230.28 478.053 229.864C478.565 229.432 478.941 228.84 479.181 228.088C479.437 227.336 479.565 226.48 479.565 225.52C479.565 224.048 479.277 222.872 478.701 221.992C478.141 221.112 477.269 220.672 476.085 220.672ZM491 214.864L491.168 215.128C490.96 215.976 490.656 216.912 490.256 217.936C489.872 218.96 489.488 219.896 489.104 220.744H487.52C487.664 220.152 487.816 219.504 487.976 218.8C488.136 218.096 488.28 217.408 488.408 216.736C488.552 216.048 488.664 215.424 488.744 214.864H491ZM486.56 214.864L486.728 215.128C486.504 215.976 486.2 216.912 485.816 217.936C485.432 218.96 485.048 219.896 484.664 220.744H483.128C483.288 220.152 483.44 219.504 483.584 218.8C483.728 218.096 483.864 217.408 483.992 216.736C484.12 216.048 484.224 215.424 484.304 214.864H486.56Z" fill="black"/>
<path d="M159 116H329.023C331.968 116 334.674 117.618 336.069 120.212L380.693 203.212C381.964 205.577 381.964 208.423 380.693 210.788L336.069 293.788C334.674 296.382 331.968 298 329.023 298H159C154.582 298 151 294.418 151 290V124C151 119.582 154.582 116 159 116Z" fill="#9B9EA2" stroke="#393C3F" stroke-width="4"/>
<path d="M220.716 181.864C222.956 181.864 224.588 182.304 225.612 183.184C226.636 184.064 227.148 185.304 227.148 186.904C227.148 187.848 226.932 188.736 226.5 189.568C226.084 190.384 225.372 191.048 224.364 191.56C223.372 192.072 222.02 192.328 220.308 192.328H218.34V199H216.18V181.864H220.716ZM220.524 183.712H218.34V190.48H220.068C221.7 190.48 222.916 190.216 223.716 189.688C224.516 189.16 224.916 188.264 224.916 187C224.916 185.896 224.556 185.072 223.836 184.528C223.132 183.984 222.028 183.712 220.524 183.712ZM235.295 185.92C236.863 185.92 238.023 186.264 238.775 186.952C239.527 187.64 239.903 188.736 239.903 190.24V199H238.367L237.959 197.176H237.863C237.303 197.88 236.711 198.4 236.087 198.736C235.463 199.072 234.615 199.24 233.543 199.24C232.375 199.24 231.407 198.936 230.639 198.328C229.871 197.704 229.487 196.736 229.487 195.424C229.487 194.144 229.991 193.16 230.999 192.472C232.007 191.768 233.559 191.384 235.655 191.32L237.839 191.248V190.48C237.839 189.408 237.607 188.664 237.143 188.248C236.679 187.832 236.023 187.624 235.175 187.624C234.503 187.624 233.863 187.728 233.255 187.936C232.647 188.128 232.079 188.352 231.551 188.608L230.903 187.024C231.463 186.72 232.127 186.464 232.895 186.256C233.663 186.032 234.463 185.92 235.295 185.92ZM237.815 192.712L235.919 192.784C234.319 192.848 233.207 193.104 232.583 193.552C231.975 194 231.671 194.632 231.671 195.448C231.671 196.168 231.887 196.696 232.319 197.032C232.767 197.368 233.335 197.536 234.023 197.536C235.095 197.536 235.991 197.24 236.711 196.648C237.447 196.04 237.815 195.112 237.815 193.864V192.712ZM248.436 185.896C249.284 185.896 250.044 186.056 250.716 186.376C251.404 186.696 251.988 187.184 252.468 187.84H252.588L252.876 186.136H254.556V199.216C254.556 201.056 254.084 202.44 253.14 203.368C252.212 204.296 250.764 204.76 248.796 204.76C246.908 204.76 245.364 204.488 244.164 203.944V202C245.428 202.672 247.012 203.008 248.916 203.008C250.02 203.008 250.884 202.68 251.508 202.024C252.148 201.384 252.468 200.504 252.468 199.384V198.88C252.468 198.688 252.476 198.416 252.492 198.064C252.508 197.696 252.524 197.44 252.54 197.296H252.444C251.58 198.592 250.252 199.24 248.46 199.24C246.796 199.24 245.492 198.656 244.548 197.488C243.62 196.32 243.156 194.688 243.156 192.592C243.156 190.544 243.62 188.92 244.548 187.72C245.492 186.504 246.788 185.896 248.436 185.896ZM248.724 187.672C247.652 187.672 246.82 188.104 246.228 188.968C245.636 189.816 245.34 191.032 245.34 192.616C245.34 194.2 245.628 195.416 246.204 196.264C246.78 197.096 247.636 197.512 248.772 197.512C250.068 197.512 251.012 197.168 251.604 196.48C252.196 195.776 252.492 194.648 252.492 193.096V192.592C252.492 190.848 252.188 189.592 251.58 188.824C250.972 188.056 250.02 187.672 248.724 187.672ZM263.61 185.896C264.698 185.896 265.642 186.136 266.442 186.616C267.242 187.096 267.85 187.776 268.266 188.656C268.698 189.52 268.914 190.536 268.914 191.704V192.976H260.106C260.138 194.432 260.506 195.544 261.21 196.312C261.93 197.064 262.93 197.44 264.21 197.44C265.026 197.44 265.746 197.368 266.37 197.224C267.01 197.064 267.666 196.84 268.338 196.552V198.4C267.682 198.688 267.034 198.896 266.394 199.024C265.754 199.168 264.994 199.24 264.114 199.24C262.882 199.24 261.802 198.992 260.874 198.496C259.946 198 259.218 197.264 258.69 196.288C258.178 195.312 257.922 194.104 257.922 192.664C257.922 191.256 258.154 190.048 258.618 189.04C259.098 188.032 259.762 187.256 260.61 186.712C261.474 186.168 262.474 185.896 263.61 185.896ZM263.586 187.624C262.578 187.624 261.778 187.952 261.186 188.608C260.61 189.248 260.266 190.144 260.154 191.296H266.706C266.69 190.208 266.434 189.328 265.938 188.656C265.442 187.968 264.658 187.624 263.586 187.624ZM204.683 214.864C204.459 215.792 204.227 216.8 203.987 217.888C203.763 218.96 203.595 219.912 203.483 220.744H201.203L201.035 220.48C201.243 219.648 201.539 218.72 201.923 217.696C202.323 216.672 202.723 215.728 203.123 214.864H204.683ZM200.243 214.864C200.019 215.792 199.795 216.8 199.571 217.888C199.347 218.96 199.171 219.912 199.043 220.744H196.787L196.643 220.48C196.867 219.648 197.163 218.72 197.531 217.696C197.915 216.672 198.307 215.728 198.707 214.864H200.243ZM213.668 214.864L207.284 232H205.22L211.604 214.864H213.668ZM218.062 213.76V219.112C218.062 219.752 218.022 220.352 217.942 220.912H218.086C218.502 220.256 219.062 219.76 219.766 219.424C220.486 219.088 221.262 218.92 222.094 218.92C223.646 218.92 224.814 219.296 225.598 220.048C226.398 220.784 226.798 221.976 226.798 223.624V232H224.71V223.768C224.71 221.704 223.75 220.672 221.83 220.672C220.39 220.672 219.398 221.08 218.854 221.896C218.326 222.696 218.062 223.848 218.062 225.352V232H215.95V213.76H218.062ZM241.97 225.544C241.97 227.672 241.426 229.32 240.338 230.488C239.266 231.656 237.81 232.24 235.97 232.24C234.834 232.24 233.818 231.984 232.922 231.472C232.042 230.944 231.346 230.184 230.834 229.192C230.322 228.184 230.066 226.968 230.066 225.544C230.066 223.416 230.594 221.776 231.65 220.624C232.722 219.472 234.186 218.896 236.042 218.896C237.194 218.896 238.218 219.16 239.114 219.688C240.01 220.2 240.706 220.952 241.202 221.944C241.714 222.92 241.97 224.12 241.97 225.544ZM232.25 225.544C232.25 227.064 232.546 228.272 233.138 229.168C233.746 230.048 234.706 230.488 236.018 230.488C237.314 230.488 238.266 230.048 238.874 229.168C239.482 228.272 239.786 227.064 239.786 225.544C239.786 224.024 239.482 222.832 238.874 221.968C238.266 221.104 237.306 220.672 235.994 220.672C234.682 220.672 233.73 221.104 233.138 221.968C232.546 222.832 232.25 224.024 232.25 225.544ZM259.429 218.896C260.885 218.896 261.973 219.272 262.693 220.024C263.413 220.776 263.773 221.976 263.773 223.624V232H261.685V223.72C261.685 221.688 260.813 220.672 259.069 220.672C257.821 220.672 256.925 221.032 256.381 221.752C255.853 222.472 255.589 223.52 255.589 224.896V232H253.501V223.72C253.501 221.688 252.621 220.672 250.861 220.672C249.565 220.672 248.669 221.072 248.173 221.872C247.677 222.672 247.429 223.824 247.429 225.328V232H245.317V219.136H247.021L247.333 220.888H247.453C247.853 220.216 248.389 219.72 249.061 219.4C249.749 219.064 250.477 218.896 251.245 218.896C253.261 218.896 254.573 219.616 255.181 221.056H255.301C255.733 220.32 256.317 219.776 257.053 219.424C257.789 219.072 258.581 218.896 259.429 218.896ZM272.715 218.896C273.803 218.896 274.747 219.136 275.547 219.616C276.347 220.096 276.955 220.776 277.371 221.656C277.803 222.52 278.019 223.536 278.019 224.704V225.976H269.211C269.243 227.432 269.611 228.544 270.315 229.312C271.035 230.064 272.035 230.44 273.315 230.44C274.131 230.44 274.851 230.368 275.475 230.224C276.115 230.064 276.771 229.84 277.443 229.552V231.4C276.787 231.688 276.139 231.896 275.499 232.024C274.859 232.168 274.099 232.24 273.219 232.24C271.987 232.24 270.907 231.992 269.979 231.496C269.051 231 268.323 230.264 267.795 229.288C267.283 228.312 267.027 227.104 267.027 225.664C267.027 224.256 267.259 223.048 267.723 222.04C268.203 221.032 268.867 220.256 269.715 219.712C270.579 219.168 271.579 218.896 272.715 218.896ZM272.691 220.624C271.683 220.624 270.883 220.952 270.291 221.608C269.715 222.248 269.371 223.144 269.259 224.296H275.811C275.795 223.208 275.539 222.328 275.043 221.656C274.547 220.968 273.763 220.624 272.691 220.624ZM287.18 214.864L287.348 215.128C287.14 215.976 286.836 216.912 286.436 217.936C286.052 218.96 285.668 219.896 285.284 220.744H283.7C283.844 220.152 283.996 219.504 284.156 218.8C284.316 218.096 284.46 217.408 284.588 216.736C284.732 216.048 284.844 215.424 284.924 214.864H287.18ZM282.74 214.864L282.908 215.128C282.684 215.976 282.38 216.912 281.996 217.936C281.612 218.96 281.228 219.896 280.844 220.744H279.308C279.468 220.152 279.62 219.504 279.764 218.8C279.908 218.096 280.044 217.408 280.172 216.736C280.3 216.048 280.404 215.424 280.484 214.864H282.74Z" fill="black"/>
<path d="M306.501 37.864C308.741 37.864 310.373 38.304 311.397 39.184C312.421 40.064 312.933 41.304 312.933 42.904C312.933 43.848 312.717 44.736 312.285 45.568C311.869 46.384 311.157 47.048 310.149 47.56C309.157 48.072 307.805 48.328 306.093 48.328H304.125V55H301.965V37.864H306.501ZM306.309 39.712H304.125V46.48H305.853C307.485 46.48 308.701 46.216 309.501 45.688C310.301 45.16 310.701 44.264 310.701 43C310.701 41.896 310.341 41.072 309.621 40.528C308.917 39.984 307.813 39.712 306.309 39.712ZM321.08 41.92C322.648 41.92 323.808 42.264 324.56 42.952C325.312 43.64 325.688 44.736 325.688 46.24V55H324.152L323.744 53.176H323.648C323.088 53.88 322.496 54.4 321.872 54.736C321.248 55.072 320.4 55.24 319.328 55.24C318.16 55.24 317.192 54.936 316.424 54.328C315.656 53.704 315.272 52.736 315.272 51.424C315.272 50.144 315.776 49.16 316.784 48.472C317.792 47.768 319.344 47.384 321.44 47.32L323.624 47.248V46.48C323.624 45.408 323.392 44.664 322.928 44.248C322.464 43.832 321.808 43.624 320.96 43.624C320.288 43.624 319.648 43.728 319.04 43.936C318.432 44.128 317.864 44.352 317.336 44.608L316.688 43.024C317.248 42.72 317.912 42.464 318.68 42.256C319.448 42.032 320.248 41.92 321.08 41.92ZM323.6 48.712L321.704 48.784C320.104 48.848 318.992 49.104 318.368 49.552C317.76 50 317.456 50.632 317.456 51.448C317.456 52.168 317.672 52.696 318.104 53.032C318.552 53.368 319.12 53.536 319.808 53.536C320.88 53.536 321.776 53.24 322.496 52.648C323.232 52.04 323.6 51.112 323.6 49.864V48.712ZM334.221 41.896C335.069 41.896 335.829 42.056 336.501 42.376C337.189 42.696 337.773 43.184 338.253 43.84H338.373L338.661 42.136H340.341V55.216C340.341 57.056 339.869 58.44 338.925 59.368C337.997 60.296 336.549 60.76 334.581 60.76C332.693 60.76 331.149 60.488 329.949 59.944V58C331.213 58.672 332.797 59.008 334.701 59.008C335.805 59.008 336.669 58.68 337.293 58.024C337.933 57.384 338.253 56.504 338.253 55.384V54.88C338.253 54.688 338.261 54.416 338.277 54.064C338.293 53.696 338.309 53.44 338.325 53.296H338.229C337.365 54.592 336.037 55.24 334.245 55.24C332.581 55.24 331.277 54.656 330.333 53.488C329.405 52.32 328.941 50.688 328.941 48.592C328.941 46.544 329.405 44.92 330.333 43.72C331.277 42.504 332.573 41.896 334.221 41.896ZM334.509 43.672C333.437 43.672 332.605 44.104 332.013 44.968C331.421 45.816 331.125 47.032 331.125 48.616C331.125 50.2 331.413 51.416 331.989 52.264C332.565 53.096 333.421 53.512 334.557 53.512C335.853 53.512 336.797 53.168 337.389 52.48C337.981 51.776 338.277 50.648 338.277 49.096V48.592C338.277 46.848 337.973 45.592 337.365 44.824C336.757 44.056 335.805 43.672 334.509 43.672ZM349.395 41.896C350.483 41.896 351.427 42.136 352.227 42.616C353.027 43.096 353.635 43.776 354.051 44.656C354.483 45.52 354.699 46.536 354.699 47.704V48.976H345.891C345.923 50.432 346.291 51.544 346.995 52.312C347.715 53.064 348.715 53.44 349.995 53.44C350.811 53.44 351.531 53.368 352.155 53.224C352.795 53.064 353.451 52.84 354.123 52.552V54.4C353.467 54.688 352.819 54.896 352.179 55.024C351.539 55.168 350.779 55.24 349.899 55.24C348.667 55.24 347.587 54.992 346.659 54.496C345.731 54 345.003 53.264 344.475 52.288C343.963 51.312 343.707 50.104 343.707 48.664C343.707 47.256 343.939 46.048 344.403 45.04C344.883 44.032 345.547 43.256 346.395 42.712C347.259 42.168 348.259 41.896 349.395 41.896ZM349.371 43.624C348.363 43.624 347.563 43.952 346.971 44.608C346.395 45.248 346.051 46.144 345.939 47.296H352.491C352.475 46.208 352.219 45.328 351.723 44.656C351.227 43.968 350.443 43.624 349.371 43.624ZM362.99 37.864C365.118 37.864 366.686 38.272 367.694 39.088C368.718 39.888 369.23 41.104 369.23 42.736C369.23 43.648 369.062 44.408 368.726 45.016C368.39 45.624 367.958 46.112 367.43 46.48C366.918 46.848 366.374 47.128 365.798 47.32L370.502 55H367.982L363.83 47.92H360.422V55H358.262V37.864H362.99ZM362.87 39.736H360.422V46.096H362.99C364.382 46.096 365.398 45.824 366.038 45.28C366.678 44.72 366.998 43.904 366.998 42.832C366.998 41.712 366.662 40.92 365.99 40.456C365.318 39.976 364.278 39.736 362.87 39.736ZM384.087 48.544C384.087 50.672 383.543 52.32 382.455 53.488C381.383 54.656 379.927 55.24 378.087 55.24C376.951 55.24 375.935 54.984 375.039 54.472C374.159 53.944 373.463 53.184 372.951 52.192C372.439 51.184 372.183 49.968 372.183 48.544C372.183 46.416 372.711 44.776 373.767 43.624C374.839 42.472 376.303 41.896 378.159 41.896C379.311 41.896 380.335 42.16 381.231 42.688C382.127 43.2 382.823 43.952 383.319 44.944C383.831 45.92 384.087 47.12 384.087 48.544ZM374.367 48.544C374.367 50.064 374.663 51.272 375.255 52.168C375.863 53.048 376.823 53.488 378.135 53.488C379.431 53.488 380.383 53.048 380.991 52.168C381.599 51.272 381.903 50.064 381.903 48.544C381.903 47.024 381.599 45.832 380.991 44.968C380.383 44.104 379.423 43.672 378.111 43.672C376.799 43.672 375.847 44.104 375.255 44.968C374.663 45.832 374.367 47.024 374.367 48.544ZM398.187 42.136V55H396.459L396.147 53.296H396.051C395.635 53.968 395.059 54.464 394.323 54.784C393.587 55.088 392.803 55.24 391.971 55.24C390.419 55.24 389.251 54.872 388.467 54.136C387.683 53.384 387.291 52.192 387.291 50.56V42.136H389.427V50.416C389.427 52.464 390.379 53.488 392.283 53.488C393.707 53.488 394.691 53.088 395.235 52.288C395.795 51.488 396.075 50.336 396.075 48.832V42.136H398.187ZM406.566 53.512C406.886 53.512 407.214 53.488 407.55 53.44C407.886 53.392 408.158 53.328 408.366 53.248V54.856C408.142 54.968 407.822 55.056 407.406 55.12C406.99 55.2 406.59 55.24 406.206 55.24C405.534 55.24 404.91 55.128 404.334 54.904C403.774 54.664 403.318 54.256 402.966 53.68C402.614 53.104 402.438 52.296 402.438 51.256V43.768H400.614V42.76L402.462 41.92L403.302 39.184H404.55V42.136H408.27V43.768H404.55V51.208C404.55 51.992 404.734 52.576 405.102 52.96C405.486 53.328 405.974 53.512 406.566 53.512ZM415.91 41.896C416.998 41.896 417.942 42.136 418.742 42.616C419.542 43.096 420.15 43.776 420.566 44.656C420.998 45.52 421.214 46.536 421.214 47.704V48.976H412.406C412.438 50.432 412.806 51.544 413.51 52.312C414.23 53.064 415.23 53.44 416.51 53.44C417.326 53.44 418.046 53.368 418.67 53.224C419.31 53.064 419.966 52.84 420.638 52.552V54.4C419.982 54.688 419.334 54.896 418.694 55.024C418.054 55.168 417.294 55.24 416.414 55.24C415.182 55.24 414.102 54.992 413.174 54.496C412.246 54 411.518 53.264 410.99 52.288C410.478 51.312 410.222 50.104 410.222 48.664C410.222 47.256 410.454 46.048 410.918 45.04C411.398 44.032 412.062 43.256 412.91 42.712C413.774 42.168 414.774 41.896 415.91 41.896ZM415.886 43.624C414.878 43.624 414.078 43.952 413.486 44.608C412.91 45.248 412.566 46.144 412.454 47.296H419.006C418.99 46.208 418.734 45.328 418.238 44.656C417.742 43.968 416.958 43.624 415.886 43.624ZM430.489 41.896C430.729 41.896 430.985 41.912 431.257 41.944C431.529 41.96 431.777 41.992 432.001 42.04L431.737 43.984C431.529 43.936 431.297 43.896 431.041 43.864C430.785 43.832 430.553 43.816 430.345 43.816C429.689 43.816 429.073 44 428.497 44.368C427.921 44.72 427.457 45.224 427.105 45.88C426.769 46.52 426.601 47.272 426.601 48.136V55H424.489V42.136H426.217L426.457 44.488H426.553C426.953 43.784 427.481 43.176 428.137 42.664C428.809 42.152 429.593 41.896 430.489 41.896ZM281.117 70.864C280.893 71.792 280.661 72.8 280.421 73.888C280.197 74.96 280.029 75.912 279.917 76.744H277.637L277.469 76.48C277.677 75.648 277.973 74.72 278.357 73.696C278.757 72.672 279.157 71.728 279.557 70.864H281.117ZM276.677 70.864C276.453 71.792 276.229 72.8 276.005 73.888C275.781 74.96 275.605 75.912 275.477 76.744H273.221L273.077 76.48C273.301 75.648 273.597 74.72 273.965 73.696C274.349 72.672 274.741 71.728 275.141 70.864H276.677ZM290.102 70.864L283.718 88H281.654L288.038 70.864H290.102ZM294.496 69.76V75.112C294.496 75.752 294.456 76.352 294.376 76.912H294.52C294.936 76.256 295.496 75.76 296.2 75.424C296.92 75.088 297.696 74.92 298.528 74.92C300.08 74.92 301.248 75.296 302.032 76.048C302.832 76.784 303.232 77.976 303.232 79.624V88H301.144V79.768C301.144 77.704 300.184 76.672 298.264 76.672C296.824 76.672 295.832 77.08 295.288 77.896C294.76 78.696 294.496 79.848 294.496 81.352V88H292.384V69.76H294.496ZM318.404 81.544C318.404 83.672 317.86 85.32 316.772 86.488C315.7 87.656 314.244 88.24 312.404 88.24C311.268 88.24 310.252 87.984 309.356 87.472C308.476 86.944 307.78 86.184 307.268 85.192C306.756 84.184 306.5 82.968 306.5 81.544C306.5 79.416 307.028 77.776 308.084 76.624C309.156 75.472 310.62 74.896 312.476 74.896C313.628 74.896 314.652 75.16 315.548 75.688C316.444 76.2 317.14 76.952 317.636 77.944C318.148 78.92 318.404 80.12 318.404 81.544ZM308.684 81.544C308.684 83.064 308.98 84.272 309.572 85.168C310.18 86.048 311.14 86.488 312.452 86.488C313.748 86.488 314.7 86.048 315.308 85.168C315.916 84.272 316.22 83.064 316.22 81.544C316.22 80.024 315.916 78.832 315.308 77.968C314.7 77.104 313.74 76.672 312.428 76.672C311.116 76.672 310.164 77.104 309.572 77.968C308.98 78.832 308.684 80.024 308.684 81.544ZM335.863 74.896C337.319 74.896 338.407 75.272 339.127 76.024C339.847 76.776 340.207 77.976 340.207 79.624V88H338.119V79.72C338.119 77.688 337.247 76.672 335.503 76.672C334.255 76.672 333.359 77.032 332.815 77.752C332.287 78.472 332.023 79.52 332.023 80.896V88H329.935V79.72C329.935 77.688 329.055 76.672 327.295 76.672C325.999 76.672 325.103 77.072 324.607 77.872C324.111 78.672 323.863 79.824 323.863 81.328V88H321.751V75.136H323.455L323.767 76.888H323.887C324.287 76.216 324.823 75.72 325.495 75.4C326.183 75.064 326.911 74.896 327.679 74.896C329.695 74.896 331.007 75.616 331.615 77.056H331.735C332.167 76.32 332.751 75.776 333.487 75.424C334.223 75.072 335.015 74.896 335.863 74.896ZM349.149 74.896C350.237 74.896 351.181 75.136 351.981 75.616C352.781 76.096 353.389 76.776 353.805 77.656C354.237 78.52 354.453 79.536 354.453 80.704V81.976H345.645C345.677 83.432 346.045 84.544 346.749 85.312C347.469 86.064 348.469 86.44 349.749 86.44C350.565 86.44 351.285 86.368 351.909 86.224C352.549 86.064 353.205 85.84 353.877 85.552V87.4C353.221 87.688 352.573 87.896 351.933 88.024C351.293 88.168 350.533 88.24 349.653 88.24C348.421 88.24 347.341 87.992 346.413 87.496C345.485 87 344.757 86.264 344.229 85.288C343.717 84.312 343.461 83.104 343.461 81.664C343.461 80.256 343.693 79.048 344.157 78.04C344.637 77.032 345.301 76.256 346.149 75.712C347.013 75.168 348.013 74.896 349.149 74.896ZM349.125 76.624C348.117 76.624 347.317 76.952 346.725 77.608C346.149 78.248 345.805 79.144 345.693 80.296H352.245C352.229 79.208 351.973 78.328 351.477 77.656C350.981 76.968 350.197 76.624 349.125 76.624ZM363.613 70.864L363.781 71.128C363.573 71.976 363.269 72.912 362.869 73.936C362.485 74.96 362.101 75.896 361.717 76.744H360.133C360.277 76.152 360.429 75.504 360.589 74.8C360.749 74.096 360.893 73.408 361.021 72.736C361.165 72.048 361.277 71.424 361.357 70.864H363.613ZM359.173 70.864L359.341 71.128C359.117 71.976 358.813 72.912 358.429 73.936C358.045 74.96 357.661 75.896 357.277 76.744H355.741C355.901 76.152 356.053 75.504 356.197 74.8C356.341 74.096 356.477 73.408 356.605 72.736C356.733 72.048 356.837 71.424 356.917 70.864H359.173ZM371.513 83.344L380.561 79.576L371.513 75.28V73.408L382.817 79.048V80.248L371.513 85.216V83.344ZM398.609 70.864C398.385 71.792 398.153 72.8 397.913 73.888C397.689 74.96 397.521 75.912 397.409 76.744H395.129L394.961 76.48C395.169 75.648 395.465 74.72 395.849 73.696C396.249 72.672 396.649 71.728 397.049 70.864H398.609ZM394.169 70.864C393.945 71.792 393.721 72.8 393.497 73.888C393.273 74.96 393.097 75.912 392.969 76.744H390.713L390.569 76.48C390.793 75.648 391.089 74.72 391.457 73.696C391.841 72.672 392.233 71.728 392.633 70.864H394.169ZM407.594 70.864L401.21 88H399.146L405.53 70.864H407.594ZM414.748 74.92C416.316 74.92 417.476 75.264 418.228 75.952C418.98 76.64 419.356 77.736 419.356 79.24V88H417.82L417.412 86.176H417.316C416.756 86.88 416.164 87.4 415.54 87.736C414.916 88.072 414.068 88.24 412.996 88.24C411.828 88.24 410.86 87.936 410.092 87.328C409.324 86.704 408.94 85.736 408.94 84.424C408.94 83.144 409.444 82.16 410.452 81.472C411.46 80.768 413.012 80.384 415.108 80.32L417.292 80.248V79.48C417.292 78.408 417.06 77.664 416.596 77.248C416.132 76.832 415.476 76.624 414.628 76.624C413.956 76.624 413.316 76.728 412.708 76.936C412.1 77.128 411.532 77.352 411.004 77.608L410.356 76.024C410.916 75.72 411.58 75.464 412.348 75.256C413.116 75.032 413.916 74.92 414.748 74.92ZM417.268 81.712L415.372 81.784C413.772 81.848 412.66 82.104 412.036 82.552C411.428 83 411.124 83.632 411.124 84.448C411.124 85.168 411.34 85.696 411.772 86.032C412.22 86.368 412.788 86.536 413.476 86.536C414.548 86.536 415.444 86.24 416.164 85.648C416.9 85.04 417.268 84.112 417.268 82.864V81.712ZM429.449 74.896C431.033 74.896 432.305 75.448 433.265 76.552C434.241 77.656 434.729 79.32 434.729 81.544C434.729 83.736 434.241 85.4 433.265 86.536C432.305 87.672 431.025 88.24 429.425 88.24C428.433 88.24 427.609 88.056 426.953 87.688C426.313 87.32 425.809 86.88 425.441 86.368H425.297C425.313 86.64 425.337 86.984 425.369 87.4C425.417 87.816 425.441 88.176 425.441 88.48V93.76H423.329V75.136H425.057L425.345 76.888H425.441C425.825 76.328 426.329 75.856 426.953 75.472C427.577 75.088 428.409 74.896 429.449 74.896ZM429.065 76.672C427.753 76.672 426.825 77.04 426.281 77.776C425.737 78.512 425.457 79.632 425.441 81.136V81.544C425.441 83.128 425.697 84.352 426.209 85.216C426.737 86.064 427.705 86.488 429.113 86.488C429.881 86.488 430.521 86.28 431.033 85.864C431.545 85.432 431.921 84.84 432.161 84.088C432.417 83.336 432.545 82.48 432.545 81.52C432.545 80.048 432.257 78.872 431.681 77.992C431.121 77.112 430.249 76.672 429.065 76.672ZM444.215 74.896C445.799 74.896 447.071 75.448 448.031 76.552C449.007 77.656 449.495 79.32 449.495 81.544C449.495 83.736 449.007 85.4 448.031 86.536C447.071 87.672 445.791 88.24 444.191 88.24C443.199 88.24 442.375 88.056 441.719 87.688C441.079 87.32 440.575 86.88 440.207 86.368H440.063C440.079 86.64 440.103 86.984 440.135 87.4C440.183 87.816 440.207 88.176 440.207 88.48V93.76H438.095V75.136H439.823L440.111 76.888H440.207C440.591 76.328 441.095 75.856 441.719 75.472C442.343 75.088 443.175 74.896 444.215 74.896ZM443.831 76.672C442.519 76.672 441.591 77.04 441.047 77.776C440.503 78.512 440.223 79.632 440.207 81.136V81.544C440.207 83.128 440.463 84.352 440.975 85.216C441.503 86.064 442.471 86.488 443.879 86.488C444.647 86.488 445.287 86.28 445.799 85.864C446.311 85.432 446.687 84.84 446.927 84.088C447.183 83.336 447.311 82.48 447.311 81.52C447.311 80.048 447.023 78.872 446.447 77.992C445.887 77.112 445.015 76.672 443.831 76.672ZM458.746 70.864L458.914 71.128C458.706 71.976 458.402 72.912 458.002 73.936C457.618 74.96 457.234 75.896 456.85 76.744H455.266C455.41 76.152 455.562 75.504 455.722 74.8C455.882 74.096 456.026 73.408 456.154 72.736C456.298 72.048 456.41 71.424 456.49 70.864H458.746ZM454.306 70.864L454.474 71.128C454.25 71.976 453.946 72.912 453.562 73.936C453.178 74.96 452.794 75.896 452.41 76.744H450.874C451.034 76.152 451.186 75.504 451.33 74.8C451.474 74.096 451.61 73.408 451.738 72.736C451.866 72.048 451.97 71.424 452.05 70.864H454.306Z" fill="black"/>
<path d="M536 205C534.895 205 534 205.895 534 207C534 208.105 534.895 209 536 209V205ZM759.5 207H761.5V205H759.5V207ZM759.5 588V590H761.5V588H759.5ZM425.586 586.586C424.805 587.367 424.805 588.633 425.586 589.414L438.314 602.142C439.095 602.923 440.361 602.923 441.142 602.142C441.923 601.361 441.923 600.095 441.142 599.314L429.828 588L441.142 576.686C441.923 575.905 441.923 574.639 441.142 573.858C440.361 573.077 439.095 573.077 438.314 573.858L425.586 586.586ZM536 209H759.5V205H536V209ZM757.5 207V588H761.5V207H757.5ZM759.5 586H427V590H759.5V586Z" fill="#232629"/>
<path d="M825.309 413H822.765L816.693 404.816L814.941 406.352V413H812.781V395.864H814.941V404.312C815.421 403.768 815.909 403.224 816.405 402.68C816.901 402.136 817.397 401.592 817.893 401.048L822.525 395.864H825.045L818.253 403.328L825.309 413ZM828.433 395.312C828.753 395.312 829.033 395.424 829.273 395.648C829.529 395.856 829.657 396.192 829.657 396.656C829.657 397.12 829.529 397.464 829.273 397.688C829.033 397.896 828.753 398 828.433 398C828.081 398 827.785 397.896 827.545 397.688C827.305 397.464 827.185 397.12 827.185 396.656C827.185 396.192 827.305 395.856 827.545 395.648C827.785 395.424 828.081 395.312 828.433 395.312ZM829.465 400.136V413H827.353V400.136H829.465ZM839.54 399.896C839.78 399.896 840.036 399.912 840.308 399.944C840.58 399.96 840.828 399.992 841.052 400.04L840.788 401.984C840.58 401.936 840.348 401.896 840.092 401.864C839.836 401.832 839.604 401.816 839.396 401.816C838.74 401.816 838.124 402 837.548 402.368C836.972 402.72 836.508 403.224 836.156 403.88C835.82 404.52 835.652 405.272 835.652 406.136V413H833.54V400.136H835.268L835.508 402.488H835.604C836.004 401.784 836.532 401.176 837.188 400.664C837.86 400.152 838.644 399.896 839.54 399.896ZM844.534 395.312C844.854 395.312 845.134 395.424 845.374 395.648C845.63 395.856 845.758 396.192 845.758 396.656C845.758 397.12 845.63 397.464 845.374 397.688C845.134 397.896 844.854 398 844.534 398C844.182 398 843.886 397.896 843.646 397.688C843.406 397.464 843.286 397.12 843.286 396.656C843.286 396.192 843.406 395.856 843.646 395.648C843.886 395.424 844.182 395.312 844.534 395.312ZM845.566 400.136V413H843.454V400.136H845.566ZM854.202 399.896C855.05 399.896 855.81 400.056 856.482 400.376C857.17 400.696 857.754 401.184 858.234 401.84H858.354L858.642 400.136H860.322V413.216C860.322 415.056 859.85 416.44 858.906 417.368C857.978 418.296 856.53 418.76 854.562 418.76C852.674 418.76 851.13 418.488 849.93 417.944V416C851.194 416.672 852.778 417.008 854.682 417.008C855.786 417.008 856.65 416.68 857.274 416.024C857.914 415.384 858.234 414.504 858.234 413.384V412.88C858.234 412.688 858.242 412.416 858.258 412.064C858.274 411.696 858.29 411.44 858.306 411.296H858.21C857.346 412.592 856.018 413.24 854.226 413.24C852.562 413.24 851.258 412.656 850.314 411.488C849.386 410.32 848.922 408.688 848.922 406.592C848.922 404.544 849.386 402.92 850.314 401.72C851.258 400.504 852.554 399.896 854.202 399.896ZM854.49 401.672C853.418 401.672 852.586 402.104 851.994 402.968C851.402 403.816 851.106 405.032 851.106 406.616C851.106 408.2 851.394 409.416 851.97 410.264C852.546 411.096 853.402 411.512 854.538 411.512C855.834 411.512 856.778 411.168 857.37 410.48C857.962 409.776 858.258 408.648 858.258 407.096V406.592C858.258 404.848 857.954 403.592 857.346 402.824C856.738 402.056 855.786 401.672 854.49 401.672ZM869.279 399.92C870.847 399.92 872.007 400.264 872.759 400.952C873.511 401.64 873.887 402.736 873.887 404.24V413H872.351L871.943 411.176H871.847C871.287 411.88 870.695 412.4 870.071 412.736C869.447 413.072 868.599 413.24 867.527 413.24C866.359 413.24 865.391 412.936 864.623 412.328C863.855 411.704 863.471 410.736 863.471 409.424C863.471 408.144 863.975 407.16 864.983 406.472C865.991 405.768 867.543 405.384 869.639 405.32L871.823 405.248V404.48C871.823 403.408 871.591 402.664 871.127 402.248C870.663 401.832 870.007 401.624 869.159 401.624C868.487 401.624 867.847 401.728 867.239 401.936C866.631 402.128 866.063 402.352 865.535 402.608L864.887 401.024C865.447 400.72 866.111 400.464 866.879 400.256C867.647 400.032 868.447 399.92 869.279 399.92ZM871.799 406.712L869.903 406.784C868.303 406.848 867.191 407.104 866.567 407.552C865.959 408 865.655 408.632 865.655 409.448C865.655 410.168 865.871 410.696 866.303 411.032C866.751 411.368 867.319 411.536 868.007 411.536C869.079 411.536 869.975 411.24 870.695 410.648C871.431 410.04 871.799 409.112 871.799 407.864V406.712ZM891.972 399.896C893.428 399.896 894.516 400.272 895.236 401.024C895.956 401.776 896.316 402.976 896.316 404.624V413H894.228V404.72C894.228 402.688 893.356 401.672 891.612 401.672C890.364 401.672 889.468 402.032 888.924 402.752C888.396 403.472 888.132 404.52 888.132 405.896V413H886.044V404.72C886.044 402.688 885.164 401.672 883.404 401.672C882.108 401.672 881.212 402.072 880.716 402.872C880.22 403.672 879.972 404.824 879.972 406.328V413H877.86V400.136H879.564L879.876 401.888H879.996C880.396 401.216 880.932 400.72 881.604 400.4C882.292 400.064 883.02 399.896 883.788 399.896C885.804 399.896 887.116 400.616 887.724 402.056H887.844C888.276 401.32 888.86 400.776 889.596 400.424C890.332 400.072 891.124 399.896 891.972 399.896ZM901.37 395.312C901.69 395.312 901.97 395.424 902.21 395.648C902.466 395.856 902.594 396.192 902.594 396.656C902.594 397.12 902.466 397.464 902.21 397.688C901.97 397.896 901.69 398 901.37 398C901.018 398 900.722 397.896 900.482 397.688C900.242 397.464 900.122 397.12 900.122 396.656C900.122 396.192 900.242 395.856 900.482 395.648C900.722 395.424 901.018 395.312 901.37 395.312ZM902.402 400.136V413H900.29V400.136H902.402ZM906.166 411.704C906.166 411.112 906.31 410.696 906.598 410.456C906.886 410.216 907.23 410.096 907.63 410.096C908.03 410.096 908.382 410.216 908.686 410.456C908.99 410.696 909.142 411.112 909.142 411.704C909.142 412.28 908.99 412.696 908.686 412.952C908.382 413.208 908.03 413.336 907.63 413.336C907.23 413.336 906.886 413.208 906.598 412.952C906.31 412.696 906.166 412.28 906.166 411.704ZM917.723 395.864C919.963 395.864 921.595 396.304 922.619 397.184C923.643 398.064 924.155 399.304 924.155 400.904C924.155 401.848 923.939 402.736 923.507 403.568C923.091 404.384 922.379 405.048 921.371 405.56C920.379 406.072 919.027 406.328 917.315 406.328H915.347V413H913.187V395.864H917.723ZM917.531 397.712H915.347V404.48H917.075C918.707 404.48 919.923 404.216 920.723 403.688C921.523 403.16 921.923 402.264 921.923 401C921.923 399.896 921.563 399.072 920.843 398.528C920.139 397.984 919.035 397.712 917.531 397.712ZM932.303 399.92C933.871 399.92 935.031 400.264 935.783 400.952C936.535 401.64 936.911 402.736 936.911 404.24V413H935.375L934.967 411.176H934.871C934.311 411.88 933.719 412.4 933.095 412.736C932.471 413.072 931.623 413.24 930.551 413.24C929.383 413.24 928.415 412.936 927.647 412.328C926.879 411.704 926.495 410.736 926.495 409.424C926.495 408.144 926.999 407.16 928.007 406.472C929.015 405.768 930.567 405.384 932.663 405.32L934.847 405.248V404.48C934.847 403.408 934.615 402.664 934.151 402.248C933.687 401.832 933.031 401.624 932.183 401.624C931.511 401.624 930.871 401.728 930.263 401.936C929.655 402.128 929.087 402.352 928.559 402.608L927.911 401.024C928.471 400.72 929.135 400.464 929.903 400.256C930.671 400.032 931.471 399.92 932.303 399.92ZM934.823 406.712L932.927 406.784C931.327 406.848 930.215 407.104 929.591 407.552C928.983 408 928.679 408.632 928.679 409.448C928.679 410.168 928.895 410.696 929.327 411.032C929.775 411.368 930.343 411.536 931.031 411.536C932.103 411.536 932.999 411.24 933.719 410.648C934.455 410.04 934.823 409.112 934.823 407.864V406.712ZM945.444 399.896C946.292 399.896 947.052 400.056 947.724 400.376C948.412 400.696 948.996 401.184 949.476 401.84H949.596L949.884 400.136H951.564V413.216C951.564 415.056 951.092 416.44 950.148 417.368C949.22 418.296 947.772 418.76 945.804 418.76C943.916 418.76 942.372 418.488 941.172 417.944V416C942.436 416.672 944.02 417.008 945.924 417.008C947.028 417.008 947.892 416.68 948.516 416.024C949.156 415.384 949.476 414.504 949.476 413.384V412.88C949.476 412.688 949.484 412.416 949.5 412.064C949.516 411.696 949.532 411.44 949.548 411.296H949.452C948.588 412.592 947.26 413.24 945.468 413.24C943.804 413.24 942.5 412.656 941.556 411.488C940.628 410.32 940.164 408.688 940.164 406.592C940.164 404.544 940.628 402.92 941.556 401.72C942.5 400.504 943.796 399.896 945.444 399.896ZM945.732 401.672C944.66 401.672 943.828 402.104 943.236 402.968C942.644 403.816 942.348 405.032 942.348 406.616C942.348 408.2 942.636 409.416 943.212 410.264C943.788 411.096 944.644 411.512 945.78 411.512C947.076 411.512 948.02 411.168 948.612 410.48C949.204 409.776 949.5 408.648 949.5 407.096V406.592C949.5 404.848 949.196 403.592 948.588 402.824C947.98 402.056 947.028 401.672 945.732 401.672ZM960.617 399.896C961.705 399.896 962.649 400.136 963.449 400.616C964.249 401.096 964.857 401.776 965.273 402.656C965.705 403.52 965.921 404.536 965.921 405.704V406.976H957.113C957.145 408.432 957.513 409.544 958.217 410.312C958.937 411.064 959.937 411.44 961.217 411.44C962.033 411.44 962.753 411.368 963.377 411.224C964.017 411.064 964.673 410.84 965.345 410.552V412.4C964.689 412.688 964.041 412.896 963.401 413.024C962.761 413.168 962.001 413.24 961.121 413.24C959.889 413.24 958.809 412.992 957.881 412.496C956.953 412 956.225 411.264 955.697 410.288C955.185 409.312 954.929 408.104 954.929 406.664C954.929 405.256 955.161 404.048 955.625 403.04C956.105 402.032 956.769 401.256 957.617 400.712C958.481 400.168 959.481 399.896 960.617 399.896ZM960.593 401.624C959.585 401.624 958.785 401.952 958.193 402.608C957.617 403.248 957.273 404.144 957.161 405.296H963.713C963.697 404.208 963.441 403.328 962.945 402.656C962.449 401.968 961.665 401.624 960.593 401.624ZM974.212 395.864C976.34 395.864 977.908 396.272 978.916 397.088C979.94 397.888 980.452 399.104 980.452 400.736C980.452 401.648 980.284 402.408 979.948 403.016C979.612 403.624 979.18 404.112 978.652 404.48C978.14 404.848 977.596 405.128 977.02 405.32L981.724 413H979.204L975.052 405.92H971.644V413H969.484V395.864H974.212ZM974.092 397.736H971.644V404.096H974.212C975.604 404.096 976.62 403.824 977.26 403.28C977.9 402.72 978.22 401.904 978.22 400.832C978.22 399.712 977.884 398.92 977.212 398.456C976.54 397.976 975.5 397.736 974.092 397.736ZM995.31 406.544C995.31 408.672 994.766 410.32 993.678 411.488C992.606 412.656 991.15 413.24 989.31 413.24C988.174 413.24 987.158 412.984 986.262 412.472C985.382 411.944 984.686 411.184 984.174 410.192C983.662 409.184 983.406 407.968 983.406 406.544C983.406 404.416 983.934 402.776 984.99 401.624C986.062 400.472 987.526 399.896 989.382 399.896C990.534 399.896 991.558 400.16 992.454 400.688C993.35 401.2 994.046 401.952 994.542 402.944C995.054 403.92 995.31 405.12 995.31 406.544ZM985.59 406.544C985.59 408.064 985.886 409.272 986.478 410.168C987.086 411.048 988.046 411.488 989.358 411.488C990.654 411.488 991.606 411.048 992.214 410.168C992.822 409.272 993.126 408.064 993.126 406.544C993.126 405.024 992.822 403.832 992.214 402.968C991.606 402.104 990.646 401.672 989.334 401.672C988.022 401.672 987.07 402.104 986.478 402.968C985.886 403.832 985.59 405.024 985.59 406.544ZM1009.41 400.136V413H1007.68L1007.37 411.296H1007.27C1006.86 411.968 1006.28 412.464 1005.55 412.784C1004.81 413.088 1004.03 413.24 1003.19 413.24C1001.64 413.24 1000.47 412.872 999.689 412.136C998.905 411.384 998.513 410.192 998.513 408.56V400.136H1000.65V408.416C1000.65 410.464 1001.6 411.488 1003.51 411.488C1004.93 411.488 1005.91 411.088 1006.46 410.288C1007.02 409.488 1007.3 408.336 1007.3 406.832V400.136H1009.41ZM1017.79 411.512C1018.11 411.512 1018.44 411.488 1018.77 411.44C1019.11 411.392 1019.38 411.328 1019.59 411.248V412.856C1019.37 412.968 1019.05 413.056 1018.63 413.12C1018.21 413.2 1017.81 413.24 1017.43 413.24C1016.76 413.24 1016.13 413.128 1015.56 412.904C1015 412.664 1014.54 412.256 1014.19 411.68C1013.84 411.104 1013.66 410.296 1013.66 409.256V401.768H1011.84V400.76L1013.69 399.92L1014.53 397.184H1015.77V400.136H1019.49V401.768H1015.77V409.208C1015.77 409.992 1015.96 410.576 1016.33 410.96C1016.71 411.328 1017.2 411.512 1017.79 411.512ZM1027.13 399.896C1028.22 399.896 1029.17 400.136 1029.97 400.616C1030.77 401.096 1031.37 401.776 1031.79 402.656C1032.22 403.52 1032.44 404.536 1032.44 405.704V406.976H1023.63C1023.66 408.432 1024.03 409.544 1024.73 410.312C1025.45 411.064 1026.45 411.44 1027.73 411.44C1028.55 411.44 1029.27 411.368 1029.89 411.224C1030.53 411.064 1031.19 410.84 1031.86 410.552V412.4C1031.21 412.688 1030.56 412.896 1029.92 413.024C1029.28 413.168 1028.52 413.24 1027.64 413.24C1026.41 413.24 1025.33 412.992 1024.4 412.496C1023.47 412 1022.74 411.264 1022.21 410.288C1021.7 409.312 1021.45 408.104 1021.45 406.664C1021.45 405.256 1021.68 404.048 1022.14 403.04C1022.62 402.032 1023.29 401.256 1024.13 400.712C1025 400.168 1026 399.896 1027.13 399.896ZM1027.11 401.624C1026.1 401.624 1025.3 401.952 1024.71 402.608C1024.13 403.248 1023.79 404.144 1023.68 405.296H1030.23C1030.21 404.208 1029.96 403.328 1029.46 402.656C1028.97 401.968 1028.18 401.624 1027.11 401.624ZM1041.71 399.896C1041.95 399.896 1042.21 399.912 1042.48 399.944C1042.75 399.96 1043 399.992 1043.22 400.04L1042.96 401.984C1042.75 401.936 1042.52 401.896 1042.26 401.864C1042.01 401.832 1041.78 401.816 1041.57 401.816C1040.91 401.816 1040.3 402 1039.72 402.368C1039.14 402.72 1038.68 403.224 1038.33 403.88C1037.99 404.52 1037.82 405.272 1037.82 406.136V413H1035.71V400.136H1037.44L1037.68 402.488H1037.78C1038.18 401.784 1038.7 401.176 1039.36 400.664C1040.03 400.152 1040.82 399.896 1041.71 399.896ZM1043.88 411.704C1043.88 411.112 1044.03 410.696 1044.32 410.456C1044.6 410.216 1044.95 410.096 1045.35 410.096C1045.75 410.096 1046.1 410.216 1046.4 410.456C1046.71 410.696 1046.86 411.112 1046.86 411.704C1046.86 412.28 1046.71 412.696 1046.4 412.952C1046.1 413.208 1045.75 413.336 1045.35 413.336C1044.95 413.336 1044.6 413.208 1044.32 412.952C1044.03 412.696 1043.88 412.28 1043.88 411.704ZM1056.74 399.896C1058.32 399.896 1059.59 400.448 1060.55 401.552C1061.53 402.656 1062.02 404.32 1062.02 406.544C1062.02 408.736 1061.53 410.4 1060.55 411.536C1059.59 412.672 1058.31 413.24 1056.71 413.24C1055.72 413.24 1054.9 413.056 1054.24 412.688C1053.6 412.32 1053.1 411.88 1052.73 411.368H1052.59C1052.6 411.64 1052.63 411.984 1052.66 412.4C1052.71 412.816 1052.73 413.176 1052.73 413.48V418.76H1050.62V400.136H1052.35L1052.63 401.888H1052.73C1053.11 401.328 1053.62 400.856 1054.24 400.472C1054.87 400.088 1055.7 399.896 1056.74 399.896ZM1056.35 401.672C1055.04 401.672 1054.11 402.04 1053.57 402.776C1053.03 403.512 1052.75 404.632 1052.73 406.136V406.544C1052.73 408.128 1052.99 409.352 1053.5 410.216C1054.03 411.064 1054.99 411.488 1056.4 411.488C1057.17 411.488 1057.81 411.28 1058.32 410.864C1058.83 410.432 1059.21 409.84 1059.45 409.088C1059.71 408.336 1059.83 407.48 1059.83 406.52C1059.83 405.048 1059.55 403.872 1058.97 402.992C1058.41 402.112 1057.54 401.672 1056.35 401.672ZM1076.57 406.544C1076.57 408.672 1076.02 410.32 1074.94 411.488C1073.86 412.656 1072.41 413.24 1070.57 413.24C1069.43 413.24 1068.42 412.984 1067.52 412.472C1066.64 411.944 1065.94 411.184 1065.43 410.192C1064.92 409.184 1064.66 407.968 1064.66 406.544C1064.66 404.416 1065.19 402.776 1066.25 401.624C1067.32 400.472 1068.78 399.896 1070.64 399.896C1071.79 399.896 1072.82 400.16 1073.71 400.688C1074.61 401.2 1075.3 401.952 1075.8 402.944C1076.31 403.92 1076.57 405.12 1076.57 406.544ZM1066.85 406.544C1066.85 408.064 1067.14 409.272 1067.74 410.168C1068.34 411.048 1069.3 411.488 1070.62 411.488C1071.91 411.488 1072.86 411.048 1073.47 410.168C1074.08 409.272 1074.38 408.064 1074.38 406.544C1074.38 405.024 1074.08 403.832 1073.47 402.968C1072.86 402.104 1071.9 401.672 1070.59 401.672C1069.28 401.672 1068.33 402.104 1067.74 402.968C1067.14 403.832 1066.85 405.024 1066.85 406.544ZM1086.04 399.896C1087.62 399.896 1088.89 400.448 1089.85 401.552C1090.83 402.656 1091.32 404.32 1091.32 406.544C1091.32 408.736 1090.83 410.4 1089.85 411.536C1088.89 412.672 1087.61 413.24 1086.01 413.24C1085.02 413.24 1084.2 413.056 1083.54 412.688C1082.9 412.32 1082.4 411.88 1082.03 411.368H1081.88C1081.9 411.64 1081.92 411.984 1081.96 412.4C1082 412.816 1082.03 413.176 1082.03 413.48V418.76H1079.92V400.136H1081.64L1081.93 401.888H1082.03C1082.41 401.328 1082.92 400.856 1083.54 400.472C1084.16 400.088 1085 399.896 1086.04 399.896ZM1085.65 401.672C1084.34 401.672 1083.41 402.04 1082.87 402.776C1082.32 403.512 1082.04 404.632 1082.03 406.136V406.544C1082.03 408.128 1082.28 409.352 1082.8 410.216C1083.32 411.064 1084.29 411.488 1085.7 411.488C1086.47 411.488 1087.11 411.28 1087.62 410.864C1088.13 410.432 1088.51 409.84 1088.75 409.088C1089 408.336 1089.13 407.48 1089.13 406.52C1089.13 405.048 1088.84 403.872 1088.27 402.992C1087.71 402.112 1086.84 401.672 1085.65 401.672ZM1099.7 395.864C1101.82 395.864 1103.39 396.272 1104.4 397.088C1105.42 397.888 1105.94 399.104 1105.94 400.736C1105.94 401.648 1105.77 402.408 1105.43 403.016C1105.1 403.624 1104.66 404.112 1104.14 404.48C1103.62 404.848 1103.08 405.128 1102.5 405.32L1107.21 413H1104.69L1100.54 405.92H1097.13V413H1094.97V395.864H1099.7ZM1099.58 397.736H1097.13V404.096H1099.7C1101.09 404.096 1102.1 403.824 1102.74 403.28C1103.38 402.72 1103.7 401.904 1103.7 400.832C1103.7 399.712 1103.37 398.92 1102.7 398.456C1102.02 397.976 1100.98 397.736 1099.58 397.736ZM1120.79 406.544C1120.79 408.672 1120.25 410.32 1119.16 411.488C1118.09 412.656 1116.63 413.24 1114.79 413.24C1113.66 413.24 1112.64 412.984 1111.75 412.472C1110.87 411.944 1110.17 411.184 1109.66 410.192C1109.15 409.184 1108.89 407.968 1108.89 406.544C1108.89 404.416 1109.42 402.776 1110.47 401.624C1111.55 400.472 1113.01 399.896 1114.87 399.896C1116.02 399.896 1117.04 400.16 1117.94 400.688C1118.83 401.2 1119.53 401.952 1120.03 402.944C1120.54 403.92 1120.79 405.12 1120.79 406.544ZM1111.07 406.544C1111.07 408.064 1111.37 409.272 1111.96 410.168C1112.57 411.048 1113.53 411.488 1114.84 411.488C1116.14 411.488 1117.09 411.048 1117.7 410.168C1118.31 409.272 1118.61 408.064 1118.61 406.544C1118.61 405.024 1118.31 403.832 1117.7 402.968C1117.09 402.104 1116.13 401.672 1114.82 401.672C1113.51 401.672 1112.55 402.104 1111.96 402.968C1111.37 403.832 1111.07 405.024 1111.07 406.544ZM1134.89 400.136V413H1133.17L1132.85 411.296H1132.76C1132.34 411.968 1131.77 412.464 1131.03 412.784C1130.29 413.088 1129.51 413.24 1128.68 413.24C1127.13 413.24 1125.96 412.872 1125.17 412.136C1124.39 411.384 1124 410.192 1124 408.56V400.136H1126.13V408.416C1126.13 410.464 1127.09 411.488 1128.99 411.488C1130.41 411.488 1131.4 411.088 1131.94 410.288C1132.5 409.488 1132.78 408.336 1132.78 406.832V400.136H1134.89ZM1143.27 411.512C1143.59 411.512 1143.92 411.488 1144.26 411.44C1144.59 411.392 1144.87 411.328 1145.07 411.248V412.856C1144.85 412.968 1144.53 413.056 1144.11 413.12C1143.7 413.2 1143.3 413.24 1142.91 413.24C1142.24 413.24 1141.62 413.128 1141.04 412.904C1140.48 412.664 1140.03 412.256 1139.67 411.68C1139.32 411.104 1139.15 410.296 1139.15 409.256V401.768H1137.32V400.76L1139.17 399.92L1140.01 397.184H1141.26V400.136H1144.98V401.768H1141.26V409.208C1141.26 409.992 1141.44 410.576 1141.81 410.96C1142.19 411.328 1142.68 411.512 1143.27 411.512ZM1152.62 399.896C1153.71 399.896 1154.65 400.136 1155.45 400.616C1156.25 401.096 1156.86 401.776 1157.27 402.656C1157.71 403.52 1157.92 404.536 1157.92 405.704V406.976H1149.11C1149.15 408.432 1149.51 409.544 1150.22 410.312C1150.94 411.064 1151.94 411.44 1153.22 411.44C1154.03 411.44 1154.75 411.368 1155.38 411.224C1156.02 411.064 1156.67 410.84 1157.35 410.552V412.4C1156.69 412.688 1156.04 412.896 1155.4 413.024C1154.76 413.168 1154 413.24 1153.12 413.24C1151.89 413.24 1150.81 412.992 1149.88 412.496C1148.95 412 1148.23 411.264 1147.7 410.288C1147.19 409.312 1146.93 408.104 1146.93 406.664C1146.93 405.256 1147.16 404.048 1147.63 403.04C1148.11 402.032 1148.77 401.256 1149.62 400.712C1150.48 400.168 1151.48 399.896 1152.62 399.896ZM1152.59 401.624C1151.59 401.624 1150.79 401.952 1150.19 402.608C1149.62 403.248 1149.27 404.144 1149.16 405.296H1155.71C1155.7 404.208 1155.44 403.328 1154.95 402.656C1154.45 401.968 1153.67 401.624 1152.59 401.624ZM1160.12 406.424C1160.12 404.472 1160.4 402.592 1160.96 400.784C1161.53 398.96 1162.43 397.32 1163.64 395.864H1165.64C1164.52 397.368 1163.67 399.024 1163.09 400.832C1162.53 402.64 1162.25 404.496 1162.25 406.4C1162.25 408.256 1162.53 410.08 1163.09 411.872C1163.67 413.648 1164.51 415.288 1165.61 416.792H1163.64C1162.43 415.384 1161.53 413.792 1160.96 412.016C1160.4 410.224 1160.12 408.36 1160.12 406.424ZM1172.59 406.424C1172.59 408.36 1172.3 410.224 1171.73 412.016C1171.17 413.792 1170.28 415.384 1169.06 416.792H1167.1C1168.2 415.288 1169.03 413.648 1169.59 411.872C1170.17 410.08 1170.46 408.256 1170.46 406.4C1170.46 404.496 1170.17 402.64 1169.59 400.832C1169.03 399.024 1168.19 397.368 1167.07 395.864H1169.06C1170.28 397.32 1171.17 398.96 1171.73 400.784C1172.3 402.592 1172.59 404.472 1172.59 406.424Z" fill="black"/>
</svg>
