<svg width="986" height="592" viewBox="0 0 986 592" fill="none" xmlns="http://www.w3.org/2000/svg">
<rect x="2" y="249" width="981" height="341" rx="8" fill="#D1D5D9" stroke="#393C3F" stroke-width="4"/>
<path d="M523 363H753.023C755.968 363 758.674 364.618 760.069 367.212L804.693 450.212C805.964 452.577 805.964 455.423 804.693 457.788L760.069 540.788C758.674 543.382 755.968 545 753.023 545H523C518.582 545 515 541.418 515 537V371C515 366.582 518.582 363 523 363Z" fill="#9B9EA2" stroke="#393C3F" stroke-width="4"/>
<path d="M661.716 428.864C663.956 428.864 665.588 429.304 666.612 430.184C667.636 431.064 668.148 432.304 668.148 433.904C668.148 434.848 667.932 435.736 667.5 436.568C667.084 437.384 666.372 438.048 665.364 438.56C664.372 439.072 663.02 439.328 661.308 439.328H659.34V446H657.18V428.864H661.716ZM661.524 430.712H659.34V437.48H661.068C662.7 437.48 663.916 437.216 664.716 436.688C665.516 436.16 665.916 435.264 665.916 434C665.916 432.896 665.556 432.072 664.836 431.528C664.132 430.984 663.028 430.712 661.524 430.712ZM676.295 432.92C677.863 432.92 679.023 433.264 679.775 433.952C680.527 434.64 680.903 435.736 680.903 437.24V446H679.367L678.959 444.176H678.863C678.303 444.88 677.711 445.4 677.087 445.736C676.463 446.072 675.615 446.24 674.543 446.24C673.375 446.24 672.407 445.936 671.639 445.328C670.871 444.704 670.487 443.736 670.487 442.424C670.487 441.144 670.991 440.16 671.999 439.472C673.007 438.768 674.559 438.384 676.655 438.32L678.839 438.248V437.48C678.839 436.408 678.607 435.664 678.143 435.248C677.679 434.832 677.023 434.624 676.175 434.624C675.503 434.624 674.863 434.728 674.255 434.936C673.647 435.128 673.079 435.352 672.551 435.608L671.903 434.024C672.463 433.72 673.127 433.464 673.895 433.256C674.663 433.032 675.463 432.92 676.295 432.92ZM678.815 439.712L676.919 439.784C675.319 439.848 674.207 440.104 673.583 440.552C672.975 441 672.671 441.632 672.671 442.448C672.671 443.168 672.887 443.696 673.319 444.032C673.767 444.368 674.335 444.536 675.023 444.536C676.095 444.536 676.991 444.24 677.711 443.648C678.447 443.04 678.815 442.112 678.815 440.864V439.712ZM689.436 432.896C690.284 432.896 691.044 433.056 691.716 433.376C692.404 433.696 692.988 434.184 693.468 434.84H693.588L693.876 433.136H695.556V446.216C695.556 448.056 695.084 449.44 694.14 450.368C693.212 451.296 691.764 451.76 689.796 451.76C687.908 451.76 686.364 451.488 685.164 450.944V449C686.428 449.672 688.012 450.008 689.916 450.008C691.02 450.008 691.884 449.68 692.508 449.024C693.148 448.384 693.468 447.504 693.468 446.384V445.88C693.468 445.688 693.476 445.416 693.492 445.064C693.508 444.696 693.524 444.44 693.54 444.296H693.444C692.58 445.592 691.252 446.24 689.46 446.24C687.796 446.24 686.492 445.656 685.548 444.488C684.62 443.32 684.156 441.688 684.156 439.592C684.156 437.544 684.62 435.92 685.548 434.72C686.492 433.504 687.788 432.896 689.436 432.896ZM689.724 434.672C688.652 434.672 687.82 435.104 687.228 435.968C686.636 436.816 686.34 438.032 686.34 439.616C686.34 441.2 686.628 442.416 687.204 443.264C687.78 444.096 688.636 444.512 689.772 444.512C691.068 444.512 692.012 444.168 692.604 443.48C693.196 442.776 693.492 441.648 693.492 440.096V439.592C693.492 437.848 693.188 436.592 692.58 435.824C691.972 435.056 691.02 434.672 689.724 434.672ZM704.61 432.896C705.698 432.896 706.642 433.136 707.442 433.616C708.242 434.096 708.85 434.776 709.266 435.656C709.698 436.52 709.914 437.536 709.914 438.704V439.976H701.106C701.138 441.432 701.506 442.544 702.21 443.312C702.93 444.064 703.93 444.44 705.21 444.44C706.026 444.44 706.746 444.368 707.37 444.224C708.01 444.064 708.666 443.84 709.338 443.552V445.4C708.682 445.688 708.034 445.896 707.394 446.024C706.754 446.168 705.994 446.24 705.114 446.24C703.882 446.24 702.802 445.992 701.874 445.496C700.946 445 700.218 444.264 699.69 443.288C699.178 442.312 698.922 441.104 698.922 439.664C698.922 438.256 699.154 437.048 699.618 436.04C700.098 435.032 700.762 434.256 701.61 433.712C702.474 433.168 703.474 432.896 704.61 432.896ZM704.586 434.624C703.578 434.624 702.778 434.952 702.186 435.608C701.61 436.248 701.266 437.144 701.154 438.296H707.706C707.69 437.208 707.434 436.328 706.938 435.656C706.442 434.968 705.658 434.624 704.586 434.624ZM650.101 461.864C649.877 462.792 649.645 463.8 649.405 464.888C649.181 465.96 649.013 466.912 648.901 467.744H646.621L646.453 467.48C646.661 466.648 646.957 465.72 647.341 464.696C647.741 463.672 648.141 462.728 648.541 461.864H650.101ZM645.661 461.864C645.437 462.792 645.213 463.8 644.989 464.888C644.765 465.96 644.589 466.912 644.461 467.744H642.205L642.061 467.48C642.285 466.648 642.581 465.72 642.949 464.696C643.333 463.672 643.725 462.728 644.125 461.864H645.661ZM659.086 461.864L652.702 479H650.638L657.022 461.864H659.086ZM663.48 479H661.368V460.76H663.48V479ZM678.74 472.544C678.74 474.672 678.196 476.32 677.108 477.488C676.036 478.656 674.58 479.24 672.74 479.24C671.604 479.24 670.588 478.984 669.692 478.472C668.812 477.944 668.116 477.184 667.604 476.192C667.092 475.184 666.836 473.968 666.836 472.544C666.836 470.416 667.364 468.776 668.42 467.624C669.492 466.472 670.956 465.896 672.812 465.896C673.964 465.896 674.988 466.16 675.884 466.688C676.78 467.2 677.476 467.952 677.972 468.944C678.484 469.92 678.74 471.12 678.74 472.544ZM669.02 472.544C669.02 474.064 669.316 475.272 669.908 476.168C670.516 477.048 671.476 477.488 672.788 477.488C674.084 477.488 675.036 477.048 675.644 476.168C676.252 475.272 676.556 474.064 676.556 472.544C676.556 471.024 676.252 469.832 675.644 468.968C675.036 468.104 674.076 467.672 672.764 467.672C671.452 467.672 670.5 468.104 669.908 468.968C669.316 469.832 669.02 471.024 669.02 472.544ZM686.647 465.896C687.495 465.896 688.255 466.056 688.927 466.376C689.615 466.696 690.199 467.184 690.679 467.84H690.799L691.087 466.136H692.767V479.216C692.767 481.056 692.295 482.44 691.351 483.368C690.423 484.296 688.975 484.76 687.007 484.76C685.119 484.76 683.575 484.488 682.375 483.944V482C683.639 482.672 685.223 483.008 687.127 483.008C688.231 483.008 689.095 482.68 689.719 482.024C690.359 481.384 690.679 480.504 690.679 479.384V478.88C690.679 478.688 690.687 478.416 690.703 478.064C690.719 477.696 690.735 477.44 690.751 477.296H690.655C689.791 478.592 688.463 479.24 686.671 479.24C685.007 479.24 683.703 478.656 682.759 477.488C681.831 476.32 681.367 474.688 681.367 472.592C681.367 470.544 681.831 468.92 682.759 467.72C683.703 466.504 684.999 465.896 686.647 465.896ZM686.935 467.672C685.863 467.672 685.031 468.104 684.439 468.968C683.847 469.816 683.551 471.032 683.551 472.616C683.551 474.2 683.839 475.416 684.415 476.264C684.991 477.096 685.847 477.512 686.983 477.512C688.279 477.512 689.223 477.168 689.815 476.48C690.407 475.776 690.703 474.648 690.703 473.096V472.592C690.703 470.848 690.399 469.592 689.791 468.824C689.183 468.056 688.231 467.672 686.935 467.672ZM697.933 461.312C698.253 461.312 698.533 461.424 698.773 461.648C699.029 461.856 699.157 462.192 699.157 462.656C699.157 463.12 699.029 463.464 698.773 463.688C698.533 463.896 698.253 464 697.933 464C697.581 464 697.285 463.896 697.045 463.688C696.805 463.464 696.685 463.12 696.685 462.656C696.685 462.192 696.805 461.856 697.045 461.648C697.285 461.424 697.581 461.312 697.933 461.312ZM698.965 466.136V479H696.853V466.136H698.965ZM709.232 465.896C710.768 465.896 711.928 466.272 712.712 467.024C713.496 467.776 713.888 468.976 713.888 470.624V479H711.8V470.768C711.8 468.704 710.84 467.672 708.92 467.672C707.496 467.672 706.512 468.072 705.968 468.872C705.424 469.672 705.152 470.824 705.152 472.328V479H703.04V466.136H704.744L705.056 467.888H705.176C705.592 467.216 706.168 466.72 706.904 466.4C707.64 466.064 708.416 465.896 709.232 465.896ZM723.762 461.864L723.93 462.128C723.722 462.976 723.418 463.912 723.018 464.936C722.634 465.96 722.25 466.896 721.866 467.744H720.282C720.426 467.152 720.578 466.504 720.738 465.8C720.898 465.096 721.042 464.408 721.17 463.736C721.314 463.048 721.426 462.424 721.506 461.864H723.762ZM719.322 461.864L719.49 462.128C719.266 462.976 718.962 463.912 718.578 464.936C718.194 465.96 717.81 466.896 717.426 467.744H715.89C716.05 467.152 716.202 466.504 716.346 465.8C716.49 465.096 716.626 464.408 716.754 463.736C716.882 463.048 716.986 462.424 717.066 461.864H719.322Z" fill="black"/>
<path d="M325 363H555.023C557.968 363 560.674 364.618 562.069 367.212L606.693 450.212C607.964 452.577 607.964 455.423 606.693 457.788L562.069 540.788C560.674 543.382 557.968 545 555.023 545H325C320.582 545 317 541.418 317 537V371C317 366.582 320.582 363 325 363Z" fill="#9B9EA2" stroke="#393C3F" stroke-width="4"/>
<path d="M463.716 428.864C465.956 428.864 467.588 429.304 468.612 430.184C469.636 431.064 470.148 432.304 470.148 433.904C470.148 434.848 469.932 435.736 469.5 436.568C469.084 437.384 468.372 438.048 467.364 438.56C466.372 439.072 465.02 439.328 463.308 439.328H461.34V446H459.18V428.864H463.716ZM463.524 430.712H461.34V437.48H463.068C464.7 437.48 465.916 437.216 466.716 436.688C467.516 436.16 467.916 435.264 467.916 434C467.916 432.896 467.556 432.072 466.836 431.528C466.132 430.984 465.028 430.712 463.524 430.712ZM478.295 432.92C479.863 432.92 481.023 433.264 481.775 433.952C482.527 434.64 482.903 435.736 482.903 437.24V446H481.367L480.959 444.176H480.863C480.303 444.88 479.711 445.4 479.087 445.736C478.463 446.072 477.615 446.24 476.543 446.24C475.375 446.24 474.407 445.936 473.639 445.328C472.871 444.704 472.487 443.736 472.487 442.424C472.487 441.144 472.991 440.16 473.999 439.472C475.007 438.768 476.559 438.384 478.655 438.32L480.839 438.248V437.48C480.839 436.408 480.607 435.664 480.143 435.248C479.679 434.832 479.023 434.624 478.175 434.624C477.503 434.624 476.863 434.728 476.255 434.936C475.647 435.128 475.079 435.352 474.551 435.608L473.903 434.024C474.463 433.72 475.127 433.464 475.895 433.256C476.663 433.032 477.463 432.92 478.295 432.92ZM480.815 439.712L478.919 439.784C477.319 439.848 476.207 440.104 475.583 440.552C474.975 441 474.671 441.632 474.671 442.448C474.671 443.168 474.887 443.696 475.319 444.032C475.767 444.368 476.335 444.536 477.023 444.536C478.095 444.536 478.991 444.24 479.711 443.648C480.447 443.04 480.815 442.112 480.815 440.864V439.712ZM491.436 432.896C492.284 432.896 493.044 433.056 493.716 433.376C494.404 433.696 494.988 434.184 495.468 434.84H495.588L495.876 433.136H497.556V446.216C497.556 448.056 497.084 449.44 496.14 450.368C495.212 451.296 493.764 451.76 491.796 451.76C489.908 451.76 488.364 451.488 487.164 450.944V449C488.428 449.672 490.012 450.008 491.916 450.008C493.02 450.008 493.884 449.68 494.508 449.024C495.148 448.384 495.468 447.504 495.468 446.384V445.88C495.468 445.688 495.476 445.416 495.492 445.064C495.508 444.696 495.524 444.44 495.54 444.296H495.444C494.58 445.592 493.252 446.24 491.46 446.24C489.796 446.24 488.492 445.656 487.548 444.488C486.62 443.32 486.156 441.688 486.156 439.592C486.156 437.544 486.62 435.92 487.548 434.72C488.492 433.504 489.788 432.896 491.436 432.896ZM491.724 434.672C490.652 434.672 489.82 435.104 489.228 435.968C488.636 436.816 488.34 438.032 488.34 439.616C488.34 441.2 488.628 442.416 489.204 443.264C489.78 444.096 490.636 444.512 491.772 444.512C493.068 444.512 494.012 444.168 494.604 443.48C495.196 442.776 495.492 441.648 495.492 440.096V439.592C495.492 437.848 495.188 436.592 494.58 435.824C493.972 435.056 493.02 434.672 491.724 434.672ZM506.61 432.896C507.698 432.896 508.642 433.136 509.442 433.616C510.242 434.096 510.85 434.776 511.266 435.656C511.698 436.52 511.914 437.536 511.914 438.704V439.976H503.106C503.138 441.432 503.506 442.544 504.21 443.312C504.93 444.064 505.93 444.44 507.21 444.44C508.026 444.44 508.746 444.368 509.37 444.224C510.01 444.064 510.666 443.84 511.338 443.552V445.4C510.682 445.688 510.034 445.896 509.394 446.024C508.754 446.168 507.994 446.24 507.114 446.24C505.882 446.24 504.802 445.992 503.874 445.496C502.946 445 502.218 444.264 501.69 443.288C501.178 442.312 500.922 441.104 500.922 439.664C500.922 438.256 501.154 437.048 501.618 436.04C502.098 435.032 502.762 434.256 503.61 433.712C504.474 433.168 505.474 432.896 506.61 432.896ZM506.586 434.624C505.578 434.624 504.778 434.952 504.186 435.608C503.61 436.248 503.266 437.144 503.154 438.296H509.706C509.69 437.208 509.434 436.328 508.938 435.656C508.442 434.968 507.658 434.624 506.586 434.624ZM458.863 461.864C458.639 462.792 458.407 463.8 458.167 464.888C457.943 465.96 457.775 466.912 457.663 467.744H455.383L455.215 467.48C455.423 466.648 455.719 465.72 456.103 464.696C456.503 463.672 456.903 462.728 457.303 461.864H458.863ZM454.423 461.864C454.199 462.792 453.975 463.8 453.751 464.888C453.527 465.96 453.351 466.912 453.223 467.744H450.967L450.823 467.48C451.047 466.648 451.343 465.72 451.711 464.696C452.095 463.672 452.487 462.728 452.887 461.864H454.423ZM467.848 461.864L461.464 479H459.4L465.784 461.864H467.848ZM475.002 465.92C476.57 465.92 477.73 466.264 478.482 466.952C479.234 467.64 479.61 468.736 479.61 470.24V479H478.074L477.666 477.176H477.57C477.01 477.88 476.418 478.4 475.794 478.736C475.17 479.072 474.322 479.24 473.25 479.24C472.082 479.24 471.114 478.936 470.346 478.328C469.578 477.704 469.194 476.736 469.194 475.424C469.194 474.144 469.698 473.16 470.706 472.472C471.714 471.768 473.266 471.384 475.362 471.32L477.546 471.248V470.48C477.546 469.408 477.314 468.664 476.85 468.248C476.386 467.832 475.73 467.624 474.882 467.624C474.21 467.624 473.57 467.728 472.962 467.936C472.354 468.128 471.786 468.352 471.258 468.608L470.61 467.024C471.17 466.72 471.834 466.464 472.602 466.256C473.37 466.032 474.17 465.92 475.002 465.92ZM477.522 472.712L475.626 472.784C474.026 472.848 472.914 473.104 472.29 473.552C471.682 474 471.378 474.632 471.378 475.448C471.378 476.168 471.594 476.696 472.026 477.032C472.474 477.368 473.042 477.536 473.73 477.536C474.802 477.536 475.698 477.24 476.418 476.648C477.154 476.04 477.522 475.112 477.522 473.864V472.712ZM489.703 465.896C491.287 465.896 492.559 466.448 493.519 467.552C494.495 468.656 494.983 470.32 494.983 472.544C494.983 474.736 494.495 476.4 493.519 477.536C492.559 478.672 491.279 479.24 489.679 479.24C488.687 479.24 487.863 479.056 487.207 478.688C486.567 478.32 486.063 477.88 485.695 477.368H485.551C485.567 477.64 485.591 477.984 485.623 478.4C485.671 478.816 485.695 479.176 485.695 479.48V484.76H483.583V466.136H485.311L485.599 467.888H485.695C486.079 467.328 486.583 466.856 487.207 466.472C487.831 466.088 488.663 465.896 489.703 465.896ZM489.319 467.672C488.007 467.672 487.079 468.04 486.535 468.776C485.991 469.512 485.711 470.632 485.695 472.136V472.544C485.695 474.128 485.951 475.352 486.463 476.216C486.991 477.064 487.959 477.488 489.367 477.488C490.135 477.488 490.775 477.28 491.287 476.864C491.799 476.432 492.175 475.84 492.415 475.088C492.671 474.336 492.799 473.48 492.799 472.52C492.799 471.048 492.511 469.872 491.935 468.992C491.375 468.112 490.503 467.672 489.319 467.672ZM504.469 465.896C506.053 465.896 507.325 466.448 508.285 467.552C509.261 468.656 509.749 470.32 509.749 472.544C509.749 474.736 509.261 476.4 508.285 477.536C507.325 478.672 506.045 479.24 504.445 479.24C503.453 479.24 502.629 479.056 501.973 478.688C501.333 478.32 500.829 477.88 500.461 477.368H500.317C500.333 477.64 500.357 477.984 500.389 478.4C500.437 478.816 500.461 479.176 500.461 479.48V484.76H498.349V466.136H500.077L500.365 467.888H500.461C500.845 467.328 501.349 466.856 501.973 466.472C502.597 466.088 503.429 465.896 504.469 465.896ZM504.085 467.672C502.773 467.672 501.845 468.04 501.301 468.776C500.757 469.512 500.477 470.632 500.461 472.136V472.544C500.461 474.128 500.717 475.352 501.229 476.216C501.757 477.064 502.725 477.488 504.133 477.488C504.901 477.488 505.541 477.28 506.053 476.864C506.565 476.432 506.941 475.84 507.181 475.088C507.437 474.336 507.565 473.48 507.565 472.52C507.565 471.048 507.277 469.872 506.701 468.992C506.141 468.112 505.269 467.672 504.085 467.672ZM519 461.864L519.168 462.128C518.96 462.976 518.656 463.912 518.256 464.936C517.872 465.96 517.488 466.896 517.104 467.744H515.52C515.664 467.152 515.816 466.504 515.976 465.8C516.136 465.096 516.28 464.408 516.408 463.736C516.552 463.048 516.664 462.424 516.744 461.864H519ZM514.56 461.864L514.728 462.128C514.504 462.976 514.2 463.912 513.816 464.936C513.432 465.96 513.048 466.896 512.664 467.744H511.128C511.288 467.152 511.44 466.504 511.584 465.8C511.728 465.096 511.864 464.408 511.992 463.736C512.12 463.048 512.224 462.424 512.304 461.864H514.56Z" fill="black"/>
<path d="M187 363H357.023C359.968 363 362.674 364.618 364.069 367.212L408.693 450.212C409.964 452.577 409.964 455.423 408.693 457.788L364.069 540.788C362.674 543.382 359.968 545 357.023 545H187C182.582 545 179 541.418 179 537V371C179 366.582 182.582 363 187 363Z" fill="#9B9EA2" stroke="#393C3F" stroke-width="4"/>
<path d="M248.716 428.864C250.956 428.864 252.588 429.304 253.612 430.184C254.636 431.064 255.148 432.304 255.148 433.904C255.148 434.848 254.932 435.736 254.5 436.568C254.084 437.384 253.372 438.048 252.364 438.56C251.372 439.072 250.02 439.328 248.308 439.328H246.34V446H244.18V428.864H248.716ZM248.524 430.712H246.34V437.48H248.068C249.7 437.48 250.916 437.216 251.716 436.688C252.516 436.16 252.916 435.264 252.916 434C252.916 432.896 252.556 432.072 251.836 431.528C251.132 430.984 250.028 430.712 248.524 430.712ZM263.295 432.92C264.863 432.92 266.023 433.264 266.775 433.952C267.527 434.64 267.903 435.736 267.903 437.24V446H266.367L265.959 444.176H265.863C265.303 444.88 264.711 445.4 264.087 445.736C263.463 446.072 262.615 446.24 261.543 446.24C260.375 446.24 259.407 445.936 258.639 445.328C257.871 444.704 257.487 443.736 257.487 442.424C257.487 441.144 257.991 440.16 258.999 439.472C260.007 438.768 261.559 438.384 263.655 438.32L265.839 438.248V437.48C265.839 436.408 265.607 435.664 265.143 435.248C264.679 434.832 264.023 434.624 263.175 434.624C262.503 434.624 261.863 434.728 261.255 434.936C260.647 435.128 260.079 435.352 259.551 435.608L258.903 434.024C259.463 433.72 260.127 433.464 260.895 433.256C261.663 433.032 262.463 432.92 263.295 432.92ZM265.815 439.712L263.919 439.784C262.319 439.848 261.207 440.104 260.583 440.552C259.975 441 259.671 441.632 259.671 442.448C259.671 443.168 259.887 443.696 260.319 444.032C260.767 444.368 261.335 444.536 262.023 444.536C263.095 444.536 263.991 444.24 264.711 443.648C265.447 443.04 265.815 442.112 265.815 440.864V439.712ZM276.436 432.896C277.284 432.896 278.044 433.056 278.716 433.376C279.404 433.696 279.988 434.184 280.468 434.84H280.588L280.876 433.136H282.556V446.216C282.556 448.056 282.084 449.44 281.14 450.368C280.212 451.296 278.764 451.76 276.796 451.76C274.908 451.76 273.364 451.488 272.164 450.944V449C273.428 449.672 275.012 450.008 276.916 450.008C278.02 450.008 278.884 449.68 279.508 449.024C280.148 448.384 280.468 447.504 280.468 446.384V445.88C280.468 445.688 280.476 445.416 280.492 445.064C280.508 444.696 280.524 444.44 280.54 444.296H280.444C279.58 445.592 278.252 446.24 276.46 446.24C274.796 446.24 273.492 445.656 272.548 444.488C271.62 443.32 271.156 441.688 271.156 439.592C271.156 437.544 271.62 435.92 272.548 434.72C273.492 433.504 274.788 432.896 276.436 432.896ZM276.724 434.672C275.652 434.672 274.82 435.104 274.228 435.968C273.636 436.816 273.34 438.032 273.34 439.616C273.34 441.2 273.628 442.416 274.204 443.264C274.78 444.096 275.636 444.512 276.772 444.512C278.068 444.512 279.012 444.168 279.604 443.48C280.196 442.776 280.492 441.648 280.492 440.096V439.592C280.492 437.848 280.188 436.592 279.58 435.824C278.972 435.056 278.02 434.672 276.724 434.672ZM291.61 432.896C292.698 432.896 293.642 433.136 294.442 433.616C295.242 434.096 295.85 434.776 296.266 435.656C296.698 436.52 296.914 437.536 296.914 438.704V439.976H288.106C288.138 441.432 288.506 442.544 289.21 443.312C289.93 444.064 290.93 444.44 292.21 444.44C293.026 444.44 293.746 444.368 294.37 444.224C295.01 444.064 295.666 443.84 296.338 443.552V445.4C295.682 445.688 295.034 445.896 294.394 446.024C293.754 446.168 292.994 446.24 292.114 446.24C290.882 446.24 289.802 445.992 288.874 445.496C287.946 445 287.218 444.264 286.69 443.288C286.178 442.312 285.922 441.104 285.922 439.664C285.922 438.256 286.154 437.048 286.618 436.04C287.098 435.032 287.762 434.256 288.61 433.712C289.474 433.168 290.474 432.896 291.61 432.896ZM291.586 434.624C290.578 434.624 289.778 434.952 289.186 435.608C288.61 436.248 288.266 437.144 288.154 438.296H294.706C294.69 437.208 294.434 436.328 293.938 435.656C293.442 434.968 292.658 434.624 291.586 434.624ZM232.683 461.864C232.459 462.792 232.227 463.8 231.987 464.888C231.763 465.96 231.595 466.912 231.483 467.744H229.203L229.035 467.48C229.243 466.648 229.539 465.72 229.923 464.696C230.323 463.672 230.723 462.728 231.123 461.864H232.683ZM228.243 461.864C228.019 462.792 227.795 463.8 227.571 464.888C227.347 465.96 227.171 466.912 227.043 467.744H224.787L224.643 467.48C224.867 466.648 225.163 465.72 225.531 464.696C225.915 463.672 226.307 462.728 226.707 461.864H228.243ZM241.668 461.864L235.284 479H233.22L239.604 461.864H241.668ZM246.062 460.76V466.112C246.062 466.752 246.022 467.352 245.942 467.912H246.086C246.502 467.256 247.062 466.76 247.766 466.424C248.486 466.088 249.262 465.92 250.094 465.92C251.646 465.92 252.814 466.296 253.598 467.048C254.398 467.784 254.798 468.976 254.798 470.624V479H252.71V470.768C252.71 468.704 251.75 467.672 249.83 467.672C248.39 467.672 247.398 468.08 246.854 468.896C246.326 469.696 246.062 470.848 246.062 472.352V479H243.95V460.76H246.062ZM269.97 472.544C269.97 474.672 269.426 476.32 268.338 477.488C267.266 478.656 265.81 479.24 263.97 479.24C262.834 479.24 261.818 478.984 260.922 478.472C260.042 477.944 259.346 477.184 258.834 476.192C258.322 475.184 258.066 473.968 258.066 472.544C258.066 470.416 258.594 468.776 259.65 467.624C260.722 466.472 262.186 465.896 264.042 465.896C265.194 465.896 266.218 466.16 267.114 466.688C268.01 467.2 268.706 467.952 269.202 468.944C269.714 469.92 269.97 471.12 269.97 472.544ZM260.25 472.544C260.25 474.064 260.546 475.272 261.138 476.168C261.746 477.048 262.706 477.488 264.018 477.488C265.314 477.488 266.266 477.048 266.874 476.168C267.482 475.272 267.786 474.064 267.786 472.544C267.786 471.024 267.482 469.832 266.874 468.968C266.266 468.104 265.306 467.672 263.994 467.672C262.682 467.672 261.73 468.104 261.138 468.968C260.546 469.832 260.25 471.024 260.25 472.544ZM287.429 465.896C288.885 465.896 289.973 466.272 290.693 467.024C291.413 467.776 291.773 468.976 291.773 470.624V479H289.685V470.72C289.685 468.688 288.813 467.672 287.069 467.672C285.821 467.672 284.925 468.032 284.381 468.752C283.853 469.472 283.589 470.52 283.589 471.896V479H281.501V470.72C281.501 468.688 280.621 467.672 278.861 467.672C277.565 467.672 276.669 468.072 276.173 468.872C275.677 469.672 275.429 470.824 275.429 472.328V479H273.317V466.136H275.021L275.333 467.888H275.453C275.853 467.216 276.389 466.72 277.061 466.4C277.749 466.064 278.477 465.896 279.245 465.896C281.261 465.896 282.573 466.616 283.181 468.056H283.301C283.733 467.32 284.317 466.776 285.053 466.424C285.789 466.072 286.581 465.896 287.429 465.896ZM300.715 465.896C301.803 465.896 302.747 466.136 303.547 466.616C304.347 467.096 304.955 467.776 305.371 468.656C305.803 469.52 306.019 470.536 306.019 471.704V472.976H297.211C297.243 474.432 297.611 475.544 298.315 476.312C299.035 477.064 300.035 477.44 301.315 477.44C302.131 477.44 302.851 477.368 303.475 477.224C304.115 477.064 304.771 476.84 305.443 476.552V478.4C304.787 478.688 304.139 478.896 303.499 479.024C302.859 479.168 302.099 479.24 301.219 479.24C299.987 479.24 298.907 478.992 297.979 478.496C297.051 478 296.323 477.264 295.795 476.288C295.283 475.312 295.027 474.104 295.027 472.664C295.027 471.256 295.259 470.048 295.723 469.04C296.203 468.032 296.867 467.256 297.715 466.712C298.579 466.168 299.579 465.896 300.715 465.896ZM300.691 467.624C299.683 467.624 298.883 467.952 298.291 468.608C297.715 469.248 297.371 470.144 297.259 471.296H303.811C303.795 470.208 303.539 469.328 303.043 468.656C302.547 467.968 301.763 467.624 300.691 467.624ZM315.18 461.864L315.348 462.128C315.14 462.976 314.836 463.912 314.436 464.936C314.052 465.96 313.668 466.896 313.284 467.744H311.7C311.844 467.152 311.996 466.504 312.156 465.8C312.316 465.096 312.46 464.408 312.588 463.736C312.732 463.048 312.844 462.424 312.924 461.864H315.18ZM310.74 461.864L310.908 462.128C310.684 462.976 310.38 463.912 309.996 464.936C309.612 465.96 309.228 466.896 308.844 467.744H307.308C307.468 467.152 307.62 466.504 307.764 465.8C307.908 465.096 308.044 464.408 308.172 463.736C308.3 463.048 308.404 462.424 308.484 461.864H310.74Z" fill="black"/>
<path d="M433.001 284.864C435.241 284.864 436.873 285.304 437.897 286.184C438.921 287.064 439.433 288.304 439.433 289.904C439.433 290.848 439.217 291.736 438.785 292.568C438.369 293.384 437.657 294.048 436.649 294.56C435.657 295.072 434.305 295.328 432.593 295.328H430.625V302H428.465V284.864H433.001ZM432.809 286.712H430.625V293.48H432.353C433.985 293.48 435.201 293.216 436.001 292.688C436.801 292.16 437.201 291.264 437.201 290C437.201 288.896 436.841 288.072 436.121 287.528C435.417 286.984 434.313 286.712 432.809 286.712ZM447.58 288.92C449.148 288.92 450.308 289.264 451.06 289.952C451.812 290.64 452.188 291.736 452.188 293.24V302H450.652L450.244 300.176H450.148C449.588 300.88 448.996 301.4 448.372 301.736C447.748 302.072 446.9 302.24 445.828 302.24C444.66 302.24 443.692 301.936 442.924 301.328C442.156 300.704 441.772 299.736 441.772 298.424C441.772 297.144 442.276 296.16 443.284 295.472C444.292 294.768 445.844 294.384 447.94 294.32L450.124 294.248V293.48C450.124 292.408 449.892 291.664 449.428 291.248C448.964 290.832 448.308 290.624 447.46 290.624C446.788 290.624 446.148 290.728 445.54 290.936C444.932 291.128 444.364 291.352 443.836 291.608L443.188 290.024C443.748 289.72 444.412 289.464 445.18 289.256C445.948 289.032 446.748 288.92 447.58 288.92ZM450.1 295.712L448.204 295.784C446.604 295.848 445.492 296.104 444.868 296.552C444.26 297 443.956 297.632 443.956 298.448C443.956 299.168 444.172 299.696 444.604 300.032C445.052 300.368 445.62 300.536 446.308 300.536C447.38 300.536 448.276 300.24 448.996 299.648C449.732 299.04 450.1 298.112 450.1 296.864V295.712ZM460.721 288.896C461.569 288.896 462.329 289.056 463.001 289.376C463.689 289.696 464.273 290.184 464.753 290.84H464.873L465.161 289.136H466.841V302.216C466.841 304.056 466.369 305.44 465.425 306.368C464.497 307.296 463.049 307.76 461.081 307.76C459.193 307.76 457.649 307.488 456.449 306.944V305C457.713 305.672 459.297 306.008 461.201 306.008C462.305 306.008 463.169 305.68 463.793 305.024C464.433 304.384 464.753 303.504 464.753 302.384V301.88C464.753 301.688 464.761 301.416 464.777 301.064C464.793 300.696 464.809 300.44 464.825 300.296H464.729C463.865 301.592 462.537 302.24 460.745 302.24C459.081 302.24 457.777 301.656 456.833 300.488C455.905 299.32 455.441 297.688 455.441 295.592C455.441 293.544 455.905 291.92 456.833 290.72C457.777 289.504 459.073 288.896 460.721 288.896ZM461.009 290.672C459.937 290.672 459.105 291.104 458.513 291.968C457.921 292.816 457.625 294.032 457.625 295.616C457.625 297.2 457.913 298.416 458.489 299.264C459.065 300.096 459.921 300.512 461.057 300.512C462.353 300.512 463.297 300.168 463.889 299.48C464.481 298.776 464.777 297.648 464.777 296.096V295.592C464.777 293.848 464.473 292.592 463.865 291.824C463.257 291.056 462.305 290.672 461.009 290.672ZM475.895 288.896C476.983 288.896 477.927 289.136 478.727 289.616C479.527 290.096 480.135 290.776 480.551 291.656C480.983 292.52 481.199 293.536 481.199 294.704V295.976H472.391C472.423 297.432 472.791 298.544 473.495 299.312C474.215 300.064 475.215 300.44 476.495 300.44C477.311 300.44 478.031 300.368 478.655 300.224C479.295 300.064 479.951 299.84 480.623 299.552V301.4C479.967 301.688 479.319 301.896 478.679 302.024C478.039 302.168 477.279 302.24 476.399 302.24C475.167 302.24 474.087 301.992 473.159 301.496C472.231 301 471.503 300.264 470.975 299.288C470.463 298.312 470.207 297.104 470.207 295.664C470.207 294.256 470.439 293.048 470.903 292.04C471.383 291.032 472.047 290.256 472.895 289.712C473.759 289.168 474.759 288.896 475.895 288.896ZM475.871 290.624C474.863 290.624 474.063 290.952 473.471 291.608C472.895 292.248 472.551 293.144 472.439 294.296H478.991C478.975 293.208 478.719 292.328 478.223 291.656C477.727 290.968 476.943 290.624 475.871 290.624ZM489.49 284.864C491.618 284.864 493.186 285.272 494.194 286.088C495.218 286.888 495.73 288.104 495.73 289.736C495.73 290.648 495.562 291.408 495.226 292.016C494.89 292.624 494.458 293.112 493.93 293.48C493.418 293.848 492.874 294.128 492.298 294.32L497.002 302H494.482L490.33 294.92H486.922V302H484.762V284.864H489.49ZM489.37 286.736H486.922V293.096H489.49C490.882 293.096 491.898 292.824 492.538 292.28C493.178 291.72 493.498 290.904 493.498 289.832C493.498 288.712 493.162 287.92 492.49 287.456C491.818 286.976 490.778 286.736 489.37 286.736ZM510.587 295.544C510.587 297.672 510.043 299.32 508.955 300.488C507.883 301.656 506.427 302.24 504.587 302.24C503.451 302.24 502.435 301.984 501.539 301.472C500.659 300.944 499.963 300.184 499.451 299.192C498.939 298.184 498.683 296.968 498.683 295.544C498.683 293.416 499.211 291.776 500.267 290.624C501.339 289.472 502.803 288.896 504.659 288.896C505.811 288.896 506.835 289.16 507.731 289.688C508.627 290.2 509.323 290.952 509.819 291.944C510.331 292.92 510.587 294.12 510.587 295.544ZM500.867 295.544C500.867 297.064 501.163 298.272 501.755 299.168C502.363 300.048 503.323 300.488 504.635 300.488C505.931 300.488 506.883 300.048 507.491 299.168C508.099 298.272 508.403 297.064 508.403 295.544C508.403 294.024 508.099 292.832 507.491 291.968C506.883 291.104 505.923 290.672 504.611 290.672C503.299 290.672 502.347 291.104 501.755 291.968C501.163 292.832 500.867 294.024 500.867 295.544ZM524.687 289.136V302H522.959L522.647 300.296H522.551C522.135 300.968 521.559 301.464 520.823 301.784C520.087 302.088 519.303 302.24 518.471 302.24C516.919 302.24 515.751 301.872 514.967 301.136C514.183 300.384 513.791 299.192 513.791 297.56V289.136H515.927V297.416C515.927 299.464 516.879 300.488 518.783 300.488C520.207 300.488 521.191 300.088 521.735 299.288C522.295 298.488 522.575 297.336 522.575 295.832V289.136H524.687ZM533.066 300.512C533.386 300.512 533.714 300.488 534.05 300.44C534.386 300.392 534.658 300.328 534.866 300.248V301.856C534.642 301.968 534.322 302.056 533.906 302.12C533.49 302.2 533.09 302.24 532.706 302.24C532.034 302.24 531.41 302.128 530.834 301.904C530.274 301.664 529.818 301.256 529.466 300.68C529.114 300.104 528.938 299.296 528.938 298.256V290.768H527.114V289.76L528.962 288.92L529.802 286.184H531.05V289.136H534.77V290.768H531.05V298.208C531.05 298.992 531.234 299.576 531.602 299.96C531.986 300.328 532.474 300.512 533.066 300.512ZM542.41 288.896C543.498 288.896 544.442 289.136 545.242 289.616C546.042 290.096 546.65 290.776 547.066 291.656C547.498 292.52 547.714 293.536 547.714 294.704V295.976H538.906C538.938 297.432 539.306 298.544 540.01 299.312C540.73 300.064 541.73 300.44 543.01 300.44C543.826 300.44 544.546 300.368 545.17 300.224C545.81 300.064 546.466 299.84 547.138 299.552V301.4C546.482 301.688 545.834 301.896 545.194 302.024C544.554 302.168 543.794 302.24 542.914 302.24C541.682 302.24 540.602 301.992 539.674 301.496C538.746 301 538.018 300.264 537.49 299.288C536.978 298.312 536.722 297.104 536.722 295.664C536.722 294.256 536.954 293.048 537.418 292.04C537.898 291.032 538.562 290.256 539.41 289.712C540.274 289.168 541.274 288.896 542.41 288.896ZM542.386 290.624C541.378 290.624 540.578 290.952 539.986 291.608C539.41 292.248 539.066 293.144 538.954 294.296H545.506C545.49 293.208 545.234 292.328 544.738 291.656C544.242 290.968 543.458 290.624 542.386 290.624ZM556.989 288.896C557.229 288.896 557.485 288.912 557.757 288.944C558.029 288.96 558.277 288.992 558.501 289.04L558.237 290.984C558.029 290.936 557.797 290.896 557.541 290.864C557.285 290.832 557.053 290.816 556.845 290.816C556.189 290.816 555.573 291 554.997 291.368C554.421 291.72 553.957 292.224 553.605 292.88C553.269 293.52 553.101 294.272 553.101 295.136V302H550.989V289.136H552.717L552.957 291.488H553.053C553.453 290.784 553.981 290.176 554.637 289.664C555.309 289.152 556.093 288.896 556.989 288.896ZM353.289 317.864C353.065 318.792 352.833 319.8 352.593 320.888C352.369 321.96 352.201 322.912 352.089 323.744H349.809L349.641 323.48C349.849 322.648 350.145 321.72 350.529 320.696C350.929 319.672 351.329 318.728 351.729 317.864H353.289ZM348.849 317.864C348.625 318.792 348.401 319.8 348.177 320.888C347.953 321.96 347.777 322.912 347.649 323.744H345.393L345.249 323.48C345.473 322.648 345.769 321.72 346.137 320.696C346.521 319.672 346.913 318.728 347.313 317.864H348.849ZM362.274 317.864L355.89 335H353.826L360.21 317.864H362.274ZM366.668 316.76V322.112C366.668 322.752 366.628 323.352 366.548 323.912H366.692C367.108 323.256 367.668 322.76 368.372 322.424C369.092 322.088 369.868 321.92 370.7 321.92C372.252 321.92 373.42 322.296 374.204 323.048C375.004 323.784 375.404 324.976 375.404 326.624V335H373.316V326.768C373.316 324.704 372.356 323.672 370.436 323.672C368.996 323.672 368.004 324.08 367.46 324.896C366.932 325.696 366.668 326.848 366.668 328.352V335H364.556V316.76H366.668ZM390.576 328.544C390.576 330.672 390.032 332.32 388.944 333.488C387.872 334.656 386.416 335.24 384.576 335.24C383.44 335.24 382.424 334.984 381.528 334.472C380.648 333.944 379.952 333.184 379.44 332.192C378.928 331.184 378.672 329.968 378.672 328.544C378.672 326.416 379.2 324.776 380.256 323.624C381.328 322.472 382.792 321.896 384.648 321.896C385.8 321.896 386.824 322.16 387.72 322.688C388.616 323.2 389.312 323.952 389.808 324.944C390.32 325.92 390.576 327.12 390.576 328.544ZM380.856 328.544C380.856 330.064 381.152 331.272 381.744 332.168C382.352 333.048 383.312 333.488 384.624 333.488C385.92 333.488 386.872 333.048 387.48 332.168C388.088 331.272 388.392 330.064 388.392 328.544C388.392 327.024 388.088 325.832 387.48 324.968C386.872 324.104 385.912 323.672 384.6 323.672C383.288 323.672 382.336 324.104 381.744 324.968C381.152 325.832 380.856 327.024 380.856 328.544ZM408.035 321.896C409.491 321.896 410.579 322.272 411.299 323.024C412.019 323.776 412.379 324.976 412.379 326.624V335H410.291V326.72C410.291 324.688 409.419 323.672 407.675 323.672C406.427 323.672 405.531 324.032 404.987 324.752C404.459 325.472 404.195 326.52 404.195 327.896V335H402.107V326.72C402.107 324.688 401.227 323.672 399.467 323.672C398.171 323.672 397.275 324.072 396.779 324.872C396.283 325.672 396.035 326.824 396.035 328.328V335H393.923V322.136H395.627L395.939 323.888H396.059C396.459 323.216 396.995 322.72 397.667 322.4C398.355 322.064 399.083 321.896 399.851 321.896C401.867 321.896 403.179 322.616 403.787 324.056H403.907C404.339 323.32 404.923 322.776 405.659 322.424C406.395 322.072 407.187 321.896 408.035 321.896ZM421.321 321.896C422.409 321.896 423.353 322.136 424.153 322.616C424.953 323.096 425.561 323.776 425.977 324.656C426.409 325.52 426.625 326.536 426.625 327.704V328.976H417.817C417.849 330.432 418.217 331.544 418.921 332.312C419.641 333.064 420.641 333.44 421.921 333.44C422.737 333.44 423.457 333.368 424.081 333.224C424.721 333.064 425.377 332.84 426.049 332.552V334.4C425.393 334.688 424.745 334.896 424.105 335.024C423.465 335.168 422.705 335.24 421.825 335.24C420.593 335.24 419.513 334.992 418.585 334.496C417.657 334 416.929 333.264 416.401 332.288C415.889 331.312 415.633 330.104 415.633 328.664C415.633 327.256 415.865 326.048 416.329 325.04C416.809 324.032 417.473 323.256 418.321 322.712C419.185 322.168 420.185 321.896 421.321 321.896ZM421.297 323.624C420.289 323.624 419.489 323.952 418.897 324.608C418.321 325.248 417.977 326.144 417.865 327.296H424.417C424.401 326.208 424.145 325.328 423.649 324.656C423.153 323.968 422.369 323.624 421.297 323.624ZM435.785 317.864L435.953 318.128C435.745 318.976 435.441 319.912 435.041 320.936C434.657 321.96 434.273 322.896 433.889 323.744H432.305C432.449 323.152 432.601 322.504 432.761 321.8C432.921 321.096 433.065 320.408 433.193 319.736C433.337 319.048 433.449 318.424 433.529 317.864H435.785ZM431.345 317.864L431.513 318.128C431.289 318.976 430.985 319.912 430.601 320.936C430.217 321.96 429.833 322.896 429.449 323.744H427.913C428.073 323.152 428.225 322.504 428.369 321.8C428.513 321.096 428.649 320.408 428.777 319.736C428.905 319.048 429.009 318.424 429.089 317.864H431.345ZM443.684 330.344L452.732 326.576L443.684 322.28V320.408L454.988 326.048V327.248L443.684 332.216V330.344ZM470.781 317.864C470.557 318.792 470.325 319.8 470.085 320.888C469.861 321.96 469.693 322.912 469.581 323.744H467.301L467.133 323.48C467.341 322.648 467.637 321.72 468.021 320.696C468.421 319.672 468.821 318.728 469.221 317.864H470.781ZM466.341 317.864C466.117 318.792 465.893 319.8 465.669 320.888C465.445 321.96 465.269 322.912 465.141 323.744H462.885L462.741 323.48C462.965 322.648 463.261 321.72 463.629 320.696C464.013 319.672 464.405 318.728 464.805 317.864H466.341ZM479.766 317.864L473.382 335H471.318L477.702 317.864H479.766ZM486.92 321.92C488.488 321.92 489.648 322.264 490.4 322.952C491.152 323.64 491.528 324.736 491.528 326.24V335H489.992L489.584 333.176H489.488C488.928 333.88 488.336 334.4 487.712 334.736C487.088 335.072 486.24 335.24 485.168 335.24C484 335.24 483.032 334.936 482.264 334.328C481.496 333.704 481.112 332.736 481.112 331.424C481.112 330.144 481.616 329.16 482.624 328.472C483.632 327.768 485.184 327.384 487.28 327.32L489.464 327.248V326.48C489.464 325.408 489.232 324.664 488.768 324.248C488.304 323.832 487.648 323.624 486.8 323.624C486.128 323.624 485.488 323.728 484.88 323.936C484.272 324.128 483.704 324.352 483.176 324.608L482.528 323.024C483.088 322.72 483.752 322.464 484.52 322.256C485.288 322.032 486.088 321.92 486.92 321.92ZM489.44 328.712L487.544 328.784C485.944 328.848 484.832 329.104 484.208 329.552C483.6 330 483.296 330.632 483.296 331.448C483.296 332.168 483.512 332.696 483.944 333.032C484.392 333.368 484.96 333.536 485.648 333.536C486.72 333.536 487.616 333.24 488.336 332.648C489.072 332.04 489.44 331.112 489.44 329.864V328.712ZM501.621 321.896C503.205 321.896 504.477 322.448 505.437 323.552C506.413 324.656 506.901 326.32 506.901 328.544C506.901 330.736 506.413 332.4 505.437 333.536C504.477 334.672 503.197 335.24 501.597 335.24C500.605 335.24 499.781 335.056 499.125 334.688C498.485 334.32 497.981 333.88 497.613 333.368H497.469C497.485 333.64 497.509 333.984 497.541 334.4C497.589 334.816 497.613 335.176 497.613 335.48V340.76H495.501V322.136H497.229L497.517 323.888H497.613C497.997 323.328 498.501 322.856 499.125 322.472C499.749 322.088 500.581 321.896 501.621 321.896ZM501.237 323.672C499.925 323.672 498.997 324.04 498.453 324.776C497.909 325.512 497.629 326.632 497.613 328.136V328.544C497.613 330.128 497.869 331.352 498.381 332.216C498.909 333.064 499.877 333.488 501.285 333.488C502.053 333.488 502.693 333.28 503.205 332.864C503.717 332.432 504.093 331.84 504.333 331.088C504.589 330.336 504.717 329.48 504.717 328.52C504.717 327.048 504.429 325.872 503.853 324.992C503.293 324.112 502.421 323.672 501.237 323.672ZM516.387 321.896C517.971 321.896 519.243 322.448 520.203 323.552C521.179 324.656 521.667 326.32 521.667 328.544C521.667 330.736 521.179 332.4 520.203 333.536C519.243 334.672 517.963 335.24 516.363 335.24C515.371 335.24 514.547 335.056 513.891 334.688C513.251 334.32 512.747 333.88 512.379 333.368H512.235C512.251 333.64 512.275 333.984 512.307 334.4C512.355 334.816 512.379 335.176 512.379 335.48V340.76H510.267V322.136H511.995L512.283 323.888H512.379C512.763 323.328 513.267 322.856 513.891 322.472C514.515 322.088 515.347 321.896 516.387 321.896ZM516.003 323.672C514.691 323.672 513.763 324.04 513.219 324.776C512.675 325.512 512.395 326.632 512.379 328.136V328.544C512.379 330.128 512.635 331.352 513.147 332.216C513.675 333.064 514.643 333.488 516.051 333.488C516.819 333.488 517.459 333.28 517.971 332.864C518.483 332.432 518.859 331.84 519.099 331.088C519.355 330.336 519.483 329.48 519.483 328.52C519.483 327.048 519.195 325.872 518.619 324.992C518.059 324.112 517.187 323.672 516.003 323.672ZM530.918 317.864L531.086 318.128C530.878 318.976 530.574 319.912 530.174 320.936C529.79 321.96 529.406 322.896 529.022 323.744H527.438C527.582 323.152 527.734 322.504 527.894 321.8C528.054 321.096 528.198 320.408 528.326 319.736C528.47 319.048 528.582 318.424 528.662 317.864H530.918ZM526.478 317.864L526.646 318.128C526.422 318.976 526.118 319.912 525.734 320.936C525.35 321.96 524.966 322.896 524.582 323.744H523.046C523.206 323.152 523.358 322.504 523.502 321.8C523.646 321.096 523.782 320.408 523.91 319.736C524.038 319.048 524.142 318.424 524.222 317.864H526.478ZM538.817 330.344L547.865 326.576L538.817 322.28V320.408L550.121 326.048V327.248L538.817 332.216V330.344ZM565.914 317.864C565.69 318.792 565.458 319.8 565.218 320.888C564.994 321.96 564.826 322.912 564.714 323.744H562.434L562.266 323.48C562.474 322.648 562.77 321.72 563.154 320.696C563.554 319.672 563.954 318.728 564.354 317.864H565.914ZM561.474 317.864C561.25 318.792 561.026 319.8 560.802 320.888C560.578 321.96 560.402 322.912 560.274 323.744H558.018L557.874 323.48C558.098 322.648 558.394 321.72 558.762 320.696C559.146 319.672 559.538 318.728 559.938 317.864H561.474ZM574.899 317.864L568.515 335H566.451L572.835 317.864H574.899ZM579.293 335H577.181V316.76H579.293V335ZM594.552 328.544C594.552 330.672 594.008 332.32 592.92 333.488C591.848 334.656 590.392 335.24 588.552 335.24C587.416 335.24 586.4 334.984 585.504 334.472C584.624 333.944 583.928 333.184 583.416 332.192C582.904 331.184 582.648 329.968 582.648 328.544C582.648 326.416 583.176 324.776 584.232 323.624C585.304 322.472 586.768 321.896 588.624 321.896C589.776 321.896 590.8 322.16 591.696 322.688C592.592 323.2 593.288 323.952 593.784 324.944C594.296 325.92 594.552 327.12 594.552 328.544ZM584.832 328.544C584.832 330.064 585.128 331.272 585.72 332.168C586.328 333.048 587.288 333.488 588.6 333.488C589.896 333.488 590.848 333.048 591.456 332.168C592.064 331.272 592.368 330.064 592.368 328.544C592.368 327.024 592.064 325.832 591.456 324.968C590.848 324.104 589.888 323.672 588.576 323.672C587.264 323.672 586.312 324.104 585.72 324.968C585.128 325.832 584.832 327.024 584.832 328.544ZM602.459 321.896C603.307 321.896 604.067 322.056 604.739 322.376C605.427 322.696 606.011 323.184 606.491 323.84H606.611L606.899 322.136H608.579V335.216C608.579 337.056 608.107 338.44 607.163 339.368C606.235 340.296 604.787 340.76 602.819 340.76C600.931 340.76 599.387 340.488 598.187 339.944V338C599.451 338.672 601.035 339.008 602.939 339.008C604.043 339.008 604.907 338.68 605.531 338.024C606.171 337.384 606.491 336.504 606.491 335.384V334.88C606.491 334.688 606.499 334.416 606.515 334.064C606.531 333.696 606.547 333.44 606.563 333.296H606.467C605.603 334.592 604.275 335.24 602.483 335.24C600.819 335.24 599.515 334.656 598.571 333.488C597.643 332.32 597.179 330.688 597.179 328.592C597.179 326.544 597.643 324.92 598.571 323.72C599.515 322.504 600.811 321.896 602.459 321.896ZM602.747 323.672C601.675 323.672 600.843 324.104 600.251 324.968C599.659 325.816 599.363 327.032 599.363 328.616C599.363 330.2 599.651 331.416 600.227 332.264C600.803 333.096 601.659 333.512 602.795 333.512C604.091 333.512 605.035 333.168 605.627 332.48C606.219 331.776 606.515 330.648 606.515 329.096V328.592C606.515 326.848 606.211 325.592 605.603 324.824C604.995 324.056 604.043 323.672 602.747 323.672ZM613.745 317.312C614.065 317.312 614.345 317.424 614.585 317.648C614.841 317.856 614.969 318.192 614.969 318.656C614.969 319.12 614.841 319.464 614.585 319.688C614.345 319.896 614.065 320 613.745 320C613.393 320 613.097 319.896 612.857 319.688C612.617 319.464 612.497 319.12 612.497 318.656C612.497 318.192 612.617 317.856 612.857 317.648C613.097 317.424 613.393 317.312 613.745 317.312ZM614.777 322.136V335H612.665V322.136H614.777ZM625.045 321.896C626.581 321.896 627.741 322.272 628.525 323.024C629.309 323.776 629.701 324.976 629.701 326.624V335H627.613V326.768C627.613 324.704 626.653 323.672 624.733 323.672C623.309 323.672 622.325 324.072 621.781 324.872C621.237 325.672 620.965 326.824 620.965 328.328V335H618.853V322.136H620.557L620.869 323.888H620.989C621.405 323.216 621.981 322.72 622.717 322.4C623.453 322.064 624.229 321.896 625.045 321.896ZM639.574 317.864L639.742 318.128C639.534 318.976 639.23 319.912 638.83 320.936C638.446 321.96 638.062 322.896 637.678 323.744H636.094C636.238 323.152 636.39 322.504 636.55 321.8C636.71 321.096 636.854 320.408 636.982 319.736C637.126 319.048 637.238 318.424 637.318 317.864H639.574ZM635.134 317.864L635.302 318.128C635.078 318.976 634.774 319.912 634.39 320.936C634.006 321.96 633.622 322.896 633.238 323.744H631.702C631.862 323.152 632.014 322.504 632.158 321.8C632.302 321.096 632.438 320.408 632.566 319.736C632.694 319.048 632.798 318.424 632.878 317.864H635.134Z" fill="black"/>
<rect x="81" y="2" width="182" height="182" rx="8" fill="#D1D5D9" stroke="#393C3F" stroke-width="4"/>
<path d="M117.458 67.864C119.698 67.864 121.33 68.304 122.354 69.184C123.378 70.064 123.89 71.304 123.89 72.904C123.89 73.848 123.674 74.736 123.242 75.568C122.826 76.384 122.114 77.048 121.106 77.56C120.114 78.072 118.762 78.328 117.05 78.328H115.082V85H112.922V67.864H117.458ZM117.266 69.712H115.082V76.48H116.81C118.442 76.48 119.658 76.216 120.458 75.688C121.258 75.16 121.658 74.264 121.658 73C121.658 71.896 121.298 71.072 120.578 70.528C119.874 69.984 118.77 69.712 117.266 69.712ZM132.037 71.92C133.605 71.92 134.765 72.264 135.517 72.952C136.269 73.64 136.645 74.736 136.645 76.24V85H135.109L134.701 83.176H134.605C134.045 83.88 133.453 84.4 132.829 84.736C132.205 85.072 131.357 85.24 130.285 85.24C129.117 85.24 128.149 84.936 127.381 84.328C126.613 83.704 126.229 82.736 126.229 81.424C126.229 80.144 126.733 79.16 127.741 78.472C128.749 77.768 130.301 77.384 132.397 77.32L134.581 77.248V76.48C134.581 75.408 134.349 74.664 133.885 74.248C133.421 73.832 132.765 73.624 131.917 73.624C131.245 73.624 130.605 73.728 129.997 73.936C129.389 74.128 128.821 74.352 128.293 74.608L127.645 73.024C128.205 72.72 128.869 72.464 129.637 72.256C130.405 72.032 131.205 71.92 132.037 71.92ZM134.557 78.712L132.661 78.784C131.061 78.848 129.949 79.104 129.325 79.552C128.717 80 128.413 80.632 128.413 81.448C128.413 82.168 128.629 82.696 129.061 83.032C129.509 83.368 130.077 83.536 130.765 83.536C131.837 83.536 132.733 83.24 133.453 82.648C134.189 82.04 134.557 81.112 134.557 79.864V78.712ZM145.178 71.896C146.026 71.896 146.786 72.056 147.458 72.376C148.146 72.696 148.73 73.184 149.21 73.84H149.33L149.618 72.136H151.298V85.216C151.298 87.056 150.826 88.44 149.882 89.368C148.954 90.296 147.506 90.76 145.538 90.76C143.65 90.76 142.106 90.488 140.906 89.944V88C142.17 88.672 143.754 89.008 145.658 89.008C146.762 89.008 147.626 88.68 148.25 88.024C148.89 87.384 149.21 86.504 149.21 85.384V84.88C149.21 84.688 149.218 84.416 149.234 84.064C149.25 83.696 149.266 83.44 149.282 83.296H149.186C148.322 84.592 146.994 85.24 145.202 85.24C143.538 85.24 142.234 84.656 141.29 83.488C140.362 82.32 139.898 80.688 139.898 78.592C139.898 76.544 140.362 74.92 141.29 73.72C142.234 72.504 143.53 71.896 145.178 71.896ZM145.466 73.672C144.394 73.672 143.562 74.104 142.97 74.968C142.378 75.816 142.082 77.032 142.082 78.616C142.082 80.2 142.37 81.416 142.946 82.264C143.522 83.096 144.378 83.512 145.514 83.512C146.81 83.512 147.754 83.168 148.346 82.48C148.938 81.776 149.234 80.648 149.234 79.096V78.592C149.234 76.848 148.93 75.592 148.322 74.824C147.714 74.056 146.762 73.672 145.466 73.672ZM160.352 71.896C161.44 71.896 162.384 72.136 163.184 72.616C163.984 73.096 164.592 73.776 165.008 74.656C165.44 75.52 165.656 76.536 165.656 77.704V78.976H156.848C156.88 80.432 157.248 81.544 157.952 82.312C158.672 83.064 159.672 83.44 160.952 83.44C161.768 83.44 162.488 83.368 163.112 83.224C163.752 83.064 164.408 82.84 165.08 82.552V84.4C164.424 84.688 163.776 84.896 163.136 85.024C162.496 85.168 161.736 85.24 160.856 85.24C159.624 85.24 158.544 84.992 157.616 84.496C156.688 84 155.96 83.264 155.432 82.288C154.92 81.312 154.664 80.104 154.664 78.664C154.664 77.256 154.896 76.048 155.36 75.04C155.84 74.032 156.504 73.256 157.352 72.712C158.216 72.168 159.216 71.896 160.352 71.896ZM160.328 73.624C159.32 73.624 158.52 73.952 157.928 74.608C157.352 75.248 157.008 76.144 156.896 77.296H163.448C163.432 76.208 163.176 75.328 162.68 74.656C162.184 73.968 161.4 73.624 160.328 73.624ZM173.947 67.864C176.075 67.864 177.643 68.272 178.651 69.088C179.675 69.888 180.187 71.104 180.187 72.736C180.187 73.648 180.019 74.408 179.683 75.016C179.347 75.624 178.915 76.112 178.387 76.48C177.875 76.848 177.331 77.128 176.755 77.32L181.459 85H178.939L174.787 77.92H171.379V85H169.219V67.864H173.947ZM173.827 69.736H171.379V76.096H173.947C175.339 76.096 176.355 75.824 176.995 75.28C177.635 74.72 177.955 73.904 177.955 72.832C177.955 71.712 177.619 70.92 176.947 70.456C176.275 69.976 175.235 69.736 173.827 69.736ZM195.044 78.544C195.044 80.672 194.5 82.32 193.412 83.488C192.34 84.656 190.884 85.24 189.044 85.24C187.908 85.24 186.892 84.984 185.996 84.472C185.116 83.944 184.42 83.184 183.908 82.192C183.396 81.184 183.14 79.968 183.14 78.544C183.14 76.416 183.668 74.776 184.724 73.624C185.796 72.472 187.26 71.896 189.116 71.896C190.268 71.896 191.292 72.16 192.188 72.688C193.084 73.2 193.78 73.952 194.276 74.944C194.788 75.92 195.044 77.12 195.044 78.544ZM185.324 78.544C185.324 80.064 185.62 81.272 186.212 82.168C186.82 83.048 187.78 83.488 189.092 83.488C190.388 83.488 191.34 83.048 191.948 82.168C192.556 81.272 192.86 80.064 192.86 78.544C192.86 77.024 192.556 75.832 191.948 74.968C191.34 74.104 190.38 73.672 189.068 73.672C187.756 73.672 186.804 74.104 186.212 74.968C185.62 75.832 185.324 77.024 185.324 78.544ZM209.144 72.136V85H207.416L207.104 83.296H207.008C206.592 83.968 206.016 84.464 205.28 84.784C204.544 85.088 203.76 85.24 202.928 85.24C201.376 85.24 200.208 84.872 199.424 84.136C198.64 83.384 198.248 82.192 198.248 80.56V72.136H200.384V80.416C200.384 82.464 201.336 83.488 203.24 83.488C204.664 83.488 205.648 83.088 206.192 82.288C206.752 81.488 207.032 80.336 207.032 78.832V72.136H209.144ZM217.523 83.512C217.844 83.512 218.172 83.488 218.508 83.44C218.844 83.392 219.116 83.328 219.324 83.248V84.856C219.1 84.968 218.78 85.056 218.364 85.12C217.948 85.2 217.548 85.24 217.164 85.24C216.492 85.24 215.868 85.128 215.292 84.904C214.732 84.664 214.276 84.256 213.924 83.68C213.572 83.104 213.396 82.296 213.396 81.256V73.768H211.572V72.76L213.42 71.92L214.26 69.184H215.508V72.136H219.228V73.768H215.508V81.208C215.508 81.992 215.692 82.576 216.06 82.96C216.444 83.328 216.932 83.512 217.523 83.512ZM226.867 71.896C227.955 71.896 228.899 72.136 229.699 72.616C230.499 73.096 231.107 73.776 231.523 74.656C231.955 75.52 232.171 76.536 232.171 77.704V78.976H223.363C223.395 80.432 223.763 81.544 224.467 82.312C225.187 83.064 226.187 83.44 227.467 83.44C228.283 83.44 229.003 83.368 229.627 83.224C230.267 83.064 230.923 82.84 231.595 82.552V84.4C230.939 84.688 230.291 84.896 229.651 85.024C229.011 85.168 228.251 85.24 227.371 85.24C226.139 85.24 225.059 84.992 224.131 84.496C223.203 84 222.475 83.264 221.947 82.288C221.435 81.312 221.179 80.104 221.179 78.664C221.179 77.256 221.411 76.048 221.875 75.04C222.355 74.032 223.019 73.256 223.867 72.712C224.731 72.168 225.731 71.896 226.867 71.896ZM226.843 73.624C225.835 73.624 225.035 73.952 224.443 74.608C223.867 75.248 223.523 76.144 223.411 77.296H229.963C229.947 76.208 229.691 75.328 229.195 74.656C228.699 73.968 227.915 73.624 226.843 73.624ZM134.683 100.864C134.459 101.792 134.227 102.8 133.987 103.888C133.763 104.96 133.595 105.912 133.483 106.744H131.203L131.035 106.48C131.243 105.648 131.539 104.72 131.923 103.696C132.323 102.672 132.723 101.728 133.123 100.864H134.683ZM130.243 100.864C130.019 101.792 129.795 102.8 129.571 103.888C129.347 104.96 129.171 105.912 129.043 106.744H126.787L126.643 106.48C126.867 105.648 127.163 104.72 127.531 103.696C127.915 102.672 128.307 101.728 128.707 100.864H130.243ZM143.668 100.864L137.284 118H135.22L141.604 100.864H143.668ZM148.062 99.76V105.112C148.062 105.752 148.022 106.352 147.942 106.912H148.086C148.502 106.256 149.062 105.76 149.766 105.424C150.486 105.088 151.262 104.92 152.094 104.92C153.646 104.92 154.814 105.296 155.598 106.048C156.398 106.784 156.798 107.976 156.798 109.624V118H154.71V109.768C154.71 107.704 153.75 106.672 151.83 106.672C150.39 106.672 149.398 107.08 148.854 107.896C148.326 108.696 148.062 109.848 148.062 111.352V118H145.95V99.76H148.062ZM171.97 111.544C171.97 113.672 171.426 115.32 170.338 116.488C169.266 117.656 167.81 118.24 165.97 118.24C164.834 118.24 163.818 117.984 162.922 117.472C162.042 116.944 161.346 116.184 160.834 115.192C160.322 114.184 160.066 112.968 160.066 111.544C160.066 109.416 160.594 107.776 161.65 106.624C162.722 105.472 164.186 104.896 166.042 104.896C167.194 104.896 168.218 105.16 169.114 105.688C170.01 106.2 170.706 106.952 171.202 107.944C171.714 108.92 171.97 110.12 171.97 111.544ZM162.25 111.544C162.25 113.064 162.546 114.272 163.138 115.168C163.746 116.048 164.706 116.488 166.018 116.488C167.314 116.488 168.266 116.048 168.874 115.168C169.482 114.272 169.786 113.064 169.786 111.544C169.786 110.024 169.482 108.832 168.874 107.968C168.266 107.104 167.306 106.672 165.994 106.672C164.682 106.672 163.73 107.104 163.138 107.968C162.546 108.832 162.25 110.024 162.25 111.544ZM189.429 104.896C190.885 104.896 191.973 105.272 192.693 106.024C193.413 106.776 193.773 107.976 193.773 109.624V118H191.685V109.72C191.685 107.688 190.813 106.672 189.069 106.672C187.821 106.672 186.925 107.032 186.381 107.752C185.853 108.472 185.589 109.52 185.589 110.896V118H183.501V109.72C183.501 107.688 182.621 106.672 180.861 106.672C179.565 106.672 178.669 107.072 178.173 107.872C177.677 108.672 177.429 109.824 177.429 111.328V118H175.317V105.136H177.021L177.333 106.888H177.453C177.853 106.216 178.389 105.72 179.061 105.4C179.749 105.064 180.477 104.896 181.245 104.896C183.261 104.896 184.573 105.616 185.181 107.056H185.301C185.733 106.32 186.317 105.776 187.053 105.424C187.789 105.072 188.581 104.896 189.429 104.896ZM202.715 104.896C203.803 104.896 204.747 105.136 205.547 105.616C206.347 106.096 206.955 106.776 207.371 107.656C207.803 108.52 208.019 109.536 208.019 110.704V111.976H199.211C199.243 113.432 199.611 114.544 200.315 115.312C201.035 116.064 202.035 116.44 203.315 116.44C204.131 116.44 204.851 116.368 205.475 116.224C206.115 116.064 206.771 115.84 207.443 115.552V117.4C206.787 117.688 206.139 117.896 205.499 118.024C204.859 118.168 204.099 118.24 203.219 118.24C201.987 118.24 200.907 117.992 199.979 117.496C199.051 117 198.323 116.264 197.795 115.288C197.283 114.312 197.027 113.104 197.027 111.664C197.027 110.256 197.259 109.048 197.723 108.04C198.203 107.032 198.867 106.256 199.715 105.712C200.579 105.168 201.579 104.896 202.715 104.896ZM202.691 106.624C201.683 106.624 200.883 106.952 200.291 107.608C199.715 108.248 199.371 109.144 199.259 110.296H205.811C205.795 109.208 205.539 108.328 205.043 107.656C204.547 106.968 203.763 106.624 202.691 106.624ZM217.18 100.864L217.348 101.128C217.14 101.976 216.836 102.912 216.436 103.936C216.052 104.96 215.668 105.896 215.284 106.744H213.7C213.844 106.152 213.996 105.504 214.156 104.8C214.316 104.096 214.46 103.408 214.588 102.736C214.732 102.048 214.844 101.424 214.924 100.864H217.18ZM212.74 100.864L212.908 101.128C212.684 101.976 212.38 102.912 211.996 103.936C211.612 104.96 211.228 105.896 210.844 106.744H209.308C209.468 106.152 209.62 105.504 209.764 104.8C209.908 104.096 210.044 103.408 210.172 102.736C210.3 102.048 210.404 101.424 210.484 100.864H212.74Z" fill="black"/>
<rect x="295" y="2" width="182" height="182" rx="8" fill="#D1D5D9" stroke="#393C3F" stroke-width="4"/>
<path d="M331.458 67.864C333.698 67.864 335.33 68.304 336.354 69.184C337.378 70.064 337.89 71.304 337.89 72.904C337.89 73.848 337.674 74.736 337.242 75.568C336.826 76.384 336.114 77.048 335.106 77.56C334.114 78.072 332.762 78.328 331.05 78.328H329.082V85H326.922V67.864H331.458ZM331.266 69.712H329.082V76.48H330.81C332.442 76.48 333.658 76.216 334.458 75.688C335.258 75.16 335.658 74.264 335.658 73C335.658 71.896 335.298 71.072 334.578 70.528C333.874 69.984 332.77 69.712 331.266 69.712ZM346.037 71.92C347.605 71.92 348.765 72.264 349.517 72.952C350.269 73.64 350.645 74.736 350.645 76.24V85H349.109L348.701 83.176H348.605C348.045 83.88 347.453 84.4 346.829 84.736C346.205 85.072 345.357 85.24 344.285 85.24C343.117 85.24 342.149 84.936 341.381 84.328C340.613 83.704 340.229 82.736 340.229 81.424C340.229 80.144 340.733 79.16 341.741 78.472C342.749 77.768 344.301 77.384 346.397 77.32L348.581 77.248V76.48C348.581 75.408 348.349 74.664 347.885 74.248C347.421 73.832 346.765 73.624 345.917 73.624C345.245 73.624 344.605 73.728 343.997 73.936C343.389 74.128 342.821 74.352 342.293 74.608L341.645 73.024C342.205 72.72 342.869 72.464 343.637 72.256C344.405 72.032 345.205 71.92 346.037 71.92ZM348.557 78.712L346.661 78.784C345.061 78.848 343.949 79.104 343.325 79.552C342.717 80 342.413 80.632 342.413 81.448C342.413 82.168 342.629 82.696 343.061 83.032C343.509 83.368 344.077 83.536 344.765 83.536C345.837 83.536 346.733 83.24 347.453 82.648C348.189 82.04 348.557 81.112 348.557 79.864V78.712ZM359.178 71.896C360.026 71.896 360.786 72.056 361.458 72.376C362.146 72.696 362.73 73.184 363.21 73.84H363.33L363.618 72.136H365.298V85.216C365.298 87.056 364.826 88.44 363.882 89.368C362.954 90.296 361.506 90.76 359.538 90.76C357.65 90.76 356.106 90.488 354.906 89.944V88C356.17 88.672 357.754 89.008 359.658 89.008C360.762 89.008 361.626 88.68 362.25 88.024C362.89 87.384 363.21 86.504 363.21 85.384V84.88C363.21 84.688 363.218 84.416 363.234 84.064C363.25 83.696 363.266 83.44 363.282 83.296H363.186C362.322 84.592 360.994 85.24 359.202 85.24C357.538 85.24 356.234 84.656 355.29 83.488C354.362 82.32 353.898 80.688 353.898 78.592C353.898 76.544 354.362 74.92 355.29 73.72C356.234 72.504 357.53 71.896 359.178 71.896ZM359.466 73.672C358.394 73.672 357.562 74.104 356.97 74.968C356.378 75.816 356.082 77.032 356.082 78.616C356.082 80.2 356.37 81.416 356.946 82.264C357.522 83.096 358.378 83.512 359.514 83.512C360.81 83.512 361.754 83.168 362.346 82.48C362.938 81.776 363.234 80.648 363.234 79.096V78.592C363.234 76.848 362.93 75.592 362.322 74.824C361.714 74.056 360.762 73.672 359.466 73.672ZM374.352 71.896C375.44 71.896 376.384 72.136 377.184 72.616C377.984 73.096 378.592 73.776 379.008 74.656C379.44 75.52 379.656 76.536 379.656 77.704V78.976H370.848C370.88 80.432 371.248 81.544 371.952 82.312C372.672 83.064 373.672 83.44 374.952 83.44C375.768 83.44 376.488 83.368 377.112 83.224C377.752 83.064 378.408 82.84 379.08 82.552V84.4C378.424 84.688 377.776 84.896 377.136 85.024C376.496 85.168 375.736 85.24 374.856 85.24C373.624 85.24 372.544 84.992 371.616 84.496C370.688 84 369.96 83.264 369.432 82.288C368.92 81.312 368.664 80.104 368.664 78.664C368.664 77.256 368.896 76.048 369.36 75.04C369.84 74.032 370.504 73.256 371.352 72.712C372.216 72.168 373.216 71.896 374.352 71.896ZM374.328 73.624C373.32 73.624 372.52 73.952 371.928 74.608C371.352 75.248 371.008 76.144 370.896 77.296H377.448C377.432 76.208 377.176 75.328 376.68 74.656C376.184 73.968 375.4 73.624 374.328 73.624ZM387.947 67.864C390.075 67.864 391.643 68.272 392.651 69.088C393.675 69.888 394.187 71.104 394.187 72.736C394.187 73.648 394.019 74.408 393.683 75.016C393.347 75.624 392.915 76.112 392.387 76.48C391.875 76.848 391.331 77.128 390.755 77.32L395.459 85H392.939L388.787 77.92H385.379V85H383.219V67.864H387.947ZM387.827 69.736H385.379V76.096H387.947C389.339 76.096 390.355 75.824 390.995 75.28C391.635 74.72 391.955 73.904 391.955 72.832C391.955 71.712 391.619 70.92 390.947 70.456C390.275 69.976 389.235 69.736 387.827 69.736ZM409.044 78.544C409.044 80.672 408.5 82.32 407.412 83.488C406.34 84.656 404.884 85.24 403.044 85.24C401.908 85.24 400.892 84.984 399.996 84.472C399.116 83.944 398.42 83.184 397.908 82.192C397.396 81.184 397.14 79.968 397.14 78.544C397.14 76.416 397.668 74.776 398.724 73.624C399.796 72.472 401.26 71.896 403.116 71.896C404.268 71.896 405.292 72.16 406.188 72.688C407.084 73.2 407.78 73.952 408.276 74.944C408.788 75.92 409.044 77.12 409.044 78.544ZM399.324 78.544C399.324 80.064 399.62 81.272 400.212 82.168C400.82 83.048 401.78 83.488 403.092 83.488C404.388 83.488 405.34 83.048 405.948 82.168C406.556 81.272 406.86 80.064 406.86 78.544C406.86 77.024 406.556 75.832 405.948 74.968C405.34 74.104 404.38 73.672 403.068 73.672C401.756 73.672 400.804 74.104 400.212 74.968C399.62 75.832 399.324 77.024 399.324 78.544ZM423.144 72.136V85H421.416L421.104 83.296H421.008C420.592 83.968 420.016 84.464 419.28 84.784C418.544 85.088 417.76 85.24 416.928 85.24C415.376 85.24 414.208 84.872 413.424 84.136C412.64 83.384 412.248 82.192 412.248 80.56V72.136H414.384V80.416C414.384 82.464 415.336 83.488 417.24 83.488C418.664 83.488 419.648 83.088 420.192 82.288C420.752 81.488 421.032 80.336 421.032 78.832V72.136H423.144ZM431.523 83.512C431.844 83.512 432.172 83.488 432.508 83.44C432.844 83.392 433.116 83.328 433.324 83.248V84.856C433.1 84.968 432.78 85.056 432.364 85.12C431.948 85.2 431.548 85.24 431.164 85.24C430.492 85.24 429.868 85.128 429.292 84.904C428.732 84.664 428.276 84.256 427.924 83.68C427.572 83.104 427.396 82.296 427.396 81.256V73.768H425.572V72.76L427.42 71.92L428.26 69.184H429.508V72.136H433.228V73.768H429.508V81.208C429.508 81.992 429.692 82.576 430.06 82.96C430.444 83.328 430.932 83.512 431.523 83.512ZM440.867 71.896C441.955 71.896 442.899 72.136 443.699 72.616C444.499 73.096 445.107 73.776 445.523 74.656C445.955 75.52 446.171 76.536 446.171 77.704V78.976H437.363C437.395 80.432 437.763 81.544 438.467 82.312C439.187 83.064 440.187 83.44 441.467 83.44C442.283 83.44 443.003 83.368 443.627 83.224C444.267 83.064 444.923 82.84 445.595 82.552V84.4C444.939 84.688 444.291 84.896 443.651 85.024C443.011 85.168 442.251 85.24 441.371 85.24C440.139 85.24 439.059 84.992 438.131 84.496C437.203 84 436.475 83.264 435.947 82.288C435.435 81.312 435.179 80.104 435.179 78.664C435.179 77.256 435.411 76.048 435.875 75.04C436.355 74.032 437.019 73.256 437.867 72.712C438.731 72.168 439.731 71.896 440.867 71.896ZM440.843 73.624C439.835 73.624 439.035 73.952 438.443 74.608C437.867 75.248 437.523 76.144 437.411 77.296H443.963C443.947 76.208 443.691 75.328 443.195 74.656C442.699 73.968 441.915 73.624 440.843 73.624ZM353.101 100.864C352.877 101.792 352.645 102.8 352.405 103.888C352.181 104.96 352.013 105.912 351.901 106.744H349.621L349.453 106.48C349.661 105.648 349.957 104.72 350.341 103.696C350.741 102.672 351.141 101.728 351.541 100.864H353.101ZM348.661 100.864C348.437 101.792 348.213 102.8 347.989 103.888C347.765 104.96 347.589 105.912 347.461 106.744H345.205L345.061 106.48C345.285 105.648 345.581 104.72 345.949 103.696C346.333 102.672 346.725 101.728 347.125 100.864H348.661ZM362.086 100.864L355.702 118H353.638L360.022 100.864H362.086ZM366.48 118H364.368V99.76H366.48V118ZM381.74 111.544C381.74 113.672 381.196 115.32 380.108 116.488C379.036 117.656 377.58 118.24 375.74 118.24C374.604 118.24 373.588 117.984 372.692 117.472C371.812 116.944 371.116 116.184 370.604 115.192C370.092 114.184 369.836 112.968 369.836 111.544C369.836 109.416 370.364 107.776 371.42 106.624C372.492 105.472 373.956 104.896 375.812 104.896C376.964 104.896 377.988 105.16 378.884 105.688C379.78 106.2 380.476 106.952 380.972 107.944C381.484 108.92 381.74 110.12 381.74 111.544ZM372.02 111.544C372.02 113.064 372.316 114.272 372.908 115.168C373.516 116.048 374.476 116.488 375.788 116.488C377.084 116.488 378.036 116.048 378.644 115.168C379.252 114.272 379.556 113.064 379.556 111.544C379.556 110.024 379.252 108.832 378.644 107.968C378.036 107.104 377.076 106.672 375.764 106.672C374.452 106.672 373.5 107.104 372.908 107.968C372.316 108.832 372.02 110.024 372.02 111.544ZM389.647 104.896C390.495 104.896 391.255 105.056 391.927 105.376C392.615 105.696 393.199 106.184 393.679 106.84H393.799L394.087 105.136H395.767V118.216C395.767 120.056 395.295 121.44 394.351 122.368C393.423 123.296 391.975 123.76 390.007 123.76C388.119 123.76 386.575 123.488 385.375 122.944V121C386.639 121.672 388.223 122.008 390.127 122.008C391.231 122.008 392.095 121.68 392.719 121.024C393.359 120.384 393.679 119.504 393.679 118.384V117.88C393.679 117.688 393.687 117.416 393.703 117.064C393.719 116.696 393.735 116.44 393.751 116.296H393.655C392.791 117.592 391.463 118.24 389.671 118.24C388.007 118.24 386.703 117.656 385.759 116.488C384.831 115.32 384.367 113.688 384.367 111.592C384.367 109.544 384.831 107.92 385.759 106.72C386.703 105.504 387.999 104.896 389.647 104.896ZM389.935 106.672C388.863 106.672 388.031 107.104 387.439 107.968C386.847 108.816 386.551 110.032 386.551 111.616C386.551 113.2 386.839 114.416 387.415 115.264C387.991 116.096 388.847 116.512 389.983 116.512C391.279 116.512 392.223 116.168 392.815 115.48C393.407 114.776 393.703 113.648 393.703 112.096V111.592C393.703 109.848 393.399 108.592 392.791 107.824C392.183 107.056 391.231 106.672 389.935 106.672ZM400.933 100.312C401.253 100.312 401.533 100.424 401.773 100.648C402.029 100.856 402.157 101.192 402.157 101.656C402.157 102.12 402.029 102.464 401.773 102.688C401.533 102.896 401.253 103 400.933 103C400.581 103 400.285 102.896 400.045 102.688C399.805 102.464 399.685 102.12 399.685 101.656C399.685 101.192 399.805 100.856 400.045 100.648C400.285 100.424 400.581 100.312 400.933 100.312ZM401.965 105.136V118H399.853V105.136H401.965ZM412.232 104.896C413.768 104.896 414.928 105.272 415.712 106.024C416.496 106.776 416.888 107.976 416.888 109.624V118H414.8V109.768C414.8 107.704 413.84 106.672 411.92 106.672C410.496 106.672 409.512 107.072 408.968 107.872C408.424 108.672 408.152 109.824 408.152 111.328V118H406.04V105.136H407.744L408.056 106.888H408.176C408.592 106.216 409.168 105.72 409.904 105.4C410.64 105.064 411.416 104.896 412.232 104.896ZM426.762 100.864L426.93 101.128C426.722 101.976 426.418 102.912 426.018 103.936C425.634 104.96 425.25 105.896 424.866 106.744H423.282C423.426 106.152 423.578 105.504 423.738 104.8C423.898 104.096 424.042 103.408 424.17 102.736C424.314 102.048 424.426 101.424 424.506 100.864H426.762ZM422.322 100.864L422.49 101.128C422.266 101.976 421.962 102.912 421.578 103.936C421.194 104.96 420.81 105.896 420.426 106.744H418.89C419.05 106.152 419.202 105.504 419.346 104.8C419.49 104.096 419.626 103.408 419.754 102.736C419.882 102.048 419.986 101.424 420.066 100.864H422.322Z" fill="black"/>
<rect x="508" y="2" width="182" height="182" rx="8" fill="#D1D5D9" stroke="#393C3F" stroke-width="4"/>
<path d="M544.458 67.864C546.698 67.864 548.33 68.304 549.354 69.184C550.378 70.064 550.89 71.304 550.89 72.904C550.89 73.848 550.674 74.736 550.242 75.568C549.826 76.384 549.114 77.048 548.106 77.56C547.114 78.072 545.762 78.328 544.05 78.328H542.082V85H539.922V67.864H544.458ZM544.266 69.712H542.082V76.48H543.81C545.442 76.48 546.658 76.216 547.458 75.688C548.258 75.16 548.658 74.264 548.658 73C548.658 71.896 548.298 71.072 547.578 70.528C546.874 69.984 545.77 69.712 544.266 69.712ZM559.037 71.92C560.605 71.92 561.765 72.264 562.517 72.952C563.269 73.64 563.645 74.736 563.645 76.24V85H562.109L561.701 83.176H561.605C561.045 83.88 560.453 84.4 559.829 84.736C559.205 85.072 558.357 85.24 557.285 85.24C556.117 85.24 555.149 84.936 554.381 84.328C553.613 83.704 553.229 82.736 553.229 81.424C553.229 80.144 553.733 79.16 554.741 78.472C555.749 77.768 557.301 77.384 559.397 77.32L561.581 77.248V76.48C561.581 75.408 561.349 74.664 560.885 74.248C560.421 73.832 559.765 73.624 558.917 73.624C558.245 73.624 557.605 73.728 556.997 73.936C556.389 74.128 555.821 74.352 555.293 74.608L554.645 73.024C555.205 72.72 555.869 72.464 556.637 72.256C557.405 72.032 558.205 71.92 559.037 71.92ZM561.557 78.712L559.661 78.784C558.061 78.848 556.949 79.104 556.325 79.552C555.717 80 555.413 80.632 555.413 81.448C555.413 82.168 555.629 82.696 556.061 83.032C556.509 83.368 557.077 83.536 557.765 83.536C558.837 83.536 559.733 83.24 560.453 82.648C561.189 82.04 561.557 81.112 561.557 79.864V78.712ZM572.178 71.896C573.026 71.896 573.786 72.056 574.458 72.376C575.146 72.696 575.73 73.184 576.21 73.84H576.33L576.618 72.136H578.298V85.216C578.298 87.056 577.826 88.44 576.882 89.368C575.954 90.296 574.506 90.76 572.538 90.76C570.65 90.76 569.106 90.488 567.906 89.944V88C569.17 88.672 570.754 89.008 572.658 89.008C573.762 89.008 574.626 88.68 575.25 88.024C575.89 87.384 576.21 86.504 576.21 85.384V84.88C576.21 84.688 576.218 84.416 576.234 84.064C576.25 83.696 576.266 83.44 576.282 83.296H576.186C575.322 84.592 573.994 85.24 572.202 85.24C570.538 85.24 569.234 84.656 568.29 83.488C567.362 82.32 566.898 80.688 566.898 78.592C566.898 76.544 567.362 74.92 568.29 73.72C569.234 72.504 570.53 71.896 572.178 71.896ZM572.466 73.672C571.394 73.672 570.562 74.104 569.97 74.968C569.378 75.816 569.082 77.032 569.082 78.616C569.082 80.2 569.37 81.416 569.946 82.264C570.522 83.096 571.378 83.512 572.514 83.512C573.81 83.512 574.754 83.168 575.346 82.48C575.938 81.776 576.234 80.648 576.234 79.096V78.592C576.234 76.848 575.93 75.592 575.322 74.824C574.714 74.056 573.762 73.672 572.466 73.672ZM587.352 71.896C588.44 71.896 589.384 72.136 590.184 72.616C590.984 73.096 591.592 73.776 592.008 74.656C592.44 75.52 592.656 76.536 592.656 77.704V78.976H583.848C583.88 80.432 584.248 81.544 584.952 82.312C585.672 83.064 586.672 83.44 587.952 83.44C588.768 83.44 589.488 83.368 590.112 83.224C590.752 83.064 591.408 82.84 592.08 82.552V84.4C591.424 84.688 590.776 84.896 590.136 85.024C589.496 85.168 588.736 85.24 587.856 85.24C586.624 85.24 585.544 84.992 584.616 84.496C583.688 84 582.96 83.264 582.432 82.288C581.92 81.312 581.664 80.104 581.664 78.664C581.664 77.256 581.896 76.048 582.36 75.04C582.84 74.032 583.504 73.256 584.352 72.712C585.216 72.168 586.216 71.896 587.352 71.896ZM587.328 73.624C586.32 73.624 585.52 73.952 584.928 74.608C584.352 75.248 584.008 76.144 583.896 77.296H590.448C590.432 76.208 590.176 75.328 589.68 74.656C589.184 73.968 588.4 73.624 587.328 73.624ZM600.947 67.864C603.075 67.864 604.643 68.272 605.651 69.088C606.675 69.888 607.187 71.104 607.187 72.736C607.187 73.648 607.019 74.408 606.683 75.016C606.347 75.624 605.915 76.112 605.387 76.48C604.875 76.848 604.331 77.128 603.755 77.32L608.459 85H605.939L601.787 77.92H598.379V85H596.219V67.864H600.947ZM600.827 69.736H598.379V76.096H600.947C602.339 76.096 603.355 75.824 603.995 75.28C604.635 74.72 604.955 73.904 604.955 72.832C604.955 71.712 604.619 70.92 603.947 70.456C603.275 69.976 602.235 69.736 600.827 69.736ZM622.044 78.544C622.044 80.672 621.5 82.32 620.412 83.488C619.34 84.656 617.884 85.24 616.044 85.24C614.908 85.24 613.892 84.984 612.996 84.472C612.116 83.944 611.42 83.184 610.908 82.192C610.396 81.184 610.14 79.968 610.14 78.544C610.14 76.416 610.668 74.776 611.724 73.624C612.796 72.472 614.26 71.896 616.116 71.896C617.268 71.896 618.292 72.16 619.188 72.688C620.084 73.2 620.78 73.952 621.276 74.944C621.788 75.92 622.044 77.12 622.044 78.544ZM612.324 78.544C612.324 80.064 612.62 81.272 613.212 82.168C613.82 83.048 614.78 83.488 616.092 83.488C617.388 83.488 618.34 83.048 618.948 82.168C619.556 81.272 619.86 80.064 619.86 78.544C619.86 77.024 619.556 75.832 618.948 74.968C618.34 74.104 617.38 73.672 616.068 73.672C614.756 73.672 613.804 74.104 613.212 74.968C612.62 75.832 612.324 77.024 612.324 78.544ZM636.144 72.136V85H634.416L634.104 83.296H634.008C633.592 83.968 633.016 84.464 632.28 84.784C631.544 85.088 630.76 85.24 629.928 85.24C628.376 85.24 627.208 84.872 626.424 84.136C625.64 83.384 625.248 82.192 625.248 80.56V72.136H627.384V80.416C627.384 82.464 628.336 83.488 630.24 83.488C631.664 83.488 632.648 83.088 633.192 82.288C633.752 81.488 634.032 80.336 634.032 78.832V72.136H636.144ZM644.523 83.512C644.844 83.512 645.172 83.488 645.508 83.44C645.844 83.392 646.116 83.328 646.324 83.248V84.856C646.1 84.968 645.78 85.056 645.364 85.12C644.948 85.2 644.548 85.24 644.164 85.24C643.492 85.24 642.868 85.128 642.292 84.904C641.732 84.664 641.276 84.256 640.924 83.68C640.572 83.104 640.396 82.296 640.396 81.256V73.768H638.572V72.76L640.42 71.92L641.26 69.184H642.508V72.136H646.228V73.768H642.508V81.208C642.508 81.992 642.692 82.576 643.06 82.96C643.444 83.328 643.932 83.512 644.523 83.512ZM653.867 71.896C654.955 71.896 655.899 72.136 656.699 72.616C657.499 73.096 658.107 73.776 658.523 74.656C658.955 75.52 659.171 76.536 659.171 77.704V78.976H650.363C650.395 80.432 650.763 81.544 651.467 82.312C652.187 83.064 653.187 83.44 654.467 83.44C655.283 83.44 656.003 83.368 656.627 83.224C657.267 83.064 657.923 82.84 658.595 82.552V84.4C657.939 84.688 657.291 84.896 656.651 85.024C656.011 85.168 655.251 85.24 654.371 85.24C653.139 85.24 652.059 84.992 651.131 84.496C650.203 84 649.475 83.264 648.947 82.288C648.435 81.312 648.179 80.104 648.179 78.664C648.179 77.256 648.411 76.048 648.875 75.04C649.355 74.032 650.019 73.256 650.867 72.712C651.731 72.168 652.731 71.896 653.867 71.896ZM653.843 73.624C652.835 73.624 652.035 73.952 651.443 74.608C650.867 75.248 650.523 76.144 650.411 77.296H656.963C656.947 76.208 656.691 75.328 656.195 74.656C655.699 73.968 654.915 73.624 653.843 73.624ZM572.863 100.864C572.639 101.792 572.407 102.8 572.167 103.888C571.943 104.96 571.775 105.912 571.663 106.744H569.383L569.215 106.48C569.423 105.648 569.719 104.72 570.103 103.696C570.503 102.672 570.903 101.728 571.303 100.864H572.863ZM568.423 100.864C568.199 101.792 567.975 102.8 567.751 103.888C567.527 104.96 567.351 105.912 567.223 106.744H564.967L564.823 106.48C565.047 105.648 565.343 104.72 565.711 103.696C566.095 102.672 566.487 101.728 566.887 100.864H568.423ZM581.848 100.864L575.464 118H573.4L579.784 100.864H581.848ZM589.002 104.92C590.57 104.92 591.73 105.264 592.482 105.952C593.234 106.64 593.61 107.736 593.61 109.24V118H592.074L591.666 116.176H591.57C591.01 116.88 590.418 117.4 589.794 117.736C589.17 118.072 588.322 118.24 587.25 118.24C586.082 118.24 585.114 117.936 584.346 117.328C583.578 116.704 583.194 115.736 583.194 114.424C583.194 113.144 583.698 112.16 584.706 111.472C585.714 110.768 587.266 110.384 589.362 110.32L591.546 110.248V109.48C591.546 108.408 591.314 107.664 590.85 107.248C590.386 106.832 589.73 106.624 588.882 106.624C588.21 106.624 587.57 106.728 586.962 106.936C586.354 107.128 585.786 107.352 585.258 107.608L584.61 106.024C585.17 105.72 585.834 105.464 586.602 105.256C587.37 105.032 588.17 104.92 589.002 104.92ZM591.522 111.712L589.626 111.784C588.026 111.848 586.914 112.104 586.29 112.552C585.682 113 585.378 113.632 585.378 114.448C585.378 115.168 585.594 115.696 586.026 116.032C586.474 116.368 587.042 116.536 587.73 116.536C588.802 116.536 589.698 116.24 590.418 115.648C591.154 115.04 591.522 114.112 591.522 112.864V111.712ZM603.703 104.896C605.287 104.896 606.559 105.448 607.519 106.552C608.495 107.656 608.983 109.32 608.983 111.544C608.983 113.736 608.495 115.4 607.519 116.536C606.559 117.672 605.279 118.24 603.679 118.24C602.687 118.24 601.863 118.056 601.207 117.688C600.567 117.32 600.063 116.88 599.695 116.368H599.551C599.567 116.64 599.591 116.984 599.623 117.4C599.671 117.816 599.695 118.176 599.695 118.48V123.76H597.583V105.136H599.311L599.599 106.888H599.695C600.079 106.328 600.583 105.856 601.207 105.472C601.831 105.088 602.663 104.896 603.703 104.896ZM603.319 106.672C602.007 106.672 601.079 107.04 600.535 107.776C599.991 108.512 599.711 109.632 599.695 111.136V111.544C599.695 113.128 599.951 114.352 600.463 115.216C600.991 116.064 601.959 116.488 603.367 116.488C604.135 116.488 604.775 116.28 605.287 115.864C605.799 115.432 606.175 114.84 606.415 114.088C606.671 113.336 606.799 112.48 606.799 111.52C606.799 110.048 606.511 108.872 605.935 107.992C605.375 107.112 604.503 106.672 603.319 106.672ZM618.469 104.896C620.053 104.896 621.325 105.448 622.285 106.552C623.261 107.656 623.749 109.32 623.749 111.544C623.749 113.736 623.261 115.4 622.285 116.536C621.325 117.672 620.045 118.24 618.445 118.24C617.453 118.24 616.629 118.056 615.973 117.688C615.333 117.32 614.829 116.88 614.461 116.368H614.317C614.333 116.64 614.357 116.984 614.389 117.4C614.437 117.816 614.461 118.176 614.461 118.48V123.76H612.349V105.136H614.077L614.365 106.888H614.461C614.845 106.328 615.349 105.856 615.973 105.472C616.597 105.088 617.429 104.896 618.469 104.896ZM618.085 106.672C616.773 106.672 615.845 107.04 615.301 107.776C614.757 108.512 614.477 109.632 614.461 111.136V111.544C614.461 113.128 614.717 114.352 615.229 115.216C615.757 116.064 616.725 116.488 618.133 116.488C618.901 116.488 619.541 116.28 620.053 115.864C620.565 115.432 620.941 114.84 621.181 114.088C621.437 113.336 621.565 112.48 621.565 111.52C621.565 110.048 621.277 108.872 620.701 107.992C620.141 107.112 619.269 106.672 618.085 106.672ZM633 100.864L633.168 101.128C632.96 101.976 632.656 102.912 632.256 103.936C631.872 104.96 631.488 105.896 631.104 106.744H629.52C629.664 106.152 629.816 105.504 629.976 104.8C630.136 104.096 630.28 103.408 630.408 102.736C630.552 102.048 630.664 101.424 630.744 100.864H633ZM628.56 100.864L628.728 101.128C628.504 101.976 628.2 102.912 627.816 103.936C627.432 104.96 627.048 105.896 626.664 106.744H625.128C625.288 106.152 625.44 105.504 625.584 104.8C625.728 104.096 625.864 103.408 625.992 102.736C626.12 102.048 626.224 101.424 626.304 100.864H628.56Z" fill="black"/>
<rect x="722" y="2" width="182" height="182" rx="8" fill="#D1D5D9" stroke="#393C3F" stroke-width="4"/>
<path d="M758.458 67.864C760.698 67.864 762.33 68.304 763.354 69.184C764.378 70.064 764.89 71.304 764.89 72.904C764.89 73.848 764.674 74.736 764.242 75.568C763.826 76.384 763.114 77.048 762.106 77.56C761.114 78.072 759.762 78.328 758.05 78.328H756.082V85H753.922V67.864H758.458ZM758.266 69.712H756.082V76.48H757.81C759.442 76.48 760.658 76.216 761.458 75.688C762.258 75.16 762.658 74.264 762.658 73C762.658 71.896 762.298 71.072 761.578 70.528C760.874 69.984 759.77 69.712 758.266 69.712ZM773.037 71.92C774.605 71.92 775.765 72.264 776.517 72.952C777.269 73.64 777.645 74.736 777.645 76.24V85H776.109L775.701 83.176H775.605C775.045 83.88 774.453 84.4 773.829 84.736C773.205 85.072 772.357 85.24 771.285 85.24C770.117 85.24 769.149 84.936 768.381 84.328C767.613 83.704 767.229 82.736 767.229 81.424C767.229 80.144 767.733 79.16 768.741 78.472C769.749 77.768 771.301 77.384 773.397 77.32L775.581 77.248V76.48C775.581 75.408 775.349 74.664 774.885 74.248C774.421 73.832 773.765 73.624 772.917 73.624C772.245 73.624 771.605 73.728 770.997 73.936C770.389 74.128 769.821 74.352 769.293 74.608L768.645 73.024C769.205 72.72 769.869 72.464 770.637 72.256C771.405 72.032 772.205 71.92 773.037 71.92ZM775.557 78.712L773.661 78.784C772.061 78.848 770.949 79.104 770.325 79.552C769.717 80 769.413 80.632 769.413 81.448C769.413 82.168 769.629 82.696 770.061 83.032C770.509 83.368 771.077 83.536 771.765 83.536C772.837 83.536 773.733 83.24 774.453 82.648C775.189 82.04 775.557 81.112 775.557 79.864V78.712ZM786.178 71.896C787.026 71.896 787.786 72.056 788.458 72.376C789.146 72.696 789.73 73.184 790.21 73.84H790.33L790.618 72.136H792.298V85.216C792.298 87.056 791.826 88.44 790.882 89.368C789.954 90.296 788.506 90.76 786.538 90.76C784.65 90.76 783.106 90.488 781.906 89.944V88C783.17 88.672 784.754 89.008 786.658 89.008C787.762 89.008 788.626 88.68 789.25 88.024C789.89 87.384 790.21 86.504 790.21 85.384V84.88C790.21 84.688 790.218 84.416 790.234 84.064C790.25 83.696 790.266 83.44 790.282 83.296H790.186C789.322 84.592 787.994 85.24 786.202 85.24C784.538 85.24 783.234 84.656 782.29 83.488C781.362 82.32 780.898 80.688 780.898 78.592C780.898 76.544 781.362 74.92 782.29 73.72C783.234 72.504 784.53 71.896 786.178 71.896ZM786.466 73.672C785.394 73.672 784.562 74.104 783.97 74.968C783.378 75.816 783.082 77.032 783.082 78.616C783.082 80.2 783.37 81.416 783.946 82.264C784.522 83.096 785.378 83.512 786.514 83.512C787.81 83.512 788.754 83.168 789.346 82.48C789.938 81.776 790.234 80.648 790.234 79.096V78.592C790.234 76.848 789.93 75.592 789.322 74.824C788.714 74.056 787.762 73.672 786.466 73.672ZM801.352 71.896C802.44 71.896 803.384 72.136 804.184 72.616C804.984 73.096 805.592 73.776 806.008 74.656C806.44 75.52 806.656 76.536 806.656 77.704V78.976H797.848C797.88 80.432 798.248 81.544 798.952 82.312C799.672 83.064 800.672 83.44 801.952 83.44C802.768 83.44 803.488 83.368 804.112 83.224C804.752 83.064 805.408 82.84 806.08 82.552V84.4C805.424 84.688 804.776 84.896 804.136 85.024C803.496 85.168 802.736 85.24 801.856 85.24C800.624 85.24 799.544 84.992 798.616 84.496C797.688 84 796.96 83.264 796.432 82.288C795.92 81.312 795.664 80.104 795.664 78.664C795.664 77.256 795.896 76.048 796.36 75.04C796.84 74.032 797.504 73.256 798.352 72.712C799.216 72.168 800.216 71.896 801.352 71.896ZM801.328 73.624C800.32 73.624 799.52 73.952 798.928 74.608C798.352 75.248 798.008 76.144 797.896 77.296H804.448C804.432 76.208 804.176 75.328 803.68 74.656C803.184 73.968 802.4 73.624 801.328 73.624ZM814.947 67.864C817.075 67.864 818.643 68.272 819.651 69.088C820.675 69.888 821.187 71.104 821.187 72.736C821.187 73.648 821.019 74.408 820.683 75.016C820.347 75.624 819.915 76.112 819.387 76.48C818.875 76.848 818.331 77.128 817.755 77.32L822.459 85H819.939L815.787 77.92H812.379V85H810.219V67.864H814.947ZM814.827 69.736H812.379V76.096H814.947C816.339 76.096 817.355 75.824 817.995 75.28C818.635 74.72 818.955 73.904 818.955 72.832C818.955 71.712 818.619 70.92 817.947 70.456C817.275 69.976 816.235 69.736 814.827 69.736ZM836.044 78.544C836.044 80.672 835.5 82.32 834.412 83.488C833.34 84.656 831.884 85.24 830.044 85.24C828.908 85.24 827.892 84.984 826.996 84.472C826.116 83.944 825.42 83.184 824.908 82.192C824.396 81.184 824.14 79.968 824.14 78.544C824.14 76.416 824.668 74.776 825.724 73.624C826.796 72.472 828.26 71.896 830.116 71.896C831.268 71.896 832.292 72.16 833.188 72.688C834.084 73.2 834.78 73.952 835.276 74.944C835.788 75.92 836.044 77.12 836.044 78.544ZM826.324 78.544C826.324 80.064 826.62 81.272 827.212 82.168C827.82 83.048 828.78 83.488 830.092 83.488C831.388 83.488 832.34 83.048 832.948 82.168C833.556 81.272 833.86 80.064 833.86 78.544C833.86 77.024 833.556 75.832 832.948 74.968C832.34 74.104 831.38 73.672 830.068 73.672C828.756 73.672 827.804 74.104 827.212 74.968C826.62 75.832 826.324 77.024 826.324 78.544ZM850.144 72.136V85H848.416L848.104 83.296H848.008C847.592 83.968 847.016 84.464 846.28 84.784C845.544 85.088 844.76 85.24 843.928 85.24C842.376 85.24 841.208 84.872 840.424 84.136C839.64 83.384 839.248 82.192 839.248 80.56V72.136H841.384V80.416C841.384 82.464 842.336 83.488 844.24 83.488C845.664 83.488 846.648 83.088 847.192 82.288C847.752 81.488 848.032 80.336 848.032 78.832V72.136H850.144ZM858.523 83.512C858.844 83.512 859.172 83.488 859.508 83.44C859.844 83.392 860.116 83.328 860.324 83.248V84.856C860.1 84.968 859.78 85.056 859.364 85.12C858.948 85.2 858.548 85.24 858.164 85.24C857.492 85.24 856.868 85.128 856.292 84.904C855.732 84.664 855.276 84.256 854.924 83.68C854.572 83.104 854.396 82.296 854.396 81.256V73.768H852.572V72.76L854.42 71.92L855.26 69.184H856.508V72.136H860.228V73.768H856.508V81.208C856.508 81.992 856.692 82.576 857.06 82.96C857.444 83.328 857.932 83.512 858.523 83.512ZM867.867 71.896C868.955 71.896 869.899 72.136 870.699 72.616C871.499 73.096 872.107 73.776 872.523 74.656C872.955 75.52 873.171 76.536 873.171 77.704V78.976H864.363C864.395 80.432 864.763 81.544 865.467 82.312C866.187 83.064 867.187 83.44 868.467 83.44C869.283 83.44 870.003 83.368 870.627 83.224C871.267 83.064 871.923 82.84 872.595 82.552V84.4C871.939 84.688 871.291 84.896 870.651 85.024C870.011 85.168 869.251 85.24 868.371 85.24C867.139 85.24 866.059 84.992 865.131 84.496C864.203 84 863.475 83.264 862.947 82.288C862.435 81.312 862.179 80.104 862.179 78.664C862.179 77.256 862.411 76.048 862.875 75.04C863.355 74.032 864.019 73.256 864.867 72.712C865.731 72.168 866.731 71.896 867.867 71.896ZM867.843 73.624C866.835 73.624 866.035 73.952 865.443 74.608C864.867 75.248 864.523 76.144 864.411 77.296H870.963C870.947 76.208 870.691 75.328 870.195 74.656C869.699 73.968 868.915 73.624 867.843 73.624ZM760.578 100.864C760.354 101.792 760.122 102.8 759.882 103.888C759.658 104.96 759.49 105.912 759.378 106.744H757.098L756.93 106.48C757.138 105.648 757.434 104.72 757.818 103.696C758.218 102.672 758.618 101.728 759.018 100.864H760.578ZM756.138 100.864C755.914 101.792 755.69 102.8 755.466 103.888C755.242 104.96 755.066 105.912 754.938 106.744H752.682L752.538 106.48C752.762 105.648 753.058 104.72 753.426 103.696C753.81 102.672 754.202 101.728 754.602 100.864H756.138ZM769.563 100.864L763.179 118H761.115L767.499 100.864H769.563ZM772.925 100.312C773.245 100.312 773.525 100.424 773.765 100.648C774.021 100.856 774.149 101.192 774.149 101.656C774.149 102.12 774.021 102.464 773.765 102.688C773.525 102.896 773.245 103 772.925 103C772.573 103 772.277 102.896 772.037 102.688C771.797 102.464 771.677 102.12 771.677 101.656C771.677 101.192 771.797 100.856 772.037 100.648C772.277 100.424 772.573 100.312 772.925 100.312ZM773.957 105.136V118H771.845V105.136H773.957ZM784.224 104.896C785.76 104.896 786.92 105.272 787.704 106.024C788.488 106.776 788.88 107.976 788.88 109.624V118H786.792V109.768C786.792 107.704 785.832 106.672 783.912 106.672C782.488 106.672 781.504 107.072 780.96 107.872C780.416 108.672 780.144 109.824 780.144 111.328V118H778.032V105.136H779.736L780.048 106.888H780.168C780.584 106.216 781.16 105.72 781.896 105.4C782.632 105.064 783.408 104.896 784.224 104.896ZM801.244 114.448C801.244 115.696 800.78 116.64 799.852 117.28C798.924 117.92 797.676 118.24 796.108 118.24C795.212 118.24 794.436 118.168 793.78 118.024C793.14 117.88 792.572 117.68 792.076 117.424V115.504C792.588 115.76 793.204 116 793.924 116.224C794.66 116.432 795.404 116.536 796.156 116.536C797.228 116.536 798.004 116.368 798.484 116.032C798.964 115.68 799.204 115.216 799.204 114.64C799.204 114.32 799.116 114.032 798.94 113.776C798.764 113.52 798.444 113.264 797.98 113.008C797.532 112.752 796.884 112.464 796.036 112.144C795.204 111.824 794.492 111.504 793.9 111.184C793.308 110.864 792.852 110.48 792.532 110.032C792.212 109.584 792.052 109.008 792.052 108.304C792.052 107.216 792.492 106.376 793.372 105.784C794.268 105.192 795.436 104.896 796.876 104.896C797.66 104.896 798.388 104.976 799.06 105.136C799.748 105.296 800.388 105.504 800.98 105.76L800.26 107.44C799.716 107.216 799.148 107.024 798.556 106.864C797.964 106.704 797.356 106.624 796.732 106.624C795.868 106.624 795.204 106.768 794.74 107.056C794.292 107.328 794.068 107.704 794.068 108.184C794.068 108.552 794.172 108.856 794.38 109.096C794.588 109.336 794.932 109.576 795.412 109.816C795.908 110.056 796.564 110.328 797.38 110.632C798.196 110.936 798.892 111.248 799.468 111.568C800.044 111.888 800.484 112.28 800.788 112.744C801.092 113.192 801.244 113.76 801.244 114.448ZM808.648 116.512C808.969 116.512 809.297 116.488 809.633 116.44C809.969 116.392 810.241 116.328 810.449 116.248V117.856C810.225 117.968 809.905 118.056 809.489 118.12C809.073 118.2 808.673 118.24 808.289 118.24C807.617 118.24 806.993 118.128 806.417 117.904C805.857 117.664 805.401 117.256 805.049 116.68C804.697 116.104 804.521 115.296 804.521 114.256V106.768H802.697V105.76L804.545 104.92L805.385 102.184H806.633V105.136H810.353V106.768H806.633V114.208C806.633 114.992 806.817 115.576 807.185 115.96C807.569 116.328 808.057 116.512 808.648 116.512ZM817.896 104.92C819.464 104.92 820.624 105.264 821.376 105.952C822.128 106.64 822.504 107.736 822.504 109.24V118H820.968L820.56 116.176H820.464C819.904 116.88 819.312 117.4 818.688 117.736C818.064 118.072 817.216 118.24 816.144 118.24C814.976 118.24 814.008 117.936 813.24 117.328C812.472 116.704 812.088 115.736 812.088 114.424C812.088 113.144 812.592 112.16 813.6 111.472C814.608 110.768 816.16 110.384 818.256 110.32L820.44 110.248V109.48C820.44 108.408 820.208 107.664 819.744 107.248C819.28 106.832 818.624 106.624 817.776 106.624C817.104 106.624 816.464 106.728 815.856 106.936C815.248 107.128 814.68 107.352 814.152 107.608L813.504 106.024C814.064 105.72 814.728 105.464 815.496 105.256C816.264 105.032 817.064 104.92 817.896 104.92ZM820.416 111.712L818.52 111.784C816.92 111.848 815.808 112.104 815.184 112.552C814.576 113 814.272 113.632 814.272 114.448C814.272 115.168 814.488 115.696 814.92 116.032C815.368 116.368 815.936 116.536 816.624 116.536C817.696 116.536 818.592 116.24 819.312 115.648C820.048 115.04 820.416 114.112 820.416 112.864V111.712ZM828.59 118H826.478V99.76H828.59V118ZM834.777 118H832.665V99.76H834.777V118ZM843.821 104.896C844.909 104.896 845.853 105.136 846.653 105.616C847.453 106.096 848.061 106.776 848.477 107.656C848.909 108.52 849.125 109.536 849.125 110.704V111.976H840.317C840.349 113.432 840.717 114.544 841.421 115.312C842.141 116.064 843.141 116.44 844.421 116.44C845.237 116.44 845.957 116.368 846.581 116.224C847.221 116.064 847.877 115.84 848.549 115.552V117.4C847.893 117.688 847.245 117.896 846.605 118.024C845.965 118.168 845.205 118.24 844.325 118.24C843.093 118.24 842.013 117.992 841.085 117.496C840.157 117 839.429 116.264 838.901 115.288C838.389 114.312 838.133 113.104 838.133 111.664C838.133 110.256 838.365 109.048 838.829 108.04C839.309 107.032 839.973 106.256 840.821 105.712C841.685 105.168 842.685 104.896 843.821 104.896ZM843.797 106.624C842.789 106.624 841.989 106.952 841.397 107.608C840.821 108.248 840.477 109.144 840.365 110.296H846.917C846.901 109.208 846.645 108.328 846.149 107.656C845.653 106.968 844.869 106.624 843.797 106.624ZM856.959 118.24C855.359 118.24 854.079 117.688 853.119 116.584C852.159 115.464 851.679 113.8 851.679 111.592C851.679 109.384 852.159 107.72 853.119 106.6C854.095 105.464 855.383 104.896 856.983 104.896C857.975 104.896 858.783 105.08 859.407 105.448C860.047 105.816 860.567 106.264 860.967 106.792H861.111C861.079 106.584 861.047 106.28 861.015 105.88C860.983 105.464 860.967 105.136 860.967 104.896V99.76H863.079V118H861.375L861.063 116.272H860.967C860.583 116.816 860.071 117.28 859.431 117.664C858.791 118.048 857.967 118.24 856.959 118.24ZM857.295 116.488C858.655 116.488 859.607 116.12 860.151 115.384C860.711 114.632 860.991 113.504 860.991 112V111.616C860.991 110.016 860.727 108.792 860.199 107.944C859.671 107.08 858.695 106.648 857.271 106.648C856.135 106.648 855.279 107.104 854.703 108.016C854.143 108.912 853.863 110.12 853.863 111.64C853.863 113.176 854.143 114.368 854.703 115.216C855.279 116.064 856.143 116.488 857.295 116.488ZM873.285 100.864L873.453 101.128C873.245 101.976 872.941 102.912 872.541 103.936C872.157 104.96 871.773 105.896 871.389 106.744H869.805C869.949 106.152 870.101 105.504 870.261 104.8C870.421 104.096 870.565 103.408 870.693 102.736C870.837 102.048 870.949 101.424 871.029 100.864H873.285ZM868.845 100.864L869.013 101.128C868.789 101.976 868.485 102.912 868.101 103.936C867.717 104.96 867.333 105.896 866.949 106.744H865.413C865.573 106.152 865.725 105.504 865.869 104.8C866.013 104.096 866.149 103.408 866.277 102.736C866.405 102.048 866.509 101.424 866.589 100.864H868.845Z" fill="black"/>
<path d="M495 162C495 160.895 494.105 160 493 160C491.895 160 491 160.895 491 162L495 162ZM491.586 275.414C492.367 276.195 493.633 276.195 494.414 275.414L507.142 262.686C507.923 261.905 507.923 260.639 507.142 259.858C506.361 259.077 505.095 259.077 504.314 259.858L493 271.172L481.686 259.858C480.905 259.077 479.639 259.077 478.858 259.858C478.077 260.639 478.077 261.905 478.858 262.686L491.586 275.414ZM491 162L491 274L495 274L495 162L491 162Z" fill="#232629"/>
</svg>
