<?xml version="1.0" encoding="UTF-8" standalone="no"?>
<!-- Created with Inkscape (http://www.inkscape.org/) -->

<svg
   width="7.9375mm"
   height="7.9375mm"
   viewBox="0 0 7.9375 7.9375"
   version="1.1"
   id="svg926"
   inkscape:version="1.1 (c4e8f9ed74, 2021-05-24)"
   sodipodi:docname="minimize-hover.svg"
   xmlns:inkscape="http://www.inkscape.org/namespaces/inkscape"
   xmlns:sodipodi="http://sodipodi.sourceforge.net/DTD/sodipodi-0.dtd"
   xmlns="http://www.w3.org/2000/svg"
   xmlns:svg="http://www.w3.org/2000/svg"
   xmlns:rdf="http://www.w3.org/1999/02/22-rdf-syntax-ns#"
   xmlns:cc="http://creativecommons.org/ns#"
   xmlns:dc="http://purl.org/dc/elements/1.1/">
  <defs
     id="defs920" />
  <sodipodi:namedview
     id="base"
     pagecolor="#ffffff"
     bordercolor="#666666"
     borderopacity="1.0"
     inkscape:pageopacity="0.0"
     inkscape:pageshadow="2"
     inkscape:zoom="31.678384"
     inkscape:cx="5.3980026"
     inkscape:cy="15.373259"
     inkscape:document-units="mm"
     inkscape:current-layer="g6425"
     showgrid="false"
     fit-margin-top="0"
     fit-margin-left="0"
     fit-margin-right="0"
     fit-margin-bottom="0"
     inkscape:window-width="2560"
     inkscape:window-height="1367"
     inkscape:window-x="0"
     inkscape:window-y="0"
     inkscape:window-maximized="1"
     inkscape:pagecheckerboard="0" />
  <metadata
     id="metadata923">
    <rdf:RDF>
      <cc:Work
         rdf:about="">
        <dc:format>image/svg+xml</dc:format>
        <dc:type
           rdf:resource="http://purl.org/dc/dcmitype/StillImage" />
        <dc:title />
      </cc:Work>
    </rdf:RDF>
  </metadata>
  <g
     inkscape:label="Layer 1"
     inkscape:groupmode="layer"
     id="layer1"
     transform="translate(-180.48363,-84.388393)">
    <g
       id="hover-center"
       transform="matrix(0.26458333,0,0,0.26458333,180.48363,84.388393)">
      <rect
         style="opacity:0.7;fill:none;fill-opacity:1;stroke:none;stroke-width:1;stroke-linecap:round;stroke-linejoin:round;stroke-miterlimit:4;stroke-dasharray:none;stroke-dashoffset:0;stroke-opacity:1"
         id="rect1008"
         width="30"
         height="30"
         x="0"
         y="0" />
      <g
         id="g6425"
         transform="matrix(1.1538462,0,0,1.1538462,-2.3076925,-2.3076925)">
        <path
           id="path1459"
           style="opacity:0.03;fill:#00acc1;fill-opacity:1;stroke:none;stroke-width:1.875;stroke-linecap:round;stroke-linejoin:round;stroke-miterlimit:4;stroke-dasharray:none;stroke-opacity:1;paint-order:stroke markers fill"
           d="M 15 0 C 6.6899998 0 0 6.6899998 0 15 C 0 23.31 6.6899998 30 15 30 C 23.31 30 30 23.31 30 15 C 30 6.6899998 23.31 0 15 0 z M 15 5.7695312 C 15.159808 5.7695312 15.318801 5.7733043 15.476562 5.78125 C 15.634328 5.7891957 15.791733 5.8007058 15.947266 5.8164062 C 16.102798 5.8321071 16.257047 5.8517343 16.410156 5.875 C 16.563266 5.8982657 16.714739 5.9263916 16.865234 5.9570312 C 17.01573 5.9876713 17.164808 6.0207698 17.3125 6.0585938 C 17.460192 6.0964173 17.605303 6.1387763 17.75 6.1835938 C 17.894697 6.2284108 18.038175 6.2765045 18.179688 6.328125 C 18.321196 6.3797455 18.461472 6.4339543 18.599609 6.4921875 C 18.737746 6.5504207 18.875194 6.613079 19.009766 6.6777344 C 19.144337 6.7423898 19.275435 6.8099722 19.40625 6.8808594 C 19.537065 6.9517465 19.6661 7.024634 19.792969 7.1015625 C 19.919837 7.178491 20.045237 7.2590174 20.167969 7.3417969 C 20.2907 7.4245763 20.410893 7.5092167 20.529297 7.5976562 C 20.647701 7.6860962 20.76502 7.7771837 20.878906 7.8710938 C 20.992792 7.9650034 21.103713 8.0629197 21.212891 8.1621094 C 21.322068 8.261299 21.428924 8.362518 21.533203 8.4667969 C 21.637482 8.5710757 21.738701 8.6779318 21.837891 8.7871094 C 21.93708 8.896287 22.034996 9.0072078 22.128906 9.1210938 C 22.222816 9.2349793 22.313904 9.3522992 22.402344 9.4707031 C 22.490784 9.589107 22.575424 9.7093003 22.658203 9.8320312 C 22.740983 9.9547626 22.821509 10.080163 22.898438 10.207031 C 22.975362 10.3339 23.048253 10.462935 23.119141 10.59375 C 23.190028 10.724565 23.25761 10.855663 23.322266 10.990234 C 23.386921 11.124806 23.449583 11.262254 23.507812 11.400391 C 23.566046 11.538528 23.620254 11.678804 23.671875 11.820312 C 23.723496 11.961825 23.771589 12.105303 23.816406 12.25 C 23.861224 12.394697 23.903582 12.539808 23.941406 12.6875 C 23.97923 12.835192 24.012329 12.98427 24.042969 13.134766 C 24.073609 13.285261 24.101734 13.436734 24.125 13.589844 C 24.148266 13.742953 24.167893 13.897202 24.183594 14.052734 C 24.199295 14.208267 24.210804 14.365672 24.21875 14.523438 C 24.226696 14.681199 24.230469 14.840192 24.230469 15 C 24.230469 15.159808 24.226696 15.318801 24.21875 15.476562 C 24.210804 15.634328 24.199295 15.791733 24.183594 15.947266 C 24.167893 16.102798 24.148266 16.257047 24.125 16.410156 C 24.101734 16.563266 24.073609 16.714739 24.042969 16.865234 C 24.012329 17.01573 23.97923 17.164808 23.941406 17.3125 C 23.903582 17.460192 23.861224 17.605303 23.816406 17.75 C 23.771589 17.894697 23.723496 18.038175 23.671875 18.179688 C 23.620254 18.321196 23.566046 18.461472 23.507812 18.599609 C 23.449583 18.737746 23.386921 18.875194 23.322266 19.009766 C 23.25761 19.144337 23.190028 19.275435 23.119141 19.40625 C 23.048253 19.537065 22.975362 19.6661 22.898438 19.792969 C 22.821509 19.919837 22.740983 20.045237 22.658203 20.167969 C 22.575424 20.2907 22.490784 20.410893 22.402344 20.529297 C 22.313904 20.647701 22.222816 20.76502 22.128906 20.878906 C 22.034996 20.992792 21.93708 21.103713 21.837891 21.212891 C 21.738701 21.322068 21.637482 21.428924 21.533203 21.533203 C 21.428924 21.637482 21.322068 21.738701 21.212891 21.837891 C 21.103713 21.93708 20.992792 22.034996 20.878906 22.128906 C 20.76502 22.222816 20.647701 22.313904 20.529297 22.402344 C 20.410893 22.490784 20.2907 22.575424 20.167969 22.658203 C 20.045237 22.740983 19.919837 22.821509 19.792969 22.898438 C 19.6661 22.975362 19.537065 23.048253 19.40625 23.119141 C 19.275435 23.190028 19.144337 23.25761 19.009766 23.322266 C 18.875194 23.386921 18.737746 23.449583 18.599609 23.507812 C 18.461472 23.566046 18.321196 23.620254 18.179688 23.671875 C 18.038175 23.723496 17.894697 23.771589 17.75 23.816406 C 17.605303 23.861224 17.460192 23.903582 17.3125 23.941406 C 17.164808 23.97923 17.01573 24.012329 16.865234 24.042969 C 16.714739 24.073609 16.563266 24.101734 16.410156 24.125 C 16.257047 24.148266 16.102798 24.167893 15.947266 24.183594 C 15.791733 24.199295 15.634328 24.210804 15.476562 24.21875 C 15.318801 24.226696 15.159808 24.230469 15 24.230469 C 14.840192 24.230469 14.681199 24.226696 14.523438 24.21875 C 14.365672 24.210804 14.208267 24.199295 14.052734 24.183594 C 13.897202 24.167893 13.742953 24.148266 13.589844 24.125 C 13.436734 24.101734 13.285261 24.073609 13.134766 24.042969 C 12.98427 24.012329 12.835192 23.97923 12.6875 23.941406 C 12.539808 23.903582 12.394697 23.861224 12.25 23.816406 C 12.105303 23.771589 11.961825 23.723496 11.820312 23.671875 C 11.678804 23.620254 11.538528 23.566046 11.400391 23.507812 C 11.262254 23.449583 11.124806 23.386921 10.990234 23.322266 C 10.855663 23.25761 10.724565 23.190028 10.59375 23.119141 C 10.462935 23.048253 10.3339 22.975362 10.207031 22.898438 C 10.080163 22.821509 9.9547626 22.740983 9.8320312 22.658203 C 9.7093003 22.575424 9.589107 22.490784 9.4707031 22.402344 C 9.3522992 22.313904 9.2349793 22.222816 9.1210938 22.128906 C 9.0072078 22.034996 8.896287 21.93708 8.7871094 21.837891 C 8.6779318 21.738701 8.5710757 21.637482 8.4667969 21.533203 C 8.362518 21.428924 8.261299 21.322068 8.1621094 21.212891 C 8.0629197 21.103713 7.9650034 20.992792 7.8710938 20.878906 C 7.7771837 20.76502 7.6860962 20.647701 7.5976562 20.529297 C 7.5092167 20.410893 7.4245763 20.2907 7.3417969 20.167969 C 7.2590174 20.045237 7.178491 19.919837 7.1015625 19.792969 C 7.024634 19.6661 6.9517465 19.537065 6.8808594 19.40625 C 6.8099722 19.275435 6.7423898 19.144337 6.6777344 19.009766 C 6.613079 18.875194 6.5504207 18.737746 6.4921875 18.599609 C 6.4339543 18.461472 6.3797455 18.321196 6.328125 18.179688 C 6.2765045 18.038175 6.2284108 17.894697 6.1835938 17.75 C 6.1387763 17.605303 6.0964173 17.460192 6.0585938 17.3125 C 6.0207698 17.164808 5.9876713 17.01573 5.9570312 16.865234 C 5.9263916 16.714739 5.8982657 16.563266 5.875 16.410156 C 5.8517343 16.257047 5.8321071 16.102798 5.8164062 15.947266 C 5.8007058 15.791733 5.7891957 15.634328 5.78125 15.476562 C 5.7733043 15.318801 5.7695312 15.159808 5.7695312 15 C 5.7695312 14.840192 5.7733043 14.681199 5.78125 14.523438 C 5.7891957 14.365672 5.8007058 14.208267 5.8164062 14.052734 C 5.8321071 13.897202 5.8517343 13.742953 5.875 13.589844 C 5.8982657 13.436734 5.9263916 13.285261 5.9570312 13.134766 C 5.9876713 12.98427 6.0207698 12.835192 6.0585938 12.6875 C 6.0964173 12.539808 6.1387763 12.394697 6.1835938 12.25 C 6.2284108 12.105303 6.2765045 11.961825 6.328125 11.820312 C 6.3797455 11.678804 6.4339543 11.538528 6.4921875 11.400391 C 6.5504207 11.262254 6.613079 11.124806 6.6777344 10.990234 C 6.7423898 10.855663 6.8099722 10.724565 6.8808594 10.59375 C 6.9517465 10.462935 7.024634 10.3339 7.1015625 10.207031 C 7.178491 10.080163 7.2590174 9.9547626 7.3417969 9.8320312 C 7.4245763 9.7093003 7.5092167 9.589107 7.5976562 9.4707031 C 7.6860962 9.3522992 7.7771837 9.2349793 7.8710938 9.1210938 C 7.9650034 9.0072078 8.0629197 8.896287 8.1621094 8.7871094 C 8.261299 8.6779318 8.362518 8.5710757 8.4667969 8.4667969 C 8.5710757 8.362518 8.6779318 8.261299 8.7871094 8.1621094 C 8.896287 8.0629197 9.0072078 7.9650034 9.1210938 7.8710938 C 9.2349793 7.7771837 9.3522992 7.6860962 9.4707031 7.5976562 C 9.589107 7.5092167 9.7093003 7.4245763 9.8320312 7.3417969 C 9.9547626 7.2590174 10.080163 7.178491 10.207031 7.1015625 C 10.3339 7.024634 10.462935 6.9517465 10.59375 6.8808594 C 10.724565 6.8099722 10.855663 6.7423898 10.990234 6.6777344 C 11.124806 6.613079 11.262254 6.5504207 11.400391 6.4921875 C 11.538528 6.4339543 11.678804 6.3797455 11.820312 6.328125 C 11.961825 6.2765045 12.105303 6.2284108 12.25 6.1835938 C 12.394697 6.1387763 12.539808 6.0964173 12.6875 6.0585938 C 12.835192 6.0207698 12.98427 5.9876713 13.134766 5.9570312 C 13.285261 5.9263916 13.436734 5.8982657 13.589844 5.875 C 13.742953 5.8517343 13.897202 5.8321071 14.052734 5.8164062 C 14.208267 5.8007058 14.365672 5.7891957 14.523438 5.78125 C 14.681199 5.7733043 14.840192 5.7695312 15 5.7695312 z "
           transform="matrix(0.86666664,0,0,0.86666664,2.0000001,2.0000001)" />
        <path
           id="path1456"
           style="opacity:0.07;fill:#00acc1;fill-opacity:1;stroke:none;stroke-width:1.73077;stroke-linecap:round;stroke-linejoin:round;stroke-miterlimit:4;stroke-dasharray:none;stroke-opacity:1;paint-order:stroke markers fill"
           d="M 15 1.1542969 C 7.3292306 1.1542969 1.1542969 7.3292306 1.1542969 15 C 1.1542969 22.670769 7.3292306 28.845703 15 28.845703 C 22.670769 28.845703 28.845703 22.670769 28.845703 15 C 28.845703 7.3292306 22.670769 1.1542969 15 1.1542969 z M 15 5.7695312 C 15.159808 5.7695312 15.3188 5.7733043 15.476562 5.78125 C 15.634328 5.7891957 15.791733 5.8007057 15.947266 5.8164062 C 16.102798 5.8321071 16.257047 5.8517343 16.410156 5.875 C 16.563266 5.8982657 16.714739 5.9263915 16.865234 5.9570312 C 17.01573 5.9876713 17.164808 6.0207698 17.3125 6.0585938 C 17.460192 6.0964174 17.605303 6.1387763 17.75 6.1835938 C 17.894697 6.2284109 18.038175 6.2765045 18.179688 6.328125 C 18.321197 6.3797455 18.461472 6.4339543 18.599609 6.4921875 C 18.737746 6.5504207 18.875194 6.613079 19.009766 6.6777344 C 19.144337 6.7423898 19.275435 6.8099722 19.40625 6.8808594 C 19.537065 6.9517465 19.6661 7.024634 19.792969 7.1015625 C 19.919837 7.178491 20.045237 7.2590174 20.167969 7.3417969 C 20.2907 7.4245763 20.410893 7.5092166 20.529297 7.5976562 C 20.647701 7.6860962 20.76502 7.7771837 20.878906 7.8710938 C 20.992792 7.9650035 21.103713 8.0629197 21.212891 8.1621094 C 21.322068 8.261299 21.428924 8.362518 21.533203 8.4667969 C 21.637482 8.5710757 21.738701 8.6779318 21.837891 8.7871094 C 21.93708 8.896287 22.034996 9.0072078 22.128906 9.1210938 C 22.222816 9.2349794 22.313904 9.3522992 22.402344 9.4707031 C 22.490784 9.589107 22.575424 9.7093002 22.658203 9.8320312 C 22.740983 9.9547626 22.821509 10.080163 22.898438 10.207031 C 22.975363 10.3339 23.048253 10.462935 23.119141 10.59375 C 23.190028 10.724565 23.25761 10.855663 23.322266 10.990234 C 23.386921 11.124806 23.449582 11.262254 23.507812 11.400391 C 23.566046 11.538528 23.620254 11.678803 23.671875 11.820312 C 23.723496 11.961825 23.771589 12.105303 23.816406 12.25 C 23.861224 12.394697 23.903582 12.539808 23.941406 12.6875 C 23.97923 12.835192 24.012329 12.98427 24.042969 13.134766 C 24.073609 13.285261 24.101734 13.436734 24.125 13.589844 C 24.148266 13.742953 24.167893 13.897202 24.183594 14.052734 C 24.199295 14.208267 24.210804 14.365672 24.21875 14.523438 C 24.226696 14.6812 24.230469 14.840192 24.230469 15 C 24.230469 15.159808 24.226696 15.3188 24.21875 15.476562 C 24.210804 15.634328 24.199295 15.791733 24.183594 15.947266 C 24.167893 16.102798 24.148266 16.257047 24.125 16.410156 C 24.101734 16.563266 24.073609 16.714739 24.042969 16.865234 C 24.012329 17.01573 23.97923 17.164808 23.941406 17.3125 C 23.903582 17.460192 23.861224 17.605303 23.816406 17.75 C 23.771589 17.894697 23.723496 18.038175 23.671875 18.179688 C 23.620254 18.321197 23.566046 18.461472 23.507812 18.599609 C 23.449582 18.737746 23.386921 18.875194 23.322266 19.009766 C 23.25761 19.144337 23.190028 19.275435 23.119141 19.40625 C 23.048253 19.537065 22.975363 19.6661 22.898438 19.792969 C 22.821509 19.919837 22.740983 20.045237 22.658203 20.167969 C 22.575424 20.2907 22.490784 20.410893 22.402344 20.529297 C 22.313904 20.647701 22.222816 20.76502 22.128906 20.878906 C 22.034996 20.992792 21.93708 21.103713 21.837891 21.212891 C 21.738701 21.322068 21.637482 21.428924 21.533203 21.533203 C 21.428924 21.637482 21.322068 21.738701 21.212891 21.837891 C 21.103713 21.93708 20.992792 22.034996 20.878906 22.128906 C 20.76502 22.222816 20.647701 22.313904 20.529297 22.402344 C 20.410893 22.490784 20.2907 22.575424 20.167969 22.658203 C 20.045237 22.740983 19.919837 22.821509 19.792969 22.898438 C 19.6661 22.975363 19.537065 23.048253 19.40625 23.119141 C 19.275435 23.190028 19.144337 23.25761 19.009766 23.322266 C 18.875194 23.386921 18.737746 23.449582 18.599609 23.507812 C 18.461472 23.566046 18.321197 23.620254 18.179688 23.671875 C 18.038175 23.723496 17.894697 23.771589 17.75 23.816406 C 17.605303 23.861224 17.460192 23.903582 17.3125 23.941406 C 17.164808 23.97923 17.01573 24.012329 16.865234 24.042969 C 16.714739 24.073609 16.563266 24.101734 16.410156 24.125 C 16.257047 24.148266 16.102798 24.167893 15.947266 24.183594 C 15.791733 24.199295 15.634328 24.210804 15.476562 24.21875 C 15.3188 24.226696 15.159808 24.230469 15 24.230469 C 14.840192 24.230469 14.6812 24.226696 14.523438 24.21875 C 14.365672 24.210804 14.208267 24.199295 14.052734 24.183594 C 13.897202 24.167893 13.742953 24.148266 13.589844 24.125 C 13.436734 24.101734 13.285261 24.073609 13.134766 24.042969 C 12.98427 24.012329 12.835192 23.97923 12.6875 23.941406 C 12.539808 23.903582 12.394697 23.861224 12.25 23.816406 C 12.105303 23.771589 11.961825 23.723496 11.820312 23.671875 C 11.678803 23.620254 11.538528 23.566046 11.400391 23.507812 C 11.262254 23.449582 11.124806 23.386921 10.990234 23.322266 C 10.855663 23.25761 10.724565 23.190028 10.59375 23.119141 C 10.462935 23.048253 10.3339 22.975363 10.207031 22.898438 C 10.080163 22.821509 9.9547626 22.740983 9.8320312 22.658203 C 9.7093002 22.575424 9.589107 22.490784 9.4707031 22.402344 C 9.3522992 22.313904 9.2349794 22.222816 9.1210938 22.128906 C 9.0072078 22.034996 8.896287 21.93708 8.7871094 21.837891 C 8.6779318 21.738701 8.5710757 21.637482 8.4667969 21.533203 C 8.362518 21.428924 8.261299 21.322068 8.1621094 21.212891 C 8.0629197 21.103713 7.9650035 20.992792 7.8710938 20.878906 C 7.7771837 20.76502 7.6860962 20.647701 7.5976562 20.529297 C 7.5092166 20.410893 7.4245763 20.2907 7.3417969 20.167969 C 7.2590174 20.045237 7.178491 19.919837 7.1015625 19.792969 C 7.024634 19.6661 6.9517465 19.537065 6.8808594 19.40625 C 6.8099722 19.275435 6.7423898 19.144337 6.6777344 19.009766 C 6.613079 18.875194 6.5504207 18.737746 6.4921875 18.599609 C 6.4339543 18.461472 6.3797455 18.321197 6.328125 18.179688 C 6.2765045 18.038175 6.2284109 17.894697 6.1835938 17.75 C 6.1387763 17.605303 6.0964174 17.460192 6.0585938 17.3125 C 6.0207698 17.164808 5.9876713 17.01573 5.9570312 16.865234 C 5.9263915 16.714739 5.8982657 16.563266 5.875 16.410156 C 5.8517343 16.257047 5.8321071 16.102798 5.8164062 15.947266 C 5.8007057 15.791733 5.7891957 15.634328 5.78125 15.476562 C 5.7733043 15.3188 5.7695312 15.159808 5.7695312 15 C 5.7695312 14.840192 5.7733043 14.6812 5.78125 14.523438 C 5.7891957 14.365672 5.8007057 14.208267 5.8164062 14.052734 C 5.8321071 13.897202 5.8517343 13.742953 5.875 13.589844 C 5.8982657 13.436734 5.9263915 13.285261 5.9570312 13.134766 C 5.9876713 12.98427 6.0207698 12.835192 6.0585938 12.6875 C 6.0964174 12.539808 6.1387763 12.394697 6.1835938 12.25 C 6.2284109 12.105303 6.2765045 11.961825 6.328125 11.820312 C 6.3797455 11.678803 6.4339543 11.538528 6.4921875 11.400391 C 6.5504207 11.262254 6.613079 11.124806 6.6777344 10.990234 C 6.7423898 10.855663 6.8099722 10.724565 6.8808594 10.59375 C 6.9517465 10.462935 7.024634 10.3339 7.1015625 10.207031 C 7.178491 10.080163 7.2590174 9.9547626 7.3417969 9.8320312 C 7.4245763 9.7093002 7.5092166 9.589107 7.5976562 9.4707031 C 7.6860962 9.3522992 7.7771837 9.2349794 7.8710938 9.1210938 C 7.9650035 9.0072078 8.0629197 8.896287 8.1621094 8.7871094 C 8.261299 8.6779318 8.362518 8.5710757 8.4667969 8.4667969 C 8.5710757 8.362518 8.6779318 8.261299 8.7871094 8.1621094 C 8.896287 8.0629197 9.0072078 7.9650035 9.1210938 7.8710938 C 9.2349794 7.7771837 9.3522992 7.6860962 9.4707031 7.5976562 C 9.589107 7.5092166 9.7093002 7.4245763 9.8320312 7.3417969 C 9.9547626 7.2590174 10.080163 7.178491 10.207031 7.1015625 C 10.3339 7.024634 10.462935 6.9517465 10.59375 6.8808594 C 10.724565 6.8099722 10.855663 6.7423898 10.990234 6.6777344 C 11.124806 6.613079 11.262254 6.5504207 11.400391 6.4921875 C 11.538528 6.4339543 11.678803 6.3797455 11.820312 6.328125 C 11.961825 6.2765045 12.105303 6.2284109 12.25 6.1835938 C 12.394697 6.1387763 12.539808 6.0964174 12.6875 6.0585938 C 12.835192 6.0207698 12.98427 5.9876713 13.134766 5.9570312 C 13.285261 5.9263915 13.436734 5.8982657 13.589844 5.875 C 13.742953 5.8517343 13.897202 5.8321071 14.052734 5.8164062 C 14.208267 5.8007057 14.365672 5.7891957 14.523438 5.78125 C 14.6812 5.7733043 14.840192 5.7695312 15 5.7695312 z "
           transform="matrix(0.86666664,0,0,0.86666664,2.0000001,2.0000001)" />
        <path
           id="path1453"
           style="opacity:0.15;fill:#00acc1;fill-opacity:1;stroke:none;stroke-width:1.58654;stroke-linecap:round;stroke-linejoin:round;stroke-miterlimit:4;stroke-dasharray:none;stroke-opacity:1;paint-order:stroke markers fill"
           d="M 15 2.3085938 C 7.9684613 2.3085937 2.3085938 7.9684613 2.3085938 15 C 2.3085937 22.031539 7.9684613 27.691406 15 27.691406 C 22.031539 27.691406 27.691406 22.031539 27.691406 15 C 27.691406 7.9684613 22.031539 2.3085938 15 2.3085938 z M 15 5.7695312 C 15.159808 5.7695312 15.318799 5.7733043 15.476562 5.78125 C 15.634328 5.7891957 15.791733 5.8007056 15.947266 5.8164062 C 16.102798 5.8321071 16.257047 5.8517343 16.410156 5.875 C 16.563266 5.8982657 16.714739 5.9263914 16.865234 5.9570312 C 17.01573 5.9876713 17.164808 6.0207698 17.3125 6.0585938 C 17.460192 6.0964175 17.605303 6.1387763 17.75 6.1835938 C 17.894697 6.228411 18.038175 6.2765045 18.179688 6.328125 C 18.321198 6.3797455 18.461472 6.4339543 18.599609 6.4921875 C 18.737746 6.5504207 18.875194 6.613079 19.009766 6.6777344 C 19.144337 6.7423898 19.275435 6.8099722 19.40625 6.8808594 C 19.537065 6.9517465 19.6661 7.024634 19.792969 7.1015625 C 19.919837 7.178491 20.045237 7.2590174 20.167969 7.3417969 C 20.2907 7.4245763 20.410893 7.5092165 20.529297 7.5976562 C 20.647701 7.6860962 20.76502 7.7771837 20.878906 7.8710938 C 20.992792 7.9650036 21.103713 8.0629197 21.212891 8.1621094 C 21.322068 8.261299 21.428924 8.362518 21.533203 8.4667969 C 21.637482 8.5710757 21.738701 8.6779318 21.837891 8.7871094 C 21.93708 8.896287 22.034996 9.0072078 22.128906 9.1210938 C 22.222816 9.2349795 22.313904 9.3522992 22.402344 9.4707031 C 22.490784 9.589107 22.575424 9.7093001 22.658203 9.8320312 C 22.740983 9.9547626 22.821509 10.080163 22.898438 10.207031 C 22.975364 10.3339 23.048253 10.462935 23.119141 10.59375 C 23.190028 10.724565 23.25761 10.855663 23.322266 10.990234 C 23.386921 11.124806 23.449581 11.262254 23.507812 11.400391 C 23.566046 11.538528 23.620254 11.678802 23.671875 11.820312 C 23.723496 11.961825 23.771589 12.105303 23.816406 12.25 C 23.861224 12.394697 23.903582 12.539808 23.941406 12.6875 C 23.97923 12.835192 24.012329 12.98427 24.042969 13.134766 C 24.073609 13.285261 24.101734 13.436734 24.125 13.589844 C 24.148266 13.742953 24.167893 13.897202 24.183594 14.052734 C 24.199295 14.208267 24.210804 14.365672 24.21875 14.523438 C 24.226696 14.681201 24.230469 14.840192 24.230469 15 C 24.230469 15.159808 24.226696 15.318799 24.21875 15.476562 C 24.210804 15.634328 24.199295 15.791733 24.183594 15.947266 C 24.167893 16.102798 24.148266 16.257047 24.125 16.410156 C 24.101734 16.563266 24.073609 16.714739 24.042969 16.865234 C 24.012329 17.01573 23.97923 17.164808 23.941406 17.3125 C 23.903582 17.460192 23.861224 17.605303 23.816406 17.75 C 23.771589 17.894697 23.723496 18.038175 23.671875 18.179688 C 23.620254 18.321198 23.566046 18.461472 23.507812 18.599609 C 23.449581 18.737746 23.386921 18.875194 23.322266 19.009766 C 23.25761 19.144337 23.190028 19.275435 23.119141 19.40625 C 23.048253 19.537065 22.975364 19.6661 22.898438 19.792969 C 22.821509 19.919837 22.740983 20.045237 22.658203 20.167969 C 22.575424 20.2907 22.490784 20.410893 22.402344 20.529297 C 22.313904 20.647701 22.222816 20.76502 22.128906 20.878906 C 22.034996 20.992792 21.93708 21.103713 21.837891 21.212891 C 21.738701 21.322068 21.637482 21.428924 21.533203 21.533203 C 21.428924 21.637482 21.322068 21.738701 21.212891 21.837891 C 21.103713 21.93708 20.992792 22.034996 20.878906 22.128906 C 20.76502 22.222816 20.647701 22.313904 20.529297 22.402344 C 20.410893 22.490784 20.2907 22.575424 20.167969 22.658203 C 20.045237 22.740983 19.919837 22.821509 19.792969 22.898438 C 19.6661 22.975364 19.537065 23.048253 19.40625 23.119141 C 19.275435 23.190028 19.144337 23.25761 19.009766 23.322266 C 18.875194 23.386921 18.737746 23.449581 18.599609 23.507812 C 18.461472 23.566046 18.321198 23.620254 18.179688 23.671875 C 18.038175 23.723496 17.894697 23.771589 17.75 23.816406 C 17.605303 23.861224 17.460192 23.903582 17.3125 23.941406 C 17.164808 23.97923 17.01573 24.012329 16.865234 24.042969 C 16.714739 24.073609 16.563266 24.101734 16.410156 24.125 C 16.257047 24.148266 16.102798 24.167893 15.947266 24.183594 C 15.791733 24.199295 15.634328 24.210804 15.476562 24.21875 C 15.318799 24.226696 15.159808 24.230469 15 24.230469 C 14.840192 24.230469 14.681201 24.226696 14.523438 24.21875 C 14.365672 24.210804 14.208267 24.199295 14.052734 24.183594 C 13.897202 24.167893 13.742953 24.148266 13.589844 24.125 C 13.436734 24.101734 13.285261 24.073609 13.134766 24.042969 C 12.98427 24.012329 12.835192 23.97923 12.6875 23.941406 C 12.539808 23.903582 12.394697 23.861224 12.25 23.816406 C 12.105303 23.771589 11.961825 23.723496 11.820312 23.671875 C 11.678802 23.620254 11.538528 23.566046 11.400391 23.507812 C 11.262254 23.449581 11.124806 23.386921 10.990234 23.322266 C 10.855663 23.25761 10.724565 23.190028 10.59375 23.119141 C 10.462935 23.048253 10.3339 22.975364 10.207031 22.898438 C 10.080163 22.821509 9.9547626 22.740983 9.8320312 22.658203 C 9.7093001 22.575424 9.589107 22.490784 9.4707031 22.402344 C 9.3522992 22.313904 9.2349795 22.222816 9.1210938 22.128906 C 9.0072078 22.034996 8.896287 21.93708 8.7871094 21.837891 C 8.6779318 21.738701 8.5710757 21.637482 8.4667969 21.533203 C 8.362518 21.428924 8.261299 21.322068 8.1621094 21.212891 C 8.0629197 21.103713 7.9650036 20.992792 7.8710938 20.878906 C 7.7771837 20.76502 7.6860962 20.647701 7.5976562 20.529297 C 7.5092165 20.410893 7.4245763 20.2907 7.3417969 20.167969 C 7.2590174 20.045237 7.178491 19.919837 7.1015625 19.792969 C 7.024634 19.6661 6.9517465 19.537065 6.8808594 19.40625 C 6.8099722 19.275435 6.7423898 19.144337 6.6777344 19.009766 C 6.613079 18.875194 6.5504207 18.737746 6.4921875 18.599609 C 6.4339543 18.461472 6.3797455 18.321198 6.328125 18.179688 C 6.2765045 18.038175 6.228411 17.894697 6.1835938 17.75 C 6.1387763 17.605303 6.0964175 17.460192 6.0585938 17.3125 C 6.0207698 17.164808 5.9876713 17.01573 5.9570312 16.865234 C 5.9263914 16.714739 5.8982657 16.563266 5.875 16.410156 C 5.8517343 16.257047 5.8321071 16.102798 5.8164062 15.947266 C 5.8007056 15.791733 5.7891957 15.634328 5.78125 15.476562 C 5.7733043 15.318799 5.7695312 15.159808 5.7695312 15 C 5.7695312 14.840192 5.7733043 14.681201 5.78125 14.523438 C 5.7891957 14.365672 5.8007056 14.208267 5.8164062 14.052734 C 5.8321071 13.897202 5.8517343 13.742953 5.875 13.589844 C 5.8982657 13.436734 5.9263914 13.285261 5.9570312 13.134766 C 5.9876713 12.98427 6.0207698 12.835192 6.0585938 12.6875 C 6.0964175 12.539808 6.1387763 12.394697 6.1835938 12.25 C 6.228411 12.105303 6.2765045 11.961825 6.328125 11.820312 C 6.3797455 11.678802 6.4339543 11.538528 6.4921875 11.400391 C 6.5504207 11.262254 6.613079 11.124806 6.6777344 10.990234 C 6.7423898 10.855663 6.8099722 10.724565 6.8808594 10.59375 C 6.9517465 10.462935 7.024634 10.3339 7.1015625 10.207031 C 7.178491 10.080163 7.2590174 9.9547626 7.3417969 9.8320312 C 7.4245763 9.7093001 7.5092165 9.589107 7.5976562 9.4707031 C 7.6860962 9.3522992 7.7771837 9.2349795 7.8710938 9.1210938 C 7.9650036 9.0072078 8.0629197 8.896287 8.1621094 8.7871094 C 8.261299 8.6779318 8.362518 8.5710757 8.4667969 8.4667969 C 8.5710757 8.362518 8.6779318 8.261299 8.7871094 8.1621094 C 8.896287 8.0629197 9.0072078 7.9650036 9.1210938 7.8710938 C 9.2349795 7.7771837 9.3522992 7.6860962 9.4707031 7.5976562 C 9.589107 7.5092165 9.7093001 7.4245763 9.8320312 7.3417969 C 9.9547626 7.2590174 10.080163 7.178491 10.207031 7.1015625 C 10.3339 7.024634 10.462935 6.9517465 10.59375 6.8808594 C 10.724565 6.8099722 10.855663 6.7423898 10.990234 6.6777344 C 11.124806 6.613079 11.262254 6.5504207 11.400391 6.4921875 C 11.538528 6.4339543 11.678802 6.3797455 11.820312 6.328125 C 11.961825 6.2765045 12.105303 6.228411 12.25 6.1835938 C 12.394697 6.1387763 12.539808 6.0964175 12.6875 6.0585938 C 12.835192 6.0207698 12.98427 5.9876713 13.134766 5.9570312 C 13.285261 5.9263914 13.436734 5.8982657 13.589844 5.875 C 13.742953 5.8517343 13.897202 5.8321071 14.052734 5.8164062 C 14.208267 5.8007056 14.365672 5.7891957 14.523438 5.78125 C 14.681201 5.7733043 14.840192 5.7695312 15 5.7695312 z "
           transform="matrix(0.86666664,0,0,0.86666664,2.0000001,2.0000001)" />
        <path
           id="path1450"
           style="opacity:0.3;fill:#00acc1;fill-opacity:1;stroke:none;stroke-width:1.44231;stroke-linecap:round;stroke-linejoin:round;stroke-miterlimit:4;stroke-dasharray:none;stroke-opacity:1;paint-order:stroke markers fill"
           d="M 15 3.4609375 C 8.6076921 3.4609375 3.4609375 8.6076921 3.4609375 15 C 3.4609375 21.392308 8.6076921 26.539062 15 26.539062 C 21.392308 26.539062 26.539062 21.392308 26.539062 15 C 26.539062 8.6076921 21.392308 3.4609375 15 3.4609375 z M 15 5.7695312 C 15.159808 5.7695312 15.318798 5.7733043 15.476562 5.78125 C 15.634328 5.7891957 15.791733 5.8007055 15.947266 5.8164062 C 16.102798 5.8321071 16.257047 5.8517343 16.410156 5.875 C 16.563266 5.8982657 16.714739 5.9263913 16.865234 5.9570312 C 17.01573 5.9876713 17.164808 6.0207698 17.3125 6.0585938 C 17.460192 6.0964176 17.605303 6.1387763 17.75 6.1835938 C 17.894697 6.2284111 18.038175 6.2765045 18.179688 6.328125 C 18.321199 6.3797455 18.461472 6.4339543 18.599609 6.4921875 C 18.737746 6.5504207 18.875194 6.613079 19.009766 6.6777344 C 19.144337 6.7423898 19.275435 6.8099722 19.40625 6.8808594 C 19.537065 6.9517465 19.6661 7.024634 19.792969 7.1015625 C 19.919837 7.178491 20.045237 7.2590174 20.167969 7.3417969 C 20.2907 7.4245763 20.410893 7.5092164 20.529297 7.5976562 C 20.647701 7.6860962 20.76502 7.7771837 20.878906 7.8710938 C 20.992792 7.9650037 21.103713 8.0629197 21.212891 8.1621094 C 21.322068 8.261299 21.428924 8.362518 21.533203 8.4667969 C 21.637482 8.5710757 21.738701 8.6779318 21.837891 8.7871094 C 21.93708 8.896287 22.034996 9.0072078 22.128906 9.1210938 C 22.222816 9.2349796 22.313904 9.3522992 22.402344 9.4707031 C 22.490784 9.589107 22.575424 9.7093 22.658203 9.8320312 C 22.740983 9.9547626 22.821509 10.080163 22.898438 10.207031 C 22.975365 10.3339 23.048253 10.462935 23.119141 10.59375 C 23.190028 10.724565 23.25761 10.855663 23.322266 10.990234 C 23.386921 11.124806 23.44958 11.262254 23.507812 11.400391 C 23.566046 11.538528 23.620254 11.678801 23.671875 11.820312 C 23.723496 11.961825 23.771589 12.105303 23.816406 12.25 C 23.861224 12.394697 23.903582 12.539808 23.941406 12.6875 C 23.97923 12.835192 24.012329 12.98427 24.042969 13.134766 C 24.073609 13.285261 24.101734 13.436734 24.125 13.589844 C 24.148266 13.742953 24.167893 13.897202 24.183594 14.052734 C 24.199295 14.208267 24.210804 14.365672 24.21875 14.523438 C 24.226696 14.681202 24.230469 14.840192 24.230469 15 C 24.230469 15.159808 24.226696 15.318798 24.21875 15.476562 C 24.210804 15.634328 24.199295 15.791733 24.183594 15.947266 C 24.167893 16.102798 24.148266 16.257047 24.125 16.410156 C 24.101734 16.563266 24.073609 16.714739 24.042969 16.865234 C 24.012329 17.01573 23.97923 17.164808 23.941406 17.3125 C 23.903582 17.460192 23.861224 17.605303 23.816406 17.75 C 23.771589 17.894697 23.723496 18.038175 23.671875 18.179688 C 23.620254 18.321199 23.566046 18.461472 23.507812 18.599609 C 23.44958 18.737746 23.386921 18.875194 23.322266 19.009766 C 23.25761 19.144337 23.190028 19.275435 23.119141 19.40625 C 23.048253 19.537065 22.975365 19.6661 22.898438 19.792969 C 22.821509 19.919837 22.740983 20.045237 22.658203 20.167969 C 22.575424 20.2907 22.490784 20.410893 22.402344 20.529297 C 22.313904 20.647701 22.222816 20.76502 22.128906 20.878906 C 22.034996 20.992792 21.93708 21.103713 21.837891 21.212891 C 21.738701 21.322068 21.637482 21.428924 21.533203 21.533203 C 21.428924 21.637482 21.322068 21.738701 21.212891 21.837891 C 21.103713 21.93708 20.992792 22.034996 20.878906 22.128906 C 20.76502 22.222816 20.647701 22.313904 20.529297 22.402344 C 20.410893 22.490784 20.2907 22.575424 20.167969 22.658203 C 20.045237 22.740983 19.919837 22.821509 19.792969 22.898438 C 19.6661 22.975365 19.537065 23.048253 19.40625 23.119141 C 19.275435 23.190028 19.144337 23.25761 19.009766 23.322266 C 18.875194 23.386921 18.737746 23.44958 18.599609 23.507812 C 18.461472 23.566046 18.321199 23.620254 18.179688 23.671875 C 18.038175 23.723496 17.894697 23.771589 17.75 23.816406 C 17.605303 23.861224 17.460192 23.903582 17.3125 23.941406 C 17.164808 23.97923 17.01573 24.012329 16.865234 24.042969 C 16.714739 24.073609 16.563266 24.101734 16.410156 24.125 C 16.257047 24.148266 16.102798 24.167893 15.947266 24.183594 C 15.791733 24.199295 15.634328 24.210804 15.476562 24.21875 C 15.318798 24.226696 15.159808 24.230469 15 24.230469 C 14.840192 24.230469 14.681202 24.226696 14.523438 24.21875 C 14.365672 24.210804 14.208267 24.199295 14.052734 24.183594 C 13.897202 24.167893 13.742953 24.148266 13.589844 24.125 C 13.436734 24.101734 13.285261 24.073609 13.134766 24.042969 C 12.98427 24.012329 12.835192 23.97923 12.6875 23.941406 C 12.539808 23.903582 12.394697 23.861224 12.25 23.816406 C 12.105303 23.771589 11.961825 23.723496 11.820312 23.671875 C 11.678801 23.620254 11.538528 23.566046 11.400391 23.507812 C 11.262254 23.44958 11.124806 23.386921 10.990234 23.322266 C 10.855663 23.25761 10.724565 23.190028 10.59375 23.119141 C 10.462935 23.048253 10.3339 22.975365 10.207031 22.898438 C 10.080163 22.821509 9.9547626 22.740983 9.8320312 22.658203 C 9.7093 22.575424 9.589107 22.490784 9.4707031 22.402344 C 9.3522992 22.313904 9.2349796 22.222816 9.1210938 22.128906 C 9.0072078 22.034996 8.896287 21.93708 8.7871094 21.837891 C 8.6779318 21.738701 8.5710757 21.637482 8.4667969 21.533203 C 8.362518 21.428924 8.261299 21.322068 8.1621094 21.212891 C 8.0629197 21.103713 7.9650037 20.992792 7.8710938 20.878906 C 7.7771837 20.76502 7.6860962 20.647701 7.5976562 20.529297 C 7.5092164 20.410893 7.4245763 20.2907 7.3417969 20.167969 C 7.2590174 20.045237 7.178491 19.919837 7.1015625 19.792969 C 7.024634 19.6661 6.9517465 19.537065 6.8808594 19.40625 C 6.8099722 19.275435 6.7423898 19.144337 6.6777344 19.009766 C 6.613079 18.875194 6.5504207 18.737746 6.4921875 18.599609 C 6.4339543 18.461472 6.3797455 18.321199 6.328125 18.179688 C 6.2765045 18.038175 6.2284111 17.894697 6.1835938 17.75 C 6.1387763 17.605303 6.0964176 17.460192 6.0585938 17.3125 C 6.0207698 17.164808 5.9876713 17.01573 5.9570312 16.865234 C 5.9263913 16.714739 5.8982657 16.563266 5.875 16.410156 C 5.8517343 16.257047 5.8321071 16.102798 5.8164062 15.947266 C 5.8007055 15.791733 5.7891957 15.634328 5.78125 15.476562 C 5.7733043 15.318798 5.7695312 15.159808 5.7695312 15 C 5.7695312 14.840192 5.7733043 14.681202 5.78125 14.523438 C 5.7891957 14.365672 5.8007055 14.208267 5.8164062 14.052734 C 5.8321071 13.897202 5.8517343 13.742953 5.875 13.589844 C 5.8982657 13.436734 5.9263913 13.285261 5.9570312 13.134766 C 5.9876713 12.98427 6.0207698 12.835192 6.0585938 12.6875 C 6.0964176 12.539808 6.1387763 12.394697 6.1835938 12.25 C 6.2284111 12.105303 6.2765045 11.961825 6.328125 11.820312 C 6.3797455 11.678801 6.4339543 11.538528 6.4921875 11.400391 C 6.5504207 11.262254 6.613079 11.124806 6.6777344 10.990234 C 6.7423898 10.855663 6.8099722 10.724565 6.8808594 10.59375 C 6.9517465 10.462935 7.024634 10.3339 7.1015625 10.207031 C 7.178491 10.080163 7.2590174 9.9547626 7.3417969 9.8320312 C 7.4245763 9.7093 7.5092164 9.589107 7.5976562 9.4707031 C 7.6860962 9.3522992 7.7771837 9.2349796 7.8710938 9.1210938 C 7.9650037 9.0072078 8.0629197 8.896287 8.1621094 8.7871094 C 8.261299 8.6779318 8.362518 8.5710757 8.4667969 8.4667969 C 8.5710757 8.362518 8.6779318 8.261299 8.7871094 8.1621094 C 8.896287 8.0629197 9.0072078 7.9650037 9.1210938 7.8710938 C 9.2349796 7.7771837 9.3522992 7.6860962 9.4707031 7.5976562 C 9.589107 7.5092164 9.7093 7.4245763 9.8320312 7.3417969 C 9.9547626 7.2590174 10.080163 7.178491 10.207031 7.1015625 C 10.3339 7.024634 10.462935 6.9517465 10.59375 6.8808594 C 10.724565 6.8099722 10.855663 6.7423898 10.990234 6.6777344 C 11.124806 6.613079 11.262254 6.5504207 11.400391 6.4921875 C 11.538528 6.4339543 11.678801 6.3797455 11.820312 6.328125 C 11.961825 6.2765045 12.105303 6.2284111 12.25 6.1835938 C 12.394697 6.1387763 12.539808 6.0964176 12.6875 6.0585938 C 12.835192 6.0207698 12.98427 5.9876713 13.134766 5.9570312 C 13.285261 5.9263913 13.436734 5.8982657 13.589844 5.875 C 13.742953 5.8517343 13.897202 5.8321071 14.052734 5.8164062 C 14.208267 5.8007055 14.365672 5.7891957 14.523438 5.78125 C 14.681202 5.7733043 14.840192 5.7695312 15 5.7695312 z "
           transform="matrix(0.86666664,0,0,0.86666664,2.0000001,2.0000001)" />
        <path
           id="path1447"
           style="opacity:1;fill:#00acc1;fill-opacity:1;stroke:none;stroke-width:1.29808;stroke-linecap:round;stroke-linejoin:round;stroke-miterlimit:4;stroke-dasharray:none;stroke-opacity:1;paint-order:stroke markers fill"
           d="M 15 4.6152344 C 9.2469229 4.6152344 4.6152344 9.2469229 4.6152344 15 C 4.6152344 20.753077 9.2469229 25.384766 15 25.384766 C 20.753077 25.384766 25.384766 20.753077 25.384766 15 C 25.384766 9.2469229 20.753077 4.6152344 15 4.6152344 z M 15 5.7695312 C 15.159808 5.7695312 15.318797 5.7733043 15.476562 5.78125 C 15.634328 5.7891957 15.791733 5.8007054 15.947266 5.8164062 C 16.102798 5.8321071 16.257047 5.8517343 16.410156 5.875 C 16.563266 5.8982657 16.714739 5.9263912 16.865234 5.9570312 C 17.01573 5.9876713 17.164808 6.0207698 17.3125 6.0585938 C 17.460192 6.0964177 17.605303 6.1387763 17.75 6.1835938 C 17.894697 6.2284112 18.038175 6.2765045 18.179688 6.328125 C 18.3212 6.3797455 18.461472 6.4339543 18.599609 6.4921875 C 18.737746 6.5504207 18.875194 6.613079 19.009766 6.6777344 C 19.144337 6.7423898 19.275435 6.8099722 19.40625 6.8808594 C 19.537065 6.9517465 19.6661 7.024634 19.792969 7.1015625 C 19.919837 7.178491 20.045237 7.2590174 20.167969 7.3417969 C 20.2907 7.4245763 20.410893 7.5092163 20.529297 7.5976562 C 20.647701 7.6860962 20.76502 7.7771837 20.878906 7.8710938 C 20.992792 7.9650038 21.103713 8.0629197 21.212891 8.1621094 C 21.322068 8.261299 21.428924 8.362518 21.533203 8.4667969 C 21.637482 8.5710757 21.738701 8.6779318 21.837891 8.7871094 C 21.93708 8.896287 22.034996 9.0072078 22.128906 9.1210938 C 22.222816 9.2349797 22.313904 9.3522992 22.402344 9.4707031 C 22.490784 9.589107 22.575424 9.7092999 22.658203 9.8320312 C 22.740983 9.9547626 22.821509 10.080163 22.898438 10.207031 C 22.975366 10.3339 23.048253 10.462935 23.119141 10.59375 C 23.190028 10.724565 23.25761 10.855663 23.322266 10.990234 C 23.386921 11.124806 23.449579 11.262254 23.507812 11.400391 C 23.566046 11.538528 23.620254 11.6788 23.671875 11.820312 C 23.723496 11.961825 23.771589 12.105303 23.816406 12.25 C 23.861224 12.394697 23.903582 12.539808 23.941406 12.6875 C 23.97923 12.835192 24.012329 12.98427 24.042969 13.134766 C 24.073609 13.285261 24.101734 13.436734 24.125 13.589844 C 24.148266 13.742953 24.167893 13.897202 24.183594 14.052734 C 24.199295 14.208267 24.210804 14.365672 24.21875 14.523438 C 24.226696 14.681203 24.230469 14.840192 24.230469 15 C 24.230469 15.159808 24.226696 15.318797 24.21875 15.476562 C 24.210804 15.634328 24.199295 15.791733 24.183594 15.947266 C 24.167893 16.102798 24.148266 16.257047 24.125 16.410156 C 24.101734 16.563266 24.073609 16.714739 24.042969 16.865234 C 24.012329 17.01573 23.97923 17.164808 23.941406 17.3125 C 23.903582 17.460192 23.861224 17.605303 23.816406 17.75 C 23.771589 17.894697 23.723496 18.038175 23.671875 18.179688 C 23.620254 18.3212 23.566046 18.461472 23.507812 18.599609 C 23.449579 18.737746 23.386921 18.875194 23.322266 19.009766 C 23.25761 19.144337 23.190028 19.275435 23.119141 19.40625 C 23.048253 19.537065 22.975366 19.6661 22.898438 19.792969 C 22.821509 19.919837 22.740983 20.045237 22.658203 20.167969 C 22.575424 20.2907 22.490784 20.410893 22.402344 20.529297 C 22.313904 20.647701 22.222816 20.76502 22.128906 20.878906 C 22.034996 20.992792 21.93708 21.103713 21.837891 21.212891 C 21.738701 21.322068 21.637482 21.428924 21.533203 21.533203 C 21.428924 21.637482 21.322068 21.738701 21.212891 21.837891 C 21.103713 21.93708 20.992792 22.034996 20.878906 22.128906 C 20.76502 22.222816 20.647701 22.313904 20.529297 22.402344 C 20.410893 22.490784 20.2907 22.575424 20.167969 22.658203 C 20.045237 22.740983 19.919837 22.821509 19.792969 22.898438 C 19.6661 22.975366 19.537065 23.048253 19.40625 23.119141 C 19.275435 23.190028 19.144337 23.25761 19.009766 23.322266 C 18.875194 23.386921 18.737746 23.449579 18.599609 23.507812 C 18.461472 23.566046 18.3212 23.620254 18.179688 23.671875 C 18.038175 23.723496 17.894697 23.771589 17.75 23.816406 C 17.605303 23.861224 17.460192 23.903582 17.3125 23.941406 C 17.164808 23.97923 17.01573 24.012329 16.865234 24.042969 C 16.714739 24.073609 16.563266 24.101734 16.410156 24.125 C 16.257047 24.148266 16.102798 24.167893 15.947266 24.183594 C 15.791733 24.199295 15.634328 24.210804 15.476562 24.21875 C 15.318797 24.226696 15.159808 24.230469 15 24.230469 C 14.840192 24.230469 14.681203 24.226696 14.523438 24.21875 C 14.365672 24.210804 14.208267 24.199295 14.052734 24.183594 C 13.897202 24.167893 13.742953 24.148266 13.589844 24.125 C 13.436734 24.101734 13.285261 24.073609 13.134766 24.042969 C 12.98427 24.012329 12.835192 23.97923 12.6875 23.941406 C 12.539808 23.903582 12.394697 23.861224 12.25 23.816406 C 12.105303 23.771589 11.961825 23.723496 11.820312 23.671875 C 11.6788 23.620254 11.538528 23.566046 11.400391 23.507812 C 11.262254 23.449579 11.124806 23.386921 10.990234 23.322266 C 10.855663 23.25761 10.724565 23.190028 10.59375 23.119141 C 10.462935 23.048253 10.3339 22.975366 10.207031 22.898438 C 10.080163 22.821509 9.9547626 22.740983 9.8320312 22.658203 C 9.7092999 22.575424 9.589107 22.490784 9.4707031 22.402344 C 9.3522992 22.313904 9.2349797 22.222816 9.1210938 22.128906 C 9.0072078 22.034996 8.896287 21.93708 8.7871094 21.837891 C 8.6779318 21.738701 8.5710757 21.637482 8.4667969 21.533203 C 8.362518 21.428924 8.261299 21.322068 8.1621094 21.212891 C 8.0629197 21.103713 7.9650038 20.992792 7.8710938 20.878906 C 7.7771837 20.76502 7.6860962 20.647701 7.5976562 20.529297 C 7.5092163 20.410893 7.4245763 20.2907 7.3417969 20.167969 C 7.2590174 20.045237 7.178491 19.919837 7.1015625 19.792969 C 7.024634 19.6661 6.9517465 19.537065 6.8808594 19.40625 C 6.8099722 19.275435 6.7423898 19.144337 6.6777344 19.009766 C 6.613079 18.875194 6.5504207 18.737746 6.4921875 18.599609 C 6.4339543 18.461472 6.3797455 18.3212 6.328125 18.179688 C 6.2765045 18.038175 6.2284112 17.894697 6.1835938 17.75 C 6.1387763 17.605303 6.0964177 17.460192 6.0585938 17.3125 C 6.0207698 17.164808 5.9876713 17.01573 5.9570312 16.865234 C 5.9263912 16.714739 5.8982657 16.563266 5.875 16.410156 C 5.8517343 16.257047 5.8321071 16.102798 5.8164062 15.947266 C 5.8007054 15.791733 5.7891957 15.634328 5.78125 15.476562 C 5.7733043 15.318797 5.7695312 15.159808 5.7695312 15 C 5.7695312 14.840192 5.7733043 14.681203 5.78125 14.523438 C 5.7891957 14.365672 5.8007054 14.208267 5.8164062 14.052734 C 5.8321071 13.897202 5.8517343 13.742953 5.875 13.589844 C 5.8982657 13.436734 5.9263912 13.285261 5.9570312 13.134766 C 5.9876713 12.98427 6.0207698 12.835192 6.0585938 12.6875 C 6.0964177 12.539808 6.1387763 12.394697 6.1835938 12.25 C 6.2284112 12.105303 6.2765045 11.961825 6.328125 11.820312 C 6.3797455 11.6788 6.4339543 11.538528 6.4921875 11.400391 C 6.5504207 11.262254 6.613079 11.124806 6.6777344 10.990234 C 6.7423898 10.855663 6.8099722 10.724565 6.8808594 10.59375 C 6.9517465 10.462935 7.024634 10.3339 7.1015625 10.207031 C 7.178491 10.080163 7.2590174 9.9547626 7.3417969 9.8320312 C 7.4245763 9.7092999 7.5092163 9.589107 7.5976562 9.4707031 C 7.6860962 9.3522992 7.7771837 9.2349797 7.8710938 9.1210938 C 7.9650038 9.0072078 8.0629197 8.896287 8.1621094 8.7871094 C 8.261299 8.6779318 8.362518 8.5710757 8.4667969 8.4667969 C 8.5710757 8.362518 8.6779318 8.261299 8.7871094 8.1621094 C 8.896287 8.0629197 9.0072078 7.9650038 9.1210938 7.8710938 C 9.2349797 7.7771837 9.3522992 7.6860962 9.4707031 7.5976562 C 9.589107 7.5092163 9.7092999 7.4245763 9.8320312 7.3417969 C 9.9547626 7.2590174 10.080163 7.178491 10.207031 7.1015625 C 10.3339 7.024634 10.462935 6.9517465 10.59375 6.8808594 C 10.724565 6.8099722 10.855663 6.7423898 10.990234 6.6777344 C 11.124806 6.613079 11.262254 6.5504207 11.400391 6.4921875 C 11.538528 6.4339543 11.6788 6.3797455 11.820312 6.328125 C 11.961825 6.2765045 12.105303 6.2284112 12.25 6.1835938 C 12.394697 6.1387763 12.539808 6.0964177 12.6875 6.0585938 C 12.835192 6.0207698 12.98427 5.9876713 13.134766 5.9570312 C 13.285261 5.9263912 13.436734 5.8982657 13.589844 5.875 C 13.742953 5.8517343 13.897202 5.8321071 14.052734 5.8164062 C 14.208267 5.8007054 14.365672 5.7891957 14.523438 5.78125 C 14.681203 5.7733043 14.840192 5.7695312 15 5.7695312 z "
           transform="matrix(0.86666664,0,0,0.86666664,2.0000001,2.0000001)" />
        <path
           style="fill:#26c6da;fill-opacity:1;fill-rule:evenodd;stroke:#26c6da;stroke-width:2;stroke-linecap:round;stroke-linejoin:round;stroke-miterlimit:4;stroke-dasharray:none;stroke-opacity:1"
           d="m 11.999879,14.000067 3,4 3,-4 z"
           id="path1012"
           inkscape:connector-curvature="0"
           sodipodi:nodetypes="cccc" />
      </g>
    </g>
  </g>
</svg>
