<?xml version="1.0" encoding="UTF-8" standalone="no"?>
<!-- Created with Inkscape (http://www.inkscape.org/) -->

<svg
   xmlns:dc="http://purl.org/dc/elements/1.1/"
   xmlns:cc="http://creativecommons.org/ns#"
   xmlns:rdf="http://www.w3.org/1999/02/22-rdf-syntax-ns#"
   xmlns:svg="http://www.w3.org/2000/svg"
   xmlns="http://www.w3.org/2000/svg"
   xmlns:xlink="http://www.w3.org/1999/xlink"
   xmlns:sodipodi="http://sodipodi.sourceforge.net/DTD/sodipodi-0.dtd"
   xmlns:inkscape="http://www.inkscape.org/namespaces/inkscape"
   width="24"
   height="18"
   id="svg7568"
   version="1.1"
   inkscape:version="0.48.3.1 r9886"
   sodipodi:docname="minimize.svg">
  <defs
     id="defs7570">
    <linearGradient
       id="linearGradient4474-8-8">
      <stop
         id="stop4476-3-7"
         offset="0"
         style="stop-color:#f2f5f7;stop-opacity:1;" />
      <stop
         style="stop-color:#e2e8eb;stop-opacity:1;"
         offset="0.5"
         id="stop4478-6-7" />
      <stop
         style="stop-color:#dceff2;stop-opacity:1;"
         offset="1"
         id="stop4480-0-2" />
    </linearGradient>
    <linearGradient
       id="linearGradient4474">
      <stop
         id="stop4476"
         offset="0"
         style="stop-color:#f2f5f7;stop-opacity:1;" />
      <stop
         style="stop-color:#e2e8eb;stop-opacity:1;"
         offset="0.5"
         id="stop4478" />
      <stop
         style="stop-color:#dceff2;stop-opacity:1;"
         offset="1"
         id="stop4480" />
    </linearGradient>
    <linearGradient
       id="linearGradient3766">
      <stop
         style="stop-color:#f8e9e8;stop-opacity:1;"
         offset="0"
         id="stop3768" />
      <stop
         id="stop3786"
         offset="0.5"
         style="stop-color:#edcccb;stop-opacity:1;" />
      <stop
         id="stop3780"
         offset="1"
         style="stop-color:#f2d8d8;stop-opacity:1;" />
    </linearGradient>
    <linearGradient
       inkscape:collect="always"
       xlink:href="#linearGradient4474"
       id="linearGradient7897"
       gradientUnits="userSpaceOnUse"
       gradientTransform="translate(129.87229,-28.548375)"
       x1="403.59393"
       y1="353.57285"
       x2="403.58627"
       y2="373.54861" />
    <linearGradient
       inkscape:collect="always"
       xlink:href="#linearGradient4474-8-8"
       id="linearGradient7899"
       gradientUnits="userSpaceOnUse"
       x1="403.59393"
       y1="353.57285"
       x2="403.58627"
       y2="373.54861" />
    <radialGradient
       inkscape:collect="always"
       xlink:href="#linearGradient3766"
       id="radialGradient7901"
       gradientUnits="userSpaceOnUse"
       gradientTransform="matrix(1.8601827,0.01927972,-0.01507272,1.4449696,-900.06463,-497.44714)"
       cx="482.27145"
       cy="348.03741"
       fx="482.27145"
       fy="348.03741"
       r="11.458918" />
    <linearGradient
       inkscape:collect="always"
       xlink:href="#linearGradient4474-8-8-7"
       id="linearGradient7899-1"
       gradientUnits="userSpaceOnUse"
       x1="403.59393"
       y1="353.57285"
       x2="403.58627"
       y2="373.54861" />
    <linearGradient
       id="linearGradient4474-8-8-7">
      <stop
         id="stop4476-3-7-0"
         offset="0"
         style="stop-color:#f2f5f7;stop-opacity:1;" />
      <stop
         style="stop-color:#e2e8eb;stop-opacity:1;"
         offset="0.5"
         id="stop4478-6-7-2" />
      <stop
         style="stop-color:#dceff2;stop-opacity:1;"
         offset="1"
         id="stop4480-0-2-4" />
    </linearGradient>
  </defs>
  <sodipodi:namedview
     id="base"
     pagecolor="#ffffff"
     bordercolor="#666666"
     borderopacity="1.0"
     inkscape:pageopacity="0.0"
     inkscape:pageshadow="2"
     inkscape:zoom="0.98975522"
     inkscape:cx="-139.64956"
     inkscape:cy="93.877919"
     inkscape:current-layer="g5682"
     showgrid="true"
     inkscape:grid-bbox="true"
     inkscape:document-units="px"
     inkscape:window-width="1024"
     inkscape:window-height="717"
     inkscape:window-x="0"
     inkscape:window-y="22"
     inkscape:window-maximized="1" />
  <metadata
     id="metadata7573">
    <rdf:RDF>
      <cc:Work
         rdf:about="">
        <dc:format>image/svg+xml</dc:format>
        <dc:type
           rdf:resource="http://purl.org/dc/dcmitype/StillImage" />
        <dc:title />
      </cc:Work>
    </rdf:RDF>
  </metadata>
  <g
     inkscape:groupmode="layer"
     id="layer7"
     inkscape:label="Layer"
     transform="translate(0,-4)">
    <g
       id="g7837"
       transform="translate(-36.468784,-15.777418)">
      <g
         transform="translate(-507.28122,-307.09175)"
         id="g5682">
        <g
           transform="translate(152.46659,-26.512341)"
           id="g4399-6-1-7">
          <rect
             style="fill:#ffffff;fill-opacity:1;fill-rule:evenodd;stroke:none;display:inline"
             id="rect2996-4-8-3-8"
             width="22.941639"
             height="14.886998"
             x="391.80322"
             y="356.18832"
             rx="2.1352251"
             ry="2.2410653" />
          <rect
             style="fill:url(#linearGradient7899-1);fill-opacity:1;fill-rule:evenodd;stroke:#746b6b;stroke-width:0.95895909999999995;stroke-opacity:1;display:inline"
             id="rect2996-6-8-5"
             width="22.102699"
             height="15.110164"
             x="392.2294"
             y="354.59143"
             rx="2.0571432"
             ry="2.2746606" />
          <g
             transform="matrix(0.96443225,0,0,0.95351705,-73.045009,26.510154)"
             id="g3819-6-2-7"
             style="fill:#e9efef;fill-opacity:0.95906432;display:inline">
            <path
               style="fill:#e9efef;fill-opacity:0.95906432;fill-rule:evenodd;stroke:none"
               d="m 483.09673,358.29705 c -0.16974,-0.21968 -0.0893,-1.14635 -0.0893,-1.14635 l 0,-1.76855 0,-1.76858 0,-1.76855 0,-1.76856 0,-1.76855 c 0,0 0,-1.17904 0,-1.76856 0,-0.58952 -0.0869,-0.97277 0.16741,-1.23057 0.25435,-0.25779 0.48071,-0.35542 0.68201,-0.44305 0.2013,-0.0876 0.42532,-0.0949 0.42532,-0.0949 l -0.0335,14.2153 c 0,0 -0.37888,-0.0967 -0.53693,-0.17827 -0.56762,-0.29301 -0.51857,-0.38593 -0.61504,-0.51078 z"
               id="rect3796-0-8-4-3"
               inkscape:connector-curvature="0"
               sodipodi:nodetypes="ccccccczzzccssc" />
          </g>
          <g
             transform="matrix(-0.96443225,0,0,-0.95351705,878.66705,697.90056)"
             id="g3819-2-1-2-9"
             style="fill:#e9efef;fill-opacity:0.96078431;display:inline">
            <path
               style="fill:#e9efef;fill-opacity:0.96078431;fill-rule:evenodd;stroke:none"
               d="m 482.23652,345.56251 c -0.16974,0.21968 -0.0893,1.14635 -0.0893,1.14635 l 0,1.76855 0,1.76858 0,1.76855 0,1.76856 0,1.76855 c 0,0 0,1.17904 0,1.76856 0,0.58952 -0.0869,0.97277 0.16741,1.23057 0.25435,0.25779 0.48071,0.35542 0.68201,0.44305 0.2013,0.0876 0.42532,0.0949 0.42532,0.0949 l -0.0335,-14.2153 c 0,0 -0.37888,0.0967 -0.53693,0.17827 -0.56762,0.29301 -0.51857,0.38593 -0.61504,0.51078 z"
               id="rect3796-0-4-7-5-0"
               inkscape:connector-curvature="0"
               sodipodi:nodetypes="ccccccczzzccssc" />
          </g>
          <path
             style="fill:#f7fffe;fill-opacity:0.54970757;fill-rule:evenodd;stroke:none;display:inline"
             d="m 393.80472,355.15111 c 0.32383,-0.16185 1.68976,-0.0851 1.68976,-0.0851 l 2.60689,0 2.60691,0 2.6069,0 2.60689,0 2.6069,0 c 0,0 1.73792,0 2.60688,0 0.86898,0 1.43391,-0.0829 1.81391,0.15963 0.37999,0.24253 0.52389,0.45837 0.65305,0.65031 0.12917,0.19194 0.13993,0.40555 0.13993,0.40555 l -20.95369,-0.0319 c 0,0 0.14253,-0.36127 0.26278,-0.51198 0.43191,-0.54123 0.56886,-0.49446 0.75289,-0.58645 z"
             id="rect3796-5-6-2"
             inkscape:connector-curvature="0"
             sodipodi:nodetypes="ccccccczzzccssc" />
        </g>
        <g
           id="g5442"
           transform="matrix(0.34685745,0,0,0.50155658,551.80025,305.74374)">
          <rect
             rx="1.2546721"
             ry="1.1397879"
             y="61.956146"
             x="4.5367346"
             height="3.6944852"
             width="13.422072"
             id="rect5412"
             style="fill:#ffffff;fill-opacity:1;fill-rule:nonzero;stroke:none" />
        </g>
        <rect
           style="fill:#746b6b;fill-opacity:1;fill-rule:nonzero;stroke:none"
           id="rect5412-7"
           width="4.7473135"
           height="1.7445633"
           x="553.3313"
           y="336.11005"
           ry="0.53821641"
           rx="0.44377062" />
      </g>
    </g>
  </g>
</svg>
